<?xml version="1.0" standalone="no"?>
<!DOCTYPE svg PUBLIC "-//W3C//DTD SVG 1.1//EN" "http://www.w3.org/Graphics/SVG/1.1/DTD/svg11.dtd" >
<svg>
<defs>
<font id="BetecknaGS" horiz-adv-x="250" >
<font-face units-per-em="100" ascent="80" descent="-20" />
<glyph unicode=" " horiz-adv-x="35.100000000000001" d="" />
<glyph unicode="!" horiz-adv-x="23.800000000000001" d="M7.400000000000000 69.299999999999997 C9.649999999999977 69.300000000000011 14.149999999999977 69.300000000000011 16.399999999999977 69.300000000000011 C16.274999999999977 58.275000000000006 16.024999999999977 36.224999999999994 15.899999999999977 25.199999999999989 C13.625000000000000 25.199999999999989 9.074999999999989 25.199999999999989 6.800000000000011 25.199999999999989 C6.949999999999989 36.224999999999994 7.250000000000000 58.275000000000006 7.399999999999977 69.300000000000011 zM5.400000000000000 6.000000000000000 Q5.399999999999977 8.699999999999989 7.199999999999989 10.250000000000000 Q9.000000000000000 11.800000000000011 11.199999999999989 11.800000000000011 Q13.399999999999977 11.900000000000006 15.199999999999989 10.400000000000006 Q17.000000000000000 8.900000000000006 17.000000000000000 6.199999999999989 Q17.000000000000000 3.300000000000011 15.199999999999989 1.650000000000006 Q13.399999999999977 0.000000000000000 11.199999999999989 0.000000000000000 Q9.000000000000000 0.000000000000000 7.199999999999989 1.599999999999994 Q5.399999999999977 3.199999999999989 5.399999999999977 6.000000000000000 z" />
<glyph unicode="&#x22;" horiz-adv-x="30.639999999999993" d="M15.320000000000000 75.067999999999998 Q19.916000000000018 75.067999999999984 21.448000000000000 75.067999999999984 C21.448000000000000 67.925241379333329 21.448000000000000 58.996793103500011 21.448000000000000 53.639724137999991 C19.916000000000018 53.639724137999991 16.851999999999997 53.639724137999991 15.320000000000014 53.639724137999991 Q15.320000000000014 62.831724137999998 15.320000000000014 75.067999999999984 zM3.064000000000000 75.087724137899997 Q7.659999999999989 75.087724137900011 9.191999999999972 75.087724137900011 C9.191999999999972 67.944965517233328 9.191999999999972 59.016517241399981 9.191999999999972 53.659448275899990 C7.659999999999989 53.659448275899990 4.596000000000025 53.659448275899990 3.063999999999986 53.659448275899990 Q3.063999999999986 62.851448275899997 3.063999999999986 75.087724137900011 z" />
<glyph unicode="#" horiz-adv-x="62.811999999999927" d="M28.978689655200000 69.954758620700005 C24.415017241399994 52.466068965525011 15.287672413800010 17.488689655174994 10.723999999999990 0.000000000000000 C8.425999999999988 0.000000000000000 3.829999999999984 0.000000000000000 1.531999999999982 0.000000000000000 C6.095672413800003 17.488689655174994 15.223017241399987 52.466068965525011 19.786689655200007 69.954758620700005 C22.084689655200009 69.954758620700005 26.680689655200013 69.954758620700005 28.978689655200014 69.954758620700005 zM58.706896551699998 69.825448275900001 C53.988172413775033 52.369086206925004 44.550724137924988 17.456362068975011 39.831999999999994 0.000000000000000 C37.571873126275023 -0.019408997750020 33.051619378825023 -0.058226993250003 30.791492505099995 -0.077635990999994 C35.349619378824968 17.398135075725008 44.465873126275028 52.349677209175013 49.024000000000001 69.825448275899987 C51.444724137924993 69.825448275899987 56.286172413774977 69.825448275899987 58.706896551699970 69.825448275899987 zM5.371862069000000 51.590482758599997 C5.371862068999974 51.590482758599990 5.371862068999974 51.590482758599990 5.371862068999974 51.590482758599990 C19.578465517274992 51.590482758599990 47.991672413824972 51.590482758599990 62.198275862099990 51.590482758599990 C61.588982758649991 49.675482758599998 60.370396551749991 45.845482758599985 59.761103448299991 43.930482758599993 C45.780793103474991 43.930482758599993 17.820172413824992 43.930482758599993 3.839862068999992 43.930482758599993 C4.222862068999973 45.845482758599985 4.988862068999993 49.675482758599998 5.371862068999974 51.590482758599990 zM57.091655172400003 26.819862068999999 C56.606741379299990 24.904862068999989 55.636913793100007 21.074862069000005 55.151999999999987 19.159862068999985 C40.980999999999995 19.159862068999985 12.639000000000010 19.159862068999985 -1.531999999999982 19.159862068999985 C-1.149000000000001 21.074862069000005 -0.382999999999981 24.904862068999989 0.000000000000000 26.819862069000010 C14.272913793099974 26.819862069000010 42.818741379299979 26.819862069000010 57.091655172400010 26.819862069000010 z" />
<glyph unicode="$" horiz-adv-x="44.839843749999993" d="M9.584749279100000 51.536406191799998 Q9.339276401500001 61.936555924200007 19.606182739199994 62.241097049600000 Q24.717306108300022 62.396458389099962 28.522375701999977 61.721646675300008 Q32.108884235500000 61.288857994900013 34.616757934399971 60.124498217600006 C34.807132389633352 62.657945681599983 35.045100458674995 65.824755011599990 35.187881300100003 67.724840609599994 Q30.858081043699997 70.537844140100049 19.746593004299996 70.294395016500005 Q10.474239769199983 70.060992849300021 5.567377376699994 65.464443628500021 Q-0.098138173499990 59.940270511300014 -0.125061694000010 51.473114188700009 Q0.041084200400007 39.344463898199990 17.652549005699996 29.952334221400008 Q28.141005459399992 24.778812216900008 29.235610198799975 18.485798343200003 Q29.326718973799984 7.627643546800016 15.453162940200002 8.002252368299992 Q11.729784498000015 7.951247184099998 6.450426623800013 10.866759378000012 Q4.696654622399990 11.636664906500016 0.421321393600010 14.767945115299995 C0.450948268999980 11.544917769633344 0.487981863250013 7.516133587550001 0.510202019799976 5.098863078300013 Q2.277481306799984 3.715232974700001 4.721185366399993 2.415577896200006 Q8.910392325500027 0.187597761700005 16.105926194699975 -0.396168046500009 Q39.131064202999994 -0.645412731300155 38.805274132600005 18.587871321100010 Q38.958459892299970 31.862662670699990 21.266222208599970 39.635219213400006 Q9.592029805799996 45.362365925999995 9.584749279099981 51.536406191799983 zM19.606000000000002 -6.484000000000000 C20.470500000000015 -6.485000000000014 22.199500000000000 -6.487000000000023 23.064000000000021 -6.488000000000000 C23.064000000000021 13.811000000000007 23.064000000000021 54.408999999999992 23.064000000000021 74.707999999999998 C22.298000000000002 74.707999999999998 20.766000000000020 74.707999999999998 20.000000000000000 74.707999999999998 C19.901499999999999 54.409999999999997 19.704499999999996 13.813999999999993 19.605999999999995 -6.483999999999980 z" />
<glyph unicode="%" horiz-adv-x="56" d="M10.699999999999999 47.299999999999997 Q10.699999999999989 44.599999999999994 12.800000000000011 43.449999999999989 Q14.899999999999977 42.300000000000011 16.899999999999977 43.400000000000006 Q19.000000000000000 44.599999999999994 19.000000000000000 47.400000000000006 Q19.000000000000000 49.400000000000006 17.699999999999989 50.449999999999989 Q16.399999999999977 51.500000000000000 14.800000000000011 51.500000000000000 Q13.300000000000011 51.500000000000000 12.000000000000000 50.349999999999994 Q10.699999999999989 49.199999999999989 10.699999999999989 47.300000000000011 zM4.000000000000000 47.200000000000003 Q4.000000000000000 50.599999999999994 5.600000000000023 53.000000000000000 Q7.199999999999989 55.400000000000006 9.600000000000023 56.300000000000011 Q12.100000000000023 57.300000000000011 14.949999999999989 57.199999999999989 Q17.800000000000011 57.099999999999994 20.199999999999989 55.900000000000006 Q22.699999999999989 54.699999999999989 24.300000000000011 52.300000000000011 Q25.899999999999977 49.900000000000006 25.899999999999977 46.900000000000006 Q25.899999999999977 43.699999999999989 24.300000000000011 41.199999999999989 Q22.699999999999989 38.699999999999989 20.199999999999989 37.500000000000000 Q17.800000000000011 36.400000000000006 14.949999999999989 36.349999999999994 Q12.100000000000023 36.300000000000011 9.600000000000023 37.400000000000006 Q7.199999999999989 38.500000000000000 5.600000000000023 41.050000000000011 Q4.000000000000000 43.599999999999994 4.000000000000000 47.199999999999989 zM37.100000000000001 16.100000000000001 Q37.100000000000023 13.400000000000006 39.199999999999989 12.300000000000011 Q41.300000000000011 11.199999999999989 43.300000000000011 12.300000000000011 Q45.399999999999977 13.500000000000000 45.399999999999977 16.199999999999989 Q45.399999999999977 18.800000000000011 43.350000000000023 19.849999999999994 Q41.300000000000011 20.900000000000006 39.199999999999989 19.800000000000011 Q37.100000000000023 18.699999999999989 37.100000000000023 16.099999999999994 zM30.399999999999999 16.000000000000000 Q30.399999999999977 19.500000000000000 32.050000000000011 21.900000000000006 Q33.699999999999989 24.300000000000011 36.100000000000023 25.199999999999989 Q38.500000000000000 26.199999999999989 41.350000000000023 26.050000000000011 Q44.199999999999989 25.900000000000006 46.600000000000023 24.699999999999989 Q49.100000000000023 23.500000000000000 50.750000000000000 21.150000000000006 Q52.399999999999977 18.800000000000011 52.399999999999977 15.699999999999989 Q52.399999999999977 12.500000000000000 50.750000000000000 10.050000000000011 Q49.100000000000023 7.599999999999994 46.600000000000023 6.400000000000006 Q44.199999999999989 5.199999999999989 41.350000000000023 5.150000000000006 Q38.500000000000000 5.099999999999994 36.100000000000023 6.199999999999989 Q33.699999999999989 7.300000000000011 32.050000000000011 9.849999999999994 Q30.399999999999977 12.400000000000006 30.399999999999977 16.000000000000000 zM46.200000000000003 55.899999999999999 C47.625000000000000 54.425000000000011 50.475000000000023 51.474999999999994 51.899999999999977 50.000000000000000 C41.074999999999989 38.800000000000011 19.425000000000011 16.400000000000006 8.600000000000023 5.199999999999989 C7.175000000000011 6.675000000000011 4.324999999999989 9.625000000000000 2.899999999999977 11.099999999999994 C13.725000000000023 22.300000000000011 35.375000000000000 44.699999999999989 46.199999999999989 55.900000000000006 z" />
<glyph unicode="&#x26;" horiz-adv-x="75.400000000000006" d="M30.300000000000001 41.000000000000000 C35.600000000000023 35.449999999999989 46.199999999999989 24.349999999999994 51.500000000000000 18.800000000000011 Q55.300000000000011 26.699999999999989 54.800000000000011 34.599999999999994 C57.566666666666663 34.599999999999994 61.024999999999977 34.599999999999994 63.100000000000023 34.599999999999994 Q62.800000000000011 21.400000000000006 57.500000000000000 12.500000000000000 C61.433333333333337 8.333333333333343 66.350000000000023 3.125000000000000 69.300000000000011 0.000000000000000 C66.350000000000023 0.000000000000000 60.449999999999989 0.000000000000000 57.500000000000000 0.000000000000000 C56.125000000000000 1.425000000000011 53.375000000000000 4.275000000000006 52.000000000000000 5.699999999999989 Q44.699999999999989 -1.000000000000000 32.699999999999989 -2.199999999999989 Q27.500000000000000 -2.599999999999994 22.199999999999989 -0.849999999999994 Q16.899999999999977 0.900000000000006 12.600000000000023 5.099999999999994 Q8.300000000000011 9.300000000000011 6.699999999999989 15.000000000000000 Q6.100000000000023 18.400000000000006 6.100000000000023 21.250000000000000 Q6.100000000000023 24.099999999999994 7.100000000000023 26.900000000000006 Q8.100000000000023 29.699999999999989 9.350000000000023 31.849999999999994 Q10.600000000000023 34.000000000000000 12.399999999999977 36.000000000000000 Q14.199999999999989 38.099999999999994 15.750000000000000 39.500000000000000 Q17.300000000000011 40.900000000000006 18.899999999999977 42.099999999999994 Q16.800000000000011 46.199999999999989 16.500000000000000 50.050000000000011 Q16.199999999999989 53.900000000000006 17.399999999999977 56.800000000000011 Q18.600000000000023 59.699999999999989 20.100000000000023 61.650000000000006 Q21.600000000000023 63.599999999999994 23.300000000000011 65.000000000000000 Q26.800000000000011 67.699999999999989 32.350000000000023 68.250000000000000 Q37.899999999999977 68.800000000000011 42.699999999999989 67.099999999999994 Q47.500000000000000 65.500000000000000 49.000000000000000 62.400000000000006 C47.166666666666686 60.666666666666657 44.875000000000000 58.500000000000000 43.500000000000000 57.199999999999989 Q41.300000000000011 60.400000000000006 35.750000000000000 60.750000000000000 Q30.199999999999989 61.099999999999994 27.100000000000023 57.800000000000011 Q21.000000000000000 50.500000000000000 30.300000000000011 41.000000000000000 zM23.600000000000001 35.500000000000000 Q18.899999999999977 31.599999999999994 16.399999999999977 26.699999999999989 Q13.899999999999977 21.800000000000011 15.500000000000000 17.000000000000000 Q16.800000000000011 13.099999999999994 20.449999999999989 10.250000000000000 Q24.100000000000023 7.400000000000006 27.699999999999989 6.300000000000011 Q31.399999999999977 5.199999999999989 34.000000000000000 5.500000000000000 Q41.199999999999989 6.200000000000017 46.500000000000000 11.599999999999994 C38.866666666666674 19.566666666666663 29.324999999999989 29.525000000000006 23.600000000000023 35.500000000000000 z" />
<glyph unicode="'" horiz-adv-x="12.336" d="M3.064000000000000 75.087724137899997 Q7.659999999999989 75.087724137900011 9.191999999999972 75.087724137900011 C9.191999999999972 67.944965517233328 9.191999999999972 59.016517241399981 9.191999999999972 53.659448275899990 C7.659999999999989 53.659448275899990 4.596000000000025 53.659448275899990 3.063999999999986 53.659448275899990 Q3.063999999999986 62.851448275899997 3.063999999999986 75.087724137900011 z" />
<glyph unicode="(" horiz-adv-x="27.576000000000001" d="M3.064000000000000 35.235999999999997 Q3.730275862099965 -1.532000000000011 19.915999999999990 -6.127999999999986 C21.447999999999972 -6.127999999999986 23.362999999999992 -6.127999999999986 24.511999999999993 -6.127999999999986 Q24.511999999999993 -5.745000000000005 24.511999999999993 -5.361999999999995 Q24.511999999999993 -4.979000000000013 24.511999999999993 -4.596000000000004 Q23.362999999999992 -3.830000000000013 22.405500000000011 -3.447000000000003 Q21.447999999999972 -3.063999999999993 19.915999999999990 -1.532000000000011 Q12.704000000000001 7.659999999999997 12.704000000000001 35.235999999999990 Q12.615999999999978 60.288000000000011 19.915999999999990 72.004000000000019 Q21.447999999999972 73.536000000000001 22.405500000000011 73.919000000000011 Q23.362999999999992 74.302000000000021 24.511999999999993 75.067999999999984 Q24.511999999999993 75.450999999999993 24.511999999999993 75.834000000000003 Q24.511999999999993 76.216999999999985 24.511999999999993 76.599999999999994 C23.362999999999992 76.599999999999994 21.447999999999972 76.599999999999994 19.915999999999990 76.599999999999994 Q10.444085201800014 73.910412556099999 6.286978342599973 60.203165336100000 Q3.340370032499997 50.487300448399992 3.064000000000014 35.235999999999990 z" />
<glyph unicode=")" horiz-adv-x="27.576000000000001" d="M21.289021657399999 60.203165336100000 Q17.131914798199993 73.910412556099999 7.660000000000018 76.599999999999994 C6.127999999999979 76.599999999999994 4.213000000000015 76.599999999999994 3.064000000000014 76.599999999999994 Q3.064000000000014 76.216999999999985 3.064000000000014 75.834000000000003 Q3.064000000000014 75.450999999999993 3.064000000000014 75.067999999999984 Q4.213000000000015 74.302000000000021 5.170499999999997 73.919000000000011 Q6.127999999999979 73.536000000000001 7.660000000000018 72.004000000000019 Q14.960000000000029 60.288000000000011 14.872000000000007 35.235999999999990 Q14.872000000000007 7.659999999999997 7.660000000000018 -1.532000000000011 Q6.127999999999979 -3.063999999999993 5.170499999999997 -3.447000000000003 Q4.213000000000015 -3.830000000000013 3.064000000000014 -4.596000000000004 Q3.064000000000014 -4.979000000000013 3.064000000000014 -5.361999999999995 Q3.064000000000014 -5.745000000000005 3.064000000000014 -6.127999999999986 C4.213000000000015 -6.127999999999986 6.127999999999979 -6.127999999999986 7.660000000000018 -6.127999999999986 Q23.845724137899985 -1.532000000000011 24.511999999999993 35.235999999999990 Q24.235629967500010 50.487300448399992 21.289021657399978 60.203165336100000 z" />
<glyph unicode="*" horiz-adv-x="21.199999999999999" d="M7.660000000000000 75.067999999999998 C7.660000000000025 70.855000000000018 7.660000000000025 62.429000000000002 7.660000000000025 58.216000000000008 C8.425999999999988 58.216000000000008 9.958000000000027 58.216000000000008 10.723999999999990 58.216000000000008 C10.723999999999990 62.429000000000002 10.723999999999990 70.855000000000018 10.723999999999990 75.067999999999984 C9.958000000000027 75.067999999999984 8.425999999999988 75.067999999999984 7.660000000000025 75.067999999999984 zM17.617999999999999 68.489187422599997 C13.404999999999973 68.489187422599997 4.978999999999985 68.489187422599997 0.766000000000020 68.489187422599997 C0.766000000000020 67.723187422600006 0.766000000000020 66.191187422599995 0.766000000000020 65.425187422600004 C4.978999999999985 65.425187422600004 13.404999999999973 65.425187422600004 17.617999999999995 65.425187422600004 C17.617999999999995 66.191187422599995 17.617999999999995 67.723187422600006 17.617999999999995 68.489187422599997 zM5.188464914500000 59.339123483700000 C7.942165428250007 62.527618815425001 13.449566455750016 68.904609478874988 16.203266969500021 72.093104810599982 C15.623540545549986 72.593777631299986 14.464087697649973 73.595123272699993 13.884361273699994 74.095796093399997 C11.130660759949990 70.907300761649992 5.623259732449981 64.530310098149982 2.869559218699976 61.341814766400006 C3.449285642650011 60.841141945724985 4.608738490550024 59.839796304375000 5.188464914500003 59.339123483700007 zM2.254114194000000 71.394829679500006 C5.331901421974976 68.517922524325002 11.487475877925021 62.764108213975021 14.565263105899987 59.887201058800002 C15.088337134100016 60.446798736624999 16.134485190500016 61.565994092274991 16.657559218699987 62.125591770100016 C13.579771990749975 65.002498925249995 7.424197534850009 70.756313235550010 4.346410306899998 73.633220390699989 C3.823336278675015 73.073622712900004 2.777188222224993 71.954427357300005 2.254114194000010 71.394829679499992 z" />
<glyph unicode="+" horiz-adv-x="49.5" d="M43.100000000000001 31.600000000000001 C39.699999999999989 31.574999999999989 32.899999999999977 31.525000000000034 29.500000000000000 31.500000000000000 C29.500000000000000 27.625000000000000 29.500000000000000 19.875000000000000 29.500000000000000 16.000000000000000 C27.250000000000000 16.000000000000000 22.750000000000000 16.000000000000000 20.500000000000000 16.000000000000000 C20.475000000000023 19.875000000000000 20.425000000000011 27.625000000000000 20.399999999999977 31.500000000000000 C16.899999999999977 31.474999999999994 9.899999999999977 31.425000000000011 6.399999999999977 31.400000000000006 C6.399999999999977 33.675000000000011 6.399999999999977 38.224999999999994 6.399999999999977 40.500000000000000 C9.975000000000023 40.449999999999989 17.125000000000000 40.350000000000023 20.699999999999989 40.300000000000011 C20.625000000000000 43.949999999999989 20.475000000000023 51.250000000000000 20.399999999999977 54.900000000000006 C22.649999999999977 54.900000000000006 27.149999999999977 54.900000000000006 29.399999999999977 54.900000000000006 C29.399999999999977 51.300000000000011 29.399999999999977 44.099999999999994 29.399999999999977 40.500000000000000 C32.824999999999989 40.524999999999977 39.675000000000011 40.575000000000017 43.100000000000023 40.599999999999994 C43.100000000000023 38.349999999999994 43.100000000000023 33.849999999999994 43.100000000000023 31.599999999999994 z" />
<glyph unicode="," horiz-adv-x="15.4" d="M9.339501585100001 4.608161154300000 C7.387626188824981 0.775120865725000 3.483875396274982 -6.890959711425012 1.531999999999982 -10.723999999999990 C0.382999999999981 -10.723999999999990 -1.915000000000020 -10.723999999999990 -3.064000000000021 -10.723999999999990 C-1.823649841500014 -6.890959711425012 0.657050475500000 0.775120865725000 1.897400634000007 4.608161154300007 C3.757925871775001 4.608161154300007 7.478976347324988 4.608161154300007 9.339501585099981 4.608161154300007 z" />
<glyph unicode="-" horiz-adv-x="56.100000000000001" d="M42.899999999999999 21.699999999999999 C33.174999999999990 21.699999999999989 13.725000000000000 21.699999999999989 3.999999999999977 21.699999999999989 C3.999999999999977 23.949999999999989 3.999999999999977 28.449999999999989 3.999999999999977 30.699999999999989 C13.725000000000000 30.724999999999739 33.174999999999990 30.774999999999409 42.900000000000013 30.800000000000011 C42.900000000000013 28.525000000000006 42.900000000000013 23.974999999999994 42.900000000000013 21.699999999999989 z" />
<glyph unicode="." horiz-adv-x="12.336" d="M9.391748602400000 2.219347542800000 Q9.047700907199975 1.405055879600013 8.422794600400003 0.769205399599997 Q7.815805817899978 0.148668860899988 6.972652457199978 -0.199748602400007 Q6.161473415699980 -0.526359041200010 5.262093168599982 -0.539999999999992 Q4.387719159400000 -0.548148967800017 3.551533879999987 -0.199748602400007 Q2.740473311899983 0.127275060500011 2.101391736800018 0.769205399599997 Q1.477470269499996 1.381721656699995 1.132437734799986 2.219347542799994 Q0.789976704899992 3.024170824099997 0.792186337199972 3.929906831399990 Q0.784388142799990 4.803945320200000 1.132437734799986 5.640466120000013 Q1.459121253099987 6.452302535900003 2.101391736800018 7.090608263200011 Q2.713949305899995 7.713104196300009 3.551533879999987 8.059562265199986 Q4.357193004700001 8.404216531800017 5.262093168599982 8.399813662800000 Q6.133785547799981 8.404932217500004 6.972652457199978 8.059562265199986 Q7.789146314900016 7.735212162799996 8.422794600400003 7.090608263200011 Q9.039664480100008 6.476274542200002 9.391748602399979 5.640466120000013 Q9.742297185400012 4.834452518900008 9.731999999999992 3.929906831399990 Q9.736211088799983 3.034620933300005 9.391748602399979 2.219347542799994 z" />
<glyph unicode="/" horiz-adv-x="50" d="M17.000000000000000 0.000000000000000 C14.324999999999989 0.000000000000000 8.975000000000023 0.000000000000000 6.300000000000011 0.000000000000000 C13.149999999999977 17.550000000000011 26.850000000000023 52.650000000000006 33.699999999999989 70.199999999999989 C36.199999999999989 70.250000000000000 41.199999999999989 70.350000000000023 43.699999999999989 70.400000000000006 C37.024999999999977 52.800000000000011 23.675000000000011 17.599999999999994 17.000000000000000 0.000000000000000 z" />
<glyph unicode="0" horiz-adv-x="56.999999999999993" d="M28.272098117372469 -0.690419120900000 C45.734661642972476 -0.524654775599998 52.819277108472484 15.372298443399984 52.819277108472484 35.031700035699998 C52.819277108472484 54.691112151799985 46.819277108472484 71.031700035699998 27.819277108472487 71.031700035699998 C8.999999999972498 70.999999999999488 2.999999999972441 54.659412116099986 2.999999999972441 35.000000000000000 C2.999999999972441 15.340598407699986 10.084615465472449 -0.556354811300253 28.272098117372490 -0.690419120900003 zM13.182191658872467 34.488706815800001 C13.182191658872465 49.816815355399996 16.669000653172485 62.457831325299992 28.407592230072463 62.457831325299992 C39.958974138172444 62.490669186299812 43.445783132572451 49.849653216399986 43.445783132572451 34.521544676800005 C43.445783132572451 20.249791717400001 37.268849883672438 7.588313667699992 28.120537404672472 7.588313667699992 C19.359124907672491 7.555475806700201 13.182191658872465 20.216953856400011 13.182191658872465 34.488706815800015 z" />
<glyph unicode="1" horiz-adv-x="31.4436552407" d="M10.290543207500001 61.344367310400003 C9.550373873999977 61.341000597099992 8.070035207000021 61.334267170499999 7.329865873499987 61.330900457200016 C6.497399405124984 61.373017306000008 4.832466468374978 61.457251003599993 3.999999999999975 61.499367852399985 C4.005166606500016 63.505424680900006 4.015499819499983 67.517538337899992 4.020666426000023 69.523595166400014 C7.869220958574974 69.646319322724992 15.566330023724991 69.891767635375004 19.414884556299999 70.014491791699982 C19.377955095725017 67.629637019924985 19.304096174574997 62.859927476374992 19.267166714000016 60.475072704599995 C19.292166713999993 47.306304528449999 19.342166714000005 20.968768176150007 19.367166713999982 7.800000000000011 C19.392166714000016 7.800000000000011 19.442166714000027 7.800000000000011 19.467166714000005 7.800000000000011 C19.467166714000005 5.849999999999994 19.467166714000005 1.949999999999989 19.467166714000005 0.000000000000000 C17.216890505425031 0.000000000000000 12.716338088274970 0.000000000000000 10.466061879699996 0.000000000000000 C10.441061879700019 1.949999999999989 10.391061879700008 5.849999999999994 10.366061879699974 7.800000000000011 C10.341061879699996 7.800000000000011 10.291061879699985 7.800000000000011 10.266061879700008 7.800000000000011 C10.271586375925015 19.741848990975001 10.282635368374972 43.625546972925008 10.288159864599979 55.567395963899997 C10.288755700324973 57.011638800524992 10.289947371775018 59.900124473775008 10.290543207500011 61.344367310400003 z" />
<glyph unicode="2" horiz-adv-x="52.436109114564921" d="M19.880719324589158 8.358343603400000 C26.743695873989143 8.312590426399936 40.469648972789145 8.221084072400089 47.332625522189147 8.175330895400009 C47.286872345189153 6.116437930574989 47.195365991189163 1.998652000925006 47.149612814189169 -0.060240963899986 C36.362209610639155 -0.033299085324813 14.787403203539132 0.020584671824793 3.999999999989174 0.047526550399994 Q11.443903162389152 10.898816825500006 32.780597352189176 43.098152083099990 Q34.165558267789123 44.876598810899992 35.211832724689174 46.736752951900002 Q36.076135240389164 48.782383086399989 36.065569054589133 51.028775319000005 Q36.091406071889168 53.298401603700000 35.211832724689174 55.320797686100008 Q34.328406503889170 57.417952965500007 32.780597352189176 58.959398555000007 Q31.190688933189140 60.576796077300003 29.141996483289152 61.390633927500005 Q27.037167049989169 62.257213396699996 24.849974116189149 62.244370257399993 Q22.579458402889177 62.255417645500017 20.557951749189133 61.390633927500005 Q18.456339866989172 60.521324228200001 16.919350880289162 58.959398555000007 Q15.307808210989183 57.357803990700006 14.488115507689177 55.320797686100008 Q10.464881963389164 55.184699899199984 6.441648418989163 55.048602112200001 Q6.408130677789162 56.795429622100016 7.100131637089166 58.983974822800008 Q8.504263551489178 62.473362432100004 11.264832828489180 65.216890625699989 Q13.897691800789151 67.892466090799985 17.497748631389161 69.381591817100002 Q20.960585370389172 70.862964546900002 24.849974116189149 70.844040393900002 Q28.596631112089174 70.866040665100002 32.202199601089177 69.381591817100002 Q35.711605553089129 67.987489253999996 38.435115403989158 65.216890625699989 Q41.086509296589128 62.576397502100008 42.599816595389171 58.983974822800008 Q44.106523929589144 55.519614494400003 44.062265172089127 51.631749337999992 Q43.523921942789144 44.091042114400011 39.122575143689147 36.776002825799992 C32.708623203989163 27.303449751666676 24.691183279364143 15.462758409000003 19.880719324589140 8.358343603399987 z" />
<glyph unicode="3" horiz-adv-x="45.91938204643921" d="M28.817741685205473 42.473543364199998 Q30.408167363905481 44.091822648799990 31.283790290405481 46.164245917800002 Q32.160468886505505 48.239167744200017 32.149751401905469 50.517726412200005 Q32.175958383505481 52.819851824199986 31.283790290405481 54.871206906699996 Q30.387714153805465 56.998391674700002 28.817741685205480 58.561909460300001 Q27.205067123405460 60.202466746100015 25.127039131605503 61.027958065500002 Q22.992070322405485 61.906946219299982 20.773558637105456 61.893919176999987 Q18.470531060605484 61.905124754300033 16.420078142605465 61.027958065500002 Q14.288372957105484 60.146200587199985 12.729375589005489 58.561909460300001 Q11.094756992805461 56.937381417500006 10.263326983805488 54.871206906699996 Q6.182484140505498 54.733160314699973 2.101641297105464 54.595113722599990 Q2.067643610205498 56.366954323900018 2.769553437505469 58.586837639500004 Q4.193791332405458 62.126190325799996 6.993889624905482 64.909003520999988 Q9.664448909105491 67.622890962100001 13.316055506405466 69.133339708400001 Q16.828477136505459 70.635924441799972 20.773558637105456 70.616729310899984 Q24.573864589805456 70.639044607499983 28.231061767805446 69.133339708400001 Q31.790719442705498 67.719274776500015 34.553227649305491 64.909003520999988 Q37.242587258305498 62.230700770800013 38.777563836705504 58.586837639500004 Q40.305845944705489 55.072870603399991 40.260953439205487 51.129334508800014 Q40.279312468205497 47.226168198099998 38.777563836705504 43.671831378099995 Q37.277623565005463 40.121774581900013 34.553227649305491 37.349665496599982 C34.209332635138828 36.945771795933325 33.779463867430486 36.440904670099997 33.521542606805504 36.137984394599982 C34.043835433205466 35.835257313249997 35.088421086005503 35.229803150549998 35.610713912405465 34.927076069199984 Q38.489537729805484 32.060088061399995 40.132652737005465 28.159516365999991 Q41.768601651105492 24.397991888900009 41.720546488205464 20.176635400900011 Q41.740198902905497 15.998492730500004 40.132652737005465 12.193754435899990 Q38.527042328905459 8.393597690700005 35.610713912405465 5.426194732600010 Q32.778003447605506 2.530259259199994 28.843154209305457 0.904255908099998 Q25.057523525005482 -0.619977874900030 20.860273244105489 -0.683637843199989 Q16.779722700705467 -0.721667650399979 12.877392278905464 0.904255908099998 Q9.092314489505501 2.430418134900009 6.109832575805460 5.426194732600010 Q3.198100232805477 8.284700954300007 1.587893751405493 12.193754435899990 Q0.115641895605454 15.823770035600006 0.000000000005461 21.310220168800015 C2.927200931038787 21.328282493466617 6.586202094830473 21.350860399300046 8.781602793105495 21.364407142799990 Q8.860157846305473 18.062214826499996 9.694436078105472 15.893607277999990 Q10.620096293505473 13.646407723399989 12.293965340105448 12.003136804200011 Q14.008506228305468 10.280953194400013 16.184435814005500 9.403607542099991 Q18.427770479705490 8.468912042599982 20.773558637105456 8.490774257200002 Q23.186434031705463 8.527370495300005 25.362681460205469 9.403607542099991 Q27.624710234605462 10.338348912000015 29.253151934105464 12.003136804200011 Q30.929663127805444 13.709009245499999 31.852681196105497 15.893607277999990 Q32.776812074605466 18.080839108300012 32.765514481105477 20.482730101100003 Q32.793139976905486 22.909463443199996 31.852681196105497 25.071852924300003 Q30.908102839905499 27.314176550199988 29.253151934105464 28.962323398100011 Q27.553187584305480 30.691679689599994 25.362681460205469 31.561852660200003 Q22.747719642805468 32.488418106500035 19.971806431405472 32.474685945099992 C19.996101952772168 35.112566431900007 20.026471354480467 38.409917040399989 20.044692995505503 40.388327405500007 Q27.038286665405455 40.442634564300107 28.817741685205480 42.473543364199998 z" />
<glyph unicode="4" horiz-adv-x="47.700000000000003" d="M31.899999999999999 24.300000000000001 C31.899999999999977 31.000000000000000 31.899999999999977 44.400000000000006 31.899999999999977 51.099999999999994 C27.425000000000011 44.400000000000006 18.475000000000023 31.000000000000000 14.000000000000000 24.300000000000011 C18.475000000000023 24.300000000000011 27.425000000000011 24.300000000000011 31.899999999999977 24.300000000000011 zM41.399999999999999 72.200000000000003 C41.399999999999977 60.250000000000000 41.399999999999977 36.349999999999994 41.399999999999977 24.400000000000006 C42.550000000000011 24.400000000000006 44.850000000000023 24.400000000000006 46.000000000000000 24.400000000000006 C45.975000000000023 22.275000000000006 45.925000000000011 18.025000000000006 45.899999999999977 15.900000000000006 C44.850000000000023 15.900000000000006 42.750000000000000 15.900000000000006 41.699999999999989 15.900000000000006 C41.699999999999989 11.925000000000011 41.699999999999989 3.974999999999994 41.699999999999989 0.000000000000000 C39.199999999999989 0.000000000000000 34.199999999999989 0.000000000000000 31.699999999999989 0.000000000000000 C31.699999999999989 4.050000000000011 31.699999999999989 12.150000000000006 31.699999999999989 16.199999999999989 C26.875000000000000 16.199999999999989 17.225000000000023 16.199999999999989 12.399999999999977 16.199999999999989 C9.725000000000023 16.199999999999989 4.375000000000000 16.199999999999989 1.699999999999989 16.199999999999989 C1.699999999999989 17.275000000000006 1.699999999999989 19.425000000000011 1.699999999999989 20.500000000000000 C10.574999999999989 33.425000000000011 28.324999999999989 59.275000000000006 37.199999999999989 72.199999999999989 C38.250000000000000 72.199999999999989 40.350000000000023 72.199999999999989 41.399999999999977 72.199999999999989 z" />
<glyph unicode="5" horiz-adv-x="53.749874624890047" d="M6.469273257514283 32.979956839600000 Q10.296156118814299 51.551594254900010 14.123038980114263 70.123231670099983 Q31.014468901614254 70.235787048400084 44.633669672814293 70.348342426599999 Q44.633669672814293 66.183793430500003 44.306446757814300 62.673690264399994 C36.912602524347633 62.673690264399994 27.670297232514276 62.673690264399994 22.124914057414305 62.673690264399994 C21.192394143439305 58.659961091699984 19.327354315489305 50.632502746300020 18.394834401514306 46.618773573600009 Q22.130210067814307 47.948453131600075 26.504130590314293 47.928411214499988 Q31.175267548014308 47.955840007900008 35.670502698114277 46.105106438299998 Q40.045847401614267 44.367011914800003 43.441377745914295 40.912773733400002 Q46.746997666714279 37.620744324100002 48.633710450814263 33.141898685599983 Q50.512194742714271 28.822714521199998 50.457015227114269 23.975526577700009 Q50.479581183714302 19.177959057399988 48.633710450814263 14.809154469800006 Q46.790062459114282 10.445610663299988 43.441377745914295 7.038279421999988 Q40.188707650014308 3.713010980000007 35.670502698114277 1.845946717099991 Q31.323638493914263 0.095739730999981 26.504130590314293 0.022641940900002 Q21.818623584814265 -0.021025923600007 17.337758482414262 1.845946717099991 Q12.991529141514281 3.598368045900003 9.566883434614301 7.038279421999988 Q6.223476179514267 10.320569589499996 4.374550729714275 14.809154469800006 C4.249700486480964 15.612340627999998 4.093637682439311 16.616323325749988 4.000000000014285 17.218712944400011 C5.813365090564292 17.451593426800002 9.440095271664308 17.917354391599986 11.253460362214259 18.150234874000006 Q12.570269791714299 15.321518759399993 14.776501717614298 13.055244883000000 Q17.036340892914286 10.785332269500003 19.904310361714256 9.628952687700007 Q22.861122646514293 8.396983522500022 25.952973072214281 8.425798868500010 Q29.133247383214286 8.474034295999985 32.001635782714303 9.628952687700007 Q34.983087712614306 10.860982312099992 37.129444426814260 13.055244883000000 Q39.339158817114267 15.303658669800001 40.555736622114310 18.183053527100014 Q41.773781159114279 21.065919844000007 41.758890441314307 24.231716237600011 Q41.795302041714265 27.430255923700003 40.555736622114310 30.280378948100008 Q39.310741423514301 33.235858638499991 37.129444426814260 35.408187592199994 Q34.888817760714304 37.687554110900010 32.001635782714303 38.834479787500015 Q29.035341058114302 40.055733190399962 25.952973072214281 40.037633606700012 Q22.753179931814277 40.053202473399949 19.904310361714256 38.834479787500015 Q16.942550068614270 37.609378725099987 14.776501717614298 35.408187592199994 Q12.724538448514313 33.479820051899992 11.569361642714302 30.609107128700003 C9.898567786247629 31.382960656033333 7.810075465664300 32.350277565200003 6.556980073314281 32.930667710699993 C6.535053369364294 32.942989992924993 6.491199961464264 32.967634557374993 6.469273257514277 32.979956839599993 z" />
<glyph unicode="6" horiz-adv-x="53.636685663295765" d="M43.095196317429497 22.530120481899999 Q43.129100672329514 25.508413764000011 41.974889774829478 28.162281806799996 Q40.815622984229492 30.914251821699992 38.784526662529515 32.936997625700002 Q36.698186018929505 35.059410556700016 34.009810843629509 36.127360737999993 Q31.247770500829514 37.264520555499985 28.377649518729523 37.247667280600012 Q25.398189093229515 37.262164099699987 22.745488193829484 36.127360737999993 Q19.987670048729509 34.986618204800010 17.970772374929478 32.936997625700002 Q15.856042413329472 30.835321960599998 14.780409262629515 28.162281806799996 Q13.634426504529525 25.407966228699991 13.660102720029496 22.530120481899985 Q13.652827318429498 19.547907971099988 14.780409262629515 16.897959157000003 Q15.916458103829481 14.140004988300007 17.970772374929478 12.123243338200012 Q20.075002584529496 10.009633331299995 22.745488193829484 8.932880225899993 Q25.498699042629479 7.785742516600010 28.377649518729523 7.812573683300002 Q31.338935150629478 7.857487695200007 34.009810843629509 8.932880225899993 Q36.785964690429523 10.080074231100014 38.784526662529515 12.123243338200012 Q40.842083601029515 14.216834893499993 41.974889774829478 16.897959157000003 Q43.109061683829509 19.582315840799993 43.095196317429497 22.530120481899985 zM34.758353669029503 9.058819981899999 Q34.738681676629483 9.012260334600001 34.702950723529511 8.975903614499998 Q34.668244260329516 8.940422516300004 34.620034356129509 8.920500669000006 Q34.573652682529485 8.901825705800007 34.522227831929513 8.901045741699988 Q34.472232790429473 8.900579799300004 34.424421307829505 8.920500669000006 Q34.378046408429498 8.939199259600002 34.341504940429502 8.975903614499998 Q34.305830298529486 9.010926128100010 34.286101994929481 9.058819981900001 Q34.266520725129510 9.104838245200000 34.266647067729480 9.156626506000009 Q34.266201181729514 9.206602363099989 34.286101994929481 9.254433030099989 Q34.304781136729503 9.300852291100000 34.341504940429502 9.337349397600008 Q34.376529816229493 9.372942530100005 34.424421307829505 9.392752343000012 Q34.470487363029520 9.412459017999993 34.522227831929513 9.412207270300001 Q34.572069542929512 9.412499939500009 34.620034356129509 9.392752343000012 Q34.666719920729520 9.374206621599996 34.702950723529511 9.337349397600008 Q34.738222169029484 9.302222964799995 34.758353669029532 9.254433030099989 Q34.778397369729475 9.208346706700013 34.777808596229477 9.156626506000009 Q34.778049378329513 9.105435762500008 34.758353669029532 9.058819981900001 zM24.419855986429500 44.156491638500000 Q37.917589424729499 47.083916150800007 44.997425165729510 39.872787695200003 Q48.311627486929524 36.572211170599985 50.203238754629524 32.081737078800018 Q52.086600166229516 27.751338991199987 52.031277387729517 22.891566265100010 Q52.053901932629515 18.081542791799990 50.203238754629524 13.701395451299987 Q48.354804088729509 9.326522550400000 44.997425165729510 5.910344834900002 Q41.736310143329490 2.576442978800003 37.206374549329496 0.704531246100004 Q32.848224555929505 -1.050219812800009 28.016203735629514 -1.123507387100005 Q23.318531720729478 -1.167288626799944 18.826032921829491 0.704531246100004 Q14.468519440129509 2.461502396599997 11.034982305429477 5.910344834900002 Q7.682894542429491 9.201156831699990 5.829168716529519 13.701395451299987 Q4.008402816629481 18.025389366799999 4.001130083429526 22.891566265100010 Q3.973811082229528 25.949676646900002 4.600798077229509 28.240469243500002 Q5.847386020829500 32.795068389699992 32.102280865129501 69.915793160600003 Q37.496802488929518 69.810018226800025 42.891324112729478 69.704243292999990 C36.734168070629494 61.188326074833327 29.037723018004495 50.543429552125019 24.419855986429521 44.156491638500000 z" />
<glyph unicode="7" horiz-adv-x="49.114107883800003" d="M4.124481327800000 70.039419087100001 C14.002434634800021 70.014419087100180 33.758341248799994 69.964419087099827 43.636294555799978 69.939419087100021 C44.694385842100033 69.924481327774998 46.810568414700029 69.894605809125011 47.868659701000027 69.879668049799989 C46.773327750799993 67.190560165975000 44.582663850399982 61.812344398324996 43.487331900200004 59.123236514500007 C37.312905564150029 44.362655601650005 24.964052892050017 14.841493775949999 18.789626555999984 0.080912863099996 C16.399273858899971 0.049792531149961 11.618568464700001 -0.012448132749967 9.228215767599988 -0.043568464700002 C15.721003099499978 15.587863070549986 28.706577763300015 46.850726141049989 35.199365095200008 62.482157676300005 C27.399523821400020 62.513278008250040 11.799841273799995 62.575518672149968 4.000000000000012 62.606639004100003 C4.031120331949990 64.464834024850006 4.093360995850003 68.181224066350012 4.124481327799981 70.039419087099986 z" />
<glyph unicode="8" horiz-adv-x="52.163755956681044" d="M41.225912686281042 36.119172578600001 Q44.235244578381028 33.122213058600011 45.952848261981060 29.044813556200012 Q47.662960986281021 25.112764813500007 47.612727299381064 20.700038119099986 Q47.633270633081068 16.332484289599989 45.952848261981060 12.355262681900001 Q44.274449404281043 8.382830323099995 41.225912686281063 5.280903659600000 Q38.264784641081022 2.253684374800002 34.151553663881046 0.553968083799987 Q30.194305887681043 -1.039365035900005 25.806778226781052 -1.105910953599988 Q21.541240748081027 -1.145664797200055 17.462002789781042 0.553968083799987 Q13.505332972981041 2.149317071199988 10.387643767381025 5.280903659600000 Q7.343911480381070 8.268996881699991 5.660708191681028 12.355262681900001 Q3.990049705681048 16.281504580499984 4.000829154081050 20.700038119099986 Q3.962786520081028 24.963938798399994 5.660708191681028 29.044813556200012 Q7.254397821081074 33.005268260900010 10.387643767381025 36.119172578600001 Q11.753734964181053 37.336870711000017 12.830927836381040 38.164467977399994 Q12.454686933481032 38.500927304500010 11.786748868681020 39.105006032099993 Q9.196969615581072 41.647444427899984 7.764805238081028 45.124270046699991 Q6.343314687081051 48.464938296300005 6.352486450281067 52.224476063899999 Q6.320117629681040 55.852443465600004 7.764805238081028 59.324682081199995 Q9.120806341081067 62.694460517599992 11.786748868681020 65.343946095799993 Q14.329358743081020 67.927808227800000 17.806012883281046 69.365889726299997 Q21.150150559881030 70.796483985300000 24.906218900381038 70.778208513999999 Q28.524448047681023 70.799454660400045 32.006424917681059 69.365889726299997 Q35.395535508581034 68.019574188399986 38.025688932281028 65.343946095799993 Q40.586198387481048 62.793963753199989 42.047632562781033 59.324682081199995 Q43.502693007181065 55.979073040700001 43.459951350581051 52.224476063899999 Q43.620085591381056 48.444431593700017 42.047632562781033 45.124270046699991 Q40.398268382581037 41.641714174800001 37.664526563381074 39.072173089499984 Q39.611634950981070 37.730798505899998 41.225912686281063 36.119172578600001 zM24.960420843481046 62.780159423400001 C19.886037024981039 62.780159423399994 15.091598991381051 58.600947985900007 15.091598991381051 51.974879992100000 C15.091598991381051 45.348811998299993 20.693433219880905 41.467384425687158 24.960420843481035 41.423963582999988 C30.831007994981025 41.364224520299956 35.049383995181032 45.332874302300013 35.207677072081040 51.768289183299999 C35.370590835681028 58.391406054000015 30.443536787581042 62.780159423399994 24.960420843481035 62.780159423399994 zM25.822936699981046 33.883771537100003 C20.147641702881021 33.883771537100017 12.796456821881026 28.567995003100009 12.796456821881026 21.157264581199996 C12.796456821881026 13.746534159499987 21.050650176280573 7.216499518852430 25.822936699981046 7.167936757299998 C32.388721844081047 7.101123363599953 38.793793224581023 13.728709113099995 38.970831450181052 20.926209181199994 C39.153037546781050 28.333639006299990 31.955366094181063 33.883771537100017 25.822936699981046 33.883771537100017 z" />
<glyph unicode="9" horiz-adv-x="58.111729153582104" d="M12.936351029558013 47.165779749400002 Q12.902446674657986 44.187486467300005 14.056657572158022 41.533618424499991 Q15.215924362758008 38.781648409599995 17.247020684458043 36.758902605599985 Q19.333361328057997 34.636489674600000 22.021736503357992 33.568539493299994 Q24.783776846158041 32.431379675800002 27.653897828258032 32.448232950700003 Q30.633358253758040 32.433736131600000 33.286059153158014 33.568539493299994 Q36.043877298257989 34.709282026500006 38.060774972058020 36.758902605599985 Q40.175504933658026 38.860578270699989 41.251138084358040 41.533618424499991 Q42.397120842458030 44.287934002599997 42.371444626958002 47.165779749400002 Q42.378720028558000 50.147992260199999 41.251138084358040 52.797941074300013 Q40.115089243158017 55.555895243000009 38.060774972058020 57.572656893100003 Q35.956544762458002 59.686266899999993 33.286059153158014 60.763020005399994 Q30.532848304358019 61.910157714700006 27.653897828258032 61.883326548000014 Q24.692612196358020 61.838412536099980 22.021736503357992 60.763020005399994 Q19.245582656558035 59.615826000200002 17.247020684458043 57.572656893100003 Q15.189463745957985 55.479065337900010 14.056657572158022 52.797941074300013 Q12.922485663157991 50.113584390499994 12.936351029558002 47.165779749400002 zM21.273193677958012 60.637080249400000 Q21.292865670358019 60.683639896700015 21.328596623457990 60.719996616800017 Q21.363303086658043 60.755477714999984 21.411512990857993 60.775399562300009 Q21.457894664458017 60.794074525500008 21.509319515057989 60.794854489599999 Q21.559314556558029 60.795320431999983 21.607126039157997 60.775399562300009 Q21.653500938558004 60.756700971700013 21.690042406558000 60.719996616800017 Q21.725717048458016 60.684974103200005 21.745445352058020 60.637080249400015 Q21.765026621857992 60.591061986099987 21.764900279258022 60.539273725300006 Q21.765346165257988 60.489297868199998 21.745445352058020 60.441467201199998 Q21.726766210257999 60.395047940200016 21.690042406558000 60.358550833700008 Q21.655017530758009 60.322957701199982 21.607126039157997 60.303147888300003 Q21.561059983958039 60.283441213299994 21.509319515057989 60.283692960999986 Q21.459477804057990 60.283400291800007 21.411512990857993 60.303147888300003 Q21.364827426258039 60.321693609699992 21.328596623457990 60.358550833700008 Q21.293325177958017 60.393677266499992 21.273193677958027 60.441467201199998 Q21.253149977258026 60.487553524600003 21.253738750758025 60.539273725300006 Q21.253497968657989 60.590464468800008 21.273193677958027 60.637080249400015 zM35.949040758158013 28.792420641000000 Q30.897217330458027 24.737424197800010 24.888849763158014 24.798729317900012 Q16.841388157358033 24.673450817299994 11.034122181257990 29.823112536099984 Q7.673189665558018 32.979243936800003 5.828308592358033 37.614163152499998 Q4.081936225458028 42.001597637499998 4.000269959258040 46.804333966200005 Q3.977645414358042 51.614357439499997 5.828308592358033 55.994504780000000 Q7.676743258257991 60.369377680900016 11.034122181257990 63.785555396400014 Q14.295237203658010 67.119457252500013 18.825172797658006 68.991368985199983 Q23.183322791057996 70.746120044100024 28.015343611357984 70.819407618400021 Q32.713015626258020 70.863188858099960 37.205514425158007 68.991368985199983 Q41.563027906858046 67.234397834700019 44.996565041558021 63.785555396400014 Q48.348652804558007 60.494743399599997 50.202378630458036 55.994504780000000 Q53.839312431358046 45.549993783700018 46.515679591257985 30.684857189599995 Q39.337110042258011 16.863935881400010 31.158182144557991 -0.039170037699989 Q25.763660520758030 0.066604896100046 20.369138896958013 -0.008343061700003 C25.562439517358023 9.591911505866676 32.054065292858006 21.592229715325004 35.949040758157984 28.792420641000007 z" />
<glyph unicode=":" horiz-adv-x="15.4" d="M12.399655433800000 42.109440711399998 Q12.055607738599974 41.295149048200017 11.430701431800003 40.659298568200001 Q10.823712649299978 40.038762029499992 9.980559288599977 39.690344566199997 Q9.169380247099980 39.363734127399994 8.269999999999982 39.350093168599983 Q7.395625990799999 39.341944200800015 6.559440711399986 39.690344566199997 Q5.748380143299983 40.017368229099986 5.109298568200018 40.659298568200001 Q4.485377100899996 41.271814825299998 4.140344566199985 42.109440711399998 Q3.797883536299992 42.914263992700000 3.800093168600029 43.819999999999993 Q3.792294974199990 44.694038488800004 4.140344566199985 45.530559288599989 Q4.467028084499987 46.342395704500007 5.109298568200018 46.980701431800014 Q5.721856137299994 47.603197364899984 6.559440711399986 47.949655433799990 Q7.365099836100001 48.294309700400021 8.269999999999982 48.289906831400003 Q9.141692379199981 48.295025386100008 9.980559288599977 47.949655433799990 Q10.797053146300016 47.625305331400000 11.430701431800003 46.980701431800014 Q12.047571311500008 46.366367710800006 12.399655433799978 45.530559288599989 Q12.750204016800012 44.724545687499983 12.739906831399992 43.819999999999993 Q12.744117920199983 42.924714101900008 12.399655433799978 42.109440711399998 zM12.455748602400000 2.219347542800000 Q12.111700907199975 1.405055879600013 11.486794600400003 0.769205399599997 Q10.879805817899978 0.148668860899988 10.036652457199978 -0.199748602400007 Q9.225473415699980 -0.526359041200010 8.326093168599982 -0.539999999999992 Q7.451719159400000 -0.548148967800017 6.615533879999987 -0.199748602400007 Q5.804473311899983 0.127275060500011 5.165391736800018 0.769205399599997 Q4.541470269499996 1.381721656699995 4.196437734799986 2.219347542799994 Q3.853976704899992 3.024170824099997 3.856186337199972 3.929906831399990 Q3.848388142799990 4.803945320200000 4.196437734799986 5.640466120000013 Q4.523121253099987 6.452302535900003 5.165391736800018 7.090608263200011 Q5.777949305899995 7.713104196300009 6.615533879999987 8.059562265199986 Q7.421193004700001 8.404216531800017 8.326093168599982 8.399813662800000 Q9.197785547799981 8.404932217500004 10.036652457199978 8.059562265199986 Q10.853146314900016 7.735212162799996 11.486794600400003 7.090608263200011 Q12.103664480100008 6.476274542200002 12.455748602399979 5.640466120000013 Q12.806297185400012 4.834452518900008 12.795999999999992 3.929906831399990 Q12.800211088799983 3.034620933300005 12.455748602399979 2.219347542799994 z" />
<glyph unicode=";" horiz-adv-x="15.4" d="M11.859501585100000 4.608161154300000 C9.907626188825020 0.775120865725000 6.003875396275021 -6.890959711425012 4.052000000000021 -10.723999999999990 C2.903000000000020 -10.723999999999990 0.605000000000018 -10.723999999999990 -0.543999999999983 -10.723999999999990 C0.696350158500024 -6.890959711425012 3.177050475499982 0.775120865725000 4.417400633999989 4.608161154300007 C6.277925871774983 4.608161154300007 9.998976347325026 4.608161154300007 11.859501585100020 4.608161154300007 zM11.499655433799999 42.109440711399998 Q11.155607738599997 41.295149048200017 10.530701431800026 40.659298568200001 Q9.923712649300001 40.038762029499992 9.080559288600000 39.690344566199997 Q8.269380247100003 39.363734127399994 7.370000000000005 39.350093168599983 Q6.495625990800022 39.341944200800015 5.659440711400009 39.690344566199997 Q4.848380143300005 40.017368229099986 4.209298568199983 40.659298568200001 Q3.585377100900018 41.271814825299998 3.240344566200008 42.109440711399998 Q2.897883536300014 42.914263992700000 2.900093168599994 43.819999999999993 Q2.892294974200013 44.694038488800004 3.240344566200008 45.530559288599989 Q3.567028084500009 46.342395704500007 4.209298568199983 46.980701431800014 Q4.821856137300017 47.603197364899984 5.659440711400009 47.949655433799990 Q6.465099836100023 48.294309700400021 7.370000000000005 48.289906831400003 Q8.241692379200003 48.295025386100008 9.080559288600000 47.949655433799990 Q9.897053146299982 47.625305331400000 10.530701431800026 46.980701431800014 Q11.147571311499973 46.366367710800006 11.499655433800001 45.530559288599989 Q11.850204016799978 44.724545687499983 11.839906831400015 43.819999999999993 Q11.844117920200006 42.924714101900008 11.499655433800001 42.109440711399998 z" />
<glyph unicode="&#x3c;" horiz-adv-x="38.299999999999955" d="M33.704000000000001 39.020000000000003 C29.108000000000033 35.437999999999988 19.916000000000025 28.274000000000001 15.320000000000022 24.692000000000007 C19.916000000000025 20.817000000000007 29.108000000000033 13.067000000000007 33.703999999999979 9.192000000000007 C33.703999999999979 6.894000000000005 33.703999999999979 2.298000000000002 33.703999999999979 0.000000000000000 C32.554999999999978 0.000000000000000 30.256999999999977 0.000000000000000 29.107999999999976 0.000000000000000 C22.214000000000027 5.745000000000005 8.426000000000016 17.234999999999985 1.532000000000011 22.979999999999990 C1.532000000000011 23.746000000000009 1.532000000000011 25.277999999999992 1.532000000000011 26.044000000000011 C8.808999999999997 31.788999999999987 23.363000000000028 43.278999999999996 30.640000000000015 49.024000000000001 C31.405999999999977 49.024000000000001 32.938000000000017 49.024000000000001 33.703999999999979 49.024000000000001 C33.703999999999979 46.522999999999996 33.703999999999979 41.521000000000015 33.703999999999979 39.020000000000010 z" />
<glyph unicode="=" horiz-adv-x="66.5" d="M58.216000000000001 46.944000000000003 C58.216000000000008 45.096000000000004 58.216000000000008 41.400000000000006 58.216000000000008 39.551999999999992 C45.576999999999998 39.551999999999992 20.298999999999978 39.551999999999992 7.660000000000025 39.551999999999992 C7.660000000000025 41.400000000000006 7.660000000000025 45.096000000000004 7.660000000000025 46.944000000000017 C20.298999999999978 46.944000000000017 45.576999999999998 46.944000000000017 58.216000000000008 46.944000000000017 zM7.660000000000000 27.027999999999999 C20.298999999999978 27.027999999999992 45.576999999999998 27.027999999999992 58.216000000000008 27.027999999999992 C58.216000000000008 25.113000000000000 58.216000000000008 21.282999999999987 58.216000000000008 19.367999999999995 C45.576999999999998 19.367999999999995 20.298999999999978 19.367999999999995 7.660000000000025 19.367999999999995 C7.660000000000025 21.282999999999987 7.660000000000025 25.113000000000000 7.660000000000025 27.027999999999992 z" />
<glyph unicode="&#x3e;" horiz-adv-x="38.299999999999955" d="M1.532000000000000 49.024000000000001 C2.297999999999973 49.024000000000001 3.830000000000013 49.024000000000001 4.595999999999975 49.024000000000001 C11.873000000000019 43.278999999999996 26.426999999999992 31.788999999999987 33.703999999999979 26.044000000000011 C33.703999999999979 25.277999999999992 33.703999999999979 23.746000000000009 33.703999999999979 22.979999999999990 C26.810000000000031 17.234999999999985 13.022000000000020 5.745000000000005 6.128000000000014 0.000000000000000 C4.979000000000013 0.000000000000000 2.681000000000012 0.000000000000000 1.532000000000011 0.000000000000000 C1.532000000000011 2.298000000000002 1.532000000000011 6.894000000000005 1.532000000000011 9.192000000000007 C6.128000000000014 13.067000000000007 15.320000000000022 20.817000000000007 19.916000000000025 24.692000000000007 C15.320000000000022 28.274000000000001 6.128000000000014 35.437999999999988 1.532000000000011 39.020000000000010 C1.532000000000011 41.521000000000015 1.532000000000011 46.522999999999996 1.532000000000011 49.024000000000001 z" />
<glyph unicode="?" horiz-adv-x="54.799999999999997" d="M24.800000000000001 67.200000000000003 Q21.699999999999989 67.199999999999989 19.500000000000000 66.250000000000000 Q17.300000000000011 65.300000000000011 16.100000000000023 63.900000000000006 Q15.000000000000000 62.599999999999994 13.500000000000000 61.000000000000000 C12.100000000000023 63.300000000000011 10.350000000000023 66.175000000000011 9.300000000000011 67.900000000000006 Q12.500000000000000 71.500000000000000 16.500000000000000 73.199999999999989 Q20.500000000000000 74.900000000000006 26.100000000000023 74.900000000000006 Q35.000000000000000 74.900000000000006 40.250000000000000 69.949999999999989 Q45.500000000000000 65.000000000000000 45.500000000000000 56.800000000000011 Q45.500000000000000 52.599999999999994 43.699999999999989 49.099999999999994 Q41.899999999999977 45.599999999999994 37.800000000000011 41.400000000000006 C36.399999999999977 39.933333333333337 34.649999999999977 38.099999999999994 33.600000000000023 37.000000000000000 Q29.899999999999977 33.000000000000000 29.250000000000000 30.949999999999989 Q28.600000000000023 28.900000000000006 28.600000000000023 23.699999999999989 C28.533333333333360 23.133333333333326 28.449999999999989 22.425000000000011 28.399999999999977 22.000000000000000 C25.975000000000023 21.875000000000000 21.125000000000000 21.625000000000000 18.699999999999989 21.500000000000000 C18.725000000000023 22.324999999999989 18.774999999999977 23.974999999999994 18.800000000000011 24.800000000000011 Q18.800000000000011 30.599999999999994 20.399999999999977 33.900000000000006 Q22.000000000000000 37.199999999999989 25.800000000000011 41.099999999999994 C27.233333333333348 42.633333333333326 29.024999999999977 44.550000000000011 30.100000000000023 45.699999999999989 Q30.899999999999977 46.500000000000000 31.800000000000011 47.349999999999994 Q32.699999999999989 48.199999999999989 33.500000000000000 49.199999999999989 Q34.300000000000011 50.300000000000011 34.949999999999989 51.250000000000000 Q35.600000000000023 52.199999999999989 36.000000000000000 53.400000000000006 Q36.399999999999977 54.599999999999994 36.300000000000011 55.800000000000011 Q36.000000000000000 67.199999999999989 24.800000000000011 67.199999999999989 zM17.800000000000001 6.000000000000000 Q17.800000000000011 8.699999999999989 19.600000000000023 10.250000000000000 Q21.399999999999977 11.800000000000011 23.600000000000023 11.800000000000011 Q25.800000000000011 11.900000000000006 27.600000000000023 10.400000000000006 Q29.399999999999977 8.900000000000006 29.399999999999977 6.199999999999989 Q29.399999999999977 3.300000000000011 27.600000000000023 1.650000000000006 Q25.800000000000011 0.000000000000000 23.600000000000023 0.000000000000000 Q21.399999999999977 0.000000000000000 19.600000000000023 1.599999999999994 Q17.800000000000011 3.199999999999989 17.800000000000011 6.000000000000000 z" />
<glyph unicode="@" horiz-adv-x="90.5" d="M69.500000000000000 9.000000000000000 Q66.500000000000000 7.099999999999994 64.750000000000000 6.150000000000006 Q63.000000000000000 5.199999999999989 59.800000000000011 4.000000000000000 Q56.699999999999989 2.800000000000011 52.850000000000023 2.300000000000011 Q49.000000000000000 1.800000000000011 43.800000000000011 1.800000000000011 Q37.300000000000011 1.800000000000011 31.600000000000023 3.849999999999994 Q25.899999999999977 5.900000000000006 22.000000000000000 9.199999999999989 Q18.100000000000023 12.599999999999994 15.250000000000000 16.900000000000006 Q12.399999999999977 21.199999999999989 11.100000000000023 25.800000000000011 Q9.800000000000011 30.400000000000006 9.800000000000011 35.000000000000000 Q9.800000000000011 48.900000000000006 18.199999999999989 59.000000000000000 Q22.699999999999989 64.400000000000006 30.600000000000023 67.699999999999989 Q38.500000000000000 71.000000000000000 46.399999999999977 71.000000000000000 Q53.699999999999989 71.000000000000000 60.500000000000000 68.900000000000006 Q67.300000000000011 66.800000000000011 71.500000000000000 63.199999999999989 Q76.899999999999977 58.400000000000006 79.500000000000000 51.599999999999994 Q82.100000000000023 44.800000000000011 82.100000000000023 37.099999999999994 Q82.100000000000023 31.400000000000006 80.800000000000011 28.050000000000011 Q79.500000000000000 24.699999999999989 75.399999999999977 21.000000000000000 Q72.000000000000000 18.099999999999994 67.399999999999977 17.400000000000006 Q62.800000000000011 16.699999999999989 59.000000000000000 18.099999999999994 Q55.199999999999989 19.599999999999994 53.699999999999989 22.599999999999994 Q50.100000000000023 20.099999999999994 45.550000000000011 19.750000000000000 Q41.000000000000000 19.400000000000006 37.000000000000000 21.000000000000000 Q33.000000000000000 22.599999999999994 30.250000000000000 26.650000000000006 Q27.500000000000000 30.699999999999989 27.399999999999977 36.300000000000011 Q27.300000000000011 40.699999999999989 28.800000000000011 44.250000000000000 Q30.300000000000011 47.800000000000011 32.800000000000011 49.800000000000011 Q35.300000000000011 51.900000000000006 38.399999999999977 53.000000000000000 Q41.500000000000000 54.099999999999994 44.800000000000011 53.900000000000006 Q48.199999999999989 53.800000000000011 51.100000000000023 52.500000000000000 Q52.899999999999977 51.599999999999994 53.600000000000023 50.400000000000006 C53.600000000000023 51.433333333333337 53.600000000000023 52.724999999999994 53.600000000000023 53.500000000000000 C55.425000000000011 53.500000000000000 59.074999999999989 53.500000000000000 60.899999999999977 53.500000000000000 Q60.699999999999989 50.699999999999989 60.399999999999977 46.699999999999989 Q60.100000000000023 42.699999999999989 59.899999999999977 40.400000000000006 Q59.800000000000011 38.199999999999989 59.899999999999977 34.750000000000000 Q60.000000000000000 31.300000000000011 60.500000000000000 27.699999999999989 Q61.399999999999977 25.000000000000000 65.100000000000023 24.400000000000006 Q68.800000000000011 23.800000000000011 71.199999999999989 26.199999999999989 Q73.699999999999989 28.699999999999989 74.350000000000023 30.300000000000011 Q75.000000000000000 31.900000000000006 75.000000000000000 36.699999999999989 Q75.100000000000023 49.500000000000000 67.000000000000000 57.099999999999994 Q63.699999999999989 60.300000000000011 57.949999999999989 62.050000000000011 Q52.199999999999989 63.800000000000011 46.500000000000000 63.800000000000011 Q39.800000000000011 63.800000000000011 33.300000000000011 61.199999999999989 Q26.800000000000011 58.599999999999994 23.399999999999977 54.199999999999989 Q17.500000000000000 46.500000000000000 17.500000000000000 35.000000000000000 Q17.500000000000000 31.000000000000000 19.300000000000011 26.550000000000011 Q21.100000000000023 22.099999999999994 24.300000000000011 18.099999999999994 Q27.600000000000023 14.099999999999994 32.750000000000000 11.400000000000006 Q37.899999999999977 8.699999999999989 43.800000000000011 8.599999999999994 Q47.500000000000000 8.500000000000000 50.500000000000000 8.750000000000000 Q53.500000000000000 9.000000000000000 55.399999999999977 9.500000000000000 Q57.399999999999977 10.099999999999994 59.100000000000023 10.800000000000011 Q60.800000000000011 11.500000000000000 62.000000000000000 12.300000000000011 Q63.199999999999989 13.099999999999994 64.600000000000023 14.000000000000000 C66.233333333333348 12.333333333333343 68.274999999999977 10.250000000000000 69.500000000000000 9.000000000000000 zM34.700000000000003 36.600000000000001 Q34.699999999999989 33.300000000000011 36.350000000000023 30.750000000000000 Q38.000000000000000 28.199999999999989 40.500000000000000 27.199999999999989 Q43.000000000000000 26.300000000000011 45.600000000000023 26.400000000000006 Q48.199999999999989 26.500000000000000 50.399999999999977 28.099999999999994 Q52.600000000000023 29.800000000000011 53.399999999999977 32.699999999999989 Q53.600000000000023 33.800000000000011 53.550000000000011 36.849999999999994 Q53.500000000000000 39.900000000000006 53.399999999999977 40.900000000000006 Q52.500000000000000 43.900000000000006 50.350000000000023 45.699999999999989 Q48.199999999999989 47.500000000000000 45.600000000000023 47.500000000000000 Q43.000000000000000 47.599999999999994 40.500000000000000 46.550000000000011 Q38.000000000000000 45.500000000000000 36.300000000000011 42.800000000000011 Q34.699999999999989 40.199999999999989 34.699999999999989 36.599999999999994 z" />
<glyph unicode="A" horiz-adv-x="71.300000000000011" d="M31.799999999999997 73.099999999999994 C32.825000000000010 70.800000000000011 34.875000000000021 66.199999999999989 35.899999999999999 63.900000000000006 C42.974999999999987 47.949999999999989 57.125000000000021 16.050000000000011 64.200000000000017 0.099999999999994 C61.825000000000010 0.099999999999994 57.075000000000010 0.099999999999994 54.700000000000010 0.099999999999994 C52.549999999999976 4.650000000000006 48.250000000000021 13.750000000000000 46.099999999999987 18.300000000000011 C39.224999999999987 18.300000000000011 25.474999999999987 18.300000000000011 18.599999999999987 18.300000000000011 C16.575000000000010 13.750000000000000 12.525000000000000 4.650000000000006 10.500000000000023 0.099999999999994 C8.125000000000023 0.099999999999994 3.375000000000023 0.099999999999994 1.000000000000023 0.099999999999994 C7.950000000000012 16.474999999999994 21.849999999999987 49.224999999999994 28.799999999999976 65.599999999999994 C29.549999999999976 67.474999999999994 31.049999999999976 71.224999999999994 31.799999999999976 73.099999999999994 zM42.299999999999997 26.600000000000001 C39.700000000000010 32.800000000000011 34.500000000000021 45.199999999999989 31.899999999999999 51.400000000000006 C29.474999999999987 45.199999999999989 24.625000000000021 32.800000000000011 22.200000000000010 26.599999999999994 C27.224999999999987 26.599999999999994 37.274999999999999 26.599999999999994 42.299999999999976 26.599999999999994 z" />
<glyph unicode="B" horiz-adv-x="52.093337923371529" d="M21.443859717071533 70.200172593100007 C25.404629237971527 70.200172593100007 30.334936461571509 69.958316037700001 34.612820489871545 67.659282496599985 C39.074042405071530 65.261718946499997 42.174682912015065 60.502204490198721 41.924149568571544 51.889387283600001 C41.743865651171539 45.691599777500016 37.343620452471519 41.135805211899992 32.995082611671556 38.921347195599992 C39.028802101671509 39.057624062699972 46.910790294237096 34.541567983400029 46.897147484671528 19.146819259099999 C46.889731312571506 10.778300631999997 41.033332655072137 0.250146750378264 31.162703623971503 -0.033946931900005 C22.163178337371527 -0.292968750000028 13.065217091271530 -0.020482450999481 4.016473824871548 -0.013750210500007 C3.952394156071557 23.959957237200001 4.101913383371505 38.104294077699990 4.016473824871548 70.069237341299981 L21.443859717071540 70.200172593100007 zM12.976150423371530 63.000000000000000 C13.013818898271518 57.848438674600004 13.034425406071557 52.423217613899993 13.089155848171538 47.545316023900000 C13.117112223871539 45.053678022700012 13.145278122771538 43.290254041899999 13.173339259971522 40.789279067499990 C16.532867378371542 40.786282825199947 17.908820687869444 40.722656249941110 22.256072992871530 40.940973979999995 C27.566179172771534 41.207645947999993 32.449048797496481 45.570667647099356 32.603470034971529 51.671444256600012 C32.833508068871502 60.759641446700016 26.795734497371505 63.049655477699986 20.976150423371529 63.000000000000000 L12.976150423371530 63.000000000000000 zM13.034425406071531 33.115717346399997 L13.052676756971517 8.105468750000000 C18.548794621371506 8.146365396899995 21.775274294371364 8.145097980513015 27.922773088671555 8.228158691000004 C32.003446239571552 8.283293896799989 37.492016153564371 10.928510838500131 37.662283179171503 19.766858583199991 C37.815403001671505 27.715116521200002 32.943627655971532 33.032173746014394 27.120402164371534 33.032067490400010 C21.232944940771539 33.198037696900002 17.688257216171529 33.087834061099983 13.034425406071557 33.115717346400004 z" />
<glyph unicode="C" horiz-adv-x="66.782756762042411" d="M60.037808631742408 4.046242774600000 Q57.676833987042400 2.719431196599999 54.325123258542405 1.190489454100003 Q47.720191335942431 -1.468898428999978 40.397091255442419 -1.579968364600006 Q33.277601586542389 -1.646320396499931 26.469059252342429 1.190489454100003 Q19.865091985842394 3.853241965400002 14.661443863742402 9.080085821500006 Q9.581235172642419 14.067428901000000 6.771847496342428 20.887701209999989 Q3.983398000842424 27.440882086700014 4.001389677642390 34.815733213100003 Q3.937893777942389 41.932490945899985 6.771847496342428 48.743765216300005 Q9.431830419942383 55.354049733900013 14.661443863742402 60.551380604799988 Q19.649123322242399 65.619982048099985 26.469059252342429 68.440976972200019 Q33.029045888042432 71.247284644799862 40.397091255442419 71.211434790900000 Q43.265500128442383 71.382689922999987 46.131504847485402 71.062922856475637 Q48.997509566528365 70.743155789951260 51.803609356942431 69.935598777499990 Q53.505356411642410 69.445859327700020 55.752678205842400 68.222929663850010 Q58.000000000042391 67.000000000000000 59.000000000042391 66.000000000000000 Q59.000000000042391 63.000000000000000 59.000000000042391 61.000000000000000 Q59.000000000042391 59.000000000000000 59.000000000042391 56.000000000000000 Q55.971852454842391 59.028147545200000 50.599906291642398 61.091688038900003 Q45.638701950242407 62.346514143299942 40.889683011042436 62.327991792600017 Q35.343598941142417 62.354976738199923 30.405757822542380 60.242609413899999 Q25.272247354842403 58.119186683700008 21.517915206942387 54.303942840899992 Q17.581474215242377 50.391801626800003 15.579248634042397 45.416100225299999 Q13.446071544442400 40.289109572799987 13.493866255342407 34.932175036800004 Q13.480323538442388 29.380968127699987 15.579248634042397 24.448249848300009 Q17.693934342442429 19.314486181000007 21.517915206942387 15.560407232699987 Q25.434811550042394 11.626050968500010 30.405757822542380 9.621740659700009 Q35.530692088842429 7.486413698900009 40.889683011042436 7.536358280999991 Q46.401935809942401 7.619962978099977 51.373608199642419 9.621740659700009 Q56.836289442442407 12.031038545900003 60.037808631742379 14.580924855500001 C60.037808631742379 11.069364161866673 60.037808631742379 6.679913294824985 60.037808631742379 4.046242774599989 z" />
<glyph unicode="D" horiz-adv-x="64.099999999999994" d="M14.500000000000000 69.099999999999994 Q16.399999999999977 69.300000000000011 20.149999999999977 69.199999999999989 Q23.899999999999977 69.099999999999994 25.500000000000000 69.099999999999994 Q31.300000000000011 69.000000000000028 36.250000000000000 67.350000000000023 Q41.199999999999989 65.699999999999989 44.500000000000000 63.000000000000000 Q47.800000000000011 60.300000000000011 49.800000000000011 57.800000000000011 Q51.800000000000011 55.300000000000011 53.100000000000023 52.599999999999994 Q56.399999999999977 45.500000000000000 57.000000000000000 37.650000000000006 Q57.600000000000023 29.800000000000011 55.500000000000000 22.699999999999989 Q53.500000000000000 15.699999999999989 48.350000000000023 9.949999999999989 Q43.199999999999989 4.199999999999989 35.699999999999989 1.599999999999994 Q33.600000000000023 0.900000000000006 28.500000000000000 0.000000000000000 Q26.899999999999977 0.000000000000000 24.000000000000000 -0.050000000000011 Q21.100000000000023 -0.099999999999994 19.399999999999977 -0.099999999999994 Q17.699999999999989 -0.099999999999994 13.800000000000011 0.000000000000000 C10.500000000000000 0.000000000000000 6.375000000000000 0.000000000000000 3.899999999999977 0.000000000000000 C3.899999999999977 17.275000000000006 3.899999999999977 51.824999999999989 3.899999999999977 69.099999999999994 C6.550000000000011 69.099999999999994 11.850000000000023 69.099999999999994 14.500000000000000 69.099999999999994 zM45.399999999999999 47.600000000000001 Q42.800000000000011 54.000000000000000 37.449999999999989 57.750000000000000 Q32.100000000000023 61.500000000000000 24.600000000000023 61.500000000000000 Q24.100000000000023 61.500000000000000 20.300000000000011 61.550000000000011 Q16.500000000000000 61.599999999999994 13.100000000000023 61.500000000000000 C13.199999999999989 43.766666666666652 13.324999999999989 21.599999999999994 13.399999999999977 8.300000000000011 Q17.000000000000000 8.300000000000011 20.250000000000000 8.199999999999989 Q23.500000000000000 8.099999999999994 27.500000000000000 8.599999999999994 Q31.600000000000023 9.199999999999989 34.899999999999977 10.599999999999994 Q39.899999999999977 12.599999999999994 42.949999999999989 17.599999999999994 Q46.000000000000000 22.599999999999994 46.699999999999989 28.199999999999989 Q47.500000000000000 33.900000000000006 47.100000000000023 39.099999999999994 Q46.699999999999989 44.300000000000011 45.399999999999977 47.599999999999994 z" />
<glyph unicode="E" horiz-adv-x="50.78125" d="M13.206180603400000 31.802462167400002 C19.336169578125009 31.802462167399995 31.596147527574999 31.802462167399995 37.726136502299994 31.802462167399995 C37.678472052724999 33.832415486900004 37.583143153575008 37.892322125899994 37.535478704000013 39.922275445400004 C31.456214180875008 39.954504891250025 19.297685134624999 40.018963782949982 13.218420611499994 40.051193228800003 C13.209210305800013 50.999663004399991 13.204605152900001 56.473897892299988 13.199999999999989 61.948132780099996 C22.333333333333314 61.948132780099996 33.750000000000000 61.948132780099996 40.600000000000023 61.948132780099996 C40.600000000000023 63.970954356850001 40.600000000000023 68.016597510349982 40.600000000000023 70.039419087099986 C31.449999999999989 70.039419087099986 13.149999999999977 70.039419087099986 4.000000000000000 70.039419087099986 C4.003630705399985 52.529564315324990 4.010892116200012 17.509854771774997 4.014522821599996 0.000000000000000 C13.389522821599996 0.000000000000000 32.139522821599996 0.000000000000000 41.514522821599996 0.000000000000000 C41.514522821599996 2.050000000000011 41.514522821599996 6.150000000000006 41.514522821599996 8.199999999999989 C34.439522821600008 8.199999999999989 20.289522821600031 8.199999999999989 13.214522821599985 8.199999999999989 C13.212437267050007 14.100615541850004 13.208266157949993 25.901846625550007 13.206180603400014 31.802462167399995 z" />
<glyph unicode="F" horiz-adv-x="41.05078125" d="M0.000000000000000 70.000000000000000 C8.882572614100013 70.009854771775451 26.647717842299983 70.029564315324535 35.530290456399996 70.039419087099986 C35.530290456399996 67.989419087100003 35.530290456399996 63.889419087100009 35.530290456399996 61.839419087099998 C28.900980111574995 61.839419087099998 15.642359421924994 61.839419087099998 9.013049077099993 61.839419087099998 C8.961493060500004 56.679564315324996 8.858381027300027 46.359854771775019 8.806825010699981 41.199999999999989 C14.660616683324974 41.178668264424857 26.368200028575018 41.136004793275163 32.221991701200011 41.114673057700003 C32.221991701200011 39.039673057699986 32.221991701200011 34.889673057700008 32.221991701200011 32.814673057699991 C26.400527614775001 32.836004793274839 14.757599441924981 32.878668264425158 8.936135355500028 32.900000000000006 C8.936135355499971 24.675000000000011 8.936135355500028 8.224999999999994 8.936135355500028 0.000000000000000 C6.720618114124989 0.000000000000000 2.289583631375024 0.000000000000000 0.074066389999984 0.000000000000000 C0.061566389999996 0.000000000000000 0.036566390000019 0.000000000000000 0.024066389999973 0.000000000000000 C0.018049792499994 17.500000000000000 0.006016597499979 52.500000000000000 0.000000000000000 70.000000000000000 z" />
<glyph unicode="G" horiz-adv-x="76.250893681294556" d="M58.053861943394580 57.274067420400002 Q52.461774304494590 60.690310148300000 48.570867969494579 61.190899099299997 Q44.857993389294599 61.999535459100031 40.108466353494556 61.922562136900012 Q34.698005173694561 61.948887197700088 27.764730514694556 59.514731320799996 Q22.756753940394596 57.443234368199995 19.094229520194553 53.721287776300017 Q15.254049511494577 49.904813322899997 13.300785975694600 45.050786781800014 Q11.219773194894548 40.049170588300001 11.266399142994578 34.823233515600009 Q11.253187597094586 29.407774769500008 13.300785975694600 24.595680249299988 Q15.363759560094570 19.587456667200001 19.094229520194553 15.925179254900002 Q22.915342821494598 12.087032994200001 27.764730514694556 10.131735710399994 Q32.764340608394583 8.048625630900034 37.992283780894560 8.097348877700000 Q43.196152482994570 8.060344316499936 48.219837047094565 9.509329071400003 Q52.846570245494583 10.843820873999988 55.471532661494599 13.554762377999992 C55.471532661494599 17.911310334666666 55.471532661494599 23.356995280500001 55.471532661494599 26.624406248000014 C51.239167516269596 26.624406248000014 42.774437225819590 26.624406248000014 38.542072080594586 26.624406248000014 C38.542072080594586 28.647227824749990 38.542072080594586 32.692870978249999 38.542072080594586 34.715692555000004 C45.015101126244566 34.715692555000004 57.961159217544584 34.715692555000004 64.434188263194557 34.715692555000004 C64.434188263194557 29.020895695399986 64.434188263194557 17.631301976200007 64.434188263194557 11.936505116599989 Q64.397896344194550 8.207437774999988 60.723013250794601 5.815782380999991 Q55.821287525094569 2.582024413799985 51.479053864294578 1.419822522700002 Q44.733427643694576 -1.067105085900351 37.785181284694580 -1.055095435099986 Q30.785091634294567 -1.042996176099848 24.091308705094583 1.668785178299999 Q17.598367976194574 4.286771236499987 12.482204090494553 9.425740887199993 Q7.487404360094592 14.329236271599996 4.725248381594588 21.034845501799992 Q1.983678569194558 27.477853666599998 2.001367768194575 34.728718081399990 Q1.938939367694593 41.725828193599995 4.725248381594588 48.422590661000015 Q7.340511414494562 54.921742434900011 12.482204090494553 60.031695275700002 Q17.386030198594575 65.015082900399989 24.091308705094583 67.788650984500009 Q30.541008209894564 70.547778740599995 37.785181284694580 70.512531597899994 Q44.897526249794602 70.794552809399988 49.373647525994592 69.967971697899998 Q55.140794538594584 68.902983844800019 62.627105722894591 65.151988392600003 C61.102691129727909 62.526014735199993 59.197172888269598 59.243547663449988 58.053861943394601 57.274067420400002 z" />
<glyph unicode="H" horiz-adv-x="63" d="M48.100000000000001 69.400000000000006 C50.375000000000000 69.400000000000006 54.925000000000011 69.400000000000006 57.199999999999989 69.400000000000006 C57.199999999999989 52.050000000000011 57.199999999999989 17.349999999999994 57.199999999999989 0.000000000000000 C54.925000000000011 0.000000000000000 50.375000000000000 0.000000000000000 48.100000000000023 0.000000000000000 C48.100000000000023 7.775000000000006 48.100000000000023 23.324999999999989 48.100000000000023 31.099999999999994 C39.850000000000023 31.124999999999801 23.350000000000023 31.175000000000210 15.100000000000023 31.199999999999989 C15.100000000000023 23.400000000000006 15.100000000000023 7.800000000000011 15.100000000000023 0.000000000000000 C12.774999999999977 0.000000000000000 8.125000000000000 0.000000000000000 5.800000000000011 0.000000000000000 C5.800000000000011 17.250000000000000 5.800000000000011 51.750000000000000 5.800000000000011 69.000000000000000 C8.100000000000023 69.000000000000000 12.699999999999989 69.000000000000000 15.000000000000000 69.000000000000000 C15.024999999999977 67.175000000000011 15.074999999999989 63.525000000000006 15.100000000000023 61.699999999999989 C15.100000000000023 56.125000000000000 15.100000000000023 44.974999999999994 15.100000000000023 39.400000000000006 C23.350000000000023 39.400000000000006 39.850000000000023 39.400000000000006 48.100000000000023 39.400000000000006 C48.100000000000023 46.900000000000006 48.100000000000023 61.900000000000006 48.100000000000023 69.400000000000006 z" />
<glyph unicode="I" horiz-adv-x="22.899999999999999" d="M4.000000000000000 70.319999999999993 C6.250000000000012 70.319999999999993 10.750000000000011 70.319999999999993 13.000000000000011 70.319999999999993 C13.024999999999988 52.764999999999986 13.074999999999999 17.655000000000001 13.099999999999977 0.099999999999994 C10.849999999999977 0.099999999999994 6.349999999999977 0.099999999999994 4.099999999999977 0.099999999999994 C4.075000000000000 17.655000000000001 4.024999999999989 52.764999999999986 4.000000000000012 70.319999999999993 z" />
<glyph unicode="J" horiz-adv-x="45.05078125" d="M3.903042876900000 12.926141078800001 Q6.880636237899978 10.077178423199996 11.644011829149974 8.563229742600015 Q16.407387420400028 7.049281062000006 19.498893499299982 8.963070539400007 Q22.707447639699978 10.949318340600001 24.205245258300010 15.418435103900009 Q25.703042876899985 19.887551867199988 25.603042876900020 30.268879668000011 C25.618672199166667 43.512586445333341 25.638208851999991 60.067219916999989 25.649930843700020 70.000000000000000 C27.924930843699997 70.000000000000000 32.474930843700008 70.000000000000000 34.749930843699985 70.000000000000000 C34.788208852000025 59.917219917000011 34.864764868599991 39.751659751000005 34.903042876900031 29.668879667999988 Q35.103042876900020 18.187551867200000 33.611904764249971 12.292779660849988 Q32.120766651599979 6.398007454500004 27.723374827099974 3.240663900399994 Q23.790622149599983 0.416932968100014 20.003886455149996 -0.087591607250005 Q16.217150760700008 -0.592116182599995 11.317150760699974 0.207883817399988 Q4.027524204700001 2.028215767599988 0.300968188100001 6.270954356799990 C1.501659751033344 8.489349930799989 3.002524204700023 11.262344398300002 3.903042876899974 12.926141078800015 z" />
<glyph unicode="K" horiz-adv-x="58.537818767300003" d="M40.660165975100000 70.039419087100001 C43.485165975100024 70.039419087099986 49.135165975100001 70.039419087099986 51.960165975099990 70.039419087099986 C44.970124481325009 61.579564315325001 30.990041493774985 44.659854771775002 24.000000000000004 36.199999999999989 C32.449999999999996 27.099999999999994 49.350000000000030 8.900000000000006 57.800000000000018 -0.199999999999989 C54.925000000000018 -0.199999999999989 49.175000000000018 -0.199999999999989 46.300000000000018 -0.199999999999989 C38.050000000000018 8.800000000000011 21.550000000000015 26.800000000000011 13.300000000000015 35.800000000000011 C13.300000000000015 26.800000000000011 13.300000000000015 8.800000000000011 13.300000000000015 -0.199999999999989 C10.975000000000026 -0.199999999999989 6.324999999999993 -0.199999999999989 4.000000000000004 -0.199999999999989 C4.040041493774997 17.359854771774991 4.120124481324983 52.479564315325007 4.160165975099976 70.039419087099986 C6.485165975100021 70.039419087099986 11.135165975099998 70.039419087099986 13.460165975099986 70.039419087099986 C13.420124481324994 61.554564315324996 13.340041493775008 44.584854771774985 13.300000000000015 36.099999999999994 C20.140041493775019 44.584854771774985 33.820124481325031 61.554564315324996 40.660165975099979 70.039419087099986 z" />
<glyph unicode="L" horiz-adv-x="46.700639695699998" d="M13.013139695700000 70.000000000000000 C13.013139695700000 54.250000000000000 13.013139695700000 22.750000000000000 13.013139695700000 7.000000000000000 C20.263139695699998 7.000000000000000 34.763139695699998 7.000000000000000 42.013139695699998 7.000000000000000 C42.013139695699998 5.250000000000000 42.013139695699998 1.750000000000000 42.013139695699998 0.000000000000000 C32.509854771775018 -0.010892116174801 13.503284923925003 -0.032676348525200 4.000000000000023 -0.043568464700002 C4.003284923925003 17.467323651474999 4.009854771775020 52.489107883825000 4.013139695700000 70.000000000000000 C6.263139695700000 70.000000000000000 10.763139695700000 70.000000000000000 13.013139695700000 70.000000000000000 z" />
<glyph unicode="M" horiz-adv-x="75.900000000000006" d="M34.399999999999999 33.000000000000000 C41.524999999999977 42.724999999999994 55.774999999999977 62.175000000000011 62.899999999999977 71.900000000000006 C63.774999999999977 53.824999999999989 65.524999999999977 17.675000000000011 66.399999999999977 -0.400000000000006 C64.250000000000000 -0.400000000000006 59.949999999999989 -0.400000000000006 57.800000000000011 -0.400000000000006 C57.024999999999977 11.125000000000000 55.475000000000023 34.175000000000011 54.699999999999989 45.699999999999989 C49.625000000000000 39.025000000000006 39.475000000000023 25.675000000000011 34.399999999999977 19.000000000000000 C29.225000000000023 25.750000000000000 18.875000000000000 39.250000000000000 13.699999999999989 46.000000000000000 C12.925000000000011 34.474999999999994 11.375000000000000 11.425000000000011 10.600000000000023 -0.099999999999994 C8.449999999999989 -0.099999999999994 4.149999999999977 -0.099999999999994 2.000000000000000 -0.099999999999994 C2.875000000000000 18.000000000000000 4.625000000000000 54.199999999999989 5.500000000000000 72.300000000000011 C12.725000000000023 62.474999999999994 27.175000000000011 42.824999999999989 34.399999999999977 33.000000000000000 z" />
<glyph unicode="N" horiz-adv-x="67.799999999999997" d="M12.700000000000003 46.700000000000003 C12.700000000000003 35.099999999999994 12.700000000000003 11.900000000000006 12.700000000000003 0.300000000000011 C10.524999999999991 0.300000000000011 6.175000000000025 0.300000000000011 4.000000000000013 0.300000000000011 C4.000000000000013 17.724999999999994 4.000000000000013 52.574999999999989 4.000000000000013 70.000000000000000 C15.125000000000014 57.599999999999994 37.375000000000014 32.800000000000011 48.500000000000014 20.400000000000006 C48.425000000000026 32.699999999999989 48.274999999999991 57.300000000000011 48.200000000000003 69.599999999999994 C50.399999999999991 69.599999999999994 54.800000000000026 69.599999999999994 57.000000000000014 69.599999999999994 C57.000000000000014 51.500000000000000 57.000000000000014 15.300000000000011 57.000000000000014 -2.800000000000011 C45.925000000000026 9.574999999999989 23.774999999999991 34.324999999999989 12.700000000000003 46.699999999999989 z" />
<glyph unicode="O" horiz-adv-x="82.814257980494574" d="M72.845114187794579 21.110701198699999 Q70.090842335994580 14.591893956500002 65.088158478994558 9.501596584100014 Q60.228913260394563 4.533894880199995 53.479053864294599 1.744640875199991 Q46.985164697194591 -0.870037121100012 39.785181284694602 -0.979239738199993 Q32.785385165994569 -1.044476253299933 26.091308705094548 1.744640875199991 Q19.598367976194595 4.362626933400009 14.482204090494578 9.501596584100014 Q9.487404360094560 14.405091968500017 6.725248381594556 21.110701198699985 Q3.983678569194582 27.553709363499991 4.001367768194600 34.804573778300011 Q3.938939367694561 41.801683890499987 6.725248381594556 48.498446357900008 Q9.340511414494587 54.997598131800004 14.482204090494578 60.107550972599995 Q19.386030198594597 65.090938597300010 26.091308705094548 67.864506681400002 Q32.541008209894585 70.623634437500016 39.785181284694602 70.588387294799986 Q46.763509629794555 70.629363855299914 53.479053864294599 67.864506681400002 Q60.015490761794581 65.267923796100007 65.088158478994558 60.107550972599995 Q70.026506765294585 55.189505891199985 72.845114187794593 48.498446357900008 Q75.651428859894565 42.045909094800010 75.568994801194606 34.804573778300011 Q75.602706648194555 27.637367653300004 72.845114187794593 21.110701198699985 zM66.718168418794576 34.899089212500002 Q66.779736008294606 40.307430953400001 64.683781586094597 45.126642478700006 Q62.578646067794580 50.123999317400006 58.890338041594589 53.797143473200009 Q55.101710757494573 57.651275138199992 50.219837047094586 59.590587017699988 Q45.204193300494580 61.655578046000016 39.992283780894581 61.624973850400011 Q34.581822601094586 61.651298911200087 29.764730514694577 59.590587017699988 Q24.756753940394560 57.519090065099988 21.094229520194574 53.797143473200009 Q17.254049511494600 49.980669019799990 15.300785975694568 45.126642478700006 Q13.219773194894573 40.125026285199993 13.266399142994603 34.899089212500002 Q13.253187597094554 29.483630466400001 15.300785975694568 24.671535946200009 Q17.363759560094593 19.663312364099994 21.094229520194574 16.001034951799994 Q24.915342821494562 12.162888691099994 29.764730514694577 10.207591407300015 Q34.764340608394548 8.124481327800027 39.992283780894581 8.173204574599993 Q45.369740993094581 8.254764818200044 50.219837047094586 10.207591407300015 Q55.261109785094561 12.290803715799996 58.890338041594589 16.001034951799994 Q62.626696425594560 19.802829310100009 64.683781586094597 24.671535946200009 Q66.743346812194602 29.546112398399998 66.718168418794562 34.899089212500002 z" />
<glyph unicode="P" horiz-adv-x="53.101767807800002" d="M19.818118948800002 62.221722694599997 Q17.909405255900026 62.221722694600004 16.520746888000019 62.221722694600004 Q15.132088520100012 62.221722694600004 13.096127247600009 62.221722694600004 C13.030073800133323 53.479975357533334 12.947506990799980 42.552791186200011 12.897966905200008 35.996480683399994 Q15.855562533599993 35.987759371899983 17.964088320750022 35.998240341699983 Q20.072614107899994 36.008721311499983 22.108575380399998 36.008721311499983 Q28.485666587699995 36.008721311499983 32.677480596750001 39.635277328100017 Q36.869294605800008 43.261833344699994 36.869294605800008 49.242469582599995 Q36.869294605800008 53.314392127500014 34.845608480199985 56.411205388750005 Q32.821922354600019 59.508018649999997 29.448192229699998 61.166658161800001 Q27.599066512799993 62.075868963099992 25.127798988650000 62.148795828849984 Q22.656531464500006 62.221722694600004 19.818118948800020 62.221722694600004 zM23.942600276600000 28.008298755199998 Q21.821620699099981 27.974213501599991 18.407247168500021 28.012873966149982 Q14.992873637900004 28.051534430700002 12.872060857500003 28.008298755200002 C12.883817427333327 18.657676348566667 12.898513139624981 6.969398340275006 12.907330566999974 -0.043568464700002 C10.680497925249995 -0.043568464700002 6.226832641749979 -0.043568464700002 4.000000000000000 -0.043568464700002 C4.000000000000000 17.477178423249995 4.000000000000000 52.518672199149989 4.000000000000000 70.039419087099986 Q9.781693989100006 70.036511983300215 13.141434336600014 70.037965535200101 Q16.501174684100022 70.039419087099986 17.941908713700002 70.039419087099986 Q20.903493508300016 70.039419087099986 26.082520838349978 69.770503958250004 Q31.261548168399997 69.501588829400021 33.547378683200009 68.494356138699999 Q38.922743169699970 66.126053839299999 42.408700304074443 61.302433059150133 Q45.894657438448917 56.478812279000294 45.942600276599990 48.367911479899988 Q45.994201158199985 39.638148121200004 39.367720584249980 33.894960282249997 Q32.741240010299975 28.151772443300018 23.942600276599990 28.008298755200002 z" />
<glyph unicode="Q" horiz-adv-x="87.0546875" d="M68.982187465899997 21.110701198699999 Q66.227915614099970 14.591893956500002 61.225231757100005 9.501596584100014 Q56.365986538500010 4.533894880199995 49.616127142399989 1.744640875199991 Q43.122237975299981 -0.870037121100012 35.922254562799992 -0.979239738199993 Q28.922458444100016 -1.044476253299933 22.228381983199995 1.744640875199991 Q15.735441254299985 4.362626933400009 10.619277368600024 9.501596584100014 Q5.624477638200005 14.405091968500017 2.862321659700001 21.110701198699985 Q0.120751847299971 27.553709363499991 0.138441046299988 34.804573778300011 Q0.076012645800006 41.801683890499987 2.862321659700001 48.498446357900008 Q5.477584692599976 54.997598131800004 10.619277368600024 60.107550972599995 Q15.523103476699987 65.090938597300010 22.228381983199995 67.864506681400002 Q28.678081487999975 70.623634437500016 35.922254562799992 70.588387294799986 Q42.900582907900002 70.629363855299914 49.616127142399989 67.864506681400002 Q56.152564039899971 65.267923796100007 61.225231757100005 60.107550972599995 Q66.163580043399975 55.189505891199985 68.982187465899983 48.498446357900008 Q71.788502138000013 42.045909094800010 71.706068079299996 34.804573778300011 Q71.739779926300002 27.637367653300004 68.982187465899983 21.110701198699985 zM62.855241696900002 34.899089212500002 Q62.916809286399996 40.307430953400001 60.820854864199987 45.126642478700006 Q58.715719345899970 50.123999317400006 55.027411319699979 53.797143473200009 Q51.238784035600020 57.651275138199992 46.356910325199976 59.590587017699988 Q41.341266578599971 61.655578046000016 36.129357058999972 61.624973850400011 Q30.718895879199977 61.651298911200087 25.901803792800024 59.590587017699988 Q20.893827218500007 57.519090065099988 17.231302798300021 53.797143473200009 Q13.391122789599990 49.980669019799990 11.437859253800013 45.126642478700006 Q9.356846473000019 40.125026285199993 9.403472421099991 34.899089212500002 Q9.390260875199999 29.483630466400001 11.437859253800013 24.671535946200009 Q13.500832838199983 19.663312364099994 17.231302798300021 16.001034951799994 Q21.052416099600009 12.162888691099994 25.901803792800024 10.207591407300015 Q30.901413886499995 8.124481327800027 36.129357058999972 8.173204574599993 Q41.506814271200028 8.254764818200044 46.356910325199976 10.207591407300015 Q51.398183063200008 12.290803715799996 55.027411319699979 16.001034951799994 Q58.763769703700007 19.802829310100009 60.820854864199987 24.671535946200009 Q62.880420090299992 29.546112398399998 62.855241696900009 34.899089212500002 zM43.740663900400001 24.083402489600001 C45.005497925300006 25.216078838149997 47.535165975099972 27.481431535250010 48.800000000000011 28.614107883799988 Q50.149999999999977 27.089107883800011 54.816286307050007 21.960321576750005 Q59.482572614100036 16.831535269699998 70.165145228200004 5.048962655600008 C68.412033194999992 3.438727524200004 66.220643153499964 1.425933609949993 64.905809128600026 0.218257261399998 C59.614522821549997 6.184543568450010 49.031950207449995 18.117116182550006 43.740663900400023 24.083402489599990 z" />
<glyph unicode="R" horiz-adv-x="58.000000000000007" d="M4.000000000000000 70.000000000000000 C9.174999999999988 70.024999999999920 19.525000000000013 70.075000000000102 24.700000000000024 70.099999999999994 Q29.900000000000013 70.199999999999989 33.999999999999979 68.199999999999989 Q38.100000000000001 66.199999999999989 40.400000000000013 62.900000000000006 Q42.700000000000024 59.699999999999989 43.650000000000013 55.599999999999994 Q44.600000000000001 51.500000000000000 43.900000000000013 47.500000000000000 Q43.299999999999990 43.599999999999994 40.999999999999979 39.949999999999989 Q38.700000000000024 36.300000000000011 35.100000000000001 34.099999999999994 C40.566666666666698 22.766666666666680 47.400000000000013 8.599999999999994 51.499999999999979 0.099999999999994 C48.975000000000001 0.099999999999994 43.924999999999990 0.099999999999994 41.400000000000013 0.099999999999994 C37.624999999999979 7.925000000000011 30.075000000000024 23.574999999999989 26.299999999999990 31.400000000000006 Q25.200000000000024 31.300000000000011 23.700000000000024 31.300000000000011 C20.200000000000024 31.266666666666652 15.825000000000022 31.224999999999994 13.200000000000022 31.199999999999989 C13.267672413800005 23.425000000000011 13.403017241399970 7.875000000000000 13.470689655200010 0.099999999999994 C11.145689655200021 0.099999999999994 6.495689655199987 0.099999999999994 4.170689655199999 0.099999999999994 C4.128017241399993 17.574999999999989 4.042672413799982 52.525000000000006 3.999999999999977 70.000000000000000 zM13.199999999999999 61.799999999999997 C13.200000000000022 56.199999999999989 13.200000000000022 45.000000000000000 13.200000000000022 39.400000000000006 C15.924999999999988 39.400000000000006 21.374999999999979 39.400000000000006 24.100000000000001 39.400000000000006 Q27.200000000000024 39.400000000000006 29.600000000000001 41.050000000000011 Q31.999999999999979 42.699999999999989 33.200000000000024 45.099999999999994 Q34.400000000000013 47.599999999999994 34.499999999999979 50.500000000000000 Q34.600000000000001 53.400000000000006 33.600000000000001 55.900000000000006 Q32.600000000000001 58.400000000000006 30.249999999999979 60.099999999999994 Q27.900000000000013 61.800000000000011 24.600000000000001 61.800000000000011 C20.799999999999990 61.800000000000011 16.049999999999990 61.800000000000011 13.200000000000022 61.800000000000011 z" />
<glyph unicode="S" horiz-adv-x="48.964905443999996" d="M25.391283902599998 39.635219213399999 Q41.283521586300012 32.402662670700010 41.130335826599989 19.127871321100002 Q41.456125896999978 -0.105412731299992 20.230987888699975 -0.396168046500009 Q13.035454019500026 0.187597761700005 8.846247060399993 2.415577896200006 Q6.402543000799984 3.715232974700001 4.635263713799976 5.098863078300013 C4.605636838400006 8.321890423966664 4.568603244149973 12.350674606050006 4.546383087600010 14.767945115299995 Q8.821716316399989 11.636664906500016 10.575488317800012 10.866759378000012 Q15.854846192000014 7.951247184099998 19.578224634200001 8.002252368299992 Q31.651780667799972 8.167643546799951 31.560671892800020 19.025798343199995 Q30.466067153399980 25.318812216900000 21.777610699699995 29.952334221400008 Q4.166145894400007 39.344463898199990 3.999999999999989 51.473114188700009 Q4.026923520500009 59.940270511300014 9.692439070699994 65.464443628500021 Q14.599301463199982 70.060992849300021 23.871654698299995 70.294395016500005 Q33.543142737699995 70.537844140099992 37.872942994100001 67.724840609599994 C37.682568538866676 65.191393145599989 37.444600469824977 62.024583815600010 37.301819628400025 60.124498217600006 Q33.713945929500014 61.288857994900013 31.567437395999992 61.721646675300008 Q27.762367802299980 62.396458389099990 23.731244433199993 62.241097049600000 Q13.464338095500000 61.936555924200007 13.709810973099980 51.536406191799983 Q13.717091499799995 45.362365925999995 25.391283902599969 39.635219213400006 z" />
<glyph unicode="T" horiz-adv-x="52.41015625" d="M21.437759335999999 61.982987551800001 C17.078319501999999 61.985165975050052 8.359439834000000 61.989522821549940 4.000000000000000 61.991701244799998 C4.000000000000000 63.982195235349991 4.000000000000000 67.963183216450005 4.000000000000000 69.953677206999998 C14.985477178400004 69.953677206999998 36.956431535200011 69.953677206999998 47.941908713600014 69.953677206999998 C47.941908713600014 67.963183216450005 47.941908713600014 63.982195235349991 47.941908713600014 61.991701244799998 C43.585062240574985 61.991701244799998 34.871369294524982 61.991701244799998 30.514522821500009 61.991701244799998 C30.514522821500009 46.493775933600006 30.514522821500009 15.497925311199992 30.514522821500009 0.000000000000000 C28.211618257200030 0.000000000000000 23.605809128600015 0.000000000000000 21.302904564299979 0.000000000000000 C21.336618257224984 15.495746887949991 21.404045643074994 46.487240663850002 21.437759335999999 61.982987551799994 z" />
<glyph unicode="U" horiz-adv-x="62.391026971000812" d="M13.300000000000001 70.534989220000000 C13.349999999999993 59.551241914999991 13.450000000000015 37.583747305000003 13.500000000000027 26.599999999999994 Q13.500000000000027 22.400000000000006 14.750000000000027 18.900000000000006 Q16.000000000000025 15.400000000000006 18.000000000000025 13.199999999999989 Q20.099999999999991 11.099999999999994 22.750000000000025 9.949999999999989 Q25.400000000000002 8.800000000000011 28.099999999999991 8.800000000000011 Q30.900000000000002 8.800000000000011 33.549999999999983 10.000000000000000 Q36.200000000000017 11.199999999999989 38.299999999999983 13.300000000000011 Q40.400000000000006 15.500000000000000 41.700000000000017 19.050000000000011 Q43.000000000000028 22.599999999999994 43.099999999999994 27.000000000000000 C43.166666666666657 26.933333333333337 43.250000000000028 26.849999999999994 43.299999999999983 26.800000000000011 C43.275000000000006 37.703443983400007 43.224999999999994 59.510331950199998 43.200000000000017 70.413775933599993 C45.474999999999994 70.413775933599993 50.025000000000006 70.413775933599993 52.299999999999983 70.413775933599993 C52.400000000000006 59.435331950200009 52.599999999999994 37.478443983399984 52.700000000000017 26.500000000000000 Q52.799999999999983 20.000000000000000 50.700000000000017 14.849999999999994 Q48.599999999999994 9.699999999999989 45.099999999999994 6.500000000000000 Q41.700000000000017 3.400000000000006 37.250000000000028 1.750000000000000 Q32.799999999999983 0.099999999999966 28.099999999999991 0.199999999999989 Q23.500000000000025 0.300000000000011 19.099999999999991 2.050000000000011 Q14.700000000000015 3.800000000000011 11.299999999999981 6.900000000000006 Q7.900000000000004 10.099999999999994 5.950000000000015 15.199999999999989 Q4.000000000000027 20.300000000000011 4.200000000000015 26.400000000000006 C4.133333333333352 41.104591977866676 4.049999999999981 59.485331950199992 4.000000000000027 70.513775933600016 C6.325000000000015 70.519079255199927 10.974999999999993 70.529685898400061 13.299999999999981 70.534989220000000 z" />
<glyph unicode="V" horiz-adv-x="67.546875000000938" d="M41.000000000000000 40.000000000000000 C44.250000000000000 47.500000000000000 50.750000000000000 62.500000000000000 54.000000000000000 70.000000000000000 C56.572441217150015 70.009854771774997 61.717323651449988 70.029564315324990 64.289764868600003 70.039419087099986 C56.026798063624994 51.604564315325007 39.500864453674978 14.734854771774991 31.237897648700027 -3.699999999999989 C30.462897648699993 -1.800000000000011 28.912897648699982 2.000000000000000 28.137897648700005 3.900000000000006 C21.103423236524975 20.425000000000011 7.034474412174973 53.474999999999994 0.000000000000000 70.000000000000000 C2.500000000000000 70.000000000000000 7.500000000000000 70.000000000000000 10.000000000000000 70.000000000000000 C13.250000000000000 62.500000000000000 19.750000000000000 47.500000000000000 23.000000000000000 40.000000000000000 C25.185344827575022 34.250000000000000 29.556034482725011 22.750000000000000 31.741379310299976 17.000000000000000 C34.056034482725011 22.750000000000000 38.685344827575022 34.250000000000000 41.000000000000000 40.000000000000000 z" />
<glyph unicode="W" horiz-adv-x="95.710937500001194" d="M65.995234903899998 0.000576191300000 C61.398980638500007 10.505926813949998 52.206472107699994 31.516628059249996 47.610217842300017 42.021978681900009 C46.800284968475012 44.025577715350011 45.180419220825002 48.032775782249985 44.370486346999996 50.036374815700015 C43.631183161725005 48.039982606025006 42.152576791175022 44.047198186675018 41.413273605900031 42.050805977000010 C37.165503612675025 31.539682149300006 28.669963626225012 10.517434493899998 24.422193633000006 0.006310666199994 C23.571574532275008 0.004732999650003 21.870336330825012 0.001577666549991 21.019717230100014 0.000000000000000 C15.755035784625022 17.514776183024992 5.225672893674982 52.544328549075004 -0.039008551800009 70.059104732099996 C2.298777650774980 70.091478832824976 6.974350055925015 70.156227034274991 9.312136258500004 70.188601134999999 C12.875732047899987 58.091525692974983 20.002923626700010 33.897374808925008 23.566519416099993 21.800299366899992 C28.652389056900006 33.860315182324996 38.824128338500032 57.980346813175004 43.909997979299987 70.040362628600008 C44.525763197025015 70.036574492499994 45.757293632475012 70.028998220299968 46.373058850199982 70.025210084200012 C51.144037145674986 57.961775581099999 60.685993736624994 33.834906574900003 65.456972032099998 21.771472071799991 C69.020567821499981 33.868547513825007 76.147759400300004 58.062698397875010 79.711355189699987 70.159773839899998 C82.049141392275033 70.127399739174962 86.724713797425011 70.062651537725003 89.062500000000000 70.030277436999995 C83.989169072975017 52.533100073349999 73.842507218924993 17.538745346050007 68.769176291900010 0.041567982400011 C68.075690944899975 0.031320034624997 66.688720250900019 0.010824139074998 65.995234903899984 0.000576191300013 z" />
<glyph unicode="X" horiz-adv-x="67.464843750000796" d="M27.280082987499998 44.894190871399999 C31.014522821525020 51.180497925325000 38.483402489574985 63.753112033175000 42.217842323599996 70.039419087099986 C45.112033194974970 70.039419087099986 50.900414937725031 70.039419087099986 53.794605809100005 70.039419087099986 C43.530537272800018 53.539383316600009 38.398503004699990 45.289365431400000 33.266468736499974 37.039347546199991 C40.565612629300006 24.678375542566670 49.689542495299975 9.227160538025004 55.163900414900013 -0.043568464700002 C52.394190871325009 -0.043568464700002 46.854771784175000 -0.043568464700002 44.085062240599996 -0.043568464700002 C39.914937759275006 7.176348547749996 31.574688796624969 21.616182572650018 27.404564315299979 28.836099585099987 C23.452282157625007 21.616182572649990 15.547717842275006 7.176348547749996 11.595435684599977 -0.043568464700002 C8.670124481275025 -0.043568464700002 2.819502074625007 -0.043568464700002 -0.105809128700002 -0.043568464700002 C5.246887966750023 8.981327800850011 15.952282157650018 27.031120331950007 21.304979253099987 36.056016597499990 C15.952282157650018 44.551867219900004 5.246887966750023 61.543568464700002 -0.105809128700002 70.039419087099986 C2.819502074625007 70.039419087099986 8.670124481275025 70.039419087099986 11.595435684599977 70.039419087099986 C15.516597510325028 63.753112033175000 23.358921161775015 51.180497925325000 27.280082987500009 44.894190871399985 z" />
<glyph unicode="Y" horiz-adv-x="60.399999999999999" d="M1.600000000000000 69.200000000000003 C4.250000000000000 69.199999999999989 9.550000000000011 69.199999999999989 12.199999999999989 69.199999999999989 C16.750000000000000 62.349999999999994 25.850000000000023 48.650000000000006 30.399999999999977 41.800000000000011 C34.850000000000023 48.650000000000006 43.750000000000000 62.349999999999994 48.199999999999989 69.199999999999989 C50.850000000000023 69.199999999999989 56.149999999999977 69.199999999999989 58.800000000000011 69.199999999999989 C52.949999999999989 60.250000000000000 41.250000000000000 42.349999999999994 35.399999999999977 33.400000000000006 C35.399999999999977 25.125000000000000 35.399999999999977 8.574999999999989 35.399999999999977 0.300000000000011 C32.750000000000000 0.224999999999994 27.449999999999989 0.075000000000017 24.800000000000011 0.000000000000000 C24.975000000000023 8.250000000000000 25.324999999999989 24.750000000000000 25.500000000000000 33.000000000000000 C25.524999999999977 33.000000000000000 25.574999999999989 33.000000000000000 25.600000000000023 33.000000000000000 C19.600000000000023 42.050000000000011 7.600000000000023 60.150000000000006 1.600000000000023 69.199999999999989 z" />
<glyph unicode="Z" horiz-adv-x="79.5" d="M16.899999999999999 68.200000000000003 C29.725000000000023 68.199999999999989 55.375000000000000 68.199999999999989 68.199999999999989 68.199999999999989 C66.774999999999977 65.949999999999989 63.925000000000011 61.449999999999989 62.500000000000000 59.199999999999989 C54.274999999999977 46.724999999999994 37.824999999999989 21.775000000000006 29.600000000000023 9.300000000000011 C39.074999999999989 9.300000000000011 58.024999999999977 9.300000000000011 67.500000000000000 9.300000000000011 C67.500000000000000 7.025000000000006 67.500000000000000 2.474999999999994 67.500000000000000 0.199999999999989 C53.625000000000000 0.150000000000063 25.875000000000000 0.049999999999955 12.000000000000000 0.000000000000000 Q12.699999999999989 1.000000000000000 14.699999999999989 3.699999999999989 Q16.699999999999989 6.400000000000006 18.600000000000023 9.300000000000011 C29.600000000000023 26.099999999999994 43.350000000000023 47.099999999999994 51.600000000000023 59.699999999999989 C42.925000000000011 59.699999999999989 25.574999999999989 59.699999999999989 16.899999999999977 59.699999999999989 C16.899999999999977 61.824999999999989 16.899999999999977 66.074999999999989 16.899999999999977 68.199999999999989 z" />
<glyph unicode="[" horiz-adv-x="34.799999999999997" d="M6.200000000000000 0.000000000000000 C6.199999999999989 17.599999999999994 6.199999999999989 52.800000000000011 6.199999999999989 70.400000000000006 C8.550000000000011 70.350000000000023 13.250000000000000 70.250000000000000 15.600000000000023 70.199999999999989 C18.800000000000011 70.199999999999989 25.199999999999989 70.199999999999989 28.399999999999977 70.199999999999989 C28.305000000000007 68.735999999999990 28.115000000000009 65.807999999999993 28.019999999999982 64.343999999999994 C24.845000000000027 64.343999999999994 18.495000000000005 64.343999999999994 15.319999999999993 64.343999999999994 C15.319999999999993 49.789999999999992 15.319999999999993 20.681999999999988 15.319999999999993 6.127999999999986 C18.569999999999993 6.127999999999986 25.069999999999993 6.127999999999986 28.319999999999993 6.127999999999986 C28.365000000000009 4.596000000000004 28.454999999999984 1.532000000000011 28.500000000000000 0.000000000000000 C25.274999999999977 0.000000000000000 18.824999999999989 0.000000000000000 15.600000000000023 0.000000000000000 C13.250000000000000 0.000000000000000 8.550000000000011 0.000000000000000 6.199999999999989 0.000000000000000 z" />
<glyph unicode="\" horiz-adv-x="49.200000000000003" d="M32.600000000000001 0.000000000000000 C25.925000000000011 17.555000000000007 12.574999999999989 52.664999999999992 5.899999999999977 70.219999999999999 C8.084999999999980 70.214999999999947 12.454999999999984 70.205000000000041 14.639999999999986 70.199999999999989 C21.490000000000009 52.650000000000006 35.189999999999998 17.550000000000011 42.040000000000020 0.000000000000000 C39.680000000000007 0.000000000000000 34.959999999999980 0.000000000000000 32.600000000000023 0.000000000000000 z" />
<glyph unicode="]" horiz-adv-x="34.799999999999997" d="M19.100000000000001 0.000000000000000 C15.875000000000000 0.000000000000000 9.425000000000011 0.000000000000000 6.199999999999989 0.000000000000000 C6.245000000000005 1.532000000000011 6.334999999999980 4.596000000000004 6.379999999999995 6.127999999999986 C9.629999999999995 6.127999999999986 16.129999999999995 6.127999999999986 19.379999999999995 6.127999999999986 C19.379999999999995 20.681999999999988 19.379999999999995 49.789999999999992 19.379999999999995 64.343999999999994 C16.204999999999984 64.343999999999994 9.855000000000018 64.343999999999994 6.680000000000007 64.343999999999994 C6.675000000000011 65.807999999999993 6.665000000000020 68.735999999999990 6.660000000000025 70.199999999999989 C9.769999999999982 70.199999999999989 15.990000000000009 70.199999999999989 19.100000000000023 70.199999999999989 C21.449999999999989 70.204999999999956 26.149999999999977 70.215000000000032 28.500000000000000 70.219999999999999 C28.500000000000000 52.664999999999992 28.500000000000000 17.555000000000007 28.500000000000000 0.000000000000000 C26.149999999999977 0.000000000000000 21.449999999999989 0.000000000000000 19.100000000000023 0.000000000000000 z" />
<glyph unicode="^" horiz-adv-x="60.5" d="M44.799999999999997 53.000000000000000 C42.625000000000000 53.000000000000000 38.274999999999977 53.000000000000000 36.100000000000023 53.000000000000000 C34.774999999999977 54.949999999999989 32.125000000000000 58.849999999999994 30.800000000000011 60.800000000000011 C29.324999999999989 58.849999999999994 26.375000000000000 54.949999999999989 24.899999999999977 53.000000000000000 C22.600000000000023 52.975000000000023 18.000000000000000 52.924999999999983 15.699999999999989 52.900000000000006 C19.500000000000000 58.025000000000006 27.100000000000023 68.275000000000006 30.899999999999977 73.400000000000006 C34.375000000000000 68.300000000000011 41.324999999999989 58.099999999999994 44.800000000000011 53.000000000000000 z" />
<glyph unicode="_" horiz-adv-x="55.899999999999999" d="M51.100000000000001 0.000000000000000 C51.100000000000023 -2.050000000000011 51.100000000000023 -6.149999999999977 51.100000000000023 -8.199999999999989 C39.524999999999977 -8.199999999999989 16.375000000000000 -8.199999999999989 4.800000000000011 -8.199999999999989 C4.800000000000011 -6.149999999999977 4.800000000000011 -2.050000000000011 4.800000000000011 0.000000000000000 C16.375000000000000 0.000000000000000 39.524999999999977 0.000000000000000 51.100000000000023 0.000000000000000 z" />
<glyph unicode="`" horiz-adv-x="100" d="M46.100000000000001 98.500000000000000 C49.600000000000023 94.824999999999989 56.600000000000023 87.474999999999994 60.100000000000023 83.800000000000011 C58.850000000000023 82.625000000000000 56.350000000000023 80.274999999999977 55.100000000000023 79.099999999999994 C51.300000000000011 82.125000000000000 43.699999999999989 88.175000000000011 39.899999999999977 91.199999999999989 C41.449999999999989 93.025000000000006 44.550000000000011 96.675000000000011 46.100000000000023 98.500000000000000 z" />
<glyph unicode="a" horiz-adv-x="53.304872878180085" d="M37.812116076780079 28.441913406800001 Q37.803724915680057 32.429890198599992 31.941155794680078 35.466965405999986 Q29.649613086780057 36.744486465399973 25.101034458580052 36.848629380900007 Q21.962801087480109 36.920481447100030 19.768090155980083 35.969357750499995 Q16.862635332580062 34.764579943800015 14.735949083080079 32.606988582599996 Q12.507205027680079 30.392002636299992 11.373579915280068 27.574847509800009 Q10.165812348680056 24.672035054699990 10.192872878180090 21.639032393799994 Q10.185205228680054 18.496036112300004 11.373579915280068 15.703217277800007 Q12.570877985180068 12.796570060300013 14.735949083080079 10.671076204900004 Q16.953627300280068 8.443512485700012 19.768090155980083 7.308707037099992 Q22.669738321080054 6.099722250900015 25.703905271980098 6.127999999999986 Q28.882492237280083 6.041529308299999 31.639720387980056 7.308707037099992 Q34.756993571880066 8.949179234599995 36.671861460780072 11.474903956100007 Q37.170270350080052 12.132308918799993 37.641962972580082 12.796939044299990 C37.698680673980057 18.011930498466654 37.769577800730083 24.530669816174992 37.812116076780065 28.441913406800012 zM32.589604128680079 0.475123956000000 Q28.443619628280096 -1.194201492499985 23.846833501680074 -1.263921246899997 Q19.377855749280066 -1.305571107799977 15.104062874580059 0.475123956000004 Q10.958683898780073 2.146561416600008 7.692299822080094 5.427505696999987 Q4.503399960680105 8.558112847600000 2.739918081080083 12.839268749500008 Q0.989579315380076 16.952768579900010 1.000872878180082 21.582039376500006 Q0.961015841180092 26.049302264200008 2.739918081080083 30.324810003599993 Q4.409617042680060 34.474154383599995 7.692299822080094 37.736573056099985 Q10.823118121180080 40.918186927299985 15.104062874580059 42.688954797099996 Q19.221848390180078 44.402849155500007 23.846833501680074 44.427999999999997 Q28.344644973480065 44.452459269399867 32.589604128680101 42.688954797099996 Q36.237092971380100 41.117110067600009 37.724594827880090 39.163692401199995 Q37.724594827880090 40.667056887200005 37.768872878180055 42.896000000000015 Q42.364872878180059 42.896000000000015 46.960872878180062 42.896000000000015 C46.960872878180062 28.597333333333324 46.960872878180062 10.723999999999990 46.960872878180062 0.000000000000000 C44.662872878180060 0.000000000000000 40.066872878180057 0.000000000000000 37.768872878180055 0.000000000000000 C37.758665834255062 0.829802557475006 37.738251746405076 2.489407672424989 37.728044702480084 3.319210229899994 Q34.921213075680051 1.385368425400003 32.589604128680101 0.475123956000004 z" />
<glyph unicode="b" horiz-adv-x="54.100000000000001" d="M14.724020332700000 11.767979667300001 C17.164006777599980 9.327993222400011 21.041764604799994 6.136170794100053 26.357293814300021 6.152512382400005 Q29.207425198800024 6.147357931100231 32.293108930299979 7.333219419500011 Q35.141285909799990 8.440382663500003 37.325250003199983 10.695588587299994 Q39.321376764499973 12.721117783300002 40.256997161400022 15.727729660199998 Q41.076361109599986 18.453937874199994 41.150622858799977 21.663544776200013 Q41.235259672899986 24.774884541999995 40.256997161400022 27.599359892199999 Q39.265069068999992 30.425534443499998 37.325250003199983 32.631500964999987 Q35.193122979300028 35.069545828599985 32.293108930299979 36.137410802799991 Q29.339389062599992 37.219583805199989 25.668298599000025 36.729601093500008 Q18.776555486699976 35.809755883400015 14.679705019100027 30.763076506900006 Q14.774020332699990 11.767979667300011 14.724020332699979 11.767979667300011 zM13.861704198500000 0.024512382400000 Q10.723999999999990 0.000000000000000 9.007335352850021 0.012256191200009 Q7.290670705699995 0.024512382399990 5.100326208100000 0.024512382399990 C5.100326208100000 24.658107278733326 5.100326208100000 55.450100899149987 5.100326208100000 73.925297071399996 C7.398326208100002 73.925297071399996 11.994326208100006 73.925297071499983 14.292326208100008 73.925297071499983 Q14.193063588500024 72.701138647700020 14.193063588500024 40.192989472600004 Q20.093979712299983 44.179609428499987 28.214365584599989 44.452512382400016 Q33.672271494899974 44.597813288499992 37.531298891099993 42.713467179500014 Q40.906369567900015 41.048585059999994 43.938277254599996 38.048166778199999 Q47.592946545199993 34.410893365800007 48.890658995600006 30.349322386000011 Q50.152377858600005 26.424813223499996 50.055541519100018 21.606551758899997 Q49.957469541199998 16.726808946500000 48.890658995600006 12.863781131899998 Q47.680127520300005 8.571608611199991 44.298277254600009 5.272018079399999 Q40.807553463899978 2.001797551399989 37.317136211700017 0.319636338399988 Q33.226343198499990 -1.440719438200006 28.214365584599989 -1.239408864500007 Q21.447999999999979 -1.532000000000011 14.264783733800016 3.392804066499991 C14.130423888700022 2.270040171799991 13.962474082325002 0.866585303425012 13.861704198499979 0.024512382399990 z" />
<glyph unicode="c" horiz-adv-x="40.304872878180078" d="M36.236872878180080 1.532000000000000 Q31.572012631980108 -0.325246566400011 27.196183882980058 -0.828650717699986 Q21.772095965680087 -1.452648714699990 15.104062874580059 0.475123956000004 Q10.882339773380075 1.943089927899990 7.692299822080094 5.427505696999987 Q4.503399960680105 8.558112847600000 2.739918081080083 12.839268749500008 Q0.989579315380076 16.952768579900010 1.000872878180082 21.582039376500006 Q0.961015841180092 26.049302264200008 2.739918081080083 30.324810003599993 Q4.409617042680060 34.474154383599995 7.692299822080094 37.736573056099985 Q10.733855919780076 41.151620089700003 15.104062874580059 42.688954797099996 Q20.647220253780070 44.518917780800024 25.354010535180073 44.427999999999997 Q31.639700330780109 44.306583719900004 36.413006849480105 41.364000000000004 C36.184271808880062 38.968618452733324 35.898353008130080 35.974391518650009 35.726801727680090 34.177855358199992 Q31.013179098280098 36.768000000000029 26.608211492080052 36.848629380900007 Q23.469978120980052 36.920481447099974 19.768090155980083 35.969357750499995 Q16.862635332580062 34.764579943800015 14.735949083080079 32.606988582599996 Q12.507205027680079 30.392002636299992 11.373579915280068 27.574847509800009 Q10.165812348680056 24.672035054699990 10.192872878180090 21.639032393799994 Q10.185205228680054 18.496036112300004 11.373579915280068 15.703217277800007 Q12.570877985180068 12.796570060300013 14.735949083080079 10.671076204900004 Q16.953627300280068 8.443512485700012 19.768090155980083 7.308707037099992 Q24.010579317780078 6.122404780799940 27.044872878180065 6.127999999999986 Q32.716050240380078 6.761934963199991 36.236872878180073 9.192000000000007 C36.236872878180073 6.638666666666666 36.236872878180073 3.447000000000003 36.236872878180073 1.532000000000011 z" />
<glyph unicode="d" horiz-adv-x="56.100000000000001" d="M40.663598752900000 32.478207488899997 Q35.305161736000002 36.713336877199993 29.492937110000014 36.729601093500008 Q25.784238163400005 36.704804223500048 22.868126778700002 35.993870132899985 Q19.895475816700014 35.073561385900007 17.835985705799999 32.631500964999987 Q15.891956784199976 30.448178779800003 14.904238547600016 27.599359892199999 Q13.920681475799995 24.762542812899994 14.010612850200005 21.663544776200013 Q14.056628159299976 18.456791931499993 14.904238547600016 15.727729660199998 Q15.851216186399995 12.724675571900008 17.835985705799999 10.695588587299994 Q20.019949799199992 8.440382663500003 22.868126778700002 7.333219419500011 Q25.953810510200015 6.147357931100231 28.803941894700017 6.152512382400005 Q35.235999999999990 6.128000000000043 40.437215376300003 11.386859960500004 Q40.437215376300003 11.386859960500004 40.419668241299973 13.854880293200011 C40.500978411833330 20.062656025100011 40.602616124999997 27.822375689974990 40.663598752899986 32.478207488900011 zM40.896451975200002 3.011684359700000 Q35.658187025000018 -1.176693268200154 26.946870124399993 -1.239408864500007 Q22.294892510500006 -1.260719438199942 18.204099497299978 0.499636338399995 Q14.713682245100017 2.181797551399995 11.222958454399986 5.452018079400005 Q7.661108188699984 8.751608611199998 6.270576713399976 12.863781131899998 Q5.011156373300025 16.726739197999990 5.105694189900021 21.606551758899997 Q5.122115070300026 26.328069681800002 6.270576713399976 30.349322386000011 Q7.523708483699977 34.386087400599990 11.222958454399986 37.761085438500004 Q14.456910207000021 41.160951853299991 18.204099497299978 42.713467179500014 Q22.175534779200007 44.331453989200014 27.521032803799983 44.452512382400016 Q35.235999999999990 44.427999999999969 40.968172120500014 41.484855501299990 Q40.968172120500014 73.849464006500000 40.868909500900031 73.781756401600006 C43.932909500899996 73.781756401600006 47.762909500899980 73.781756401499990 50.060909500899982 73.781756401499990 C50.060909500899982 55.342445396724997 50.060909500899982 18.463823387175012 50.060909500899982 0.024512382399990 C47.870565003299987 0.024512382399990 43.489876008099998 0.024512382399990 41.299531510500003 0.024512382399990 C41.198761626674980 0.771305376724996 40.997221859024989 2.264891365375007 40.896451975200023 3.011684359700013 z" />
<glyph unicode="e" horiz-adv-x="44.804895288732077" d="M9.824123846132077 25.590402366799999 C15.611636292582070 25.613031677175172 27.186661185482059 25.658290297924822 32.974173631932082 25.680919608300002 Q33.745936176832096 30.220570357599996 31.416208943932055 34.092631658899990 Q28.370909835332078 37.809545501900004 23.369877365832089 37.756896551700009 Q18.303357611132050 37.703558176500053 15.223884425432097 35.302147393200016 Q11.131911577032078 32.050357159700013 9.824123846132103 25.590402366799992 zM14.270727802632077 11.465840836000000 Q16.479059608632078 9.247665190399999 19.521305873032055 7.877997412100001 Q22.412034396632102 6.795558245099983 25.432104479232102 6.702266468200008 Q29.896291378932098 6.564365056399993 32.649123181232063 7.677040474299986 Q38.018925523632085 10.079425134899992 39.485992595332085 13.939114525900010 C39.503400064232075 10.845042210866666 39.525159400357076 6.977451817075007 39.538215002032054 4.656897580800006 Q38.810668871432064 2.678597426399989 33.674534243432085 0.548072065100001 Q29.419412026232102 -0.762374942000037 23.759457729732084 -0.681930011100008 Q19.307571078732089 -0.723420586699973 15.050122842932105 1.050464409600011 Q10.920597401432055 2.715509646199990 7.666705242232105 5.983906325199996 Q4.490000968732069 9.102540821800005 2.733263326632063 13.367323925899996 Q0.989618534132070 17.465092140100012 1.000868905932101 22.076658812700003 Q0.961164297732047 26.526837157300008 2.733263326632063 30.785993699599999 Q4.380920444432071 34.935299158399999 7.666705242232105 38.169411300299998 Q10.813398959832092 41.253118866699992 15.050122842932105 43.102853215899984 Q18.839043290032102 44.373023235900007 23.397388764232097 44.292144188199984 Q43.453325641732057 44.065931034500068 41.734689346832091 20.743049550699993 C31.224979414365386 20.691725774299897 18.087841998782075 20.627571053800068 10.205559549432088 20.589078221499989 Q10.608379404832057 15.273592214399997 14.270727802632088 11.465840836000012 z" />
<glyph unicode="f" horiz-adv-x="29.799999999999997" d="M27.219138756000000 65.791387559800000 Q16.189417035200016 68.675895324500004 15.899419026900000 58.208087530699999 Q15.877740101300015 57.425562066400005 15.838870050649996 50.351753118700003 Q15.799999999999978 43.277944171000001 15.799999999999978 42.358989922700005 C19.233333333333313 42.358989922700005 23.524999999999999 42.358989922700005 26.099999999999987 42.358989922700005 C26.099999999999987 40.925707171400006 26.099999999999987 38.059141668800009 26.099999999999987 36.625858917500011 C23.450000000000010 36.625858917500011 18.149999999999999 36.625858917500011 15.500000000000023 36.625858917500011 Q15.525000000000000 27.469394188100011 15.549999999999978 18.034697094049989 Q15.575000000000012 8.599999999999994 15.599999999999989 0.000000000000000 Q13.200000000000012 0.000000000000000 10.799999999999978 0.000000000000000 Q8.400000000000000 0.000000000000000 6.000000000000023 0.000000000000000 Q6.000000000000023 9.206464729400011 6.000000000000023 18.691161823449988 Q6.000000000000023 28.175858917499994 6.000000000000023 36.825858917500000 Q4.750000000000023 36.825858917500000 3.500000000000023 36.825858917500000 Q2.250000000000023 36.825858917500000 1.000000000000023 36.825858917500000 C1.000000000000023 38.670235919233335 1.000000000000023 40.975707171399989 1.000000000000023 42.358989922700005 C2.349999999999989 42.358989922700005 5.049999999999978 42.358989922700005 6.400000000000000 42.358989922700005 Q6.400000000000000 43.142323255999997 6.424740549999990 48.772871503049998 Q6.449481099999980 54.403419750099999 6.498942936500010 55.135398519099994 Q6.834662739299995 60.104910722800014 8.271429730300008 63.852286067100010 Q9.708196721300022 67.599661411400007 11.799999999999978 69.604306220100000 Q14.299999999999978 72.004306220100005 16.850080472750015 73.068770752299997 Q19.400160945499998 74.133235284500017 22.000000000000021 74.104306220100000 Q25.075676321000024 74.070082394499991 27.373279519799972 73.424293593199991 Q27.296209137899972 69.607840576499996 27.219138756000028 65.791387559800000 z" />
<glyph unicode="g" horiz-adv-x="55.304872878180078" d="M40.812116076780079 28.441913406800001 Q40.803724915680057 32.429890198599992 34.941155794680078 35.466965405999986 Q32.649613086780057 36.744486465399973 28.101034458580052 36.848629380900007 Q24.962801087480109 36.920481447100030 22.768090155980083 35.969357750499995 Q19.862635332580062 34.764579943800015 17.735949083080079 32.606988582599996 Q15.507205027680079 30.392002636299992 14.373579915280068 27.574847509800009 Q13.165812348680056 24.672035054699990 13.192872878180090 21.639032393799994 Q13.185205228680054 18.496036112300004 14.373579915280068 15.703217277800007 Q15.570877985180068 12.796570060300013 17.735949083080079 10.671076204900004 Q19.953627300280068 8.443512485700012 22.768090155980083 7.308707037099992 Q25.669738321080054 6.099722250900015 28.703905271980098 6.127999999999986 Q31.882492237280083 6.041529308299999 34.639720387980056 7.308707037099992 Q37.756993571880066 8.949179234599995 39.671861460780072 11.474903956100007 Q40.170270350080052 12.132308918799993 40.641962972580082 12.796939044299990 C40.698680673980057 18.011930498466654 40.769577800730083 24.530669816174992 40.812116076780065 28.441913406800012 zM35.589604128680079 0.475123956000000 Q31.443619628280096 -1.194201492499985 26.846833501680074 -1.263921246899997 Q22.377855749280066 -1.305571107799977 18.104062874580059 0.475123956000004 Q13.958683898780073 2.146561416600008 10.692299822080095 5.427505696999987 Q7.503399960680105 8.558112847600000 5.739918081080083 12.839268749500008 Q3.989579315380076 16.952768579900010 4.000872878180082 21.582039376500006 Q3.961015841180092 26.049302264200008 5.739918081080083 30.324810003599993 Q7.409617042680060 34.474154383599995 10.692299822080095 37.736573056099985 Q13.823118121180080 40.918186927299985 18.104062874580059 42.688954797099996 Q22.221848390180078 44.402849155500007 26.846833501680074 44.427999999999997 Q31.344644973480065 44.452459269399867 35.589604128680101 42.688954797099996 Q39.237092971380100 41.117110067600009 40.724594827880090 39.163692401199995 Q40.724594827880090 40.667056887200005 40.768872878180055 42.896000000000015 Q45.364872878180059 42.896000000000015 49.960872878180062 42.896000000000015 C49.960872878180062 28.597333333333324 49.960872878180062 10.723999999999990 49.960872878180062 0.000000000000000 Q49.499975297580086 -20.526204838900014 25.205448282280095 -20.526204838900014 Q18.019321668480082 -20.526204838900014 8.596872878180086 -16.851999999999975 C9.537064679546752 -14.502068279633306 10.712304431255070 -11.564653629174984 11.417448282280084 -9.802204838900025 Q17.857038604480074 -12.866204838899989 26.818589814180093 -12.866204838899989 Q40.768872878180055 -12.866204838899989 40.768872878180055 0.000000000000000 C40.755263486280064 1.106403409966674 40.738251746405076 2.489407672424989 40.728044702480084 3.319210229899994 Q37.921213075680051 1.385368425400003 35.589604128680101 0.475123956000004 z" />
<glyph unicode="h" horiz-adv-x="46.919526627199993" d="M42.146551724100000 29.832388965100002 Q42.176177647899983 22.208747076799995 42.131959851149993 14.549641289899995 Q42.087742054400003 6.890535502999995 42.087742054400003 0.000000000000000 C39.114259295766665 0.000000000000000 35.397405847475007 0.000000000000000 33.167293778499989 0.000000000000000 C33.208362850924978 6.601872706975001 33.290500995775012 19.805618120925004 33.331570068200001 26.407490827900006 Q33.353668033299989 28.348663906300004 32.601383785599985 30.078385162899991 Q31.845804240199993 31.872046699700007 30.521989180300022 33.190419112100017 Q28.993323835600005 34.831412739600012 26.504782817300008 35.657744751899997 Q24.668426743400016 36.143778445599992 22.316647102999990 36.000000000000000 Q20.378309324499991 35.881497744099988 18.645752768100021 35.269813717399984 Q16.848279574100001 34.526307794700017 14.809580887899994 33.190419112100017 Q13.841028000800019 32.273623968000010 13.206898051300026 31.127162031300003 Q13.205616836300020 28.450262493100013 13.198808418150019 18.207754619599996 Q13.192000000000018 7.965246746100007 13.192000000000018 0.000000000000000 Q10.894000000000016 0.000000000000000 8.596000000000014 0.000000000000000 Q6.298000000000012 0.000000000000000 4.000000000000010 0.000000000000000 Q4.000000000000010 10.723999999999990 4.000000000000010 35.866103448300009 Q4.000000000000010 61.008206896600001 4.000000000000010 71.732206896600019 Q6.298000000000012 71.732206896600019 8.596000000000014 71.732206896600019 Q10.894000000000016 71.732206896600019 13.192000000000018 71.732206896600019 Q13.192000000000018 70.767548018100001 13.192000000000018 55.083247344100016 Q13.192000000000018 39.398946670100003 13.192000000000018 38.405676019900000 Q14.757300511499988 40.309244832899992 16.085926853099988 41.171486332499995 Q18.819790331700016 42.773955822700003 20.869507721000002 43.319518558499993 Q24.178847398600009 44.046060620999981 27.203078620099983 44.000000000000000 Q30.858534060199997 43.925739921900004 33.400650708400015 42.921554824800012 Q36.046044148100016 41.927155698399986 37.996954525200017 39.850402801100017 Q42.043618017200011 35.448734238599997 42.146551724100000 29.832388965099994 z" />
<glyph unicode="i" horiz-adv-x="20.581034482758632" d="M4.000000000000000 54.500000000000000 Q4.000000000000023 56.800000000000011 5.650000000000000 58.150000000000006 Q7.299999999999978 59.500000000000000 9.200000000000012 59.500000000000000 Q11.200000000000012 59.599999999999994 12.849999999999989 58.300000000000011 Q14.500000000000023 57.000000000000000 14.500000000000023 54.599999999999994 Q14.500000000000023 52.099999999999994 12.849999999999989 50.650000000000006 Q11.200000000000012 49.199999999999989 9.200000000000012 49.199999999999989 Q7.299999999999978 49.199999999999989 5.650000000000000 50.599999999999994 Q4.000000000000023 52.000000000000000 4.000000000000023 54.500000000000000 zM4.800000000000001 43.299999999999997 C7.099999999999989 43.300000000000011 11.700000000000012 43.300000000000011 14.000000000000023 43.300000000000011 C14.000000000000023 32.425000000000011 14.000000000000023 10.675000000000011 14.000000000000023 -0.199999999999989 C11.750000000000023 -0.199999999999989 7.250000000000023 -0.199999999999989 5.000000000000023 -0.199999999999989 C4.950000000000012 10.675000000000011 4.849999999999989 32.425000000000011 4.799999999999978 43.300000000000011 z" />
<glyph unicode="j" horiz-adv-x="20.699999999999999" d="M5.100000000000000 54.500000000000000 Q5.100000000000023 56.800000000000011 6.750000000000000 58.150000000000006 Q8.399999999999977 59.500000000000000 10.300000000000011 59.500000000000000 Q12.300000000000011 59.599999999999994 13.949999999999989 58.300000000000011 Q15.600000000000023 57.000000000000000 15.600000000000023 54.599999999999994 Q15.600000000000023 52.099999999999994 13.949999999999989 50.650000000000006 Q12.300000000000011 49.199999999999989 10.300000000000011 49.199999999999989 Q8.399999999999977 49.199999999999989 6.750000000000000 50.599999999999994 Q5.100000000000023 52.000000000000000 5.100000000000023 54.500000000000000 zM5.900000000000000 43.000000000000000 C8.199999999999989 43.000000000000000 12.800000000000011 43.000000000000000 15.100000000000023 43.000000000000000 C15.074999999999989 27.274499999999989 15.024999999999977 -4.176500000000004 15.000000000000000 -19.901999999999987 C12.725000000000023 -19.901999999999987 8.175000000000011 -19.901999999999987 5.899999999999977 -19.901999999999987 C5.899999999999977 -4.176500000000004 5.899999999999977 27.274499999999989 5.899999999999977 43.000000000000000 z" />
<glyph unicode="k" horiz-adv-x="51" d="M14.300000000000001 74.799999999999997 C14.274999999999977 62.050000000000011 14.225000000000023 36.550000000000011 14.199999999999989 23.800000000000011 C15.574999999999989 25.175000000000011 18.324999999999989 27.925000000000011 19.699999999999989 29.300000000000011 C23.000000000000000 32.599999999999994 29.600000000000023 39.199999999999989 32.899999999999977 42.500000000000000 C35.850000000000023 42.474999999999994 41.750000000000000 42.425000000000011 44.699999999999989 42.400000000000006 C39.800000000000011 37.474999999999994 30.000000000000000 27.625000000000000 25.100000000000023 22.699999999999989 C30.750000000000000 17.025000000000006 42.050000000000011 5.675000000000011 47.699999999999989 0.000000000000000 C44.750000000000000 -0.025000000000006 38.850000000000023 -0.074999999999989 35.899999999999977 -0.099999999999994 C31.850000000000023 3.949999999999989 23.750000000000000 12.050000000000011 19.699999999999989 16.099999999999994 C18.324999999999989 17.474999999999994 15.574999999999989 20.224999999999994 14.199999999999989 21.599999999999994 C14.199999999999989 16.199999999999989 14.199999999999989 5.400000000000006 14.199999999999989 0.000000000000000 C11.875000000000000 0.000000000000000 7.225000000000023 0.000000000000000 4.899999999999977 0.000000000000000 C4.925000000000011 18.699999999999989 4.974999999999966 56.099999999999994 5.000000000000000 74.800000000000011 C7.324999999999989 74.800000000000011 11.975000000000023 74.800000000000011 14.300000000000011 74.800000000000011 z" />
<glyph unicode="l" horiz-adv-x="18.777172413800002" d="M4.000000000000002 73.794620689699997 C3.999999999999971 55.345965517275005 4.000000000000028 18.448655172424992 4.000000000000028 0.000000000000000 C6.238275862075027 0.000000000000000 10.714827586225027 0.000000000000000 12.953103448300027 0.000000000000000 C12.953103448300027 18.448655172424992 12.953103448299970 55.345965517275005 12.953103448300027 73.794620689699997 C10.714827586225027 73.794620689699997 6.238275862075027 73.794620689699997 4.000000000000028 73.794620689699997 z" />
<glyph unicode="m" horiz-adv-x="72.065517241379297" d="M13.337990614179301 0.000000000000000 Q11.039990614179315 0.000000000000000 8.741990614179313 0.000000000000000 Q6.443990614179311 0.000000000000000 4.145990614179309 0.000000000000000 Q4.145990614179309 10.723999999999990 4.145990614179309 21.448000000000008 Q4.145990614179309 32.171999999999997 4.145990614179309 42.896000000000015 Q6.443990614179311 42.896000000000015 8.741990614179313 42.896000000000015 Q11.039990614179315 42.896000000000015 13.337990614179317 42.896000000000015 Q13.337990614179317 41.931341121499997 13.337990614179317 40.923764585449987 Q13.337990614179317 39.916188049400006 13.337990614179317 38.922917399200003 Q14.308463539479304 40.167003453599989 15.507779536279314 40.899934608400002 Q17.517505083779326 42.502404098600010 20.291360404179272 43.319518558499993 Q23.406734564579324 44.046060620999981 26.430965786079298 44.000000000000000 Q29.193569076579308 43.957924109000004 31.852675805379306 42.921554824800012 Q34.440597170279318 41.893509663499998 36.448979622179309 39.850402801100017 Q37.582475735779326 38.658491576300008 38.417880091579320 37.337991278099992 Q39.783008093979333 39.016336503700018 42.401951668479285 40.930882260799990 Q45.073713384479333 42.487011111500010 47.969755187979331 43.416793499699992 Q50.644974382079283 44.163326813200001 53.590447074079293 44.030947652400016 Q57.245151111679320 44.015317625699964 59.826812265779324 42.952502477199999 Q62.401784754779328 41.892440910299996 64.423116082579327 39.881350453500005 Q66.378318471579291 37.934186556800000 67.494268106279321 35.285046636700002 Q68.605350766479319 32.730343011000002 68.572713281479309 29.863336617500011 Q68.602339205279293 22.239694729200011 68.558121408529303 14.580588942300011 Q68.513903611779313 6.921483155400011 68.513903611779313 0.030947652399988 C65.540420853145974 0.030947652399988 61.823567404854316 0.030947652399988 59.593455335879298 0.030947652399988 C59.634524408304287 6.632820359374989 59.716662553154322 19.836565773324992 59.757731625579311 26.438438480299993 Q59.779829590679299 28.379611558699992 59.027545342979295 30.109332815300007 Q58.271965797579298 31.902994352099995 56.948150737679271 33.221366764500004 Q55.547736872679309 34.740902898800016 53.021461616079307 35.572313093899993 Q51.172204811879283 36.180913030299990 49.350567281079293 36.030947652400016 Q47.408633489379326 36.040396297099988 45.227086739279287 35.300761369800000 Q43.429613545279324 34.557255447100005 42.115052790079289 33.221366764500004 Q41.079375701279332 32.206945142400002 40.470278971279299 31.130256769600010 Q40.596709334379284 30.611307838300007 40.598576821079291 29.832388965099994 Q40.628202744879331 22.208747076799995 40.583984948129284 14.549641289899995 Q40.539767151379294 6.890535502999995 40.539767151379294 0.000000000000000 C37.566284392745956 0.000000000000000 33.849430944454298 0.000000000000000 31.619318875479280 0.000000000000000 C31.660387947904326 6.601872706975001 31.742526092754304 19.805618120925004 31.783595165179293 26.407490827900006 Q31.805693130279280 28.348663906300004 31.053408882579276 30.078385162899991 Q30.297829337179280 31.872046699700007 28.974014277279309 33.190419112100017 Q27.614192424279281 34.573751931499999 25.861980328079312 35.269813717399984 Q24.061755216879305 36.010984520499960 21.738499786179318 36.000000000000000 Q19.796565994479295 36.009448644700001 18.067605451279292 35.269813717399984 Q16.270132257279329 34.526307794700017 14.955571502079293 33.190419112100017 Q13.987018614979318 32.273623968000010 13.352888665479325 31.127162031300003 Q13.349164152679291 23.345371523399990 13.343577383429304 15.501350355499994 Q13.337990614179317 7.657329187599998 13.337990614179317 0.000000000000000 z" />
<glyph unicode="n" horiz-adv-x="46.919526627199993" d="M41.810344827599998 29.017733792700000 Q41.839970751400024 21.394091904400000 41.886270196000005 14.142313703700012 Q41.932569640599986 6.890535502999995 41.932569640599986 0.000000000000000 C38.959086881966648 0.000000000000000 35.242233433674990 0.000000000000000 33.012121364699972 0.000000000000000 Q33.053190437199994 6.601872707000012 33.007134460399989 11.893156559549993 Q32.961078483599984 17.184440412100003 32.904845930299992 24.325594276200007 Q32.739305621600018 26.931520079899997 31.993625164899992 29.897350680100004 Q31.455927856600010 32.035959941599998 30.276299525199999 33.733522560399990 Q28.932537224499992 35.231635823600016 26.168575920799992 35.812917165700014 Q24.292023993599980 36.138617159399985 22.316647102999990 36.000000000000000 Q20.379454012999997 35.864062293800004 18.645752768100021 35.269813717399984 Q16.848279574100001 34.526307794700017 14.809580887899994 33.190419112100017 Q13.841028000800019 32.273623968000010 13.206898051300026 31.127162031300003 Q13.203173538499993 23.345371523399990 13.197586769250005 15.501350355499994 Q13.192000000000018 7.657329187599998 13.192000000000018 0.000000000000000 Q10.894000000000016 0.000000000000000 8.596000000000014 0.000000000000000 Q6.298000000000012 0.000000000000000 4.000000000000010 0.000000000000000 Q4.000000000000010 10.723999999999990 4.000000000000010 21.448000000000008 Q4.000000000000010 32.171999999999997 4.000000000000010 42.896000000000015 Q6.298000000000012 42.896000000000015 8.596000000000014 42.896000000000015 Q10.894000000000016 42.896000000000015 13.192000000000018 42.896000000000015 Q13.192000000000018 41.931341121499997 13.192000000000018 40.923764585449987 Q13.192000000000018 39.916188049400006 13.192000000000018 38.922917399200003 Q14.886610856299978 40.438555177700010 16.085926853099988 41.171486332499995 Q18.819790331700016 42.773955822700003 20.869507721000002 43.319518558499993 Q23.532295674500016 44.046060620999981 26.556526895999991 44.000000000000000 Q30.030947853300017 43.925739921900004 32.611857605000019 42.921554824800012 Q35.227213168999988 41.812495876300005 37.208161421800021 39.850402801100017 Q41.863463832200019 35.329066437300014 41.810344827599984 29.017733792700000 z" />
<glyph unicode="o" horiz-adv-x="50.990517241399999" d="M45.907778768200004 12.896266162600000 Q44.064685965399981 8.665648193000010 40.960478353899994 5.492107852999993 Q37.690564852100017 2.248830192599996 33.556320044399975 0.544807438699991 Q29.273231318699978 -1.162780123200008 24.822519823199976 -1.192453439500014 Q20.217541795800010 -1.157272067799965 16.088719601999976 0.544807438699991 Q11.847608222900028 2.356592757899989 8.684561292500014 5.492107852999993 Q5.460196591999995 8.776184803500001 3.737260878200011 12.896266162600000 Q2.015833890100004 17.176427181999998 2.000000000000006 21.630066383700012 Q2.044286725599995 26.230710804399990 3.737260878200011 30.363866604900011 Q5.545348516099984 34.613347704299997 8.684561292500014 37.768024914500018 Q11.966141806300023 40.982177622899997 16.088719601999976 42.715325328700004 Q20.378716440699982 44.448799833000237 24.822519823199976 44.452586206900008 Q29.405503620800012 44.399787492099989 33.556320044399975 42.715325328700004 Q37.821936106900019 40.915787736200002 40.960478353899994 37.768024914500018 Q44.135526106599976 34.486826258099995 45.907778768199996 30.363866604900011 Q47.650857515300011 26.213435692399997 47.645039646400001 21.630066383700012 Q47.639221777499991 17.046697075099985 45.907778768199996 12.896266162600000 zM29.066420292500002 5.851643678700000 Q32.130790407400021 7.185947773300001 34.619903694900025 9.562362654299989 Q36.848472025100030 11.997424005699997 38.330622670500027 15.115846056799995 Q39.485199661799989 18.238027743700002 39.633653892899993 21.666626380600007 Q39.508507057300001 25.130686428800004 38.330622670500027 28.217406704300004 Q36.817695618500018 31.418229618499993 34.619903694900025 33.770890106800010 Q32.028694824400027 36.239473669200009 29.066420292499977 37.481609082399984 Q25.205925681400011 38.772719216100000 21.560616092600021 37.481609082399984 Q18.352991204100029 36.154808710400005 16.007132690099986 33.770890106800010 Q13.547485207899975 31.326426107999993 12.296413714499984 28.217406704300004 Q10.963518424399986 25.013855659900003 10.993382492200006 21.666626380600007 Q10.984920455100003 18.198007867999991 12.296413714499984 15.115846056799995 Q13.617754842100005 11.908062959000006 16.007132690099986 9.562362654299989 Q18.454567885699994 7.104017794100002 21.560616092600021 5.851643678699986 Q25.620992247099998 4.519256109099985 29.066420292499977 5.851643678699986 z" />
<glyph unicode="p" horiz-adv-x="53.304000000000009" d="M13.318909905600002 12.796939044300000 Q13.790602528100015 12.132308918799993 14.289011417399996 11.474903956100007 Q16.203879306300003 8.949179234599995 19.321152490200014 7.308707037099992 Q22.078380640899987 6.041529308299999 25.256967606200028 6.127999999999986 Q28.291134557100015 6.099722250900015 31.192782722199986 7.308707037099992 Q34.007245577900001 8.443512485700012 36.224923795099990 10.671076204900004 Q38.389994893000001 12.796570060300013 39.587292962900001 15.703217277800007 Q40.775667649500015 18.496036112300004 40.767999999999979 21.639032393799994 Q40.795060529500013 24.672035054699990 39.587292962900001 27.574847509800009 Q38.453667850499990 30.392002636299992 36.224923795099990 32.606988582599996 Q34.098237545600007 34.764579943800015 31.192782722199986 35.969357750499995 Q28.998071790700017 36.920481447099974 25.859838419600017 36.848629380900007 Q21.311259791400012 36.744486465399973 19.019717083499991 35.466965405999986 Q13.157147962500011 32.429890198599992 13.148756801400003 28.441913406800012 C13.205474502799978 23.226921952633347 13.276371629550004 16.708182634925009 13.318909905599986 12.796939044299990 zM13.232828175700002 3.319210229900000 C13.222621131774991 -2.394064253825007 13.202207043925005 -13.820613221274982 13.192000000000013 -19.533887704999984 C10.894000000000011 -19.533887704999984 6.298000000000007 -19.533887704999984 4.000000000000005 -19.533887704999984 C4.000000000000005 -3.926415778749998 4.000000000000005 27.288528073750001 4.000000000000005 42.896000000000015 Q8.596000000000009 42.896000000000015 13.192000000000013 42.896000000000015 Q13.236278050299978 40.667056887200005 13.236278050299978 39.163692401199995 Q14.723779906800024 41.117110067600009 18.371268749500025 42.688954797099996 Q22.616227904700004 44.452459269399867 27.114039376499996 44.427999999999997 Q31.739024487999991 44.402849155500007 35.856810003600010 42.688954797099996 Q40.137754756999989 40.918186927299985 43.268573056099974 37.736573056099985 Q46.551255835500008 34.474154383599995 48.220954797099985 30.324810003599993 Q49.999857036999977 26.049302264200008 49.959999999999987 21.582039376500006 Q49.971293562799993 16.952768579900010 48.220954797099985 12.839268749500008 Q46.457472917500020 8.558112847600000 43.268573056099974 5.427505696999987 Q40.002188979399996 2.146561416600008 35.856810003600010 0.475123956000004 Q31.583017128900003 -1.305571107799977 27.114039376499996 -1.263921246899997 Q22.517253249900030 -1.194201492499985 18.371268749500025 0.475123956000004 Q16.039659802500019 1.385368425400003 13.232828175699984 3.319210229899994 z" />
<glyph unicode="q" horiz-adv-x="53.900000000000006" d="M36.407243198600000 28.441913406800001 Q36.398852037499978 32.429890198599992 30.536282916499999 35.466965405999986 Q28.244740208599978 36.744486465399973 23.696161580399973 36.848629380900007 Q20.557928209300030 36.920481447100030 18.363217277800004 35.969357750499995 Q15.457762454399983 34.764579943800015 13.331076204900000 32.606988582599996 Q11.102332149500000 30.392002636299992 9.968707037099989 27.574847509800009 Q8.760939470499977 24.672035054699990 8.788000000000011 21.639032393799994 Q8.780332350499975 18.496036112300004 9.968707037099989 15.703217277800007 Q11.166005106999989 12.796570060300013 13.331076204900000 10.671076204900004 Q15.548754422099989 8.443512485700012 18.363217277800004 7.308707037099992 Q21.264865442899975 6.099722250900015 24.299032393800019 6.127999999999986 Q27.477619359100004 6.041529308299999 30.234847509799977 7.308707037099992 Q33.352120693699987 8.949179234599995 35.266988582599993 11.474903956100007 Q35.765397471899973 12.132308918799993 36.237090094400003 12.796939044299990 C36.293807795799978 18.011930498466654 36.364704922550004 24.530669816174992 36.407243198599986 28.441913406800012 zM31.184731250500000 0.475123956000000 Q27.038746750100017 -1.194201492499985 22.441960623499995 -1.263921246899997 Q17.972982871099987 -1.305571107799977 13.699189996399980 0.475123956000004 Q9.553811020599994 2.146561416600008 6.287426943900016 5.427505696999987 Q3.098527082500027 8.558112847600000 1.335045202900005 12.839268749500008 Q-0.415293562800002 16.952768579900010 -0.403999999999996 21.582039376500006 Q-0.443857036999987 26.049302264200008 1.335045202900005 30.324810003599993 Q3.004744164499982 34.474154383599995 6.287426943900016 37.736573056099985 Q9.418245243000001 40.918186927299985 13.699189996399980 42.688954797099996 Q17.816975511999999 44.402849155500007 22.441960623499995 44.427999999999997 Q26.939772095299986 44.452459269399867 31.184731250500022 42.688954797099996 Q34.832220093200021 41.117110067600009 36.319721949700011 39.163692401199995 Q36.319721949700011 40.667056887200005 36.363999999999976 42.896000000000015 Q40.959999999999980 42.896000000000015 45.555999999999983 42.896000000000015 C45.555999999999983 22.086037431666682 45.555999999999983 -3.926415778749998 45.555999999999983 -19.533887704999984 C43.257999999999981 -19.533887704999984 38.661999999999978 -19.533887704999984 36.363999999999976 -19.533887704999984 C36.353792956074983 -13.820613221274982 36.333378868224997 -2.394064253825007 36.323171824300005 3.319210229899994 Q33.516340197499972 1.385368425400003 31.184731250500022 0.475123956000004 z" />
<glyph unicode="r" horiz-adv-x="27.206034482775873" d="M27.015525383200000 34.835245689700002 Q27.042700174699984 34.969766347399997 24.594732279700008 35.394280172399988 Q20.166371888000025 36.162223335500016 15.537068965500008 30.404310344799995 Q13.803572868500009 27.086932155699998 13.198601733200018 23.193897504200010 C13.195906902599983 15.462598336133340 13.192538364350025 5.798474376049995 13.190517241400027 0.000000000000000 C10.917887931050029 0.000000000000000 6.372629310349974 0.000000000000000 4.099999999999976 0.000000000000000 C4.074999999999998 10.724999999999994 4.024999999999987 32.175000000000011 4.000000000000010 42.900000000000006 C6.234482758625016 42.900000000000006 10.703448275875029 42.900000000000006 12.937931034499979 42.900000000000006 C12.958189655199998 41.519396551724981 12.998706896599980 38.758189655174988 13.018965517300000 37.377586206899991 C12.998706896599980 36.474784482750010 12.958189655199998 34.669181034449991 12.937931034499979 33.766379310300010 Q14.627766352899993 40.996844598899997 19.861206896599992 42.918965517200007 Q23.133826051799996 43.878990851200001 27.024999999999988 43.262891449699993 C27.021841794400029 40.453676196366672 27.017894037399980 36.942157129700007 27.015525383199996 34.835245689700002 z" />
<glyph unicode="s" horiz-adv-x="33.780025172338036" d="M19.175714827538030 36.887931034499999 Q11.975065542038051 37.020994792500005 12.024852758538016 32.633620689699995 Q12.080713136138042 27.901335169899994 18.904163103338004 25.663793103399996 Q24.790532582938038 23.733537969600008 28.197325578338035 20.024413498600012 Q32.453514154438025 15.900198844300007 32.210197586138051 11.271551724099993 Q31.501973433038000 3.635149200499995 26.452125324738045 0.616973337300010 Q22.735194146638019 -1.566645782899997 17.093818275738027 -1.310344827600005 Q9.627970849938022 -0.971153844599996 3.425714827538042 2.581896551699998 C3.425714827538042 5.357758620666658 3.425714827538042 8.827586206874997 3.425714827538042 10.909482758600006 Q9.880720491938048 5.972530408699981 16.369680344738054 6.021551724099993 Q23.902922556138019 6.078462145900090 23.792094137838017 11.633620689699995 Q23.726485390338024 15.561341802100003 16.188645862038054 18.060344827600005 Q9.955599736738050 20.041884252399996 6.710337008938025 23.413444119100006 Q3.383437450238018 26.965057339699996 3.425714827538042 32.271551724099993 Q3.468795921538044 37.678925546899990 6.535193791338015 40.537612950500005 Q10.502634040538039 44.144815452400053 19.718818275738027 43.948275862099990 Q26.011673780038034 43.717315488299988 29.404163103338004 40.508620689699995 C29.343818275771394 37.883620689699995 29.268387241313047 34.602370689699995 29.223128620638061 32.633620689699995 Q24.789021174438044 36.783341336099994 19.175714827538041 36.887931034500014 z" />
<glyph unicode="t" horiz-adv-x="31.0433110048" d="M19.961569378000000 42.656816399400000 C21.714200956950013 42.656816399399986 25.219464114850016 42.656816399399986 26.972095693800018 42.656816399399986 C26.959095693799984 41.173218313275015 26.933095693799974 38.206022141025016 26.920095693799997 36.722424054899989 C26.920095693799997 36.722424054899989 26.920095693799997 36.722424054899989 26.920095693799997 36.722424054899989 C25.142464114850018 36.722424054899989 21.587200956950003 36.722424054899989 19.809569378000024 36.722424054899989 Q19.678406698600018 30.337022141000006 19.555409681599972 18.268720762050009 Q19.432412664599983 6.200419383100012 19.510698564600009 0.072095693800009 C16.513684210533345 0.055942583766722 12.767416267949987 0.035751196225021 10.519655502400017 0.023636363700007 C10.467133971300004 9.248333286499985 10.362090909099980 27.697727132099999 10.309569378000024 36.922424054900006 C8.732177033499998 36.922424054900006 5.577392344500002 36.922424054900006 3.999999999999976 36.922424054900006 C4.013000000000010 38.356022141024994 4.039000000000020 41.223218313274998 4.051999999999997 42.656816399399986 C5.687827751199994 42.648773337199998 8.959483253599988 42.632687212799993 10.595311004799985 42.624644150600005 C10.595311004799985 42.624644150600005 10.595311004799985 42.624644150600005 10.595311004799985 42.624644150600005 C10.611875598100003 45.799807439950001 10.645004784699982 52.150134018649993 10.661569377999999 55.325297308000017 C12.986569377999988 55.325297308000017 17.636569378000022 55.325297308000017 19.961569378000011 55.325297308000017 Q19.961569378000011 49.982113707499991 19.961569378000011 42.656816399399986 z" />
<glyph unicode="u" horiz-adv-x="51.302005110956529" d="M4.004759935656526 19.679500332700002 Q4.004759935656551 33.679500332700002 4.104759935656517 35.379500332699990 Q4.104759935656517 37.379500332699990 4.104759935656517 42.679500332700002 Q7.238093269056520 42.679500332700002 13.504759935656551 42.679500332700002 Q13.504759935656551 42.679500332700002 13.504759935656551 42.679500332700002 Q13.252940803856490 26.158167089899990 13.142690970156508 22.309672746499984 Q13.588881260856539 7.297121876999967 24.977883109456542 7.579267545499988 Q36.907552372956530 7.874807449199949 36.535252948156511 22.184746370400006 C36.465169670289839 29.089830913599997 36.377565572956513 37.721186592599992 36.325003114556495 42.900000000000006 C36.325003114556495 42.900000000000006 36.325003114556495 42.900000000000006 36.325003114556495 42.900000000000006 C38.517315739331508 42.900000000000006 42.901940988881535 42.900000000000006 45.094253613656548 42.900000000000006 C45.055235008581548 36.972952586199995 44.977197798431547 25.118857758600001 44.938179193356547 19.191810344799990 Q44.957415009956520 15.102237252200013 43.383946111456538 11.378152992299988 Q41.812371936156552 7.658553160899999 38.957864763356525 4.754054140699992 Q36.185202982756522 1.919507614999986 32.333765911756501 0.327972792600008 Q28.586675019856528 -1.243072292100010 23.914423693156522 -1.222519785700001 Q20.235129839056555 -1.206335144699977 16.706451206656510 0.327972792600008 Q13.001610682456516 1.821782954300005 10.082352355156530 4.754054140699992 Q7.232343826756534 7.551964851599990 5.656271007056517 11.378152992299988 Q3.910910071056520 15.507088444200008 4.004759935656551 19.679500332700002 z" />
<glyph unicode="v" horiz-adv-x="46.700000000000003" d="M44.433620689700000 42.899999999999999 C39.075215517275012 31.250000000000000 28.358405172425023 7.949999999999989 23.000000000000000 -3.699999999999989 C17.343750000000000 7.900000000000006 6.031250000000000 31.099999999999994 0.375000000000000 42.699999999999989 C2.774999999999977 42.724999999999966 7.574999999999989 42.774999999999977 9.975000000000023 42.800000000000011 C12.594620901649989 37.291999717349995 17.833862704949979 26.275999152049991 20.453483606600003 20.767998869400003 C21.092483394599981 18.879016393424990 22.370482970599994 15.101051441474993 23.009482758600029 13.212068965500009 C23.617549362674993 15.040111812899994 24.833682570824976 18.696197507699992 25.441749174899996 20.524240355100005 C27.914717053599986 26.143180266325004 32.860652811000023 37.381060088775001 35.333620689700012 43.000000000000000 C37.608620689699990 42.975000000000023 42.158620689700001 42.924999999999955 44.433620689699978 42.900000000000006 z" />
<glyph unicode="w" horiz-adv-x="72.700000000000003" d="M35.333620689699998 43.000000000000000 Q32.860652811000023 37.381060088799984 30.387684932299976 31.762120177550003 Q27.914717053599986 26.143180266299993 25.441749174899996 20.524240355100005 C24.630993702800026 18.086849891899988 23.617549362674993 15.040111812899994 23.009482758600029 13.212068965500009 C22.370482970599994 15.101051441474993 21.092483394599981 18.879016393424990 20.453483606600003 20.767998869400003 C17.833862704949979 26.275999152049991 12.594620901649989 37.291999717349995 9.975000000000023 42.800000000000011 C7.574999999999989 42.774999999999977 2.774999999999977 42.724999999999966 0.375000000000000 42.699999999999989 C6.031250000000000 31.099999999999994 17.343750000000000 7.900000000000006 23.000000000000000 -3.699999999999989 Q26.194360183199990 3.482840786600008 29.524496228450005 10.767513469800008 Q32.854632273699963 18.052186153000008 35.777440732800017 25.031363146600000 Q39.374894845600011 18.045398581999990 42.534802767649978 10.693552649549986 Q45.694710689700003 3.341706717100010 49.080911715299976 -3.602811629200005 Q54.439316887699988 8.047188370800001 59.797722060100000 19.697188370800006 Q65.156127232500012 31.347188370800012 70.514532405000011 42.997188370799989 Q68.239532404999977 43.022188370800023 65.964532405000000 43.047188370800029 Q63.689532405000023 43.072188370800035 61.414532404999989 43.097188370799984 Q58.941564526299999 37.478248459599996 56.468596647600009 31.859308548349986 Q53.995628768900019 26.240368637100005 51.522660890199973 20.621428725899989 C50.349836452566649 18.606452055799991 48.883805905524980 16.087731218175009 48.004187577300002 14.576498715599996 C47.319929168599970 16.555998432949991 45.951412351200020 20.514997867650010 45.267153942499988 22.494497585000005 Q42.783770629300022 27.620873188800005 40.231806795500006 32.753953052249983 Q37.679842961699990 37.887032915699990 35.333620689700012 43.000000000000000 z" />
<glyph unicode="x" horiz-adv-x="55.796000000000006" d="M6.128000000000000 0.000000000000000 C10.318370689650006 5.361999999999995 18.699112068949997 16.086000000000013 22.889482758600021 21.448000000000008 C18.812258620674978 26.810000000000002 10.657810344825005 37.533999999999992 6.580586206900019 42.896000000000015 C9.115905172425013 42.894629310350183 14.186543103475000 42.891887931049808 16.721862068999993 42.890517241400005 C19.555698275899996 39.182974137949998 25.223370689700001 31.767887931050012 28.057206896600004 28.060344827600005 C31.031905172450021 31.769258620699986 36.981301724150001 39.187086206900005 39.956000000000017 42.896000000000015 C42.741775862074974 42.896000000000015 48.313327586225000 42.896000000000015 51.099103448300013 42.896000000000015 C46.886103448299991 37.511370689649993 38.460103448300003 26.742112068950007 34.247103448299981 21.357482758599986 C38.595879310374983 16.018112068949989 47.293431034524986 5.339370689649996 51.642206896599987 0.000000000000000 C48.977206896600023 0.000000000000000 43.647206896599982 0.000000000000000 40.982206896600019 0.000000000000000 C37.839103448300023 3.804741379299998 31.552896551699970 11.414224137899993 28.409793103399974 15.218965517199990 C25.625094827550011 11.436853448249991 20.055698275849974 3.872629310349993 17.271000000000011 0.090517241399994 C14.485250000000004 0.067887931049995 8.913749999999990 0.022629310350027 6.127999999999982 0.000000000000000 z" />
<glyph unicode="y" horiz-adv-x="52.706425104300003" d="M20.725333720300000 0.395877961200000 C19.431800976749990 3.447014448150014 16.844735489649985 9.549287422049986 15.551202746100010 12.600423909000000 C11.913402059575013 20.087530048574990 4.637800686525019 35.061742327725000 1.000000000000021 42.548848467299990 C3.399999999999999 42.573848467299968 8.200000000000010 42.623848467300036 10.599999999999987 42.648848467300013 C13.549665984449994 36.769800979225010 19.448997953350009 25.011706003075005 22.398663937800016 19.132658515000003 C23.365890147674996 17.021802121000007 25.300342567425012 12.800089332999988 26.267568777299992 10.689232938999993 C30.163343443124994 18.766924704250016 37.954892774774997 34.922308234750005 41.850667440599999 43.000000000000000 C44.314606856524982 42.974999999999994 49.242485688375005 42.925000000000011 51.706425104299989 42.900000000000006 C43.812141270174969 27.129741379300015 28.023573601924987 -4.410775862099996 20.129289767800024 -20.181034482799987 C17.459830916974987 -20.185579131124939 12.120913215325025 -20.194668427775071 9.451454364499988 -20.199213076100023 C12.269924203450010 -15.050440316774996 17.906863881349999 -4.752894798124998 20.725333720300021 0.395877961200000 z" />
<glyph unicode="z" horiz-adv-x="42.070689655199999" d="M3.361206896600001 36.410344827599999 C3.338577586250007 38.043534482774987 3.293318965550010 41.309913793124991 3.270689655200012 42.943103448300008 C12.412500000025002 42.920474137949839 30.696120689674981 42.875215517250183 39.837931034500023 42.852586206900014 C38.668965517249966 40.963362068975016 36.331034482750020 37.184913793124991 35.162068965500019 35.295689655199993 C30.124784482775024 28.101293103475001 20.050215517325025 13.712500000024988 15.012931034600026 6.518103448299996 C20.916594827699978 6.518103448299996 32.723922413899992 6.518103448299996 38.627586207000000 6.518103448299996 C38.582327586300003 4.888577586225011 38.491810344900010 1.629525862075013 38.446551724200013 0.000000000000000 C29.334913793149976 0.000000000000000 11.111637931050009 0.000000000000000 2.000000000000024 0.000000000000000 Q11.612655583900018 14.516858544900003 16.242210797250006 20.883827290299990 Q20.871766010599995 27.250796035700006 27.343389163500003 36.666291266000002 C19.349328407866690 36.580975786533315 9.356752463325019 36.474331437200021 3.361206896600005 36.410344827599999 z" />
<glyph unicode="{" horiz-adv-x="27.576000000000001" d="M24.332000000000001 76.599999999999994 C24.331999999999987 76.216999999999985 24.331999999999987 75.450999999999993 24.331999999999987 75.067999999999984 C23.182999999999986 74.301999999999992 20.884999999999984 72.770000000000010 19.735999999999983 72.004000000000019 Q12.546031793600029 64.018050206200002 13.746109179500017 41.809305450599993 Q13.788000000000004 36.768000000000001 9.192000000000000 35.235999999999990 Q13.788000000000004 33.704000000000008 13.959476400000021 27.223759008700000 Q13.338364596500007 9.988008264000001 21.447999999999972 0.000000000000000 C22.469333333333331 -1.021333333333331 23.745999999999974 -2.298000000000002 24.511999999999993 -3.063999999999993 C24.511999999999993 -3.447000000000003 24.511999999999993 -4.212999999999994 24.511999999999993 -4.596000000000004 C22.980000000000011 -4.596000000000004 19.915999999999990 -4.596000000000004 18.384000000000007 -4.596000000000004 Q6.060629012700012 5.882930901000009 6.258122638799982 27.652770526099999 Q6.299697780500018 32.235623072500005 -1.531999999999989 35.235999999999990 Q6.268050364500020 36.719094676200001 6.207114408399995 41.875611413900003 Q5.845741770000011 72.455652774200018 19.735999999999983 76.599999999999994 C21.268000000000022 76.599999999999994 23.182999999999986 76.599999999999994 24.331999999999987 76.599999999999994 z" />
<glyph unicode="|" horiz-adv-x="20.699999999999999" d="M15.100000000000000 23.800000000000001 C15.050000000000011 17.849999999999994 14.949999999999989 5.949999999999989 14.899999999999977 0.000000000000000 C12.574999999999989 0.000000000000000 7.925000000000011 0.000000000000000 5.600000000000023 0.000000000000000 C5.600000000000023 17.425000000000011 5.600000000000023 52.275000000000006 5.600000000000023 69.699999999999989 C7.949999999999989 69.699999999999989 12.649999999999977 69.699999999999989 15.000000000000000 69.699999999999989 C15.024999999999977 58.224999999999994 15.074999999999989 35.275000000000006 15.100000000000023 23.800000000000011 z" />
<glyph unicode="}" horiz-adv-x="29.108000000000001" d="M4.776000000000000 76.599999999999994 Q18.666258229999993 72.455652774200018 18.304885591600009 41.875611413900003 Q18.243949635499984 36.719094676200001 26.043999999999993 35.235999999999990 Q18.212302219499986 32.235623072500005 18.253877361200022 27.652770526099999 Q18.451370987299992 5.882930901000009 6.127999999999997 -4.596000000000004 C4.085333333333335 -4.596000000000004 1.531999999999993 -4.596000000000004 0.000000000000011 -4.596000000000004 C0.000000000000011 -4.212999999999994 0.000000000000011 -3.447000000000003 0.000000000000011 -3.063999999999993 C0.765999999999973 -2.298000000000002 2.298000000000012 -0.765999999999991 3.063999999999975 0.000000000000000 Q11.173635403499997 9.988008264000001 10.552523599999983 27.223759008700000 Q10.724000000000000 33.704000000000008 15.320000000000004 35.235999999999990 Q10.724000000000000 36.768000000000001 10.765890820499987 41.809305450599993 Q11.965968206399975 64.018050206200002 4.776000000000021 72.004000000000019 C3.243999999999982 73.025333333333322 1.329000000000018 74.301999999999992 0.180000000000017 75.067999999999984 C0.180000000000017 75.450999999999993 0.180000000000017 76.216999999999985 0.180000000000017 76.599999999999994 C1.329000000000018 76.599999999999994 3.627000000000020 76.599999999999994 4.776000000000021 76.599999999999994 z" />
<glyph unicode="~" horiz-adv-x="49.600000000000001" d="M28.199999999999999 55.899999999999999 Q28.899999999999977 54.500000000000000 30.300000000000011 54.349999999999994 Q31.699999999999989 54.199999999999989 32.600000000000023 55.199999999999989 Q33.500000000000000 56.300000000000011 32.800000000000011 57.699999999999989 Q32.800000000000011 57.699999999999989 32.800000000000011 57.800000000000011 Q32.800000000000011 57.800000000000011 32.699999999999989 57.900000000000006 C34.100000000000023 58.533333333333331 35.850000000000023 59.324999999999989 36.899999999999977 59.800000000000011 C36.899999999999977 59.775000000000006 36.899999999999977 59.724999999999994 36.899999999999977 59.699999999999989 Q37.899999999999977 57.300000000000011 37.399999999999977 55.199999999999989 Q36.899999999999977 53.099999999999994 35.100000000000023 51.900000000000006 Q33.300000000000011 50.800000000000011 31.250000000000000 50.400000000000006 Q29.199999999999989 50.000000000000000 27.199999999999989 50.900000000000006 Q25.199999999999989 51.800000000000011 24.199999999999989 53.900000000000006 C25.533333333333303 54.566666666666663 27.199999999999989 55.400000000000006 28.199999999999989 55.900000000000006 zM24.199999999999999 53.899999999999999 Q23.500000000000000 55.300000000000011 22.100000000000023 55.449999999999989 Q20.699999999999989 55.599999999999994 19.800000000000011 54.500000000000000 Q18.899999999999977 53.500000000000000 19.600000000000023 52.099999999999994 Q19.600000000000023 52.099999999999994 19.600000000000023 52.000000000000000 Q19.600000000000023 52.000000000000000 19.699999999999989 51.900000000000006 C18.300000000000011 51.266666666666652 16.550000000000011 50.474999999999994 15.500000000000000 50.000000000000000 C15.500000000000000 50.025000000000006 15.500000000000000 50.074999999999989 15.500000000000000 50.099999999999994 Q14.500000000000000 52.500000000000000 15.000000000000000 54.599999999999994 Q15.500000000000000 56.699999999999989 17.300000000000011 57.800000000000011 Q19.100000000000023 59.000000000000000 21.149999999999977 59.400000000000006 Q23.199999999999989 59.800000000000011 25.199999999999989 58.900000000000006 Q27.199999999999989 58.000000000000000 28.199999999999989 55.900000000000006 C26.866666666666674 55.233333333333348 25.199999999999989 54.400000000000006 24.199999999999989 53.900000000000006 z" />
<glyph unicode="" horiz-adv-x="23.800000000000001" d="M7.400000000000000 0.100000000000000 C7.250000000000000 11.125000000000000 6.949999999999989 33.175000000000011 6.800000000000011 44.199999999999989 C9.074999999999989 44.199999999999989 13.625000000000000 44.199999999999989 15.899999999999977 44.199999999999989 C16.024999999999977 33.175000000000011 16.274999999999977 11.125000000000000 16.399999999999977 0.099999999999994 C14.149999999999977 0.099999999999994 9.649999999999977 0.099999999999994 7.399999999999977 0.099999999999994 zM5.400000000000000 63.399999999999999 Q5.399999999999977 66.199999999999989 7.199999999999989 67.800000000000011 Q9.000000000000000 69.400000000000006 11.199999999999989 69.400000000000006 Q13.399999999999977 69.400000000000006 15.199999999999989 67.750000000000000 Q17.000000000000000 66.099999999999994 17.000000000000000 63.199999999999989 Q17.000000000000000 60.500000000000000 15.199999999999989 59.000000000000000 Q13.399999999999977 57.500000000000000 11.199999999999989 57.500000000000000 Q9.000000000000000 57.599999999999994 7.199999999999989 59.150000000000006 Q5.399999999999977 60.699999999999989 5.399999999999977 63.400000000000006 z" />
<glyph unicode="" horiz-adv-x="60.399999999999999" d="M4.800000000000000 20.000000000000000 C17.324999999999989 20.000000000000000 42.375000000000000 20.000000000000000 54.899999999999977 20.000000000000000 C54.850000000000023 17.800000000000011 54.750000000000000 13.400000000000006 54.699999999999989 11.199999999999989 C42.175000000000011 11.199999999999989 17.125000000000000 11.199999999999989 4.600000000000023 11.199999999999989 C4.649999999999977 13.400000000000006 4.750000000000000 17.800000000000011 4.800000000000011 20.000000000000000 zM4.500000000000000 38.000000000000000 C17.024999999999977 38.000000000000000 42.074999999999989 38.000000000000000 54.600000000000023 38.000000000000000 C54.649999999999977 35.800000000000011 54.750000000000000 31.400000000000006 54.800000000000011 29.199999999999989 C42.274999999999977 29.199999999999989 17.225000000000023 29.199999999999989 4.699999999999989 29.199999999999989 C4.649999999999977 31.400000000000006 4.550000000000011 35.800000000000011 4.500000000000000 38.000000000000000 zM1.600000000000000 69.200000000000003 C4.250000000000000 69.199999999999989 9.550000000000011 69.199999999999989 12.199999999999989 69.199999999999989 C16.750000000000000 62.349999999999994 25.850000000000023 48.650000000000006 30.399999999999977 41.800000000000011 C34.850000000000023 48.650000000000006 43.750000000000000 62.349999999999994 48.199999999999989 69.199999999999989 C50.850000000000023 69.199999999999989 56.149999999999977 69.199999999999989 58.800000000000011 69.199999999999989 C52.949999999999989 60.250000000000000 41.250000000000000 42.349999999999994 35.399999999999977 33.400000000000006 C35.399999999999977 25.125000000000000 35.399999999999977 8.574999999999989 35.399999999999977 0.300000000000011 C32.750000000000000 0.224999999999994 27.449999999999989 0.075000000000017 24.800000000000011 0.000000000000000 C24.975000000000023 8.250000000000000 25.324999999999989 24.750000000000000 25.500000000000000 33.000000000000000 C25.524999999999977 33.000000000000000 25.574999999999989 33.000000000000000 25.600000000000023 33.000000000000000 C19.600000000000023 42.050000000000011 7.600000000000023 60.150000000000006 1.600000000000023 69.199999999999989 z" />
<glyph unicode="" horiz-adv-x="20.699999999999999" d="M6.300000000000000 31.500000000000000 C7.995000000000005 31.500000000000000 11.384999999999991 31.500000000000000 13.079999999999984 31.500000000000000 C13.155000000000030 23.625000000000000 13.305000000000007 7.875000000000000 13.379999999999995 0.000000000000000 C11.610000000000014 0.000000000000000 8.069999999999993 0.000000000000000 6.300000000000011 0.000000000000000 C6.300000000000011 7.875000000000000 6.300000000000011 23.625000000000000 6.300000000000011 31.500000000000000 zM6.400000000000000 69.599999999999994 C8.095000000000027 69.599999999999994 11.485000000000014 69.599999999999994 13.180000000000007 69.599999999999994 C13.154999999999973 61.875000000000000 13.105000000000018 46.425000000000011 13.079999999999984 38.699999999999989 C11.384999999999991 38.699999999999989 7.995000000000005 38.699999999999989 6.300000000000011 38.699999999999989 C6.324999999999989 46.425000000000011 6.375000000000000 61.875000000000000 6.399999999999977 69.599999999999994 z" />
<glyph unicode="" horiz-adv-x="71.299999999999997" d="M16.000000000000000 80.500000000000000 Q16.000000000000000 83.199999999999989 17.800000000000011 84.800000000000011 Q19.600000000000023 86.400000000000006 21.800000000000011 86.400000000000006 Q24.000000000000000 86.400000000000006 25.800000000000011 84.900000000000006 Q27.600000000000023 83.400000000000006 27.600000000000023 80.699999999999989 Q27.600000000000023 77.800000000000011 25.800000000000011 76.150000000000006 Q24.000000000000000 74.500000000000000 21.800000000000011 74.500000000000000 Q19.600000000000023 74.500000000000000 17.800000000000011 76.099999999999994 Q16.000000000000000 77.699999999999989 16.000000000000000 80.500000000000000 zM40.799999999999997 80.000000000000000 Q40.800000000000011 82.699999999999989 42.600000000000023 84.300000000000011 Q44.399999999999977 85.900000000000006 46.600000000000023 85.900000000000006 Q48.800000000000011 85.900000000000006 50.600000000000023 84.400000000000006 Q52.399999999999977 82.900000000000006 52.399999999999977 80.199999999999989 Q52.399999999999977 77.300000000000011 50.600000000000023 75.650000000000006 Q48.800000000000011 74.000000000000000 46.600000000000023 74.000000000000000 Q44.399999999999977 74.000000000000000 42.600000000000023 75.599999999999994 Q40.800000000000011 77.199999999999989 40.800000000000011 80.000000000000000 z" />
<glyph unicode="" horiz-adv-x="56" d="M25.600000000000001 80.200000000000003 Q25.600000000000023 78.599999999999994 26.800000000000011 77.949999999999989 Q28.000000000000000 77.300000000000011 29.199999999999989 77.900000000000006 Q30.500000000000000 78.599999999999994 30.500000000000000 80.300000000000011 Q30.500000000000000 81.800000000000011 29.250000000000000 82.449999999999989 Q28.000000000000000 83.099999999999994 26.800000000000011 82.400000000000006 Q25.600000000000023 81.699999999999989 25.600000000000023 80.199999999999989 zM21.000000000000000 80.099999999999994 Q21.000000000000000 83.300000000000011 23.199999999999989 85.050000000000011 Q25.399999999999977 86.800000000000011 28.000000000000000 86.599999999999994 Q30.600000000000023 86.400000000000006 32.800000000000011 84.599999999999994 Q35.000000000000000 82.800000000000011 35.000000000000000 79.900000000000006 Q35.000000000000000 76.800000000000011 32.800000000000011 74.949999999999989 Q30.600000000000023 73.099999999999994 28.000000000000000 73.000000000000000 Q25.399999999999977 72.900000000000006 23.199999999999989 74.800000000000011 Q21.000000000000000 76.699999999999989 21.000000000000000 80.099999999999994 z" />
<glyph unicode="" horiz-adv-x="49.5" d="M44.200000000000003 12.699999999999999 C34.500000000000000 12.699999999999989 15.100000000000023 12.699999999999989 5.399999999999977 12.699999999999989 C5.399999999999977 14.949999999999989 5.399999999999977 19.449999999999989 5.399999999999977 21.699999999999989 C15.100000000000023 21.725000000000165 34.500000000000000 21.774999999999835 44.199999999999989 21.800000000000011 C44.199999999999989 19.525000000000006 44.199999999999989 14.974999999999994 44.199999999999989 12.699999999999989 zM42.899999999999999 47.399999999999999 C39.500000000000000 47.374999999999972 32.699999999999989 47.325000000000017 29.300000000000011 47.300000000000011 C29.324999999999989 43.425000000000011 29.375000000000000 35.675000000000011 29.399999999999977 31.800000000000011 C27.125000000000000 31.800000000000011 22.574999999999989 31.800000000000011 20.300000000000011 31.800000000000011 C20.300000000000011 35.675000000000011 20.300000000000011 43.425000000000011 20.300000000000011 47.300000000000011 C16.774999999999977 47.274999999999949 9.725000000000023 47.225000000000051 6.199999999999989 47.199999999999989 C6.199999999999989 49.449999999999989 6.199999999999989 53.949999999999989 6.199999999999989 56.199999999999989 C9.774999999999977 56.174999999999983 16.925000000000011 56.125000000000000 20.500000000000000 56.099999999999994 C20.425000000000011 59.750000000000000 20.274999999999977 67.050000000000011 20.199999999999989 70.699999999999989 C22.449999999999989 70.699999999999989 26.949999999999989 70.699999999999989 29.199999999999989 70.699999999999989 C29.199999999999989 67.099999999999994 29.199999999999989 59.900000000000006 29.199999999999989 56.300000000000011 C32.625000000000000 56.324999999999989 39.475000000000023 56.375000000000000 42.899999999999977 56.400000000000006 C42.899999999999977 54.150000000000006 42.899999999999977 49.650000000000006 42.899999999999977 47.400000000000006 z" />
<glyph unicode="" horiz-adv-x="100" d="M42.399999999999999 98.500000000000000 C43.949999999999989 96.675000000000011 47.050000000000011 93.025000000000006 48.600000000000023 91.199999999999989 C44.800000000000011 88.175000000000011 37.199999999999989 82.125000000000000 33.399999999999977 79.099999999999994 C32.149999999999977 80.274999999999977 29.649999999999977 82.625000000000000 28.399999999999977 83.800000000000011 C31.899999999999977 87.474999999999994 38.899999999999977 94.824999999999989 42.399999999999977 98.500000000000000 z" />
<glyph unicode="" horiz-adv-x="54.799999999999997" d="M30.000000000000000 7.700000000000000 Q33.100000000000023 7.699999999999989 35.300000000000011 8.650000000000006 Q37.500000000000000 9.599999999999994 38.600000000000023 11.000000000000000 Q39.800000000000011 12.400000000000006 41.300000000000011 14.000000000000000 C42.699999999999989 11.699999999999989 44.449999999999989 8.824999999999989 45.500000000000000 7.099999999999994 Q42.300000000000011 3.500000000000000 38.300000000000011 1.750000000000000 Q34.300000000000011 0.000000000000000 28.699999999999989 0.000000000000000 Q19.800000000000011 0.000000000000000 14.550000000000011 5.000000000000000 Q9.300000000000011 10.000000000000000 9.300000000000011 18.199999999999989 Q9.300000000000011 22.300000000000011 11.100000000000023 25.849999999999994 Q12.899999999999977 29.400000000000006 17.000000000000000 33.599999999999994 C18.399999999999977 35.066666666666663 20.149999999999977 36.900000000000006 21.199999999999989 38.000000000000000 Q24.899999999999977 42.000000000000000 25.550000000000011 44.050000000000011 Q26.199999999999989 46.099999999999994 26.199999999999989 51.300000000000011 C26.266666666666652 51.866666666666674 26.350000000000023 52.574999999999989 26.399999999999977 53.000000000000000 C28.824999999999989 53.125000000000000 33.675000000000011 53.375000000000000 36.100000000000023 53.500000000000000 C36.074999999999989 52.675000000000011 36.024999999999977 51.025000000000006 36.000000000000000 50.199999999999989 Q36.000000000000000 44.400000000000006 34.399999999999977 41.099999999999994 Q32.800000000000011 37.800000000000011 29.000000000000000 33.900000000000006 C27.566666666666663 32.366666666666674 25.774999999999977 30.449999999999989 24.699999999999989 29.300000000000011 Q23.899999999999977 28.400000000000006 23.000000000000000 27.599999999999994 Q22.100000000000023 26.800000000000011 21.300000000000011 25.699999999999989 Q20.500000000000000 24.699999999999989 19.850000000000023 23.699999999999989 Q19.199999999999989 22.699999999999989 18.800000000000011 21.500000000000000 Q18.399999999999977 20.400000000000006 18.500000000000000 19.199999999999989 Q18.800000000000011 7.699999999999989 30.000000000000000 7.699999999999989 zM37.000000000000000 69.000000000000000 Q37.000000000000000 66.300000000000011 35.199999999999989 64.750000000000000 Q33.399999999999977 63.199999999999989 31.199999999999989 63.099999999999994 Q29.000000000000000 63.099999999999994 27.199999999999989 64.599999999999994 Q25.399999999999977 66.099999999999994 25.399999999999977 68.800000000000011 Q25.399999999999977 71.699999999999989 27.199999999999989 73.349999999999994 Q29.000000000000000 75.000000000000000 31.199999999999989 75.000000000000000 Q33.399999999999977 75.000000000000000 35.199999999999989 73.400000000000006 Q37.000000000000000 71.800000000000011 37.000000000000000 69.000000000000000 z" />
<glyph unicode="" horiz-adv-x="69.5" d="M27.100000000000001 96.099999999999994 C30.600000000000023 92.425000000000011 37.600000000000023 85.074999999999989 41.100000000000023 81.400000000000006 C39.850000000000023 80.225000000000023 37.350000000000023 77.875000000000000 36.100000000000023 76.699999999999989 C32.300000000000011 79.724999999999994 24.699999999999989 85.775000000000006 20.899999999999977 88.800000000000011 C22.449999999999989 90.625000000000000 25.550000000000011 94.274999999999977 27.100000000000023 96.099999999999994 zM32.899999999999999 73.099999999999994 C33.925000000000011 70.800000000000011 35.975000000000023 66.199999999999989 37.000000000000000 63.900000000000006 C44.074999999999989 47.949999999999989 58.225000000000023 16.050000000000011 65.300000000000011 0.099999999999994 C62.925000000000011 0.099999999999994 58.175000000000011 0.099999999999994 55.800000000000011 0.099999999999994 C53.649999999999977 4.650000000000006 49.350000000000023 13.750000000000000 47.199999999999989 18.300000000000011 C40.324999999999989 18.300000000000011 26.574999999999989 18.300000000000011 19.699999999999989 18.300000000000011 C17.675000000000011 13.750000000000000 13.625000000000000 4.650000000000006 11.600000000000023 0.099999999999994 C9.225000000000023 0.099999999999994 4.475000000000023 0.099999999999994 2.100000000000023 0.099999999999994 C9.050000000000011 16.474999999999994 22.949999999999989 49.224999999999994 29.899999999999977 65.599999999999994 C30.649999999999977 67.474999999999994 32.149999999999977 71.224999999999994 32.899999999999977 73.099999999999994 zM43.399999999999999 26.600000000000001 C40.800000000000011 32.800000000000011 35.600000000000023 45.199999999999989 33.000000000000000 51.400000000000006 C30.574999999999989 45.199999999999989 25.725000000000023 32.800000000000011 23.300000000000011 26.599999999999994 C28.324999999999989 26.599999999999994 38.375000000000000 26.599999999999994 43.399999999999977 26.599999999999994 z" />
<glyph unicode="" horiz-adv-x="69.5" d="M37.100000000000001 96.099999999999994 C38.649999999999977 94.274999999999977 41.750000000000000 90.625000000000000 43.300000000000011 88.800000000000011 C39.500000000000000 85.775000000000006 31.899999999999977 79.724999999999994 28.100000000000023 76.699999999999989 C26.850000000000023 77.875000000000000 24.350000000000023 80.225000000000023 23.100000000000023 81.400000000000006 C26.600000000000023 85.074999999999989 33.600000000000023 92.425000000000011 37.100000000000023 96.099999999999994 zM32.899999999999999 73.099999999999994 C33.925000000000011 70.800000000000011 35.975000000000023 66.199999999999989 37.000000000000000 63.900000000000006 C44.074999999999989 47.949999999999989 58.225000000000023 16.050000000000011 65.300000000000011 0.099999999999994 C62.925000000000011 0.099999999999994 58.175000000000011 0.099999999999994 55.800000000000011 0.099999999999994 C53.649999999999977 4.650000000000006 49.350000000000023 13.750000000000000 47.199999999999989 18.300000000000011 C40.324999999999989 18.300000000000011 26.574999999999989 18.300000000000011 19.699999999999989 18.300000000000011 C17.675000000000011 13.750000000000000 13.625000000000000 4.650000000000006 11.600000000000023 0.099999999999994 C9.225000000000023 0.099999999999994 4.475000000000023 0.099999999999994 2.100000000000023 0.099999999999994 C9.050000000000011 16.474999999999994 22.949999999999989 49.224999999999994 29.899999999999977 65.599999999999994 C30.649999999999977 67.474999999999994 32.149999999999977 71.224999999999994 32.899999999999977 73.099999999999994 zM43.399999999999999 26.600000000000001 C40.800000000000011 32.800000000000011 35.600000000000023 45.199999999999989 33.000000000000000 51.400000000000006 C30.574999999999989 45.199999999999989 25.725000000000023 32.800000000000011 23.300000000000011 26.599999999999994 C28.324999999999989 26.599999999999994 38.375000000000000 26.599999999999994 43.399999999999977 26.599999999999994 z" />
<glyph unicode="" horiz-adv-x="67.400000000000006" d="M47.500000000000000 79.200000000000003 C45.324999999999989 79.199999999999989 40.975000000000023 79.199999999999989 38.800000000000011 79.199999999999989 C37.475000000000023 81.150000000000006 34.824999999999989 85.050000000000011 33.500000000000000 87.000000000000000 C32.024999999999977 85.050000000000011 29.074999999999989 81.150000000000006 27.600000000000023 79.199999999999989 C25.300000000000011 79.175000000000011 20.699999999999989 79.125000000000000 18.399999999999977 79.099999999999994 C22.199999999999989 84.224999999999994 29.800000000000011 94.474999999999994 33.600000000000023 99.599999999999994 C37.074999999999989 94.500000000000000 44.024999999999977 84.300000000000011 47.500000000000000 79.199999999999989 zM32.899999999999999 73.099999999999994 C33.925000000000011 70.800000000000011 35.975000000000023 66.199999999999989 37.000000000000000 63.900000000000006 C44.074999999999989 47.949999999999989 58.225000000000023 16.050000000000011 65.300000000000011 0.099999999999994 C62.925000000000011 0.099999999999994 58.175000000000011 0.099999999999994 55.800000000000011 0.099999999999994 C53.649999999999977 4.650000000000006 49.350000000000023 13.750000000000000 47.199999999999989 18.300000000000011 C40.324999999999989 18.300000000000011 26.574999999999989 18.300000000000011 19.699999999999989 18.300000000000011 C17.675000000000011 13.750000000000000 13.625000000000000 4.650000000000006 11.600000000000023 0.099999999999994 C9.225000000000023 0.099999999999994 4.475000000000023 0.099999999999994 2.100000000000023 0.099999999999994 C9.050000000000011 16.474999999999994 22.949999999999989 49.224999999999994 29.899999999999977 65.599999999999994 C30.649999999999977 67.474999999999994 32.149999999999977 71.224999999999994 32.899999999999977 73.099999999999994 zM43.399999999999999 26.600000000000001 C40.800000000000011 32.800000000000011 35.600000000000023 45.199999999999989 33.000000000000000 51.400000000000006 C30.574999999999989 45.199999999999989 25.725000000000023 32.800000000000011 23.300000000000011 26.599999999999994 C28.324999999999989 26.599999999999994 38.375000000000000 26.599999999999994 43.399999999999977 26.599999999999994 z" />
<glyph unicode="" horiz-adv-x="67.400000000000006" d="M34.899999999999999 85.099999999999994 Q35.600000000000023 83.699999999999989 37.000000000000000 83.550000000000011 Q38.399999999999977 83.400000000000006 39.300000000000011 84.400000000000006 Q40.199999999999989 85.500000000000000 39.500000000000000 86.900000000000006 Q39.500000000000000 86.900000000000006 39.500000000000000 87.000000000000000 Q39.500000000000000 87.000000000000000 39.399999999999977 87.099999999999994 C40.800000000000011 87.733333333333348 42.550000000000011 88.525000000000006 43.600000000000023 89.000000000000000 C43.600000000000023 88.974999999999994 43.600000000000023 88.925000000000011 43.600000000000023 88.900000000000006 Q44.600000000000023 86.500000000000000 44.100000000000023 84.400000000000006 Q43.600000000000023 82.300000000000011 41.800000000000011 81.099999999999994 Q40.000000000000000 80.000000000000000 37.949999999999989 79.599999999999994 Q35.899999999999977 79.199999999999989 33.899999999999977 80.099999999999994 Q31.899999999999977 81.000000000000000 30.899999999999977 83.099999999999994 C32.233333333333348 83.766666666666652 33.899999999999977 84.599999999999994 34.899999999999977 85.099999999999994 zM30.899999999999999 83.099999999999994 Q30.199999999999989 84.500000000000000 28.800000000000011 84.650000000000006 Q27.399999999999977 84.800000000000011 26.500000000000000 83.699999999999989 Q25.600000000000023 82.699999999999989 26.300000000000011 81.300000000000011 Q26.300000000000011 81.300000000000011 26.300000000000011 81.199999999999989 Q26.300000000000011 81.199999999999989 26.399999999999977 81.099999999999994 C25.000000000000000 80.466666666666669 23.250000000000000 79.675000000000011 22.199999999999989 79.199999999999989 C22.199999999999989 79.224999999999994 22.199999999999989 79.275000000000006 22.199999999999989 79.300000000000011 Q21.199999999999989 81.699999999999989 21.699999999999989 83.800000000000011 Q22.199999999999989 85.900000000000006 24.000000000000000 87.000000000000000 Q25.800000000000011 88.199999999999989 27.850000000000023 88.599999999999994 Q29.899999999999977 89.000000000000000 31.899999999999977 88.099999999999994 Q33.899999999999977 87.199999999999989 34.899999999999977 85.099999999999994 C33.566666666666663 84.433333333333337 31.899999999999977 83.599999999999994 30.899999999999977 83.099999999999994 zM32.899999999999999 73.099999999999994 C33.925000000000011 70.800000000000011 35.975000000000023 66.199999999999989 37.000000000000000 63.900000000000006 C44.074999999999989 47.949999999999989 58.225000000000023 16.050000000000011 65.300000000000011 0.099999999999994 C62.925000000000011 0.099999999999994 58.175000000000011 0.099999999999994 55.800000000000011 0.099999999999994 C53.649999999999977 4.650000000000006 49.350000000000023 13.750000000000000 47.199999999999989 18.300000000000011 C40.324999999999989 18.300000000000011 26.574999999999989 18.300000000000011 19.699999999999989 18.300000000000011 C17.675000000000011 13.750000000000000 13.625000000000000 4.650000000000006 11.600000000000023 0.099999999999994 C9.225000000000023 0.099999999999994 4.475000000000023 0.099999999999994 2.100000000000023 0.099999999999994 C9.050000000000011 16.474999999999994 22.949999999999989 49.224999999999994 29.899999999999977 65.599999999999994 C30.649999999999977 67.474999999999994 32.149999999999977 71.224999999999994 32.899999999999977 73.099999999999994 zM43.399999999999999 26.600000000000001 C40.800000000000011 32.800000000000011 35.600000000000023 45.199999999999989 33.000000000000000 51.400000000000006 C30.574999999999989 45.199999999999989 25.725000000000023 32.800000000000011 23.300000000000011 26.599999999999994 C28.324999999999989 26.599999999999994 38.375000000000000 26.599999999999994 43.399999999999977 26.599999999999994 z" />
<glyph unicode="" horiz-adv-x="69.5" d="M32.899999999999999 73.099999999999994 C33.925000000000011 70.800000000000011 35.975000000000023 66.199999999999989 37.000000000000000 63.900000000000006 C44.074999999999989 47.949999999999989 58.225000000000023 16.050000000000011 65.300000000000011 0.099999999999994 C62.925000000000011 0.099999999999994 58.175000000000011 0.099999999999994 55.800000000000011 0.099999999999994 C53.649999999999977 4.650000000000006 49.350000000000023 13.750000000000000 47.199999999999989 18.300000000000011 C40.324999999999989 18.300000000000011 26.574999999999989 18.300000000000011 19.699999999999989 18.300000000000011 C17.675000000000011 13.750000000000000 13.625000000000000 4.650000000000006 11.600000000000023 0.099999999999994 C9.225000000000023 0.099999999999994 4.475000000000023 0.099999999999994 2.100000000000023 0.099999999999994 C9.050000000000011 16.474999999999994 22.949999999999989 49.224999999999994 29.899999999999977 65.599999999999994 C30.649999999999977 67.474999999999994 32.149999999999977 71.224999999999994 32.899999999999977 73.099999999999994 zM43.399999999999999 26.600000000000001 C40.800000000000011 32.800000000000011 35.600000000000023 45.199999999999989 33.000000000000000 51.400000000000006 C30.574999999999989 45.199999999999989 25.725000000000023 32.800000000000011 23.300000000000011 26.599999999999994 C28.324999999999989 26.599999999999994 38.375000000000000 26.599999999999994 43.399999999999977 26.599999999999994 zM16.000000000000000 80.500000000000000 Q16.000000000000000 83.199999999999989 17.800000000000011 84.800000000000011 Q19.600000000000023 86.400000000000006 21.800000000000011 86.400000000000006 Q24.000000000000000 86.400000000000006 25.800000000000011 84.900000000000006 Q27.600000000000023 83.400000000000006 27.600000000000023 80.699999999999989 Q27.600000000000023 77.800000000000011 25.800000000000011 76.150000000000006 Q24.000000000000000 74.500000000000000 21.800000000000011 74.500000000000000 Q19.600000000000023 74.500000000000000 17.800000000000011 76.099999999999994 Q16.000000000000000 77.699999999999989 16.000000000000000 80.500000000000000 zM40.799999999999997 80.000000000000000 Q40.800000000000011 82.699999999999989 42.600000000000023 84.300000000000011 Q44.399999999999977 85.900000000000006 46.600000000000023 85.900000000000006 Q48.800000000000011 85.900000000000006 50.600000000000023 84.400000000000006 Q52.399999999999977 82.900000000000006 52.399999999999977 80.199999999999989 Q52.399999999999977 77.300000000000011 50.600000000000023 75.650000000000006 Q48.800000000000011 74.000000000000000 46.600000000000023 74.000000000000000 Q44.399999999999977 74.000000000000000 42.600000000000023 75.599999999999994 Q40.800000000000011 77.199999999999989 40.800000000000011 80.000000000000000 z" />
<glyph unicode="" horiz-adv-x="69.5" d="M32.899999999999999 73.099999999999994 C33.925000000000011 70.800000000000011 35.975000000000023 66.199999999999989 37.000000000000000 63.900000000000006 C44.074999999999989 47.949999999999989 58.225000000000023 16.050000000000011 65.300000000000011 0.099999999999994 C62.925000000000011 0.099999999999994 58.175000000000011 0.099999999999994 55.800000000000011 0.099999999999994 C53.649999999999977 4.650000000000006 49.350000000000023 13.750000000000000 47.199999999999989 18.300000000000011 C40.324999999999989 18.300000000000011 26.574999999999989 18.300000000000011 19.699999999999989 18.300000000000011 C17.675000000000011 13.750000000000000 13.625000000000000 4.650000000000006 11.600000000000023 0.099999999999994 C9.225000000000023 0.099999999999994 4.475000000000023 0.099999999999994 2.100000000000023 0.099999999999994 C9.050000000000011 16.474999999999994 22.949999999999989 49.224999999999994 29.899999999999977 65.599999999999994 C30.649999999999977 67.474999999999994 32.149999999999977 71.224999999999994 32.899999999999977 73.099999999999994 zM43.399999999999999 26.600000000000001 C40.800000000000011 32.800000000000011 35.600000000000023 45.199999999999989 33.000000000000000 51.400000000000006 C30.574999999999989 45.199999999999989 25.725000000000023 32.800000000000011 23.300000000000011 26.599999999999994 C28.324999999999989 26.599999999999994 38.375000000000000 26.599999999999994 43.399999999999977 26.599999999999994 zM40.863595315799998 78.611092074499993 Q40.186450476499999 77.008426498900008 38.956527746000006 75.756963759700000 Q37.761869774700017 74.535641481699997 36.102399431100025 73.849896189800006 Q34.505860028500024 73.207070859900000 32.735725534399990 73.180223114800015 Q31.014807602799976 73.164184549300018 29.369051637799998 73.849896189800006 Q27.772745411199992 74.493534815200007 26.514923322900017 75.756963759700000 Q25.286938925199991 76.962500748299988 24.607855753000024 78.611092074499993 Q23.933833742800005 80.195122251399994 23.938182677999976 81.977765971200000 Q23.922834494699998 83.698023541099985 24.607855753000024 85.344439867900007 Q25.250824915599992 86.942273095800005 26.514923322900017 88.198568182700001 Q27.720541620900008 89.423746884799982 29.369051637799998 90.105635752599994 Q30.954726897800015 90.783974428500017 32.735725534399990 90.775308827599986 Q34.451365558500015 90.785383020700010 36.102399431100025 90.105635752599994 Q37.709399302900010 89.467259152400004 38.956527746000006 88.198568182700001 Q40.170633410499988 86.989454113500017 40.863595315800012 85.344439867900007 Q41.553535016799970 83.758066937600006 41.533268390800004 81.977765971200000 Q41.541556535399991 80.215689857699999 40.863595315800012 78.611092074499993 zM38.182583713200003 82.037802448700006 Q38.194843943600006 83.114789810399998 37.777467133599998 84.074461028600012 Q37.358262050599990 85.069607122399987 36.623792721399980 85.801056802000005 Q35.869346368200013 86.568547336600005 34.897196947899999 86.954731214199995 Q33.898409300100013 87.365942144700000 32.860538367999993 87.359847793900002 Q31.783128952900029 87.365090021399993 30.823879788099987 86.954731214199995 Q29.826618938699994 86.542224729800012 29.097284014699994 85.801056802000005 Q28.332571735999977 85.041065117000016 27.943609602499976 84.074461028600012 Q27.529208188600023 83.078466750299981 27.538493022800026 82.037802448700006 Q27.535862148399985 80.959397845699982 27.943609602499976 80.001143868800000 Q28.354418790299974 79.003833831500003 29.097284014699994 78.274548095300020 Q29.858199454300006 77.510240806000013 30.823879788099987 77.120873683100001 Q31.819474582800012 76.706054624700016 32.860538367999993 76.715757103499982 Q33.931375554999988 76.731998560799980 34.897196947899999 77.120873683100001 Q35.901088211900003 77.535713098900004 36.623792721399980 78.274548095300020 Q37.367830534000007 79.031616467099980 37.777467133599998 80.001143868800000 Q38.187597599699984 80.971840153199992 38.182583713200017 82.037802448700006 z" />
<glyph unicode="" horiz-adv-x="51.799999999999997" d="M19.699999999999999 96.099999999999994 C23.199999999999989 92.425000000000011 30.199999999999989 85.074999999999989 33.699999999999989 81.400000000000006 C32.449999999999989 80.225000000000023 29.949999999999989 77.875000000000000 28.699999999999989 76.699999999999989 C24.899999999999977 79.724999999999994 17.300000000000011 85.775000000000006 13.500000000000000 88.800000000000011 C15.050000000000011 90.625000000000000 18.149999999999977 94.274999999999977 19.699999999999989 96.099999999999994 zM5.400000000000000 69.299999999999997 C14.550000000000011 69.300000000000011 32.850000000000023 69.300000000000011 42.000000000000000 69.300000000000011 C42.000000000000000 67.175000000000011 42.000000000000000 62.925000000000011 42.000000000000000 60.800000000000011 C35.149999999999977 60.800000000000011 21.449999999999989 60.800000000000011 14.600000000000023 60.800000000000011 C14.600000000000023 55.900000000000006 14.600000000000023 46.099999999999994 14.600000000000023 41.199999999999989 C19.500000000000000 41.199999999999989 29.300000000000011 41.199999999999989 34.199999999999989 41.199999999999989 C34.199999999999989 39.125000000000000 34.199999999999989 34.974999999999994 34.199999999999989 32.900000000000006 C29.300000000000011 32.900000000000006 19.500000000000000 32.900000000000006 14.600000000000023 32.900000000000006 C14.600000000000023 26.724999999999994 14.600000000000023 14.375000000000000 14.600000000000023 8.199999999999989 C21.675000000000011 8.199999999999989 35.824999999999989 8.199999999999989 42.899999999999977 8.199999999999989 C42.899999999999977 6.150000000000006 42.899999999999977 2.050000000000011 42.899999999999977 0.000000000000000 C33.524999999999977 0.000000000000000 14.774999999999977 0.000000000000000 5.399999999999977 0.000000000000000 C5.399999999999977 17.324999999999989 5.399999999999977 51.974999999999994 5.399999999999977 69.300000000000011 z" />
</font>
</defs>
</svg>
