<?xml version="1.0" standalone="no"?>
<!DOCTYPE svg PUBLIC "-//W3C//DTD SVG 1.1//EN" "http://www.w3.org/Graphics/SVG/1.1/DTD/svg11.dtd" >
<svg>
<defs>
<font id="BetecknaGS" horiz-adv-x="250" >
<font-face units-per-em="100" ascent="80" descent="-20" />
<glyph unicode=" " horiz-adv-x="35.100000000000001" d="" />
<glyph unicode="!" horiz-adv-x="23.800000000000001" d="M15.345652274700001 1.895175437900000 Q15.001604579499997 1.080883774699998 14.376698272700025 0.445033294700011 Q13.769709490200000 -0.175503244000026 12.926556129500000 -0.523920707300022 Q12.115377088000002 -0.850531146100025 11.215996840900004 -0.864172104899978 Q10.341622831700022 -0.872321072700004 9.505437552300009 -0.523920707300022 Q8.694376984200005 -0.196897044399975 8.055295409099983 0.445033294700011 Q7.431373941800018 1.057549551799980 7.086341407100008 1.895175437899979 Q6.743880377200014 2.699998719199982 6.746090009499994 3.605734726499975 Q6.738291815100013 4.479773215299986 7.086341407100008 5.316294015100027 Q7.413024925400009 6.128130430999988 8.055295409099983 6.766436158299996 Q8.667852978200017 7.388932091400022 9.505437552300009 7.735390160299971 Q10.311096677000023 8.080044426899974 11.215996840900004 8.075641557899985 Q12.087689220100003 8.080760112599989 12.926556129500000 7.735390160299971 Q13.743049987199981 7.411040057899982 14.376698272700025 6.766436158299996 Q14.993568152399973 6.152102437300016 15.345652274700001 5.316294015100027 Q15.696200857699978 4.510280414000022 15.685903672300014 3.605734726499975 Q15.690114761100006 2.710448828399990 15.345652274700001 1.895175437899979 zM6.825256074000000 70.472684685000004 C7.245514694699978 57.196443305699972 8.086031936100028 30.643960547099994 8.506290556800025 17.367719167799976 C9.968704349900008 17.367719167799976 12.893531936099976 17.367719167799976 14.355945729200016 17.367719167799976 C14.711549177474978 30.643960547099994 15.422756074025017 57.196443305699972 15.778359522299979 70.472684684999990 C13.540083660224980 70.472684684999990 9.063531936074980 70.472684684999990 6.825256073999981 70.472684684999990 z" />
<glyph unicode="&#x22;" horiz-adv-x="30.639999999999993" d="M15.320000000000000 75.067999999999998 Q19.916000000000018 75.067999999999984 21.447999999999944 75.067999999999984 C21.447999999999944 67.925241379333329 21.447999999999944 58.996793103500011 21.447999999999944 53.639724138000020 C19.916000000000018 53.639724138000020 16.852000000000054 53.639724138000020 15.320000000000014 53.639724138000020 Q15.320000000000014 62.831724138000027 15.320000000000014 75.067999999999984 zM3.064000000000000 75.087724137899997 Q7.659999999999989 75.087724137900011 9.191999999999972 75.087724137900011 C9.191999999999972 67.944965517233300 9.191999999999972 59.016517241399981 9.191999999999972 53.659448275899990 C7.659999999999989 53.659448275899990 4.596000000000025 53.659448275899990 3.063999999999986 53.659448275899990 Q3.063999999999986 62.851448275899997 3.063999999999986 75.087724137900011 z" />
<glyph unicode="#" horiz-adv-x="62.811999999999927" d="M28.978689655200000 69.954758620700005 C24.415017241399937 52.466068965524983 15.287672413800010 17.488689655174994 10.723999999999990 0.000000000000000 C8.425999999999988 0.000000000000000 3.829999999999984 0.000000000000000 1.531999999999982 0.000000000000000 C6.095672413800003 17.488689655174994 15.223017241399987 52.466068965524983 19.786689655200007 69.954758620699977 C22.084689655200009 69.954758620699977 26.680689655200013 69.954758620699977 28.978689655200014 69.954758620699977 zM57.025862068899997 69.825448275900001 C52.307137930975045 52.369086206924976 42.869689655125057 17.456362068975011 38.150965517200007 0.000000000000000 C35.890838643475035 -0.019408997750020 31.370584896024980 -0.058226993250003 29.110458022300008 -0.077635991000022 C33.668584896024981 17.398135075725008 42.784838643475041 52.349677209175013 47.342965517200014 69.825448275899987 C49.763689655124949 69.825448275899987 54.605137930975047 69.825448275899987 57.025862068899983 69.825448275899987 zM5.371862069000000 51.590482758599997 C5.371862068999974 51.590482758599990 5.371862068999974 51.590482758599990 5.371862068999974 51.590482758599990 C19.255189655199956 51.590482758599990 47.021844827600034 51.590482758599990 60.905172413799960 51.590482758599990 C60.295879310349960 49.675482758599969 59.077293103449961 45.845482758599985 58.467999999999961 43.930482758600021 C44.810965517249997 43.930482758600021 17.496896551750012 43.930482758600021 3.839862068999992 43.930482758600021 C4.222862068999973 45.845482758599985 4.988862068999993 49.675482758599969 5.371862068999974 51.590482758599990 zM55.798551724100001 26.819862068999999 C55.313637931000017 24.904862068999989 54.343810344799977 21.074862069000005 53.858896551700013 19.159862068999985 C40.011172413775057 19.159862068999985 12.315724137924974 19.159862068999985 -1.531999999999982 19.159862068999985 C-1.149000000000001 21.074862069000005 -0.382999999999981 24.904862068999989 0.000000000000000 26.819862069000010 C13.949637931024995 26.819862069000010 41.848913793074985 26.819862069000010 55.798551724099980 26.819862069000010 z" />
<glyph unicode="$" horiz-adv-x="44.839843749999993" d="M21.266222208599999 40.895217312000000 Q44.999639069400018 31.532708779399968 45.148201839700050 17.727440999599992 Q45.345950452699981 -0.648445165800013 23.193415499399975 -1.026167095800020 Q10.593065907499977 -1.267649676599945 1.770200118399998 4.783863553599986 C1.740573242999972 8.006890899266693 1.703539648749995 12.035675081350007 1.681319492199975 14.452945590599995 Q11.427507808600012 7.179971707199968 22.540652244900002 7.372253318999981 Q35.927786776799962 7.282180105699922 35.578537905900021 17.625368021700012 Q35.341380004300049 24.648923275100003 17.652549005699996 31.212332319999973 Q-0.531031411699985 39.442350282199982 -0.125061694000010 51.473114188699981 Q-0.098138173499990 59.940270511300014 5.567377376699994 65.464443628500021 Q11.260484370500023 71.029812933199992 22.979351625000049 70.811636395800008 Q32.425069353200001 70.836519672800421 38.672539799900051 66.561047506199998 C38.482165344666669 64.027600042199992 38.244197275624970 60.860790712200014 38.101416434200019 58.960705114199982 Q30.009391138499950 62.972070803300028 22.838941359899991 62.758338428900004 Q9.982618175500022 62.465252388199929 9.584749279099981 51.536406191799983 Q9.265694560899988 45.902643187799981 21.266222208599970 40.895217312000000 zM20.808967418600002 77.857995246599998 C21.850592002675057 77.857995246600012 23.933841170824962 77.857995246600012 24.975465754900029 77.857995246600012 C24.975465754900029 56.456496910300018 24.975465754900029 13.653500237699973 24.975465754900029 -7.747998098600021 C23.835341170825018 -7.746998098599988 21.555092002674996 -7.744998098600036 20.414967418599986 -7.743998098600002 C20.513467418599987 13.656500237700016 20.710467418599990 56.457496910299994 20.808967418599991 77.857995246600012 z" />
<glyph unicode="%" horiz-adv-x="72.459882713643822" d="M31.509684502104676 50.536333397699998 Q30.329095626804619 47.742117095100014 28.184749234804631 45.560216116300012 Q26.101886265704625 43.430864446300006 23.208631953404652 42.235280848999992 Q20.425096514504649 41.114527371900010 17.338901405204670 41.067718849800031 Q14.338514416804660 41.039755922399991 11.469170857004688 42.235280848999992 Q8.686041956004690 43.357452291100003 6.493053575604652 45.560216116300012 Q4.352086629304697 47.662046441000030 3.168118308304688 50.536333397699991 Q1.992974025104704 53.298059244599983 2.000556309104670 56.406063945899973 Q1.973797049604659 59.405299606600011 3.168118308304688 62.275794494100012 Q4.289122555104687 65.061585692400001 6.493053575604652 67.251911775499991 Q8.595025661504653 69.387987046000035 11.469170857004688 70.576847042700024 Q14.233764874504661 71.759517348900033 17.338901405204670 71.744409042000029 Q20.330086464404676 71.761973201899991 23.208631953404652 70.576847042700024 Q26.010405017204707 69.463849839499971 28.184749234804631 67.251911775499991 Q30.301518879404657 65.143844880400025 31.509684502104651 62.275794494100012 Q32.712580970004666 59.509984102100020 32.677246501304722 56.406063945899973 Q32.691696720304691 53.333918466800014 31.509684502104651 50.536333397699991 zM26.469708408604678 56.493519085800003 Q26.490541297104674 58.323562806499979 25.781324237104659 59.954260017000024 Q25.069000530304638 61.645237018999978 23.820971972404696 62.888134513099999 Q22.538997958404625 64.192273524699999 20.887097476304721 64.848486777700032 Q19.189932655204675 65.547226621800007 17.426356545204644 65.536870949300010 Q15.595595660904653 65.545778672699953 13.965615614004694 64.848486777700032 Q12.271045166704685 64.147545496299983 11.031741117904662 62.888134513099999 Q9.732322987904670 61.596737733300017 9.071388853304686 59.954260017000024 Q8.367227660304682 58.261841758999992 8.383004681704652 56.493519085800017 Q8.378534234504659 54.661067153700003 9.071388853304686 53.032778154699997 Q9.769446046204653 51.338124126299988 11.031741117904662 50.098903658600022 Q12.324707564504681 48.800173696599984 13.965615614004694 48.138551393900002 Q15.657355059504685 47.433680529100002 17.426356545204644 47.450167222400012 Q19.245949735804661 47.477765110800021 20.887097476304721 48.138551393900002 Q22.592934488904721 48.843456850499990 23.820971972404696 50.098903658600022 Q25.085259535304690 51.385333071899993 25.781324237104659 53.032778154699997 Q26.478228129204727 54.682209432200011 26.469708408604706 56.493519085800017 zM5.343326334411572 4.316927783024139 C18.516405878013334 20.966927301812916 44.862564965216762 54.266926339390523 58.035644508818478 70.916925858179297 C59.628630358468428 69.854935291729305 62.814602057768440 67.730954158829320 64.407587907418502 66.668963592379328 C64.407587907418502 66.668963592379328 64.407587907418502 66.668963592379328 64.407587907418502 66.668963592379328 C51.234508363841798 50.018964073590496 24.888349276688277 16.718965036012946 11.715269733111572 0.068965517224115 C10.122283883436555 1.130956083674164 6.936312184086578 3.254937216574149 5.343326334411561 4.316927783024141 zM67.291348002304673 7.492662612400000 Q66.110759127104672 4.698446309900021 63.966412735104683 2.516545330999975 Q61.883549765904633 0.387193661100014 58.990295453604659 -0.808389936200001 Q56.206760014704656 -1.929143413300039 53.120564905404677 -1.975951935400019 Q50.120177917004668 -2.003914862899990 47.250834357304626 -0.808389936200001 Q44.467705456204641 0.313781505800023 42.274717075804716 2.516545330999975 Q40.133750129504648 4.618375655799980 38.949781808504696 7.492662612400011 Q37.774637525204668 10.254388459300003 37.782219809304621 13.362393160599993 Q37.755460549904711 16.361628821299973 38.949781808504696 19.232123708699987 Q40.070786055304694 22.017914907200009 42.274717075804716 24.208240990200011 Q44.376689161704718 26.344316260699998 47.250834357304626 27.533176257499974 Q50.015428374704726 28.715846563599939 53.120564905404677 28.700738256699992 Q56.111749964604684 28.718302416699999 58.990295453604659 27.533176257499974 Q61.792068517504646 26.420179054199991 63.966412735104683 24.208240990200011 Q66.083182379704709 22.100174095099987 67.291348002304659 19.232123708699987 Q68.494244470204677 16.466313316799983 68.458910001504734 13.362393160599993 Q68.473360220504702 10.290247681399990 67.291348002304659 7.492662612400011 zM62.251371908804671 13.449848300599999 Q62.272204797304681 15.279892021199998 61.562987737304667 16.910589231799975 Q60.850664030504646 18.601566233699998 59.602635472704634 19.844463727800019 Q58.320661458504702 21.148602739400019 56.668760976504615 21.804815992499982 Q54.971596155404683 22.503555836500027 53.208020045404652 22.493200163899985 Q51.377259161104718 22.502107887400030 49.747279114204645 21.804815992499982 Q48.052708667004623 21.103874711000003 46.813404618104670 19.844463727800019 Q45.513986488104621 18.553066947999980 44.853052353404706 16.910589231799975 Q44.148891160604677 15.218170973700012 44.164668182004704 13.449848300600024 Q44.160197734704667 11.617396368500010 44.853052353404706 9.989107369400017 Q45.551109546404660 8.294453341000008 46.813404618104670 7.055232873299985 Q48.106371064704632 5.756502911300004 49.747279114204645 5.094880608700009 Q51.439018559704692 4.390009743800022 53.208020045404652 4.406496437099975 Q55.027613236004669 4.434094325499984 56.668760976504615 5.094880608700009 Q58.374597989104728 5.799786065100022 59.602635472704634 7.055232873299985 Q60.866923035504698 8.341662286600013 61.562987737304667 9.989107369400017 Q62.259891629404621 11.638538646899974 62.251371908804714 13.449848300600024 z" />
<glyph unicode="&#x26;" horiz-adv-x="75.400000000000006" d="M46.422413793099999 11.853448275900000 C40.732758620674986 17.769396551749992 29.353448275825031 29.601293103450018 23.663793103400053 35.517241379300003 Q21.706896551699970 33.965517241399994 20.262864453599946 32.452652787700004 Q18.185511866400020 29.668430453499980 17.697854747900010 28.229424726399998 Q16.756997101299987 26.191513933900012 16.433881082299990 21.875000000000000 Q16.182719614800021 18.519728486100007 17.697854747900010 15.520575273600002 Q18.979589490700050 12.408943494500022 21.297347212299996 10.133554108800013 Q23.671422048299974 7.748896618599986 26.684368377099986 6.534061644500014 Q29.790648557200029 5.239816007000002 33.038793103400053 5.270087978800007 Q36.379831393300037 5.320761723999965 39.393217829800051 6.534061644500014 Q42.525383197699966 7.828370797300011 44.780238994600040 10.133554108800013 C45.327630594100015 10.706852164499992 46.011870093474954 11.423474734125023 46.422413793099963 11.853448275900007 zM53.534482758599999 30.862068965500001 C55.474137931024984 30.862068965499986 59.353448275875053 30.862068965499986 61.293103448300030 30.862068965499986 Q61.563863282400007 18.435872331600024 56.508620689700024 12.629310344799990 C60.646551724166670 8.405172413766650 65.818965517250035 3.124999999974989 68.922413793099963 -0.043103448299973 C66.239224137925021 -0.043103448299973 60.872844827575022 -0.043103448299973 58.189655172399966 -0.043103448299973 C56.702586206875026 1.573275862050025 53.728448275825031 4.806034482750022 52.241379310299976 6.422413793100020 Q49.945767121099948 3.631123991399988 48.050653759400006 2.315105333699989 Q44.072567691000017 -0.175947656699975 41.114654244699977 -1.501784452100026 Q36.728467442600049 -3.267824158599979 31.865361312300024 -3.341583205800021 Q27.137468278899973 -3.385646098499933 22.616068380000002 -1.501784452100026 Q18.230522184200026 0.266489628499983 14.774896451400025 3.737519126800009 Q11.401244069600011 7.049501543799977 9.535592872499990 11.578691055399986 Q7.683846250700014 15.930511151199994 7.695794118799995 20.827983987799996 Q7.653627919200005 25.554062803799980 9.535592872499990 30.077276920100019 Q11.264444011600006 34.373619508300010 14.627887295400001 37.771154694699987 Q16.511350455199988 39.913979672499977 19.137931034499957 42.241379310299976 C18.782289592633333 42.954569336833345 18.337737790300025 43.846056869999984 18.071006708899972 44.380949389900024 Q16.727221820900013 47.539000286899977 16.735892210399982 51.093023234399993 Q16.705292828700010 54.522668099200018 18.071006708899972 57.805097078900019 Q19.352882124100006 60.990666856699988 21.873091124600023 63.495318525500011 Q24.276709441100024 65.937934048499983 27.563312571199958 67.297402941200005 Q30.724643239300008 68.649793883800044 34.275386415700041 68.632517439699996 Q37.695825366699978 68.652602167200030 40.987460260099965 67.297402941200005 Q44.191305401800037 66.024683630600009 46.551724137900010 63.318965517200013 C45.474137930999973 61.206896551699970 44.127155172374955 58.566810344825001 43.318965517200013 56.982758620699997 Q43.830846372899941 57.150612150100017 42.427499619499940 58.548189274600020 Q40.985982869400004 60.014629474599985 39.128501993800000 60.752509014599980 Q37.220123594200004 61.538207615399983 35.237068965500043 61.526563170799989 Q33.178468361300020 61.536579467800038 31.345635937199972 60.752509014599980 Q29.440174783499970 59.964335005699979 28.046638311599963 58.548189274600020 Q26.585506510900018 57.096077087799983 25.842318571600003 55.249191649000011 Q25.050523930500049 53.346150526299994 25.068264415399995 51.357758620699997 Q25.063237617300047 49.297256516300024 25.842318571600003 47.466325592399983 Q26.627249564700037 45.560770455900013 28.046638311599963 44.167327966699986 C35.723620943366655 35.723620943333344 45.319849233075047 25.168987164124985 51.077586206900037 18.836206896600004 Q54.714740037900015 23.960357619399986 53.534482758600006 30.862068965499986 z" />
<glyph unicode="'" horiz-adv-x="12.336" d="M3.064000000000000 75.087724137899997 Q7.659999999999989 75.087724137900011 9.191999999999972 75.087724137900011 C9.191999999999972 67.944965517233300 9.191999999999972 59.016517241399981 9.191999999999972 53.659448275899990 C7.659999999999989 53.659448275899990 4.596000000000025 53.659448275899990 3.063999999999986 53.659448275899990 Q3.063999999999986 62.851448275899997 3.063999999999986 75.087724137900011 z" />
<glyph unicode="(" horiz-adv-x="27.576000000000001" d="M3.064000000000000 35.235999999999997 Q3.730275862099965 -1.531999999999982 19.915999999999990 -6.127999999999986 C21.447999999999972 -6.127999999999986 23.362999999999992 -6.127999999999986 24.511999999999993 -6.127999999999986 Q24.511999999999993 -5.745000000000005 24.511999999999993 -5.362000000000023 Q24.511999999999993 -4.978999999999985 24.511999999999993 -4.596000000000004 Q23.362999999999992 -3.829999999999984 22.405500000000011 -3.447000000000003 Q21.447999999999972 -3.064000000000021 19.915999999999990 -1.531999999999982 Q12.704000000000001 7.660000000000025 12.704000000000001 35.235999999999990 Q12.615999999999978 60.288000000000011 19.915999999999990 72.004000000000019 Q21.447999999999972 73.536000000000001 22.405500000000011 73.918999999999983 Q23.362999999999992 74.302000000000021 24.511999999999993 75.067999999999984 Q24.511999999999993 75.451000000000022 24.511999999999993 75.834000000000003 Q24.511999999999993 76.216999999999985 24.511999999999993 76.600000000000023 C23.362999999999992 76.600000000000023 21.447999999999972 76.600000000000023 19.915999999999990 76.600000000000023 Q10.444085201800014 73.910412556100027 6.286978342599973 60.203165336100028 Q3.340370032499997 50.487300448399992 3.064000000000014 35.235999999999990 z" />
<glyph unicode=")" horiz-adv-x="24.358137931034474" d="M18.071159588434472 60.203165336100000 Q13.914052729234466 73.910412556100027 4.442137931034491 76.600000000000023 C2.910137931034452 76.600000000000023 0.995137931034488 76.600000000000023 -0.153862068965513 76.600000000000023 Q-0.153862068965513 76.216999999999985 -0.153862068965513 75.834000000000003 Q-0.153862068965513 75.451000000000022 -0.153862068965513 75.067999999999984 Q0.995137931034488 74.302000000000021 1.952637931034470 73.918999999999983 Q2.910137931034452 73.536000000000001 4.442137931034491 72.004000000000019 Q11.742137931034502 60.288000000000011 11.654137931034480 35.235999999999990 Q11.654137931034480 7.660000000000025 4.442137931034491 -1.531999999999982 Q2.910137931034452 -3.064000000000021 1.952637931034470 -3.447000000000003 Q0.995137931034488 -3.829999999999984 -0.153862068965513 -4.596000000000004 Q-0.153862068965513 -4.978999999999985 -0.153862068965513 -5.362000000000023 Q-0.153862068965513 -5.745000000000005 -0.153862068965513 -6.127999999999986 C0.995137931034488 -6.127999999999986 2.910137931034452 -6.127999999999986 4.442137931034491 -6.127999999999986 Q20.627862068934459 -1.531999999999982 21.294137931034467 35.235999999999990 Q21.017767898534483 50.487300448399992 18.071159588434451 60.203165336100028 z" />
<glyph unicode="*" horiz-adv-x="21.199999999999999" d="M7.660000000000000 75.067999999999998 C7.660000000000025 70.855000000000018 7.660000000000025 62.428999999999974 7.660000000000025 58.216000000000008 C8.425999999999988 58.216000000000008 9.958000000000027 58.216000000000008 10.723999999999990 58.216000000000008 C10.723999999999990 62.428999999999974 10.723999999999990 70.855000000000018 10.723999999999990 75.067999999999984 C9.958000000000027 75.067999999999984 8.425999999999988 75.067999999999984 7.660000000000025 75.067999999999984 zM17.617999999999999 68.489187422599997 C13.404999999999973 68.489187422600025 4.978999999999985 68.489187422600025 0.766000000000020 68.489187422600025 C0.766000000000020 67.723187422600006 0.766000000000020 66.191187422600024 0.766000000000020 65.425187422600004 C4.978999999999985 65.425187422600004 13.404999999999973 65.425187422600004 17.618000000000052 65.425187422600004 C17.618000000000052 66.191187422600024 17.618000000000052 67.723187422600006 17.618000000000052 68.489187422600025 zM5.188464914500000 59.339123483700000 C7.942165428250007 62.527618815425001 13.449566455750016 68.904609478874988 16.203266969500021 72.093104810599982 C15.623540545549986 72.593777631299986 14.464087697649973 73.595123272699993 13.884361273699994 74.095796093399997 C11.130660759949990 70.907300761649992 5.623259732449981 64.530310098149982 2.869559218699976 61.341814766399978 C3.449285642650011 60.841141945724985 4.608738490550024 59.839796304375000 5.188464914500003 59.339123483700007 zM2.254114194000000 71.394829679500006 C5.331901421974976 68.517922524325002 11.487475877925021 62.764108213975021 14.565263105899987 59.887201058799974 C15.088337134100016 60.446798736624999 16.134485190500016 61.565994092274991 16.657559218699987 62.125591770100016 C13.579771990749975 65.002498925249995 7.424197534850009 70.756313235550010 4.346410306899998 73.633220390699989 C3.823336278675015 73.073622712900033 2.777188222224993 71.954427357300005 2.254114194000010 71.394829679499992 z" />
<glyph unicode="+" horiz-adv-x="49.5" d="M20.993054943000001 19.468565151600000 C20.993054942999947 19.468565151599989 20.993054942999947 19.468565151599989 20.993054942999947 19.468565151599989 C20.993054942999947 19.468565151599989 20.993054942999947 19.468565151599989 20.993054942999947 19.468565151599989 C20.993054942999947 19.468565151599989 20.993054942999947 19.468565151599989 20.993054942999947 19.468565151599989 C20.994689295175021 22.639889706199995 20.997957999524942 28.982538815400005 20.999592351700016 32.153863370000010 Q17.956996778200050 32.177973896999958 14.920573910899975 32.214069101950713 Q11.884151043600014 32.250164306901411 8.829210057699981 32.250305477999973 Q8.829210057699981 33.853408926200018 8.829210057699981 35.456512374499994 Q8.829210057699981 37.059615822799969 8.829210057699981 38.662719271100002 Q8.829210057699981 38.662719271100002 8.829210057699981 38.662719271100002 Q8.829210057699981 38.662719271100002 8.829210057699981 38.662719271100002 Q8.829210057699981 38.662719271100002 8.829210057699981 38.662719271100002 Q8.829210057699981 38.662719271100002 8.829210057699981 38.662719271100002 Q8.829210057699981 38.662719271100002 8.829210057699981 38.662719271100002 Q8.829210057699981 38.662719271100002 8.829210057699981 38.662719271100002 Q11.826291694299982 38.685205065399998 14.792200755900012 38.673962168250000 Q17.758109817499985 38.662719271100002 20.817536604100042 38.752662448299986 Q20.788972331499963 41.931618103199980 20.760408058899998 45.228991546499969 Q20.731843786300033 48.526364989800015 20.703279513699954 51.468485068000007 Q22.306652224699974 51.484051793300011 24.232982540400030 51.499618518649982 Q26.159312856099973 51.515185244000008 27.977990636900017 51.530751969400001 C28.029516220166670 47.235710154366643 28.093923199249957 41.866907885575017 28.132567386699975 38.645626524299985 C30.984102089774979 38.649899710999875 36.687171495924986 38.658446084399941 39.538706198999989 38.662719271100002 C39.538706198999989 37.059270995250017 39.538706198999989 33.852374443549991 39.538706198999989 32.248926167700006 C36.684144125575017 32.249058079050656 30.975019978724958 32.249321901749340 28.120457905299986 32.249453813099990 C28.164310091125003 29.060827932099983 28.252014462775037 22.683576170100025 28.295866648600054 19.494950289100018 C26.470163722200027 19.488354004725011 22.818757869399974 19.475161435974996 20.993054942999947 19.468565151599989 z" />
<glyph unicode="," horiz-adv-x="15.4" d="M9.339501585100001 4.608161154300000 C7.387626188824981 0.775120865725000 3.483875396274982 -6.890959711425012 1.531999999999982 -10.723999999999990 C0.382999999999981 -10.723999999999990 -1.915000000000020 -10.723999999999990 -3.064000000000021 -10.723999999999990 C-1.823649841500014 -6.890959711425012 0.657050475500000 0.775120865725000 1.897400634000007 4.608161154299978 C3.757925871775001 4.608161154299978 7.478976347324988 4.608161154299978 9.339501585099981 4.608161154299978 z" />
<glyph unicode="-" horiz-adv-x="39.246551724137944" d="M33.848275862100003 24.027586206900001 C33.848275862099946 24.027586206900025 33.848275862099946 24.027586206900025 33.848275862099946 24.027586206900025 C33.848275862099946 24.027586206900025 33.848275862099946 24.027586206900025 33.848275862099946 24.027586206900025 C33.848275862099946 24.027586206900025 33.848275862099946 24.027586206900025 33.848275862099946 24.027586206900025 C26.386206896574983 24.027586206900025 11.462068965524997 24.027586206900025 3.999999999999977 24.027586206900025 C3.999999999999977 25.631034482750010 3.999999999999977 28.837931034449980 3.999999999999977 30.441379310300022 C11.462068965524997 30.441034482713803 26.386206896574983 30.440344827586159 33.848275862099946 30.439999999999998 C33.848275862099946 28.836896551724976 33.848275862099946 25.630689655174990 33.848275862099946 24.027586206900025 z" />
<glyph unicode="." horiz-adv-x="12.336" d="M9.391748602400000 2.219347542800000 Q9.047700907199975 1.405055879600013 8.422794600400003 0.769205399600025 Q7.815805817899978 0.148668860899988 6.972652457199978 -0.199748602400007 Q6.161473415699980 -0.526359041200010 5.262093168599982 -0.540000000000020 Q4.387719159400000 -0.548148967799989 3.551533879999987 -0.199748602400007 Q2.740473311899983 0.127275060499983 2.101391736800018 0.769205399600025 Q1.477470269499996 1.381721656699995 1.132437734799986 2.219347542799994 Q0.789976704899992 3.024170824099997 0.792186337199972 3.929906831399990 Q0.784388142799990 4.803945320200000 1.132437734799986 5.640466119999985 Q1.459121253099987 6.452302535900003 2.101391736800018 7.090608263200011 Q2.713949305899995 7.713104196299980 3.551533879999987 8.059562265199986 Q4.357193004700001 8.404216531799989 5.262093168599982 8.399813662800000 Q6.133785547799981 8.404932217500004 6.972652457199978 8.059562265199986 Q7.789146314900016 7.735212162799996 8.422794600400003 7.090608263200011 Q9.039664480100008 6.476274542199974 9.391748602399979 5.640466119999985 Q9.742297185400012 4.834452518899980 9.731999999999992 3.929906831399990 Q9.736211088799983 3.034620933300005 9.391748602399979 2.219347542799994 z" />
<glyph unicode="/" horiz-adv-x="39.768965517241362" d="M10.103448275827578 0.000000000000000 C7.622413793077574 0.000000000000000 2.660344827577565 0.000000000000000 0.179310344827589 0.000000000000000 C7.029310344827555 17.550000000000011 20.729310344827599 52.649999999999977 27.579310344827622 70.199999999999989 C29.885344827577587 70.217672413799960 34.497413793077520 70.253017241400016 36.803448275827598 70.270689655199988 C30.128448275827527 52.703017241400005 16.778448275827618 17.567672413799983 10.103448275827549 0.000000000000000 z" />
<glyph unicode="0" horiz-adv-x="57.999999999999993" d="M28.272098117372469 -0.690419120900000 C45.734661642972419 -0.524654775600027 52.819277108472484 15.372298443399984 52.819277108472484 35.031700035699998 C52.819277108472484 54.691112151799985 46.819277108472484 71.031700035699998 27.819277108472487 71.031700035699998 C8.999999999972498 70.999999999999488 2.999999999972441 54.659412116099986 2.999999999972441 35.000000000000000 C2.999999999972441 15.340598407699986 10.084615465472449 -0.556354811300253 28.272098117372433 -0.690419120900003 zM13.182191658872467 34.488706815800001 C13.182191658872465 49.816815355400024 16.151759273872482 62.845762359800005 27.890350850772460 62.845762359800005 C39.441732758872440 62.878600220799797 43.445783132572451 49.849653216399986 43.445783132572451 34.521544676799977 C43.445783132572451 20.249791717400001 37.139539538872505 7.071072288399989 27.991227059872426 7.071072288399989 C19.229814562872445 7.038234427400198 13.182191658872465 20.216953856399982 13.182191658872465 34.488706815800015 z" />
<glyph unicode="1" horiz-adv-x="29.4436552407" d="M10.290543207500001 61.344367310400003 C9.550373873999977 61.341000597099992 8.070035207000021 61.334267170499970 7.329865873499987 61.330900457200016 C6.497399405124984 61.373017306000008 4.832466468374978 61.457251003599993 3.999999999999975 61.499367852399985 C4.005166606500016 63.505424680899978 4.015499819499983 67.517538337899964 4.020666426000023 69.523595166400014 C7.869220958574974 69.646319322724992 15.566330023724991 69.891767635375004 19.414884556299999 70.014491791699982 C19.377955095724960 67.629637019924985 19.304096174574997 62.859927476374992 19.267166713999959 60.475072704599995 C19.292166714000050 47.306304528450028 19.342166714000005 20.968768176149979 19.367166713999982 7.800000000000011 C19.392166713999959 7.800000000000011 19.442166714000027 7.800000000000011 19.467166714000005 7.800000000000011 C19.467166714000005 5.850000000000023 19.467166714000005 1.949999999999989 19.467166714000005 0.000000000000000 C17.216890505425031 0.000000000000000 12.716338088274970 0.000000000000000 10.466061879699996 0.000000000000000 C10.441061879700019 1.949999999999989 10.391061879699951 5.850000000000023 10.366061879699974 7.800000000000011 C10.341061879699996 7.800000000000011 10.291061879700042 7.800000000000011 10.266061879699951 7.800000000000011 C10.271586375924958 19.741848990974972 10.282635368374972 43.625546972925008 10.288159864599979 55.567395963900026 C10.288755700324973 57.011638800525020 10.289947371774961 59.900124473775008 10.290543207499955 61.344367310400003 z" />
<glyph unicode="2" horiz-adv-x="52.436109114564921" d="M19.880719324589158 8.358343603400000 C26.743695873989143 8.312590426399936 40.469648972789145 8.221084072400060 47.332625522189204 8.175330895400009 C47.286872345189153 6.116437930574989 47.195365991189163 1.998652000925006 47.149612814189112 -0.060240963900014 C36.362209610639155 -0.033299085324813 14.787403203539132 0.020584671824793 3.999999999989174 0.047526550399994 Q11.443903162389152 10.898816825500035 32.780597352189119 43.098152083099990 Q34.165558267789123 44.876598810900020 35.211832724689174 46.736752951900030 Q36.076135240389107 48.782383086399989 36.065569054589190 51.028775318999976 Q36.091406071889168 53.298401603699972 35.211832724689174 55.320797686099979 Q34.328406503889113 57.417952965499978 32.780597352189119 58.959398555000007 Q31.190688933189197 60.576796077300003 29.141996483289152 61.390633927500005 Q27.037167049989169 62.257213396700024 24.849974116189149 62.244370257400021 Q22.579458402889120 62.255417645500017 20.557951749189190 61.390633927500005 Q18.456339866989172 60.521324228200001 16.919350880289105 58.959398555000007 Q15.307808210989183 57.357803990700006 14.488115507689177 55.320797686099979 Q10.464881963389164 55.184699899199984 6.441648418989163 55.048602112200001 Q6.408130677789162 56.795429622100016 7.100131637089166 58.983974822800008 Q8.504263551489178 62.473362432099975 11.264832828489180 65.216890625699989 Q13.897691800789151 67.892466090799985 17.497748631389161 69.381591817100002 Q20.960585370389115 70.862964546900002 24.849974116189149 70.844040393900002 Q28.596631112089174 70.866040665100002 32.202199601089177 69.381591817100002 Q35.711605553089129 67.987489254000025 38.435115403989101 65.216890625699989 Q41.086509296589128 62.576397502100008 42.599816595389115 58.983974822800008 Q44.106523929589201 55.519614494400003 44.062265172089127 51.631749338000020 Q43.523921942789201 44.091042114400011 39.122575143689204 36.776002825799992 C32.708623203989163 27.303449751666676 24.691183279364143 15.462758409000003 19.880719324589197 8.358343603399987 z" />
<glyph unicode="3" horiz-adv-x="45.91938204643921" d="M28.817741685205473 42.473543364199998 Q30.408167363905424 44.091822648800019 31.283790290405424 46.164245917800031 Q32.160468886505505 48.239167744200017 32.149751401905469 50.517726412199977 Q32.175958383505481 52.819851824199986 31.283790290405424 54.871206906700024 Q30.387714153805465 56.998391674699974 28.817741685205480 58.561909460300001 Q27.205067123405517 60.202466746100015 25.127039131605503 61.027958065500002 Q22.992070322405485 61.906946219299982 20.773558637105513 61.893919176999987 Q18.470531060605428 61.905124754300004 16.420078142605522 61.027958065500002 Q14.288372957105427 60.146200587199985 12.729375589005432 58.561909460300001 Q11.094756992805461 56.937381417499978 10.263326983805488 54.871206906700024 Q6.182484140505498 54.733160314700001 2.101641297105464 54.595113722599990 Q2.067643610205498 56.366954323900018 2.769553437505469 58.586837639500004 Q4.193791332405458 62.126190325799996 6.993889624905482 64.909003520999988 Q9.664448909105491 67.622890962099973 13.316055506405466 69.133339708400001 Q16.828477136505459 70.635924441799943 20.773558637105513 70.616729310899984 Q24.573864589805513 70.639044607499955 28.231061767805446 69.133339708400001 Q31.790719442705441 67.719274776500015 34.553227649305491 64.909003520999988 Q37.242587258305498 62.230700770800013 38.777563836705504 58.586837639500004 Q40.305845944705489 55.072870603400020 40.260953439205487 51.129334508800014 Q40.279312468205440 47.226168198100027 38.777563836705504 43.671831378100023 Q37.277623565005520 40.121774581900013 34.553227649305491 37.349665496599982 C34.209332635138772 36.945771795933354 33.779463867430486 36.440904670099997 33.521542606805447 36.137984394599982 C34.043835433205523 35.835257313249997 35.088421086005447 35.229803150549969 35.610713912405522 34.927076069199984 Q38.489537729805484 32.060088061399995 40.132652737005465 28.159516365999991 Q41.768601651105492 24.397991888899980 41.720546488205464 20.176635400900011 Q41.740198902905441 15.998492730500004 40.132652737005465 12.193754435900019 Q38.527042328905459 8.393597690700005 35.610713912405522 5.426194732599981 Q32.778003447605506 2.530259259200022 28.843154209305514 0.904255908100026 Q25.057523525005482 -0.619977874900030 20.860273244105489 -0.683637843200017 Q16.779722700705467 -0.721667650399979 12.877392278905464 0.904255908100026 Q9.092314489505501 2.430418134899980 6.109832575805460 5.426194732599981 Q3.198100232805477 8.284700954299979 1.587893751405493 12.193754435900019 Q0.115641895605454 15.823770035599978 0.000000000005461 21.310220168800015 C2.927200931038787 21.328282493466645 6.586202094830473 21.350860399300018 8.781602793105495 21.364407142800019 Q8.860157846305473 18.062214826499996 9.694436078105472 15.893607277999990 Q10.620096293505473 13.646407723399989 12.293965340105448 12.003136804199983 Q14.008506228305524 10.280953194400013 16.184435814005443 9.403607542100019 Q18.427770479705433 8.468912042599982 20.773558637105513 8.490774257199973 Q23.186434031705463 8.527370495299976 25.362681460205469 9.403607542100019 Q27.624710234605519 10.338348912000015 29.253151934105464 12.003136804199983 Q30.929663127805444 13.709009245499999 31.852681196105497 15.893607277999990 Q32.776812074605523 18.080839108299983 32.765514481105420 20.482730101100003 Q32.793139976905486 22.909463443200025 31.852681196105497 25.071852924300003 Q30.908102839905442 27.314176550199988 29.253151934105464 28.962323398100011 Q27.553187584305480 30.691679689599994 25.362681460205469 31.561852660199975 Q22.747719642805524 32.488418106500035 19.971806431405472 32.474685945100020 C19.996101952772111 35.112566431900007 20.026471354480524 38.409917040399989 20.044692995505503 40.388327405499979 Q27.038286665405455 40.442634564300135 28.817741685205480 42.473543364199998 z" />
<glyph unicode="4" horiz-adv-x="47.700000000000003" d="M31.899999999999999 24.300000000000001 C31.899999999999977 30.644396551724981 31.899999999999977 43.333189655175033 31.899999999999977 49.677586206900003 C27.424999999999955 43.333189655175033 18.475000000000023 30.644396551724981 14.000000000000000 24.300000000000011 C18.475000000000023 24.300000000000011 27.424999999999955 24.300000000000011 31.899999999999977 24.300000000000011 zM41.399999999999999 70.777586206899997 C41.399999999999977 59.183189655174999 41.399999999999977 35.994396551725004 41.399999999999977 24.399999999999977 C42.549999999999955 24.399999999999977 44.850000000000023 24.399999999999977 46.000000000000000 24.399999999999977 C45.975000000000023 22.274999999999977 45.924999999999955 18.024999999999977 45.899999999999977 15.899999999999977 C44.850000000000023 15.899999999999977 42.750000000000000 15.899999999999977 41.700000000000045 15.899999999999977 C41.700000000000045 11.925000000000011 41.700000000000045 3.975000000000023 41.700000000000045 0.000000000000000 C39.200000000000045 0.000000000000000 34.200000000000045 0.000000000000000 31.700000000000045 0.000000000000000 C31.700000000000045 4.050000000000011 31.700000000000045 12.149999999999977 31.700000000000045 16.199999999999989 C26.875000000000000 16.199999999999989 17.225000000000023 16.199999999999989 12.399999999999977 16.199999999999989 C9.725000000000023 16.199999999999989 4.375000000000000 16.199999999999989 1.699999999999989 16.199999999999989 C1.699999999999989 17.274999999999977 1.699999999999989 19.425000000000011 1.699999999999989 20.500000000000000 C10.574999999999989 33.069396551724992 28.325000000000045 58.208189655174976 37.200000000000045 70.777586206899969 C38.250000000000000 70.777586206899969 40.350000000000023 70.777586206899969 41.399999999999977 70.777586206899969 z" />
<glyph unicode="5" horiz-adv-x="53.749874624890047" d="M6.469273257514283 32.979956839600000 Q10.296156118814299 51.551594254900010 14.123038980114263 70.123231670099983 Q31.014468901614254 70.235787048400084 44.633669672814236 70.348342426599970 Q44.633669672814236 66.183793430500032 44.306446757814243 62.673690264400022 C36.912602524347577 62.673690264400022 27.670297232514276 62.673690264400022 22.124914057414248 62.673690264400022 C21.192394143439305 58.659961091699984 19.327354315489305 50.632502746300020 18.394834401514249 46.618773573599981 Q22.130210067814250 47.948453131600104 26.504130590314293 47.928411214499988 Q31.175267548014308 47.955840007900008 35.670502698114333 46.105106438300027 Q40.045847401614324 44.367011914800003 43.441377745914238 40.912773733400002 Q46.746997666714279 37.620744324099974 48.633710450814320 33.141898685599983 Q50.512194742714328 28.822714521199998 50.457015227114326 23.975526577700009 Q50.479581183714245 19.177959057400017 48.633710450814320 14.809154469799978 Q46.790062459114225 10.445610663299988 43.441377745914238 7.038279422000016 Q40.188707650014308 3.713010979999979 35.670502698114333 1.845946717099991 Q31.323638493914263 0.095739730999981 26.504130590314293 0.022641940899973 Q21.818623584814322 -0.021025923600007 17.337758482414319 1.845946717099991 Q12.991529141514281 3.598368045899974 9.566883434614301 7.038279422000016 Q6.223476179514267 10.320569589499996 4.374550729714275 14.809154469799978 C4.249700486480964 15.612340628000027 4.093637682439311 16.616323325749988 4.000000000014285 17.218712944400011 C5.813365090564292 17.451593426800002 9.440095271664308 17.917354391599986 11.253460362214259 18.150234873999977 Q12.570269791714299 15.321518759400021 14.776501717614298 13.055244883000000 Q17.036340892914286 10.785332269499975 19.904310361714256 9.628952687700007 Q22.861122646514236 8.396983522500022 25.952973072214281 8.425798868500010 Q29.133247383214343 8.474034296000013 32.001635782714303 9.628952687700007 Q34.983087712614306 10.860982312100020 37.129444426814317 13.055244883000000 Q39.339158817114267 15.303658669800029 40.555736622114310 18.183053527100014 Q41.773781159114279 21.065919844000007 41.758890441314307 24.231716237599983 Q41.795302041714322 27.430255923699974 40.555736622114310 30.280378948100008 Q39.310741423514301 33.235858638500019 37.129444426814317 35.408187592200022 Q34.888817760714247 37.687554110900010 32.001635782714303 38.834479787500015 Q29.035341058114245 40.055733190399962 25.952973072214281 40.037633606700012 Q22.753179931814334 40.053202473399949 19.904310361714256 38.834479787500015 Q16.942550068614327 37.609378725099987 14.776501717614298 35.408187592200022 Q12.724538448514313 33.479820051899992 11.569361642714302 30.609107128699975 C9.898567786247629 31.382960656033333 7.810075465664300 32.350277565200031 6.556980073314281 32.930667710699993 C6.535053369364294 32.942989992924993 6.491199961464264 32.967634557374993 6.469273257514277 32.979956839599993 z" />
<glyph unicode="6" horiz-adv-x="53.636685663295765" d="M43.095196317429497 22.530120481899999 Q43.129100672329457 25.508413764000011 41.974889774829478 28.162281806800024 Q40.815622984229492 30.914251821700020 38.784526662529458 32.936997625699973 Q36.698186018929448 35.059410556700016 34.009810843629509 36.127360737999993 Q31.247770500829514 37.264520555499985 28.377649518729466 37.247667280600012 Q25.398189093229515 37.262164099699987 22.745488193829541 36.127360737999993 Q19.987670048729509 34.986618204799981 17.970772374929478 32.936997625699973 Q15.856042413329472 30.835321960600027 14.780409262629515 28.162281806800024 Q13.634426504529525 25.407966228699991 13.660102720029496 22.530120481899985 Q13.652827318429498 19.547907971100017 14.780409262629515 16.897959157000003 Q15.916458103829481 14.140004988300007 17.970772374929478 12.123243338199984 Q20.075002584529496 10.009633331299995 22.745488193829541 8.932880225900021 Q25.498699042629536 7.785742516600010 28.377649518729466 7.812573683300002 Q31.338935150629535 7.857487695200007 34.009810843629509 8.932880225900021 Q36.785964690429466 10.080074231100014 38.784526662529458 12.123243338199984 Q40.842083601029515 14.216834893499993 41.974889774829478 16.897959157000003 Q43.109061683829452 19.582315840799993 43.095196317429497 22.530120481899985 zM34.758353669029503 9.058819981899999 Q34.738681676629483 9.012260334600001 34.702950723529455 8.975903614499998 Q34.668244260329459 8.940422516299975 34.620034356129452 8.920500668999978 Q34.573652682529485 8.901825705799979 34.522227831929456 8.901045741699988 Q34.472232790429473 8.900579799299976 34.424421307829505 8.920500668999978 Q34.378046408429498 8.939199259600002 34.341504940429502 8.975903614499998 Q34.305830298529543 9.010926128099982 34.286101994929538 9.058819981900001 Q34.266520725129510 9.104838245199971 34.266647067729480 9.156626506000009 Q34.266201181729514 9.206602363099989 34.286101994929538 9.254433030100017 Q34.304781136729446 9.300852291100000 34.341504940429502 9.337349397600008 Q34.376529816229493 9.372942530099976 34.424421307829505 9.392752342999984 Q34.470487363029463 9.412459017999993 34.522227831929456 9.412207270299973 Q34.572069542929455 9.412499939499980 34.620034356129452 9.392752342999984 Q34.666719920729463 9.374206621600024 34.702950723529455 9.337349397600008 Q34.738222169029484 9.302222964800023 34.758353669029532 9.254433030100017 Q34.778397369729475 9.208346706700013 34.777808596229477 9.156626506000009 Q34.778049378329513 9.105435762500008 34.758353669029532 9.058819981900001 zM24.419855986429500 44.156491638500000 Q37.917589424729556 47.083916150800007 44.997425165729453 39.872787695200032 Q48.311627486929467 36.572211170599985 50.203238754629467 32.081737078800018 Q52.086600166229516 27.751338991199987 52.031277387729517 22.891566265099982 Q52.053901932629458 18.081542791800018 50.203238754629467 13.701395451300016 Q48.354804088729509 9.326522550400000 44.997425165729453 5.910344834900002 Q41.736310143329490 2.576442978800003 37.206374549329496 0.704531246099975 Q32.848224555929448 -1.050219812800037 28.016203735629514 -1.123507387100005 Q23.318531720729478 -1.167288626799973 18.826032921829491 0.704531246099975 Q14.468519440129509 2.461502396599997 11.034982305429477 5.910344834900002 Q7.682894542429491 9.201156831700018 5.829168716529519 13.701395451300016 Q4.008402816629481 18.025389366800027 4.001130083429526 22.891566265099982 Q3.973811082229528 25.949676646900002 4.600798077229509 28.240469243500002 Q5.847386020829500 32.795068389700020 32.102280865129558 69.915793160600003 Q37.496802488929518 69.810018226800025 42.891324112729478 69.704243292999990 C36.734168070629551 61.188326074833356 29.037723018004552 50.543429552125019 24.419855986429464 44.156491638500029 z" />
<glyph unicode="7" horiz-adv-x="49.114107883800003" d="M4.124481327800000 70.039419087100001 C14.002434634800021 70.014419087100180 33.758341248799994 69.964419087099827 43.636294555799978 69.939419087100021 C44.694385842100033 69.924481327774970 46.810568414700029 69.894605809124982 47.868659700999970 69.879668049799989 C46.773327750800050 67.190560165975000 44.582663850399982 61.812344398325024 43.487331900199948 59.123236514499979 C37.312905564150029 44.362655601649976 24.964052892049960 14.841493775949971 18.789626556000041 0.080912863100025 C16.399273858899971 0.049792531149990 11.618568464700001 -0.012448132749967 9.228215767599988 -0.043568464700002 C15.721003099499978 15.587863070549986 28.706577763299958 46.850726141050018 35.199365095199951 62.482157676300005 C27.399523821399963 62.513278008250040 11.799841273799995 62.575518672149997 4.000000000000012 62.606639004099975 C4.031120331949990 64.464834024850006 4.093360995850003 68.181224066350012 4.124481327799981 70.039419087099986 z" />
<glyph unicode="8" horiz-adv-x="52.163755956681044" d="M41.225912686281042 36.119172578600001 Q44.235244578381085 33.122213058599982 45.952848261981003 29.044813556199983 Q47.662960986281078 25.112764813500007 47.612727299381064 20.700038119099986 Q47.633270633081011 16.332484289600018 45.952848261981003 12.355262681900001 Q44.274449404280986 8.382830323099995 41.225912686281063 5.280903659599971 Q38.264784641081079 2.253684374800002 34.151553663881046 0.553968083799987 Q30.194305887681043 -1.039365035900005 25.806778226781052 -1.105910953600016 Q21.541240748081027 -1.145664797200027 17.462002789781042 0.553968083799987 Q13.505332972981041 2.149317071200016 10.387643767381025 5.280903659599971 Q7.343911480381070 8.268996881699991 5.660708191681028 12.355262681900001 Q3.990049705681048 16.281504580499984 4.000829154081050 20.700038119099986 Q3.962786520081028 24.963938798400022 5.660708191681028 29.044813556199983 Q7.254397821081074 33.005268260899982 10.387643767381025 36.119172578600001 Q11.753734964181053 37.336870711000017 12.830927836381040 38.164467977400022 Q12.454686933481032 38.500927304500010 11.786748868681020 39.105006032099993 Q9.196969615581072 41.647444427899984 7.764805238081028 45.124270046700019 Q6.343314687081051 48.464938296299977 6.352486450281067 52.224476063899999 Q6.320117629681040 55.852443465600004 7.764805238081028 59.324682081200024 Q9.120806341081067 62.694460517600021 11.786748868681020 65.343946095799993 Q14.329358743081020 67.927808227800028 17.806012883281046 69.365889726299997 Q21.150150559881030 70.796483985300029 24.906218900381095 70.778208513999971 Q28.524448047681080 70.799454660400045 32.006424917681002 69.365889726299997 Q35.395535508581034 68.019574188399986 38.025688932281028 65.343946095799993 Q40.586198387480991 62.793963753199989 42.047632562781033 59.324682081200024 Q43.502693007181065 55.979073040699973 43.459951350581051 52.224476063899999 Q43.620085591380999 48.444431593700017 42.047632562781033 45.124270046700019 Q40.398268382581037 41.641714174799972 37.664526563381074 39.072173089499984 Q39.611634950981070 37.730798505899998 41.225912686281063 36.119172578600001 zM24.960420843481046 62.780159423400001 C19.886037024981096 62.780159423399994 15.091598991381051 58.600947985900007 15.091598991381051 51.974879992100000 C15.091598991381051 45.348811998299993 20.693433219880962 41.467384425687158 24.960420843481092 41.423963582999988 C30.831007994981082 41.364224520299956 35.049383995181088 45.332874302300013 35.207677072081097 51.768289183299999 C35.370590835681028 58.391406054000015 30.443536787581042 62.780159423399994 24.960420843481092 62.780159423399994 zM25.822936699981046 33.883771537100003 C20.147641702881078 33.883771537100017 12.796456821881026 28.567995003100009 12.796456821881026 21.157264581200025 C12.796456821881026 13.746534159500015 21.050650176280573 7.216499518852402 25.822936699981046 7.167936757300026 C32.388721844081047 7.101123363599982 38.793793224581023 13.728709113100024 38.970831450180995 20.926209181200022 C39.153037546780993 28.333639006300018 31.955366094181063 33.883771537100017 25.822936699981046 33.883771537100017 z" />
<glyph unicode="9" horiz-adv-x="58.111729153582104" d="M12.936351029558013 47.165779749400002 Q12.902446674657986 44.187486467300005 14.056657572158022 41.533618424499991 Q15.215924362758008 38.781648409599995 17.247020684458043 36.758902605599985 Q19.333361328057997 34.636489674600000 22.021736503357992 33.568539493300023 Q24.783776846157984 32.431379675800031 27.653897828258032 32.448232950700003 Q30.633358253757983 32.433736131599971 33.286059153157957 33.568539493300023 Q36.043877298257989 34.709282026499977 38.060774972058020 36.758902605599985 Q40.175504933658026 38.860578270699989 41.251138084358040 41.533618424499991 Q42.397120842458030 44.287934002599968 42.371444626958059 47.165779749400031 Q42.378720028558000 50.147992260199999 41.251138084358040 52.797941074300013 Q40.115089243158017 55.555895243000009 38.060774972058020 57.572656893099975 Q35.956544762458002 59.686266900000021 33.286059153157957 60.763020005399994 Q30.532848304357962 61.910157714700006 27.653897828258032 61.883326548000014 Q24.692612196357963 61.838412536100009 22.021736503357992 60.763020005399994 Q19.245582656558035 59.615826000200002 17.247020684458043 57.572656893099975 Q15.189463745957985 55.479065337900010 14.056657572158022 52.797941074300013 Q12.922485663157991 50.113584390500023 12.936351029558002 47.165779749400031 zM21.273193677958012 60.637080249400000 Q21.292865670358019 60.683639896700015 21.328596623457990 60.719996616800017 Q21.363303086658043 60.755477714999984 21.411512990857993 60.775399562299981 Q21.457894664458017 60.794074525499980 21.509319515057989 60.794854489599970 Q21.559314556558029 60.795320431999983 21.607126039157997 60.775399562299981 Q21.653500938558004 60.756700971700013 21.690042406558000 60.719996616800017 Q21.725717048458016 60.684974103199977 21.745445352058020 60.637080249400015 Q21.765026621857992 60.591061986099987 21.764900279258022 60.539273725300006 Q21.765346165257988 60.489297868199969 21.745445352058020 60.441467201199998 Q21.726766210257999 60.395047940200016 21.690042406558000 60.358550833700008 Q21.655017530758009 60.322957701199982 21.607126039157997 60.303147888300032 Q21.561059983958039 60.283441213300023 21.509319515057989 60.283692960999986 Q21.459477804057990 60.283400291799978 21.411512990857993 60.303147888300032 Q21.364827426258039 60.321693609699992 21.328596623457990 60.358550833700008 Q21.293325177958017 60.393677266499992 21.273193677958027 60.441467201199998 Q21.253149977258026 60.487553524600003 21.253738750758025 60.539273725300006 Q21.253497968657989 60.590464468800008 21.273193677958027 60.637080249400015 zM35.949040758158013 28.792420641000000 Q30.897217330457970 24.737424197800010 24.888849763158014 24.798729317899983 Q16.841388157358033 24.673450817299965 11.034122181257990 29.823112536099984 Q7.673189665558018 32.979243936800003 5.828308592358033 37.614163152499998 Q4.081936225458028 42.001597637500026 4.000269959258040 46.804333966199977 Q3.977645414358042 51.614357439499997 5.828308592358033 55.994504780000000 Q7.676743258257991 60.369377680900016 11.034122181257990 63.785555396400014 Q14.295237203658010 67.119457252500013 18.825172797658006 68.991368985199983 Q23.183322791058053 70.746120044100053 28.015343611357984 70.819407618400021 Q32.713015626258020 70.863188858099988 37.205514425158007 68.991368985199983 Q41.563027906858046 67.234397834700019 44.996565041557965 63.785555396400014 Q48.348652804558064 60.494743399599997 50.202378630457979 55.994504780000000 Q53.839312431357989 45.549993783700018 46.515679591257985 30.684857189599995 Q39.337110042257954 16.863935881399982 31.158182144557991 -0.039170037699989 Q25.763660520758030 0.066604896100046 20.369138896958013 -0.008343061699975 C25.562439517357966 9.591911505866676 32.054065292858063 21.592229715325004 35.949040758157984 28.792420640999978 z" />
<glyph unicode=":" horiz-adv-x="15.4" d="M12.399655433800000 42.109440711399998 Q12.055607738599974 41.295149048200017 11.430701431800003 40.659298568200029 Q10.823712649299978 40.038762029499992 9.980559288599977 39.690344566199997 Q9.169380247099980 39.363734127399994 8.269999999999982 39.350093168599983 Q7.395625990799999 39.341944200800015 6.559440711399986 39.690344566199997 Q5.748380143299983 40.017368229099986 5.109298568200018 40.659298568200029 Q4.485377100899996 41.271814825299998 4.140344566199985 42.109440711399998 Q3.797883536299992 42.914263992700000 3.800093168600029 43.819999999999993 Q3.792294974199990 44.694038488800004 4.140344566199985 45.530559288599989 Q4.467028084499987 46.342395704500007 5.109298568200018 46.980701431800014 Q5.721856137299994 47.603197364899984 6.559440711399986 47.949655433799990 Q7.365099836100001 48.294309700399992 8.269999999999982 48.289906831400003 Q9.141692379199981 48.295025386100008 9.980559288599977 47.949655433799990 Q10.797053146300016 47.625305331400000 11.430701431800003 46.980701431800014 Q12.047571311500008 46.366367710799977 12.399655433799978 45.530559288599989 Q12.750204016800012 44.724545687499983 12.739906831399992 43.819999999999993 Q12.744117920199983 42.924714101900008 12.399655433799978 42.109440711399998 zM12.455748602400000 2.219347542800000 Q12.111700907199975 1.405055879600013 11.486794600400003 0.769205399600025 Q10.879805817899978 0.148668860899988 10.036652457199978 -0.199748602400007 Q9.225473415699980 -0.526359041200010 8.326093168599982 -0.540000000000020 Q7.451719159400000 -0.548148967799989 6.615533879999987 -0.199748602400007 Q5.804473311899983 0.127275060499983 5.165391736800018 0.769205399600025 Q4.541470269499996 1.381721656699995 4.196437734799986 2.219347542799994 Q3.853976704899992 3.024170824099997 3.856186337199972 3.929906831399990 Q3.848388142799990 4.803945320200000 4.196437734799986 5.640466119999985 Q4.523121253099987 6.452302535900003 5.165391736800018 7.090608263200011 Q5.777949305899995 7.713104196299980 6.615533879999987 8.059562265199986 Q7.421193004700001 8.404216531799989 8.326093168599982 8.399813662800000 Q9.197785547799981 8.404932217500004 10.036652457199978 8.059562265199986 Q10.853146314900016 7.735212162799996 11.486794600400003 7.090608263200011 Q12.103664480100008 6.476274542199974 12.455748602399979 5.640466119999985 Q12.806297185400012 4.834452518899980 12.795999999999992 3.929906831399990 Q12.800211088799983 3.034620933300005 12.455748602399979 2.219347542799994 z" />
<glyph unicode=";" horiz-adv-x="15.4" d="M11.859501585100000 4.608161154300000 C9.907626188825020 0.775120865725000 6.003875396275021 -6.890959711425012 4.052000000000021 -10.723999999999990 C2.903000000000020 -10.723999999999990 0.605000000000018 -10.723999999999990 -0.543999999999983 -10.723999999999990 C0.696350158500024 -6.890959711425012 3.177050475499982 0.775120865725000 4.417400633999989 4.608161154299978 C6.277925871774983 4.608161154299978 9.998976347325026 4.608161154299978 11.859501585100020 4.608161154299978 zM11.499655433799999 42.109440711399998 Q11.155607738599997 41.295149048200017 10.530701431800026 40.659298568200029 Q9.923712649300001 40.038762029499992 9.080559288600000 39.690344566199997 Q8.269380247100003 39.363734127399994 7.370000000000005 39.350093168599983 Q6.495625990800022 39.341944200800015 5.659440711400009 39.690344566199997 Q4.848380143300005 40.017368229099986 4.209298568199983 40.659298568200029 Q3.585377100900018 41.271814825299998 3.240344566200008 42.109440711399998 Q2.897883536300014 42.914263992700000 2.900093168599994 43.819999999999993 Q2.892294974200013 44.694038488800004 3.240344566200008 45.530559288599989 Q3.567028084500009 46.342395704500007 4.209298568199983 46.980701431800014 Q4.821856137300017 47.603197364899984 5.659440711400009 47.949655433799990 Q6.465099836100023 48.294309700399992 7.370000000000005 48.289906831400003 Q8.241692379200003 48.295025386100008 9.080559288600000 47.949655433799990 Q9.897053146299982 47.625305331400000 10.530701431800026 46.980701431800014 Q11.147571311499973 46.366367710799977 11.499655433800001 45.530559288599989 Q11.850204016799978 44.724545687499983 11.839906831400015 43.819999999999993 Q11.844117920200006 42.924714101900008 11.499655433800001 42.109440711399998 z" />
<glyph unicode="&#x3c;" horiz-adv-x="38.299999999999955" d="M33.704000000000001 39.020000000000003 C29.108000000000033 35.437999999999988 19.916000000000025 28.274000000000001 15.320000000000022 24.692000000000007 C19.916000000000025 20.817000000000007 29.108000000000033 13.067000000000007 33.704000000000036 9.192000000000007 C33.704000000000036 6.894000000000005 33.704000000000036 2.298000000000002 33.704000000000036 0.000000000000000 C32.555000000000035 0.000000000000000 30.257000000000033 0.000000000000000 29.108000000000033 0.000000000000000 C22.214000000000027 5.745000000000005 8.426000000000016 17.235000000000014 1.532000000000011 22.980000000000018 C1.532000000000011 23.745999999999981 1.532000000000011 25.278000000000020 1.532000000000011 26.043999999999983 C8.809000000000054 31.788999999999987 23.363000000000028 43.278999999999996 30.639999999999958 49.024000000000001 C31.406000000000034 49.024000000000001 32.937999999999960 49.024000000000001 33.704000000000036 49.024000000000001 C33.704000000000036 46.523000000000025 33.704000000000036 41.521000000000015 33.704000000000036 39.019999999999982 z" />
<glyph unicode="=" horiz-adv-x="66.5" d="M58.216000000000001 46.944000000000003 C58.216000000000008 45.096000000000004 58.216000000000008 41.399999999999977 58.216000000000008 39.552000000000021 C45.576999999999998 39.552000000000021 20.298999999999978 39.552000000000021 7.660000000000025 39.552000000000021 C7.660000000000025 41.399999999999977 7.660000000000025 45.096000000000004 7.660000000000025 46.944000000000017 C20.298999999999978 46.944000000000017 45.576999999999998 46.944000000000017 58.216000000000008 46.944000000000017 zM7.660000000000000 27.027999999999999 C20.298999999999978 27.028000000000020 45.576999999999998 27.028000000000020 58.216000000000008 27.028000000000020 C58.216000000000008 25.113000000000000 58.216000000000008 21.283000000000015 58.216000000000008 19.367999999999995 C45.576999999999998 19.367999999999995 20.298999999999978 19.367999999999995 7.660000000000025 19.367999999999995 C7.660000000000025 21.283000000000015 7.660000000000025 25.113000000000000 7.660000000000025 27.028000000000020 z" />
<glyph unicode="&#x3e;" horiz-adv-x="38.299999999999955" d="M1.532000000000000 49.024000000000001 C2.297999999999973 49.024000000000001 3.830000000000013 49.024000000000001 4.595999999999975 49.024000000000001 C11.873000000000019 43.278999999999996 26.426999999999992 31.788999999999987 33.704000000000036 26.043999999999983 C33.704000000000036 25.278000000000020 33.704000000000036 23.745999999999981 33.704000000000036 22.980000000000018 C26.810000000000031 17.235000000000014 13.022000000000020 5.745000000000005 6.128000000000014 0.000000000000000 C4.979000000000013 0.000000000000000 2.681000000000012 0.000000000000000 1.532000000000011 0.000000000000000 C1.532000000000011 2.298000000000002 1.532000000000011 6.894000000000005 1.532000000000011 9.192000000000007 C6.128000000000014 13.067000000000007 15.320000000000022 20.817000000000007 19.916000000000025 24.692000000000007 C15.320000000000022 28.274000000000001 6.128000000000014 35.437999999999988 1.532000000000011 39.019999999999982 C1.532000000000011 41.521000000000015 1.532000000000011 46.523000000000025 1.532000000000011 49.024000000000001 z" />
<glyph unicode="?" horiz-adv-x="45.5" d="M16.836531538999999 37.265949284100003 Q18.742697873700035 39.204496583500031 23.662355825000031 44.020402795700022 Q25.266430471100033 45.652570086100013 26.149567957300018 47.742778805800015 Q27.033770172799972 49.835507525500020 27.022960711200039 52.133620689700024 Q27.049392599999987 54.455502846599984 26.149567957300018 56.524462573499989 Q25.245801732400036 58.669902753100018 23.662355825000031 60.246838583599981 Q22.035841356900004 61.901475064199985 19.939979814900038 62.734050715900025 Q17.786688791699998 63.620582309599968 15.549137930999972 63.607443469799989 Q13.226345867200006 63.618745212900023 11.158296047199951 62.734050715900025 Q9.008296656000038 61.844726031400000 7.435920037100015 60.246838583599981 Q5.787273211699993 58.608368908399996 4.948707904799971 56.524462573499989 C3.870112478866655 57.607524890899981 2.521868196449997 58.961352787650014 1.712921627000025 59.773649525700023 Q3.024019807500007 63.031840368699989 5.601681720499993 65.593590291300018 Q8.060095045200011 68.091889837099984 11.421622485899956 69.482350384600011 Q14.655021642699989 70.865571626800090 18.286710699599961 70.847901333399989 Q21.785125001000051 70.868443930200044 25.151798913499942 69.482350384600011 Q28.428681741499940 68.180617039399976 30.971739678899961 65.593590291300018 Q33.447459853600051 63.128048631799970 34.860499772300003 59.773649525700023 Q36.267377020999973 56.538827728199976 36.226050721200025 52.908561312000018 Q36.242951331500038 49.315457753500027 34.860499772300003 46.043473098099980 Q33.479712919100010 42.775428466899996 30.971739678899961 40.223532332700017 Q27.528354671900001 36.788853107500017 25.410419603100035 35.041668791000006 Q20.053346773100042 30.622367288699991 19.493103448300030 26.594827586199983 C19.449999999999999 23.706896551733337 19.396120689624990 20.096982758650029 19.363793103400052 17.931034482799987 C17.391810344800046 17.898706896574993 13.447844827600033 17.834051724125004 11.475862069000026 17.801724137900010 Q11.360806546000003 22.326088864899987 11.346551724100049 26.982758620699997 Q11.331819643499966 31.795336038199991 16.836531538999974 37.265949284099975 zM19.521640333899999 2.294418365200000 Q19.177592638700002 1.480126702000007 18.552686331900031 0.844276222000019 Q17.945697549400005 0.223739683299982 17.102544188699948 -0.124677780000013 Q16.291365147200008 -0.451288218800016 15.391984900100010 -0.464929177600027 Q14.517610890900027 -0.473078145399995 13.681425611499957 -0.124677780000013 Q12.870365043400010 0.202345882899976 12.231283468299988 0.844276222000019 Q11.607362001000023 1.456792479099988 11.262329466299956 2.294418365199988 Q10.919868436400019 3.099241646499991 10.922078068700056 4.004977653799983 Q10.914279874300018 4.879016142599994 11.262329466299956 5.715536942399979 Q11.589012984599957 6.527373358299997 12.231283468299988 7.165679085600004 Q12.843841037399965 7.788175018699974 13.681425611499957 8.134633087599980 Q14.487084736199972 8.479287354199982 15.391984900100010 8.474884485199993 Q16.263677279300008 8.480003039899998 17.102544188699948 8.134633087599980 Q17.919038046399987 7.810282985199990 18.552686331900031 7.165679085600004 Q19.169556211599978 6.551345364600024 19.521640333899949 5.715536942399979 Q19.872188916900040 4.909523341299973 19.861891731499963 4.004977653799983 Q19.866102820300011 3.109691755699998 19.521640333899949 2.294418365199988 z" />
<glyph unicode="@" horiz-adv-x="78.306896551724122" d="M48.485869800624130 27.811721298100000 Q48.774989237624084 30.765057247599998 44.658318890924136 33.014193553899986 Q43.055902200624075 33.960274503599976 39.695119382824089 34.037398577399983 Q37.376390466724104 34.090609341000004 35.680639005224123 33.386245210399977 Q33.439754464924079 32.494035001300006 31.705033194424175 30.896209220400010 Q29.890481585624173 29.255879307800001 28.842336983224129 27.169607008599996 Q27.732942008924113 25.019900321299986 27.528369919424165 22.773779979899984 Q27.289933843924075 20.446202766800013 27.963171577524179 18.377952951199973 Q28.634587937224126 16.225406392399975 30.080547346324181 14.651350739300028 Q31.557906596224086 13.001706231599996 33.558145959124147 12.161314749399992 Q35.617457846924083 11.265989019699987 37.866534551724101 11.286930388500025 Q40.214065127224160 11.222893656199972 42.349800016624101 12.161314749399992 Q44.779814536624087 13.376182781000011 46.384934092424089 15.246633389800024 Q46.802720541124188 15.733481185400024 47.201257058824183 16.225679647200025 C47.629461306090832 20.087693530833349 48.164716615174086 24.915210885375018 48.485869800624130 27.811721298099997 zM51.610599429324125 -7.159523919400000 Q44.869571008624177 -12.231123446599952 35.317071487224155 -12.411848332499972 Q28.482822989224076 -12.541146300799994 22.238803028824123 -9.757623171100022 Q16.167004534524153 -7.206584614800022 11.682427420624153 -2.199029407299975 Q7.293165652524126 2.579073114399989 5.255057155324154 9.113205577200006 Q3.211419812424142 15.391452245399989 3.935201091424121 22.456896551700027 Q4.556187023024110 29.275075595600015 7.923795350224113 35.800587526299978 Q11.105475971324156 42.133542091399988 16.613612612424106 47.112822510800015 Q21.877632575224141 51.968774257400014 28.681706973324083 54.671416274600006 Q35.235330965624087 57.359987233800098 42.290820464024080 57.325641435900025 Q49.094690900924149 57.365570138099997 55.369088922424169 54.671416274600006 Q61.485356879924154 52.141233566200015 65.925464530624083 47.112822510800015 Q70.284793817224170 42.328993971300008 72.352834795924139 35.800587526299978 Q74.337206147724089 29.536309953499995 73.672690859824172 22.456896551700027 Q73.035044125324191 15.389599757099973 69.684096601024123 9.113205577200006 Q66.487840260124074 4.166770725399999 63.243601148024084 2.931034482799987 Q57.854693824924141 1.063722817300004 53.792361806724159 3.009921933899989 Q49.845915121824135 4.900602217399978 48.373467918224094 11.922370378799997 Q48.284594329824074 11.865085346099988 48.193508564724141 11.804668342199989 Q46.136760547724123 8.932246454499989 42.547178081324148 7.100636708799982 Q39.353204389524137 5.864401114700001 35.943845455124176 5.812769455900025 Q32.631215029724160 5.781925236399957 29.598086279324150 7.100636708799982 Q26.651964540824167 8.338436374500020 24.475984864324175 10.768172352699992 Q22.346253529624107 13.086574671499989 21.357334718424113 16.257027332199982 Q20.365733233624155 19.303320618499981 20.716922055524151 22.731573233099994 Q21.018233134024115 26.039849276499979 22.652243898524148 29.206119134099993 Q24.196039933924169 32.278957458799994 26.868665040424105 34.694974113599983 Q29.422841312724074 37.051149967500010 32.724273584224136 38.362509757499993 Q35.900664831924075 39.631751301799966 39.327606210624083 39.650377010300019 Q42.660316667824134 39.668490566000003 45.673365386224134 38.362509757499993 Q48.258145064624102 37.198464481100018 49.215067094324183 35.751841564400024 Q49.326400249224150 36.865173114100003 49.524257403824151 38.515839145500024 Q52.927870998424112 38.515839145500024 56.331484593024186 38.515839145500024 C55.531203275457472 31.245784590600010 54.530851628499079 22.158216396974979 53.930640640324157 16.705675480799982 Q53.336186009924120 8.442225536500018 58.433256320424164 7.327586206899980 Q62.833128884624159 6.461028137299991 65.043604550924158 11.379053403199975 Q67.130809262224091 16.664402642200002 67.482415649724146 22.392241379300003 Q67.833015728724092 28.103686861799986 66.418655939224152 33.146808665799995 Q64.730531703524150 38.401673537000022 61.238411123524145 42.264090573299995 Q57.659833308824147 46.316821196600017 52.730326516624075 48.356063579799979 Q47.673372197724177 50.527461213399931 42.189680874024077 50.495280018900019 Q36.503193027824125 50.522961579799926 31.221191943624092 48.356063579799979 Q25.737336234124143 46.177824779200023 21.494712735524104 42.264090573299995 Q17.055339383524142 38.250957594499994 14.491011538224145 33.146808665799995 Q11.776832199224147 27.887464960200020 11.276338370524117 22.392241379300003 Q10.692994940224141 16.697730291900029 12.340098080924124 11.637674092800012 Q13.982745157524109 6.371382527499975 17.520342896724117 2.520392185300011 Q21.134761607024132 -1.515529324199974 26.028427503524142 -3.571580821199973 Q31.067797113324161 -5.835752555900001 36.569073146124140 -5.710797260300012 Q41.380558788924134 -5.601509777300009 47.441877010124188 -3.146551724099993 C48.831451149857514 -4.484209122533343 50.568418824524144 -6.156280870575017 51.610599429324168 -7.159523919399987 z" />
<glyph unicode="A" horiz-adv-x="71.300000000000011" d="M31.799999999999997 73.099999999999994 C39.899999999999999 54.850000000000023 56.100000000000044 18.350000000000023 64.199999999999960 0.100000000000023 C61.824999999999953 0.100000000000023 57.074999999999953 0.100000000000023 54.699999999999953 0.100000000000023 C52.549999999999976 4.649999999999977 48.250000000000021 13.750000000000000 46.100000000000044 18.300000000000011 C39.225000000000044 18.300000000000011 25.475000000000044 18.300000000000011 18.600000000000044 18.300000000000011 C16.574999999999953 13.750000000000000 12.525000000000000 4.649999999999977 10.500000000000023 0.100000000000023 C8.125000000000023 0.100000000000023 3.375000000000023 0.100000000000023 1.000000000000023 0.100000000000023 C8.700000000000012 18.350000000000023 24.100000000000044 54.850000000000023 31.799999999999976 73.100000000000023 zM42.299999999999997 26.600000000000001 C39.699999999999953 32.800000000000011 34.500000000000021 45.199999999999989 31.899999999999999 51.399999999999977 C29.475000000000044 45.199999999999989 24.625000000000021 32.800000000000011 22.199999999999953 26.600000000000023 C27.225000000000044 26.600000000000023 37.274999999999999 26.600000000000023 42.299999999999976 26.600000000000023 z" />
<glyph unicode="B" horiz-adv-x="52.093337923371529" d="M21.443859717071533 70.200172593100007 C25.404629237971527 70.200172593099978 30.334936461571566 69.958316037700001 34.612820489871488 67.659282496599985 C39.074042405071474 65.261718946499968 42.174682912015065 60.502204490198721 41.924149568571544 51.889387283600001 C41.743865651171483 45.691599777500016 37.343620452471519 41.135805211899992 32.995082611671556 38.921347195599992 C39.028802101671509 39.057624062699972 46.910790294237096 34.541567983400000 46.897147484671528 19.146819259099971 C46.889731312571563 10.778300632000025 41.033332655072137 0.250146750378235 31.162703623971503 -0.033946931900005 C22.163178337371527 -0.292968750000000 13.065217091271530 -0.020482450999452 4.016473824871548 -0.013750210500007 C3.952394156071557 23.959957237200001 4.101913383371505 38.104294077699990 4.016473824871548 70.069237341299981 L21.443859717071540 70.200172593099978 zM12.976150423371530 63.000000000000000 C13.013818898271518 57.848438674600004 13.034425406071557 52.423217613900022 13.089155848171538 47.545316023900000 C13.117112223871539 45.053678022700012 13.145278122771538 43.290254041899971 13.173339259971522 40.789279067499990 C16.532867378371542 40.786282825199976 17.908820687869444 40.722656249941110 22.256072992871530 40.940973980000024 C27.566179172771477 41.207645947999993 32.449048797496481 45.570667647099356 32.603470034971529 51.671444256600012 C32.833508068871502 60.759641446700016 26.795734497371505 63.049655477699957 20.976150423371529 63.000000000000000 L12.976150423371530 63.000000000000000 zM13.034425406071531 33.115717346399997 L13.052676756971517 8.105468750000000 C18.548794621371506 8.146365396900023 21.775274294371364 8.145097980513015 27.922773088671498 8.228158690999976 C32.003446239571495 8.283293896799989 37.492016153564428 10.928510838500131 37.662283179171560 19.766858583200019 C37.815403001671562 27.715116521200002 32.943627655971532 33.032173746014394 27.120402164371477 33.032067490399982 C21.232944940771539 33.198037696899974 17.688257216171529 33.087834061100011 13.034425406071557 33.115717346400004 z" />
<glyph unicode="C" horiz-adv-x="66.782756762042411" d="M60.037808631742408 4.046242774600000 Q57.676833987042457 2.719431196599999 54.325123258542405 1.190489454099975 Q47.720191335942374 -1.468898428999978 40.397091255442362 -1.579968364600006 Q33.277601586542389 -1.646320396499902 26.469059252342429 1.190489454099975 Q19.865091985842394 3.853241965400002 14.661443863742402 9.080085821500006 Q9.581235172642419 14.067428900999971 6.771847496342428 20.887701209999989 Q3.983398000842424 27.440882086700014 4.001389677642390 34.815733213099975 Q3.937893777942389 41.932490945899985 6.771847496342428 48.743765216300005 Q9.431830419942383 55.354049733900013 14.661443863742402 60.551380604799988 Q19.649123322242399 65.619982048099985 26.469059252342429 68.440976972200019 Q33.029045888042376 71.247284644799834 40.397091255442362 71.211434790900000 Q43.265500128442383 71.382689922999987 46.131504847485459 71.062922856475666 Q48.997509566528421 70.743155789951288 51.803609356942431 69.935598777499990 Q53.505356411642353 69.445859327700020 55.752678205842400 68.222929663849982 Q58.000000000042448 67.000000000000000 59.000000000042448 66.000000000000000 Q59.000000000042448 63.000000000000000 59.000000000042448 61.000000000000000 Q59.000000000042448 59.000000000000000 59.000000000042448 56.000000000000000 Q55.971852454842448 59.028147545200000 50.599906291642398 61.091688038899974 Q45.638701950242464 62.346514143299942 40.889683011042436 62.327991792600017 Q35.343598941142361 62.354976738199923 30.405757822542380 60.242609413900027 Q25.272247354842460 58.119186683699979 21.517915206942387 54.303942840899992 Q17.581474215242377 50.391801626799975 15.579248634042397 45.416100225299999 Q13.446071544442400 40.289109572799987 13.493866255342407 34.932175036800004 Q13.480323538442388 29.380968127699987 15.579248634042397 24.448249848300009 Q17.693934342442429 19.314486181000007 21.517915206942387 15.560407232700015 Q25.434811550042394 11.626050968500010 30.405757822542380 9.621740659699981 Q35.530692088842372 7.486413698899980 40.889683011042436 7.536358280999991 Q46.401935809942458 7.619962978099977 51.373608199642419 9.621740659699981 Q56.836289442442350 12.031038545900003 60.037808631742379 14.580924855499973 C60.037808631742379 11.069364161866645 60.037808631742379 6.679913294824985 60.037808631742379 4.046242774599989 z" />
<glyph unicode="D" horiz-adv-x="64.193982618633939" d="M25.600000000000001 70.490954423900007 Q31.399999999999977 70.390954423899984 36.350000000000023 68.740954423900007 Q41.299999999999955 67.090954423900030 44.600000000000023 64.390954423899984 Q47.899999999999977 61.690954423899996 49.899999999999977 59.190954423899996 Q51.899999999999977 56.690954423899996 53.200000000000045 53.990954423900007 Q56.500000000000000 46.890954423899984 57.100000000000023 38.346649086949981 Q57.700000000000045 29.802343749999977 55.600000000000023 22.702343750000011 Q53.600000000000023 15.702343750000011 48.450000000000045 9.952343750000011 Q43.299999999999955 4.202343750000011 35.799999999999955 1.602343749999989 Q31.000000000000000 0.000000000000000 26.000000000000000 0.000000000000000 Q22.500000000000000 0.000000000000000 19.487500000000011 0.001171875000011 Q16.475000000000023 0.002343750000023 4.000000000000002 0.002343750000023 C4.000000000000002 23.498547307966646 4.000000000000002 52.868801755425011 4.000000000000002 70.490954423900007 C9.399999999999979 70.490954423900007 20.199999999999989 70.490954423900007 25.600000000000023 70.490954423900007 zM45.996928879300000 48.994079423899997 Q43.396928879300049 55.394079423899996 37.948464439650024 59.455660401599971 Q32.500000000000000 63.517241379300003 25.000000000000000 63.517241379300003 Q19.000000000000000 63.517241379300003 18.000000000000000 63.517241379300003 Q17.000000000000000 63.517241379300003 13.000000000000002 63.517241379300003 L13.001170593499980 63.383768934099976 Q13.000000000000002 20.517241379300003 13.000000000000002 17.758620689650002 Q13.000000000000002 15.000000000000000 13.000000000000002 7.000000000000000 Q15.844218717300011 6.999998093273689 18.422109358650005 6.999999046636844 Q21.000000000000000 7.000000000000000 25.000000000000000 7.000000000000000 Q32.997554396000055 7.197797076699999 39.656776434749986 12.743428531500001 Q46.315998473500031 18.289059986300003 47.555549569000050 28.205468750000023 Q48.355549569000004 33.905468750000011 47.826239224149958 39.799774086949981 Q47.296928879300026 45.694079423900007 45.996928879299958 48.994079423900018 z" />
<glyph unicode="E" horiz-adv-x="50.78125" d="M13.214522821599999 8.199999999999999 C20.289522821600031 8.199999999999989 34.439522821600008 8.199999999999989 41.514522821600053 8.199999999999989 C41.514522821600053 6.149999999999977 41.514522821600053 2.050000000000011 41.514522821600053 0.000000000000000 C32.139522821600053 0.000000000000000 13.389522821599996 0.000000000000000 4.014522821599996 0.000000000000000 C4.010892116200012 17.509854771774997 4.003630705399985 52.529564315324990 4.000000000000000 70.039419087099986 C13.149999999999977 70.039419087099986 31.450000000000045 70.039419087099986 40.600000000000023 70.039419087099986 C40.600000000000023 68.016597510349982 40.600000000000023 63.970954356850029 40.600000000000023 61.948132780100025 C33.750000000000000 61.948132780100025 20.050000000000011 61.948132780100025 13.199999999999989 61.948132780100025 C13.204605152900001 56.473897892299988 13.209210305800013 50.999663004400020 13.218420611499994 40.051193228800003 C21.324106642333334 40.008220634333497 31.456214180875008 39.954504891249996 37.535478703999956 39.922275445399976 C37.583143153574952 37.892322125900023 37.678472052725056 33.832415486900004 37.726136502300051 31.802462167399995 C31.596147527574999 31.802462167399995 19.336169578125009 31.802462167399995 13.206180603400014 31.802462167399995 C13.208266157949993 25.901846625549979 13.212437267050007 14.100615541850004 13.214522821599985 8.199999999999989 z" />
<glyph unicode="F" horiz-adv-x="43.05078125" d="M3.000000000000000 70.000000000000000 C11.882572614100013 70.009854771775451 29.647717842300040 70.029564315324535 38.530290456400053 70.039419087099986 C38.530290456400053 67.989419087100032 38.530290456400053 63.889419087100009 38.530290456400053 61.839419087099998 C31.900980111574995 61.839419087099998 18.642359421924994 61.839419087099998 12.013049077099993 61.839419087099998 C11.961493060500004 56.323960867050005 11.858381027300027 45.293044426950019 11.806825010699981 39.777586206899969 C17.660616683324974 39.756254471324837 29.368200028574961 39.713591000175143 35.221991701199954 39.692259264600011 C35.221991701199954 37.649586850800006 35.221991701199954 33.564242023199995 35.221991701199954 31.521569609399990 C29.400527614775001 31.510573758775081 17.757599441924981 31.488582057524923 11.936135355500028 31.477586206900014 C11.936135355499971 23.608189655175011 11.936135355500028 7.869396551725004 11.936135355500028 0.000000000000000 C9.720618114124989 0.000000000000000 5.289583631375024 0.000000000000000 3.074066389999984 0.000000000000000 C3.061566389999996 0.000000000000000 3.036566390000019 0.000000000000000 3.024066389999973 0.000000000000000 C3.018049792499994 17.500000000000000 3.006016597499979 52.500000000000000 3.000000000000000 70.000000000000000 z" />
<glyph unicode="G" horiz-adv-x="72.250893681294556" d="M58.053861943394580 57.274067420400002 Q52.461774304494533 60.690310148300000 48.570867969494579 61.190899099299997 Q44.857993389294542 61.999535459100002 40.108466353494613 61.922562136900012 Q34.698005173694618 61.948887197700060 27.764730514694556 59.514731320800024 Q22.756753940394596 57.443234368200024 19.094229520194553 53.721287776300017 Q15.254049511494577 49.904813322899997 13.300785975694600 45.050786781800014 Q11.219773194894548 40.049170588300001 11.266399142994578 34.823233515600009 Q11.253187597094586 29.407774769500008 13.300785975694600 24.595680249300017 Q15.363759560094570 19.587456667200001 19.094229520194553 15.925179254900002 Q22.915342821494598 12.087032994200001 27.764730514694556 10.131735710399994 Q32.764340608394527 8.048625630900005 37.992283780894617 8.097348877700028 Q43.196152482994570 8.060344316499936 48.219837047094565 9.509329071399975 Q52.846570245494526 10.843820874000016 55.471532661494543 13.554762378000021 C55.471532661494543 17.911310334666666 55.471532661494543 23.356995280499973 55.471532661494543 26.624406248000014 C51.239167516269539 26.624406248000014 42.774437225819533 26.624406248000014 38.542072080594529 26.624406248000014 C38.542072080594529 28.647227824750018 38.542072080594529 32.692870978249971 38.542072080594529 34.715692554999976 C45.015101126244566 34.715692554999976 57.961159217544527 34.715692554999976 64.434188263194557 34.715692554999976 C64.434188263194557 29.020895695399986 64.434188263194557 17.631301976200007 64.434188263194557 11.936505116600017 Q64.397896344194606 8.207437775000017 60.723013250794601 5.815782381000020 Q55.821287525094625 2.582024413800013 51.479053864294578 1.419822522699974 Q44.733427643694576 -1.067105085900323 37.785181284694580 -1.055095435099986 Q30.785091634294567 -1.042996176099848 24.091308705094583 1.668785178300027 Q17.598367976194574 4.286771236499987 12.482204090494553 9.425740887199993 Q7.487404360094592 14.329236271599996 4.725248381594588 21.034845501800021 Q1.983678569194558 27.477853666600026 2.001367768194575 34.728718081400018 Q1.938939367694593 41.725828193600023 4.725248381594588 48.422590661000015 Q7.340511414494562 54.921742434900011 12.482204090494553 60.031695275700031 Q17.386030198594575 65.015082900399989 24.091308705094583 67.788650984500009 Q30.541008209894621 70.547778740599995 37.785181284694580 70.512531597899965 Q44.897526249794545 70.794552809399988 49.373647525994592 69.967971697899998 Q55.140794538594527 68.902983844800019 62.627105722894534 65.151988392600003 C61.102691129727909 62.526014735200022 59.197172888269542 59.243547663449988 58.053861943394544 57.274067420400002 z" />
<glyph unicode="H" horiz-adv-x="64.200000000000003" d="M46.300000000000004 70.693103448299993 C48.575000000000003 70.693103448300008 53.124999999999957 70.693103448300008 55.400000000000048 70.693103448300008 C55.400000000000048 53.019827586225006 55.400000000000048 17.673275862075002 55.400000000000048 0.000000000000000 C53.124999999999957 0.000000000000000 48.575000000000003 0.000000000000000 46.300000000000026 0.000000000000000 C46.300000000000026 7.774999999999977 46.300000000000026 23.324999999999989 46.300000000000026 31.100000000000023 C38.050000000000026 31.124999999999773 21.550000000000026 31.175000000000182 13.300000000000026 31.199999999999989 C13.300000000000026 23.399999999999977 13.300000000000026 7.800000000000011 13.300000000000026 0.000000000000000 C10.974999999999980 0.000000000000000 6.325000000000003 0.000000000000000 4.000000000000014 0.000000000000000 C4.000000000000014 17.573275862074979 4.000000000000014 52.719827586224994 4.000000000000014 70.293103448300030 C6.300000000000026 70.293103448300030 10.899999999999991 70.293103448300030 13.200000000000003 70.293103448300030 C13.224999999999980 68.468103448299985 13.274999999999991 64.818103448300008 13.300000000000026 62.993103448300019 C13.300000000000026 57.094827586224994 13.300000000000026 45.298275862075002 13.300000000000026 39.399999999999977 C21.550000000000026 39.399999999999977 38.050000000000026 39.399999999999977 46.300000000000026 39.399999999999977 C46.300000000000026 47.223275862075013 46.300000000000026 62.869827586224972 46.300000000000026 70.693103448300008 z" />
<glyph unicode="I" horiz-adv-x="22.899999999999999" d="M4.000000000000000 70.319999999999993 C6.250000000000012 70.319999999999993 10.750000000000011 70.319999999999993 13.000000000000011 70.319999999999993 C12.992672413800005 52.764999999999986 12.978017241399993 17.654999999999973 12.970689655199987 0.100000000000023 C10.720689655199987 0.100000000000023 6.220689655199988 0.100000000000023 3.970689655199988 0.100000000000023 C3.978017241399994 17.654999999999973 3.992672413800006 52.764999999999986 4.000000000000012 70.319999999999993 z" />
<glyph unicode="J" horiz-adv-x="45.05078125" d="M3.903042876900000 12.926141078800001 Q6.880636237899978 10.077178423199996 11.644011829149974 8.563229742600015 Q16.407387420400028 7.049281061999977 19.498893499299982 8.963070539400007 Q22.707447639700035 10.949318340599973 24.205245258300010 15.418435103899981 Q25.703042876899985 19.887551867199988 25.603042876899963 30.268879668000011 C25.618672199166667 43.512586445333341 25.638208852000048 60.067219916999989 25.649930843699963 70.000000000000000 C27.924930843700054 70.000000000000000 32.474930843700008 70.000000000000000 34.749930843699985 70.000000000000000 C34.788208852000025 59.917219917000011 34.864764868599991 39.751659750999977 34.903042876900031 29.668879667999988 Q35.103042876899963 18.187551867200000 33.611904764249971 12.292779660849988 Q32.120766651599979 6.398007454499975 27.723374827099974 3.240663900400023 Q23.790622149600040 0.416932968100014 20.003886455149996 -0.087591607249976 Q16.217150760700008 -0.592116182600023 11.317150760699974 0.207883817399988 Q4.027524204700001 2.028215767599988 0.300968188100001 6.270954356800019 C1.501659751033344 8.489349930800017 3.002524204700023 11.262344398300002 3.903042876899974 12.926141078800015 z" />
<glyph unicode="K" horiz-adv-x="58.537818767300003" d="M40.660165975100000 70.039419087100001 C43.485165975100024 70.039419087099986 49.135165975100001 70.039419087099986 51.960165975100047 70.039419087099986 C44.970124481325009 61.579564315325001 30.990041493775042 44.659854771775031 24.000000000000004 36.199999999999989 C32.450000000000053 27.100000000000023 49.350000000000030 8.899999999999977 57.799999999999962 -0.199999999999989 C54.924999999999962 -0.199999999999989 49.174999999999962 -0.199999999999989 46.299999999999962 -0.199999999999989 C38.049999999999962 8.800000000000011 21.549999999999958 26.800000000000011 13.300000000000015 35.800000000000011 C13.300000000000015 26.800000000000011 13.300000000000015 8.800000000000011 13.300000000000015 -0.199999999999989 C10.975000000000026 -0.199999999999989 6.324999999999993 -0.199999999999989 4.000000000000004 -0.199999999999989 C4.040041493774997 17.359854771775019 4.120124481324983 52.479564315324978 4.160165975099976 70.039419087099986 C6.485165975100021 70.039419087099986 11.135165975099998 70.039419087099986 13.460165975099986 70.039419087099986 C13.420124481324994 61.554564315325024 13.340041493775008 44.584854771774985 13.300000000000015 36.100000000000023 C20.140041493775019 44.584854771774985 33.820124481325031 61.554564315325024 40.660165975099979 70.039419087099986 z" />
<glyph unicode="L" horiz-adv-x="46.700639695699998" d="M13.013139695700000 70.000000000000000 C13.013139695700000 54.250000000000000 13.013139695700000 22.750000000000000 13.013139695700000 7.000000000000000 C20.263139695699998 7.000000000000000 34.763139695699998 7.000000000000000 42.013139695699998 7.000000000000000 C42.013139695699998 5.250000000000000 42.013139695699998 1.750000000000000 42.013139695699998 0.000000000000000 C32.509854771775018 -0.010892116174773 13.503284923925003 -0.032676348525172 4.000000000000023 -0.043568464700002 C4.003284923925003 17.467323651474999 4.009854771775020 52.489107883825000 4.013139695700000 70.000000000000000 C6.263139695700000 70.000000000000000 10.763139695700000 70.000000000000000 13.013139695700000 70.000000000000000 z" />
<glyph unicode="M" horiz-adv-x="73.900000000000006" d="M34.399999999999999 33.000000000000000 C41.524999999999977 42.725000000000023 55.774999999999977 62.175000000000011 62.899999999999977 71.899999999999977 C63.774999999999977 53.824999999999989 65.524999999999977 17.675000000000011 66.399999999999977 -0.399999999999977 C64.250000000000000 -0.399999999999977 59.950000000000045 -0.399999999999977 57.799999999999955 -0.399999999999977 C57.024999999999977 11.125000000000000 55.475000000000023 34.175000000000011 54.700000000000045 45.699999999999989 C49.625000000000000 39.024999999999977 39.475000000000023 25.675000000000011 34.399999999999977 19.000000000000000 C29.225000000000023 25.750000000000000 18.875000000000000 39.250000000000000 13.699999999999989 46.000000000000000 C12.925000000000011 34.475000000000023 11.375000000000000 11.425000000000011 10.600000000000023 -0.100000000000023 C8.449999999999989 -0.100000000000023 4.149999999999977 -0.100000000000023 2.000000000000000 -0.100000000000023 C2.875000000000000 18.000000000000000 4.625000000000000 54.199999999999989 5.500000000000000 72.300000000000011 C12.725000000000023 62.475000000000023 27.174999999999955 42.824999999999989 34.399999999999977 33.000000000000000 z" />
<glyph unicode="N" horiz-adv-x="65.799999999999997" d="M12.700000000000003 47.734482758600002 C12.700000000000003 35.875862068950028 12.700000000000003 12.158620689649979 12.700000000000003 0.300000000000011 C10.524999999999991 0.300000000000011 6.175000000000025 0.300000000000011 4.000000000000013 0.300000000000011 C4.000000000000013 17.983620689650024 4.000000000000013 53.350862068949993 4.000000000000013 71.034482758600006 C15.125000000000014 58.375862068950028 37.374999999999957 33.058620689650013 48.499999999999957 20.399999999999977 C48.425000000000026 32.958620689649990 48.275000000000048 58.075862068950016 48.200000000000003 70.634482758600029 C50.400000000000048 70.634482758600029 54.800000000000026 70.634482758600029 56.999999999999957 70.634482758600029 C56.999999999999957 52.275862068950005 56.999999999999957 15.558620689650013 56.999999999999957 -2.800000000000011 C45.925000000000026 9.833620689649990 23.775000000000048 35.100862068949993 12.700000000000003 47.734482758599995 z" />
<glyph unicode="O" horiz-adv-x="81.814257980494574" d="M72.845114187794579 21.110701198699999 Q70.090842335994523 14.591893956499973 65.088158478994558 9.501596584100014 Q60.228913260394563 4.533894880200023 53.479053864294599 1.744640875199991 Q46.985164697194534 -0.870037121099983 39.785181284694602 -0.979239738200022 Q32.785385165994569 -1.044476253299933 26.091308705094605 1.744640875199991 Q19.598367976194595 4.362626933400009 14.482204090494578 9.501596584100014 Q9.487404360094560 14.405091968500017 6.725248381594556 21.110701198699985 Q3.983678569194582 27.553709363499991 4.001367768194600 34.804573778299982 Q3.938939367694561 41.801683890499987 6.725248381594556 48.498446357899979 Q9.340511414494587 54.997598131799975 14.482204090494578 60.107550972599995 Q19.386030198594597 65.090938597300010 26.091308705094605 67.864506681400030 Q32.541008209894528 70.623634437500016 39.785181284694602 70.588387294799986 Q46.763509629794555 70.629363855299914 53.479053864294599 67.864506681400030 Q60.015490761794524 65.267923796100035 65.088158478994558 60.107550972599995 Q70.026506765294528 55.189505891199985 72.845114187794536 48.498446357899979 Q75.651428859894565 42.045909094799981 75.568994801194606 34.804573778299982 Q75.602706648194555 27.637367653299975 72.845114187794536 21.110701198699985 zM66.718168418794576 34.899089212500002 Q66.779736008294606 40.307430953400001 64.683781586094540 45.126642478699978 Q62.578646067794523 50.123999317399978 58.890338041594589 53.797143473199981 Q55.101710757494573 57.651275138199992 50.219837047094586 59.590587017699988 Q45.204193300494524 61.655578046000016 39.992283780894525 61.624973850400011 Q34.581822601094530 61.651298911200115 29.764730514694577 59.590587017699988 Q24.756753940394560 57.519090065099988 21.094229520194574 53.797143473199981 Q17.254049511494600 49.980669019800018 15.300785975694568 45.126642478699978 Q13.219773194894573 40.125026285200022 13.266399142994603 34.899089212500030 Q13.253187597094554 29.483630466399973 15.300785975694568 24.671535946199981 Q17.363759560094593 19.663312364100022 21.094229520194574 16.001034951800023 Q24.915342821494562 12.162888691100022 29.764730514694577 10.207591407300015 Q34.764340608394548 8.124481327800027 39.992283780894525 8.173204574599993 Q45.369740993094581 8.254764818200044 50.219837047094586 10.207591407300015 Q55.261109785094561 12.290803715799996 58.890338041594589 16.001034951800023 Q62.626696425594616 19.802829310099980 64.683781586094540 24.671535946199981 Q66.743346812194602 29.546112398399998 66.718168418794619 34.899089212500030 z" />
<glyph unicode="P" horiz-adv-x="52.101767807800002" d="M19.818118948800002 62.221722694599997 Q17.909405255900026 62.221722694599976 16.520746888000019 62.221722694599976 Q15.132088520100012 62.221722694599976 13.096127247600009 62.221722694599976 C13.030073800133323 53.479975357533363 12.947506990799980 42.552791186200011 12.897966905200008 35.996480683400023 Q15.855562533599993 35.987759371899983 17.964088320750022 35.998240341700011 Q20.072614107899994 36.008721311499983 22.108575380399998 36.008721311499983 Q28.485666587700052 36.008721311499983 32.677480596750001 39.635277328100017 Q36.869294605799951 43.261833344699994 36.869294605799951 49.242469582599995 Q36.869294605799951 53.314392127500014 34.845608480199985 56.411205388749977 Q32.821922354600019 59.508018649999997 29.448192229699998 61.166658161800001 Q27.599066512800050 62.075868963099992 25.127798988649943 62.148795828849984 Q22.656531464500006 62.221722694599976 19.818118948800020 62.221722694599976 zM23.942600276600000 28.008298755199998 Q21.821620699099981 27.974213501599991 18.407247168500021 28.012873966149982 Q14.992873637900004 28.051534430699974 12.872060857500003 28.008298755199974 C12.883817427333327 18.657676348566667 12.898513139624981 6.969398340275006 12.907330566999974 -0.043568464700002 C10.680497925249995 -0.043568464700002 6.226832641749979 -0.043568464700002 4.000000000000000 -0.043568464700002 C4.000000000000000 17.477178423249995 4.000000000000000 52.518672199149989 4.000000000000000 70.039419087099986 Q9.781693989100006 70.036511983300215 13.141434336600014 70.037965535200101 Q16.501174684100022 70.039419087099986 17.941908713700002 70.039419087099986 Q20.903493508300016 70.039419087099986 26.082520838349978 69.770503958250004 Q31.261548168400054 69.501588829400021 33.547378683200009 68.494356138700027 Q38.922743169699970 66.126053839299971 42.408700304074387 61.302433059150133 Q45.894657438448917 56.478812279000294 45.942600276600047 48.367911479899988 Q45.994201158199985 39.638148121200004 39.367720584250037 33.894960282249997 Q32.741240010299975 28.151772443300047 23.942600276600047 28.008298755199974 z" />
<glyph unicode="Q" horiz-adv-x="86.178590178325351" d="M70.345114187794579 21.110701198699999 Q67.590842335994552 14.591893956499973 62.588158478994579 9.501596584100014 Q57.728913260394584 4.533894880200023 50.979053864294620 1.744640875199991 Q44.485164697194556 -0.870037121099983 37.285181284694623 -0.979239738200022 Q30.285385165994590 -1.044476253299933 23.591308705094626 1.744640875199991 Q17.098367976194560 4.362626933400009 11.982204090494600 9.501596584100014 Q6.987404360094581 14.405091968500017 4.225248381594577 21.110701198699985 Q1.483678569194547 27.553709363499991 1.501367768194564 34.804573778299982 Q1.438939367694582 41.801683890499987 4.225248381594577 48.498446357899979 Q6.840511414494552 54.997598131799975 11.982204090494600 60.107550972599995 Q16.886030198594561 65.090938597300010 23.591308705094626 67.864506681400030 Q30.041008209894549 70.623634437500016 37.285181284694623 70.588387294799986 Q44.263509629794576 70.629363855299914 50.979053864294620 67.864506681400030 Q57.515490761794545 65.267923796100035 62.588158478994579 60.107550972599995 Q67.526506765294556 55.189505891199985 70.345114187794564 48.498446357899979 Q73.151428859894594 42.045909094799981 73.068994801194521 34.804573778299982 Q73.102706648194584 27.637367653299975 70.345114187794564 21.110701198699985 zM64.218168418794576 34.899089212500002 Q64.279736008294634 40.307430953400001 62.183781586094561 45.126642478699978 Q60.078646067794544 50.123999317399978 56.390338041594610 53.797143473199981 Q52.601710757494594 57.651275138199992 47.719837047094607 59.590587017699988 Q42.704193300494545 61.655578046000016 37.492283780894546 61.624973850400011 Q32.081822601094551 61.651298911200115 27.264730514694598 59.590587017699988 Q22.256753940394525 57.519090065099988 18.594229520194595 53.797143473199981 Q14.754049511494566 49.980669019800018 12.800785975694589 45.126642478699978 Q10.719773194894595 40.125026285200022 10.766399142994567 34.899089212500030 Q10.753187597094575 29.483630466399973 12.800785975694589 24.671535946199981 Q14.863759560094559 19.663312364100022 18.594229520194595 16.001034951800023 Q22.415342821494583 12.162888691100022 27.264730514694598 10.207591407300015 Q32.264340608394569 8.124481327800027 37.492283780894546 8.173204574599993 Q42.869740993094602 8.254764818200044 47.719837047094607 10.207591407300015 Q52.761109785094582 12.290803715799996 56.390338041594610 16.001034951800023 Q60.126696425594524 19.802829310099980 62.183781586094561 24.671535946199981 Q64.243346812194631 29.546112398399998 64.218168418794534 34.899089212500030 zM45.103590622294575 24.083402489600001 C46.368424647194580 25.216078838149997 48.898092696994546 27.481431535250010 50.162926721894529 28.614107883799988 Q51.512926721894551 27.089107883800011 56.179213028944524 21.960321576750005 Q60.845499335994610 16.831535269699998 71.528071950094585 5.048962655600008 C69.774959916894630 3.438727524199976 67.583569875394545 1.425933609949993 66.268735850494608 0.218257261400026 C60.977449543444628 6.184543568450010 50.394876929344569 18.117116182549978 45.103590622294597 24.083402489600019 z" />
<glyph unicode="R" horiz-adv-x="55.000000000000007" d="M4.000000000000000 70.000000000000000 C9.174999999999988 70.024999999999920 19.524999999999956 70.075000000000102 24.700000000000024 70.100000000000023 Q29.899999999999956 70.199999999999989 33.999999999999979 68.199999999999989 Q38.100000000000001 66.199999999999989 40.399999999999956 62.899999999999977 Q42.700000000000024 59.699999999999989 43.649999999999956 55.600000000000023 Q44.600000000000001 51.500000000000000 43.899999999999956 47.500000000000000 Q43.300000000000047 43.600000000000023 40.999999999999979 39.949999999999989 Q38.700000000000024 36.300000000000011 35.100000000000001 34.100000000000023 C40.566666666666698 22.766666666666652 47.399999999999956 8.600000000000023 51.499999999999979 0.100000000000023 C48.975000000000001 0.100000000000023 43.925000000000047 0.100000000000023 41.399999999999956 0.100000000000023 C37.624999999999979 7.925000000000011 30.075000000000024 23.574999999999989 26.300000000000047 31.399999999999977 Q25.200000000000024 31.300000000000011 23.700000000000024 31.300000000000011 C20.200000000000024 31.266666666666652 15.825000000000022 31.225000000000023 13.200000000000022 31.199999999999989 C13.267672413800005 23.425000000000011 13.403017241399970 7.875000000000000 13.470689655200010 0.100000000000023 C11.145689655200021 0.100000000000023 6.495689655199987 0.100000000000023 4.170689655199999 0.100000000000023 C4.128017241399993 17.574999999999989 4.042672413799982 52.524999999999977 3.999999999999977 70.000000000000000 zM13.199999999999999 61.799999999999997 C13.200000000000022 56.199999999999989 13.200000000000022 45.000000000000000 13.200000000000022 39.399999999999977 C15.924999999999988 39.399999999999977 21.374999999999979 39.399999999999977 24.100000000000001 39.399999999999977 Q27.200000000000024 39.399999999999977 29.600000000000001 41.050000000000011 Q31.999999999999979 42.699999999999989 33.200000000000024 45.100000000000023 Q34.399999999999956 47.600000000000023 34.499999999999979 50.500000000000000 Q34.600000000000001 53.399999999999977 33.600000000000001 55.899999999999977 Q32.600000000000001 58.399999999999977 30.249999999999979 60.100000000000023 Q27.899999999999956 61.800000000000011 24.600000000000001 61.800000000000011 C20.800000000000047 61.800000000000011 16.049999999999990 61.800000000000011 13.200000000000022 61.800000000000011 z" />
<glyph unicode="S" horiz-adv-x="45.964905443999996" d="M25.391283902599998 39.635219213399999 Q41.283521586300012 32.402662670700010 41.130335826599989 19.127871321099974 Q41.456125896999978 -0.105412731299964 20.230987888699975 -0.396168046500009 Q13.035454019500026 0.187597761699976 8.846247060399993 2.415577896199977 Q6.402543000799984 3.715232974699973 4.635263713799976 5.098863078299985 C4.605636838400006 8.321890423966693 4.568603244149973 12.350674606050006 4.546383087600010 14.767945115299995 Q8.821716316399989 11.636664906500016 10.575488317800012 10.866759377999983 Q15.854846192000014 7.951247184099998 19.578224634200001 8.002252368299992 Q31.651780667800029 8.167643546799923 31.560671892799963 19.025798343199995 Q30.466067153399980 25.318812216900028 21.777610699699995 29.952334221400008 Q4.166145894400007 39.344463898199990 3.999999999999989 51.473114188699981 Q4.026923520500009 59.940270511300014 9.692439070699994 65.464443628500021 Q14.599301463199982 70.060992849300021 23.871654698299995 70.294395016500005 Q33.543142737699995 70.537844140099992 37.872942994099944 67.724840609599994 C37.682568538866676 65.191393145599989 37.444600469824977 62.024583815600010 37.301819628400025 60.124498217599978 Q33.713945929500014 61.288857994900013 31.567437396000049 61.721646675300008 Q27.762367802299980 62.396458389100019 23.731244433199993 62.241097049600000 Q13.464338095500000 61.936555924200036 13.709810973099980 51.536406191799983 Q13.717091499799995 45.362365925999995 25.391283902599969 39.635219213399978 z" />
<glyph unicode="T" horiz-adv-x="50.41015625" d="M19.437759335999999 63.146780655199997 C15.078319501999999 63.148959078450048 6.359439834000000 63.153315924949936 2.000000000000000 63.155494348200023 C2.000000000000000 64.855040062900002 2.000000000000000 68.254131492300019 2.000000000000000 69.953677206999998 C12.985477178400004 69.953677206999998 34.956431535199954 69.953677206999998 45.941908713600014 69.953677206999998 C45.941908713600014 68.254131492300019 45.941908713600014 64.855040062900002 45.941908713600014 63.155494348200023 C41.585062240574985 63.155494348200023 32.871369294525039 63.155494348200023 28.514522821500009 63.155494348200023 C28.514522821500009 47.366620761149989 28.514522821500009 15.788873587049977 28.514522821500009 0.000000000000000 C26.211618257200030 0.000000000000000 21.605809128599958 0.000000000000000 19.302904564299979 0.000000000000000 C19.336618257224984 15.786695163800005 19.404045643074994 47.360085491400014 19.437759335999999 63.146780655200018 z" />
<glyph unicode="U" horiz-adv-x="62.391026971000812" d="M13.300000000000001 70.534989220000000 C13.349999999999993 59.551241914999991 13.450000000000015 37.583747304999974 13.500000000000027 26.600000000000023 Q13.500000000000027 22.399999999999977 14.750000000000027 18.899999999999977 Q16.000000000000025 15.399999999999977 18.000000000000025 13.199999999999989 Q20.099999999999991 11.100000000000023 22.750000000000025 9.949999999999989 Q25.400000000000002 8.800000000000011 28.100000000000048 8.800000000000011 Q30.900000000000002 8.800000000000011 33.549999999999983 10.000000000000000 Q36.199999999999960 11.199999999999989 38.299999999999983 13.300000000000011 Q40.400000000000006 15.500000000000000 41.699999999999960 19.050000000000011 Q43.000000000000028 22.600000000000023 43.100000000000051 27.000000000000000 C43.166666666666657 26.933333333333337 43.250000000000028 26.850000000000023 43.299999999999983 26.800000000000011 C43.275000000000006 37.703443983400007 43.224999999999937 59.510331950199998 43.199999999999960 70.413775933599993 C45.475000000000051 70.413775933599993 50.025000000000006 70.413775933599993 52.299999999999983 70.413775933599993 C52.400000000000006 59.435331950200009 52.600000000000051 37.478443983399984 52.699999999999960 26.500000000000000 Q52.799999999999983 20.000000000000000 50.699999999999960 14.850000000000023 Q48.600000000000051 9.699999999999989 45.100000000000051 6.500000000000000 Q41.699999999999960 3.399999999999977 37.250000000000028 1.750000000000000 Q32.799999999999983 0.099999999999966 28.100000000000048 0.199999999999989 Q23.500000000000025 0.300000000000011 19.099999999999991 2.050000000000011 Q14.700000000000015 3.800000000000011 11.299999999999981 6.899999999999977 Q7.900000000000004 10.100000000000023 5.950000000000015 15.199999999999989 Q4.000000000000027 20.300000000000011 4.200000000000015 26.399999999999977 C4.133333333333352 41.104591977866676 4.049999999999981 59.485331950200020 4.000000000000027 70.513775933600016 C6.325000000000015 70.519079255199927 10.974999999999993 70.529685898400089 13.299999999999981 70.534989220000000 z" />
<glyph unicode="V" horiz-adv-x="67.546875000000938" d="M41.000000000000000 40.000000000000000 C44.250000000000000 47.500000000000000 50.750000000000000 62.500000000000000 54.000000000000000 70.000000000000000 C56.572441217149958 70.009854771774997 61.717323651449988 70.029564315324990 64.289764868600059 70.039419087099986 C56.026798063624938 51.604564315324978 39.500864453675035 14.734854771775019 31.237897648700027 -3.699999999999989 C30.462897648700050 -1.800000000000011 28.912897648699982 2.000000000000000 28.137897648700005 3.899999999999977 C21.103423236525032 20.425000000000011 7.034474412174973 53.475000000000023 0.000000000000000 70.000000000000000 C2.500000000000000 70.000000000000000 7.500000000000000 70.000000000000000 10.000000000000000 70.000000000000000 C13.250000000000000 62.500000000000000 19.750000000000000 47.500000000000000 23.000000000000000 40.000000000000000 C25.185344827575022 34.250000000000000 29.556034482724954 22.750000000000000 31.741379310299976 17.000000000000000 C34.056034482724954 22.750000000000000 38.685344827575022 34.250000000000000 41.000000000000000 40.000000000000000 z" />
<glyph unicode="W" horiz-adv-x="107.8672323682802" d="M74.337437361621738 0.000576191300000 C69.741183096221746 10.505926813949998 60.548674565421791 31.516628059250024 55.952420300021757 42.021978681900009 C55.142487426196752 44.025577715349982 53.522621678546741 48.032775782249985 52.712688804721736 50.036374815700015 C51.973385619446688 48.039982606024978 50.494779248896705 44.047198186675018 49.755476063621771 42.050805976999982 C45.507706070396765 31.539682149300006 37.012166083946752 10.517434493899998 32.764396090721746 0.006310666200022 C31.913776989996748 0.004732999650003 30.212538788546752 0.001577666550020 29.361919687821754 0.000000000000000 C22.021439765871733 17.618566106849983 7.340479921971747 52.855698320550005 0.000000000021727 70.474264427399987 C2.337786202596716 70.506638528124995 7.013358607746751 70.571386729575011 9.351144810321740 70.603760830300018 C14.782959228546714 57.676365997675020 25.646588064996720 31.821576332425025 31.078402483221751 18.894181499799970 C36.371851971671802 31.680726782000022 46.958750948571790 57.253817346400012 52.252200437021727 70.040362628600008 C52.867965654746698 70.036574492499994 54.099496090196752 70.028998220299968 54.715261307921722 70.025210084200012 C59.953294260596707 57.598510847724981 70.429360165946790 32.745112374774976 75.667393118621774 20.318413138300002 C80.320783108171739 32.830648275599970 89.627563087271781 57.855118550200018 94.280953076821746 70.367353687499985 C96.618739279396735 70.334979586775034 101.294311684546713 70.270231385325019 103.632097887121702 70.237857284600011 C97.001918102746757 52.688784959049997 83.741558533996752 17.590640307950025 77.111378749621693 0.041567982400011 C76.417893402621715 0.031320034624969 75.030922708621759 0.010824139074998 74.337437361621781 0.000576191300013 z" />
<glyph unicode="X" horiz-adv-x="67.464843750000796" d="M27.280082987499998 44.894190871399999 C31.014522821525020 51.180497925324971 38.483402489575042 63.753112033175000 42.217842323600053 70.039419087099986 C45.112033194974970 70.039419087099986 50.900414937725031 70.039419087099986 53.794605809099949 70.039419087099986 C43.530537272799961 53.539383316599981 38.398503004700046 45.289365431400029 33.266468736499974 37.039347546200020 C40.565612629299949 24.678375542566641 49.689542495299975 9.227160538024975 55.163900414900013 -0.043568464700002 C52.394190871325009 -0.043568464700002 46.854771784175000 -0.043568464700002 44.085062240599996 -0.043568464700002 C39.914937759275062 7.176348547750024 31.574688796624969 21.616182572650018 27.404564315300036 28.836099585099987 C23.452282157624950 21.616182572650018 15.547717842275006 7.176348547750024 11.595435684599977 -0.043568464700002 C8.670124481275025 -0.043568464700002 2.819502074625007 -0.043568464700002 -0.105809128700002 -0.043568464700002 C5.246887966750023 8.981327800850011 15.952282157649961 27.031120331949978 21.304979253099987 36.056016597499990 C15.952282157649961 44.551867219899975 5.246887966750023 61.543568464700002 -0.105809128700002 70.039419087099986 C2.819502074625007 70.039419087099986 8.670124481275025 70.039419087099986 11.595435684599977 70.039419087099986 C15.516597510325028 63.753112033175000 23.358921161775015 51.180497925324971 27.280082987500009 44.894190871399985 z" />
<glyph unicode="Y" horiz-adv-x="64.200832525241921" d="M-0.050069156300000 69.946887966800006 C2.599930843700008 69.946887966799977 7.899930843700020 69.946887966799977 10.549930843699997 69.946887966799977 C15.411134163200018 62.256639004149974 25.133540802199946 46.876141078850026 29.994744121700023 39.185892116200023 C34.787067773150056 46.876141078850026 44.371715076050009 62.256639004149974 49.164038727500042 69.946887966799977 C51.814038727500019 69.946887966799977 57.114038727499974 69.946887966799977 59.764038727499951 69.946887966799977 C53.571715076049941 60.156639004150009 41.187067773150034 40.576141078850014 34.994744121700023 30.785892116199989 C34.994744121700023 23.164419087150009 34.994744121700023 7.921473029049992 34.994744121700023 0.300000000000011 C32.344744121700046 0.224999999999966 27.044744121699978 0.074999999999989 24.394744121700001 0.000000000000000 C24.569744121699955 7.596473029050003 24.919744121699978 22.789419087150009 25.094744121700046 30.385892116200012 C25.119744121700023 30.385892116200012 25.169744121699978 30.385892116200012 25.194744121699955 30.385892116200012 C18.883540802200002 40.276141078850003 6.261134163199984 60.056639004149986 -0.050069156300026 69.946887966799977 z" />
<glyph unicode="Z" horiz-adv-x="64.920325318810271" d="M7.899999999999999 70.268965517200002 C20.725000000000023 70.268965517200002 46.375000000000000 70.268965517200002 59.200000000000045 70.268965517200002 C57.774999999999977 68.018965517200002 54.924999999999955 63.518965517200002 53.500000000000000 61.268965517200002 C45.274999999999977 48.276724137900032 28.825000000000045 22.292241379299981 20.600000000000023 9.300000000000011 C30.075000000000045 9.300000000000011 49.024999999999977 9.300000000000011 58.500000000000000 9.300000000000011 C58.500000000000000 7.024999999999977 58.500000000000000 2.475000000000023 58.500000000000000 0.199999999999989 C44.625000000000000 0.150000000000034 16.875000000000000 0.049999999999955 3.000000000000000 0.000000000000000 Q3.699999999999989 1.000000000000000 5.699999999999989 3.699999999999989 Q7.699999999999989 6.399999999999977 9.600000000000023 9.300000000000011 C20.600000000000023 26.789655172399989 34.350000000000023 48.651724137900032 42.600000000000023 61.768965517200002 C33.924999999999955 61.768965517200002 16.575000000000045 61.768965517200002 7.899999999999977 61.768965517200002 C7.899999999999977 63.893965517200002 7.899999999999977 68.143965517200002 7.899999999999977 70.268965517200002 z" />
<glyph unicode="[" horiz-adv-x="32.5" d="M6.200000000000000 0.000000000000000 C6.199999999999989 17.600000000000023 6.199999999999989 52.800000000000011 6.199999999999989 70.399999999999977 C8.550000000000011 70.350000000000023 13.250000000000000 70.250000000000000 15.600000000000023 70.199999999999989 C18.799999999999955 70.199999999999989 25.200000000000045 70.199999999999989 28.399999999999977 70.199999999999989 C28.304999999999950 68.735999999999990 28.115000000000009 65.807999999999993 28.019999999999982 64.343999999999994 C24.845000000000027 64.343999999999994 18.495000000000005 64.343999999999994 15.319999999999993 64.343999999999994 C15.319999999999993 49.789999999999964 15.319999999999993 20.682000000000016 15.319999999999993 6.127999999999986 C18.570000000000050 6.127999999999986 25.070000000000050 6.127999999999986 28.320000000000050 6.127999999999986 C28.365000000000009 4.596000000000004 28.455000000000041 1.531999999999982 28.500000000000000 0.000000000000000 C25.274999999999977 0.000000000000000 18.825000000000045 0.000000000000000 15.600000000000023 0.000000000000000 C13.250000000000000 0.000000000000000 8.550000000000011 0.000000000000000 6.199999999999989 0.000000000000000 z" />
<glyph unicode="\" horiz-adv-x="49.200000000000003" d="M32.600000000000001 0.000000000000000 C25.924999999999955 17.555000000000007 12.574999999999989 52.665000000000020 5.899999999999977 70.220000000000027 C8.084999999999980 70.214999999999918 12.454999999999984 70.205000000000041 14.639999999999986 70.199999999999989 C21.490000000000009 52.649999999999977 35.190000000000055 17.550000000000011 42.039999999999964 0.000000000000000 C39.679999999999950 0.000000000000000 34.960000000000036 0.000000000000000 32.600000000000023 0.000000000000000 z" />
<glyph unicode="]" horiz-adv-x="28.599999999999998" d="M12.900000000000002 0.000000000000000 C9.675000000000001 0.000000000000000 3.225000000000011 0.000000000000000 -0.000000000000012 0.000000000000000 C0.045000000000004 1.531999999999982 0.134999999999979 4.596000000000004 0.179999999999995 6.127999999999986 C3.429999999999995 6.127999999999986 9.929999999999996 6.127999999999986 13.179999999999996 6.127999999999986 C13.179999999999996 20.682000000000016 13.179999999999996 49.789999999999964 13.179999999999996 64.343999999999994 C10.004999999999985 64.343999999999994 3.655000000000018 64.343999999999994 0.480000000000007 64.343999999999994 C0.475000000000011 65.807999999999993 0.465000000000020 68.735999999999990 0.460000000000025 70.199999999999989 C3.569999999999982 70.199999999999989 9.790000000000010 70.199999999999989 12.900000000000023 70.199999999999989 C15.250000000000046 70.204999999999927 19.949999999999978 70.215000000000032 22.300000000000001 70.220000000000027 C22.300000000000001 52.665000000000020 22.300000000000001 17.555000000000007 22.300000000000001 0.000000000000000 C19.949999999999978 0.000000000000000 15.250000000000046 0.000000000000000 12.900000000000023 0.000000000000000 z" />
<glyph unicode="^" horiz-adv-x="28.965517241379313" d="M4.048275862048268 78.000000000000000 C6.548275862048296 80.500000000000000 11.548275862048296 85.500000000000000 14.048275862048296 88.000000000000000 C14.548275862048296 88.000000000000000 15.548275862048296 88.000000000000000 16.048275862048296 88.000000000000000 Q20.048275862048296 84.000000000000000 26.048275862048296 78.000000000000000 C24.048275862048296 78.000000000000000 21.548275862048296 78.000000000000000 20.048275862048296 78.000000000000000 C18.798275862048296 79.250000000000000 16.298275862048296 81.750000000000000 15.048275862048296 83.000000000000000 Q13.048275862048296 81.000000000000000 10.048275862048296 78.000000000000000 C8.048275862048296 78.000000000000000 5.548275862048296 78.000000000000000 4.048275862048296 78.000000000000000 z" />
<glyph unicode="_" horiz-adv-x="55.899999999999999" d="M51.100000000000001 0.000000000000000 C51.100000000000023 -2.050000000000011 51.100000000000023 -6.149999999999977 51.100000000000023 -8.199999999999989 C39.524999999999977 -8.199999999999989 16.375000000000000 -8.199999999999989 4.800000000000011 -8.199999999999989 C4.800000000000011 -6.149999999999977 4.800000000000011 -2.050000000000011 4.800000000000011 0.000000000000000 C16.375000000000000 0.000000000000000 39.524999999999977 0.000000000000000 51.100000000000023 0.000000000000000 z" />
<glyph unicode="`" horiz-adv-x="25.47413793103448" d="M15.063820367562059 78.073276651300006 C11.989466919287079 81.033159014799992 5.840760022737040 86.952923741800021 2.766406574462021 89.912806105299978 C2.766406574462021 90.758486780600037 2.766406574462021 92.449848131199985 2.766406574462021 93.295528806499988 C4.149353772737040 93.295528806499988 6.915248169287079 93.295528806499988 8.298195367562098 93.295528806499988 C11.100952192287050 89.489965767700028 16.706465841737067 81.878839690099994 19.509222666462019 78.073276651300034 C18.397872091737067 78.073276651300034 16.175170942287050 78.073276651300034 15.063820367562098 78.073276651300034 z" />
<glyph unicode="a" horiz-adv-x="53.804872878180085" d="M38.312116076780079 28.441913406800001 Q38.303724915680057 32.429890198599992 32.441155794680078 35.466965405999986 Q30.149613086780057 36.744486465399973 25.601034458580109 36.848629380899979 Q22.462801087480109 36.920481447100030 20.268090155980083 35.969357750500023 Q17.362635332580119 34.764579943800015 15.235949083080079 32.606988582600025 Q13.007205027680079 30.392002636299992 11.873579915280068 27.574847509800009 Q10.665812348680056 24.672035054700018 10.692872878180090 21.639032393799994 Q10.685205228680054 18.496036112299976 11.873579915280068 15.703217277799979 Q13.070877985180068 12.796570060299985 15.235949083080079 10.671076204899975 Q17.453627300280125 8.443512485700012 20.268090155980083 7.308707037100021 Q23.169738321080111 6.099722250900015 26.203905271980041 6.127999999999986 Q29.382492237280083 6.041529308300028 32.139720387980113 7.308707037100021 Q35.256993571880123 8.949179234600024 37.171861460780072 11.474903956099979 Q37.670270350080052 12.132308918799993 38.141962972580025 12.796939044300018 C38.198680673980114 18.011930498466654 38.269577800730083 24.530669816175021 38.312116076780065 28.441913406799983 zM33.089604128680079 0.475123956000000 Q28.943619628280096 -1.194201492499985 24.346833501680074 -1.263921246899997 Q19.877855749280123 -1.305571107799949 15.604062874580116 0.475123956000004 Q11.458683898780073 2.146561416599980 8.192299822080095 5.427505697000015 Q5.003399960680105 8.558112847600000 3.239918081080083 12.839268749499979 Q1.489579315380076 16.952768579900010 1.500872878180082 21.582039376500006 Q1.461015841180092 26.049302264199980 3.239918081080083 30.324810003600021 Q4.909617042680060 34.474154383600023 8.192299822080095 37.736573056099985 Q11.323118121180080 40.918186927299985 15.604062874580116 42.688954797099996 Q19.721848390180078 44.402849155500007 24.346833501680074 44.427999999999997 Q28.844644973480065 44.452459269399867 33.089604128680101 42.688954797099996 Q36.737092971380100 41.117110067599981 38.224594827880090 39.163692401200024 Q38.224594827880090 40.667056887199976 38.268872878180112 42.896000000000015 Q42.864872878180115 42.896000000000015 47.460872878180119 42.896000000000015 C47.460872878180119 28.597333333333324 47.460872878180119 10.723999999999990 47.460872878180119 0.000000000000000 C45.162872878180117 0.000000000000000 40.566872878180114 0.000000000000000 38.268872878180112 0.000000000000000 C38.258665834255119 0.829802557474977 38.238251746405133 2.489407672424989 38.228044702480027 3.319210229900023 Q35.421213075680051 1.385368425399975 33.089604128680101 0.475123956000004 z" />
<glyph unicode="b" horiz-adv-x="54.100000000000001" d="M14.724020332700000 11.767979667300001 C17.164006777599980 9.327993222399982 21.041764604800051 6.136170794100053 26.357293814299965 6.152512382400005 Q29.207425198800024 6.147357931100260 32.293108930300036 7.333219419499983 Q35.141285909799990 8.440382663499975 37.325250003200040 10.695588587299994 Q39.321376764499973 12.721117783299974 40.256997161400022 15.727729660199998 Q41.076361109600043 18.453937874199994 41.150622858800034 21.663544776200013 Q41.235259672900042 24.774884541999995 40.256997161400022 27.599359892200027 Q39.265069068999992 30.425534443499998 37.325250003200040 32.631500964999987 Q35.193122979300028 35.069545828599985 32.293108930300036 36.137410802799991 Q29.339389062600048 37.219583805199989 25.668298598999968 36.729601093499980 Q18.776555486699976 35.809755883399987 14.679705019100027 30.763076506900006 Q14.774020332699990 11.767979667299983 14.724020332699979 11.767979667299983 zM13.861704198500000 0.024512382400000 Q10.723999999999990 0.000000000000000 9.007335352850021 0.012256191199981 Q7.290670705699995 0.024512382400019 5.100326208100000 0.024512382400019 C5.100326208100000 24.658107278733326 5.100326208100000 55.450100899150016 5.100326208100000 73.925297071399996 C7.398326208100002 73.925297071399996 11.994326208100006 73.925297071499983 14.292326208100008 73.925297071499983 Q14.193063588500024 72.701138647700020 14.193063588500024 40.192989472600004 Q20.093979712299983 44.179609428499987 28.214365584600046 44.452512382400016 Q33.672271494899974 44.597813288499992 37.531298891100050 42.713467179500014 Q40.906369567900015 41.048585059999994 43.938277254600052 38.048166778199970 Q47.592946545199993 34.410893365800007 48.890658995600006 30.349322385999983 Q50.152377858599948 26.424813223499996 50.055541519099961 21.606551758900025 Q49.957469541199998 16.726808946500000 48.890658995600006 12.863781131899998 Q47.680127520299948 8.571608611200020 44.298277254599952 5.272018079400027 Q40.807553463900035 2.001797551399989 37.317136211700017 0.319636338400016 Q33.226343198499990 -1.440719438200006 28.214365584600046 -1.239408864499978 Q21.447999999999979 -1.531999999999982 14.264783733800016 3.392804066499991 C14.130423888700022 2.270040171800019 13.962474082325002 0.866585303424984 13.861704198499979 0.024512382400019 z" />
<glyph unicode="c" horiz-adv-x="40.804872878180078" d="M36.736872878180080 1.532000000000000 Q32.072012631980108 -0.325246566399983 27.696183882980115 -0.828650717699986 Q22.272095965680030 -1.452648714699990 15.604062874580116 0.475123956000004 Q11.382339773380075 1.943089927900019 8.192299822080095 5.427505697000015 Q4.981632454580057 8.549211029899993 3.239918081080083 12.839268749499979 Q1.585541054480081 16.945405089299982 1.500872878180082 21.582039376500006 Q1.405492239480060 26.125117384699990 3.239918081080083 30.324810003600021 Q4.991222045380090 34.306410537100021 8.192299822080095 37.736573056099985 Q11.395626067780093 41.180185117999997 15.604062874580116 42.688954797099996 Q21.048215281480118 44.636371106000013 25.854010535180130 44.427999999999997 Q32.134971728780108 44.155668208599991 36.913006849480105 41.363999999999976 C36.684271808880119 38.968618452733324 36.398353008130137 35.974391518650009 36.226801727680034 34.177855358200020 Q31.498943947180130 36.485711736799999 27.108211492080052 36.848629380899979 Q23.800046393980104 37.132769055099971 20.268090155980083 35.969357750500023 Q17.442013897280056 35.027199975700000 15.235949083080079 32.606988582600025 Q13.067995845080084 30.244389438600024 11.873579915280068 27.574847509800009 Q10.620890599980051 24.755693437999980 10.692872878180090 21.639032393799994 Q10.760565676980100 18.471643316600023 11.873579915280068 15.703217277799979 Q13.041023374480069 12.806030048900027 15.235949083080079 10.671076204899975 Q17.489144362280065 8.479444887300019 20.268090155980083 7.308707037100021 Q24.510579317780078 6.122404780799968 27.544872878180065 6.127999999999986 Q33.216050240380021 6.761934963200019 36.736872878180073 9.192000000000007 C36.736872878180073 6.638666666666666 36.736872878180073 3.447000000000003 36.736872878180073 1.531999999999982 z" />
<glyph unicode="d" horiz-adv-x="52.500903103577329" d="M37.064501856477328 32.478207488899997 Q31.706064839577270 36.713336877199993 25.893840213577281 36.729601093499980 Q22.185141266977329 36.704804223500048 19.269029882277326 35.993870132899985 Q16.296378920277338 35.073561385900007 14.236888809377323 32.631500964999987 Q12.292859887777301 30.448178779800003 11.305141651177340 27.599359892200027 Q10.321584579377319 24.762542812899994 10.411515953777329 21.663544776200013 Q10.457531262877300 18.456791931499993 11.305141651177340 15.727729660199998 Q12.252119289977319 12.724675571899979 14.236888809377323 10.695588587299994 Q16.420852902777373 8.440382663499975 19.269029882277326 7.333219419499983 Q22.354713613777339 6.147357931100260 25.204844998277284 6.152512382400005 Q31.636903103577314 6.128000000000043 36.838118479877274 11.386859960499976 Q36.838118479877274 11.386859960499976 36.820571344877301 13.854880293199983 C36.901881515410658 20.062656025100011 37.003519228577268 27.822375689974990 37.064501856477371 32.478207488900011 zM37.297355078777329 3.011684359700000 Q32.059090128577289 -1.176693268200154 23.347773227977317 -1.239408864499978 Q18.695795614077273 -1.260719438199942 14.605002600877359 0.499636338400023 Q11.114585348677341 2.181797551399995 7.623861557977311 5.452018079399977 Q4.062011292277309 8.751608611200027 2.671479816977301 12.863781131899998 Q1.412059476877350 16.726739198000018 1.506597293477346 21.606551758900025 Q1.523018173877351 26.328069681800002 2.671479816977301 30.349322385999983 Q3.924611587277302 34.386087400599990 7.623861557977311 37.761085438500004 Q10.857813310577345 41.160951853299991 14.605002600877359 42.713467179500014 Q18.576437882777331 44.331453989199986 23.921935907377364 44.452512382400016 Q31.636903103577314 44.427999999999997 37.369075224077285 41.484855501299990 Q37.369075224077285 73.849464006500000 37.269812604477359 73.781756401599978 C40.333812604477323 73.781756401599978 44.163812604477364 73.781756401499990 46.461812604477366 73.781756401499990 C46.461812604477366 55.342445396724997 46.461812604477366 18.463823387175012 46.461812604477366 0.024512382400019 C44.271468106877371 0.024512382400019 39.890779111677382 0.024512382400019 37.700434614077274 0.024512382400019 C37.599664730252364 0.771305376725024 37.398124962602317 2.264891365374979 37.297355078777294 3.011684359699984 z" />
<glyph unicode="e" horiz-adv-x="45.814874136584542" d="M9.824123846132077 25.590402366799999 C15.611636292582070 25.613031677175172 27.186661185482059 25.658290297924793 32.974173631932025 25.680919608299973 Q33.745936176832096 30.220570357600025 31.416208943932055 34.092631658900018 Q28.370909835332078 37.809545501900004 23.369877365832089 37.756896551699981 Q18.303357611132050 37.703558176500053 15.223884425432097 35.302147393200016 Q11.131911577032078 32.050357159700013 9.824123846132103 25.590402366799992 zM14.270727802632077 11.465840836000000 Q16.479059608632078 9.247665190400028 19.521305873032055 7.877997412100001 Q22.412034396632102 6.795558245099983 25.432104479232102 6.702266468199980 Q29.896291378932041 6.564365056399993 32.649123181232120 7.677040474299986 Q38.018925523632028 10.079425134900021 39.485992595332085 13.939114525899981 C39.503400064232132 10.845042210866666 39.525159400357133 6.977451817075007 39.538215002032111 4.656897580799978 Q38.810668871432121 2.678597426400017 33.674534243432085 0.548072065099973 Q29.419412026232102 -0.762374942000065 23.759457729732084 -0.681930011100008 Q19.307571078732089 -0.723420586699945 15.050122842932105 1.050464409600011 Q10.920597401432055 2.715509646200019 7.666705242232105 5.983906325199996 Q4.490000968732069 9.102540821800005 2.733263326632063 13.367323925899996 Q0.989618534132070 17.465092140100012 1.000868905932101 22.076658812699975 Q0.961164297732047 26.526837157300008 2.733263326632063 30.785993699599999 Q4.380920444432071 34.935299158399971 7.666705242232105 38.169411300299998 Q10.813398959832092 41.253118866699992 15.050122842932105 43.102853215899984 Q18.839043290032102 44.373023235900007 23.397388764232097 44.292144188199984 Q43.453325641732057 44.065931034500068 41.734689346832091 20.743049550699993 C31.224979414365443 20.691725774299925 18.087841998782075 20.627571053800068 10.205559549432088 20.589078221500017 Q10.608379404832057 15.273592214400026 14.270727802632088 11.465840835999984 z" />
<glyph unicode="f" horiz-adv-x="31.799999999999997" d="M29.219138756000000 65.791387559800000 Q18.189417035200016 68.675895324500004 17.899419026899999 58.208087530700027 Q17.877740101300013 57.425562066400005 17.838870050650051 50.351753118700003 Q17.799999999999976 43.277944171000001 17.799999999999976 42.358989922700005 C21.233333333333370 42.358989922700005 25.524999999999999 42.358989922700005 28.100000000000044 42.358989922700005 C28.100000000000044 40.925707171400006 28.100000000000044 38.059141668800009 28.100000000000044 36.625858917500011 C25.449999999999953 36.625858917500011 20.149999999999999 36.625858917500011 17.500000000000021 36.625858917500011 Q17.524999999999999 27.469394188100011 17.549999999999976 18.034697094049989 Q17.574999999999953 8.600000000000023 17.600000000000044 0.000000000000000 Q15.200000000000012 0.000000000000000 12.799999999999978 0.000000000000000 Q10.400000000000000 0.000000000000000 8.000000000000023 0.000000000000000 Q8.000000000000023 9.206464729400011 8.000000000000023 18.691161823449988 Q8.000000000000023 28.175858917500022 8.000000000000023 36.825858917500000 Q6.750000000000023 36.825858917500000 5.500000000000023 36.825858917500000 Q4.250000000000023 36.825858917500000 3.000000000000023 36.825858917500000 C3.000000000000023 38.670235919233335 3.000000000000023 40.975707171400018 3.000000000000023 42.358989922700005 C4.349999999999989 42.358989922700005 7.049999999999978 42.358989922700005 8.400000000000000 42.358989922700005 Q8.400000000000000 43.142323255999997 8.424740549999990 48.772871503049998 Q8.449481099999980 54.403419750099999 8.498942936500010 55.135398519100022 Q8.834662739299995 60.104910722800014 10.271429730300008 63.852286067100010 Q11.708196721300022 67.599661411400007 13.799999999999978 69.604306220100000 Q16.299999999999976 72.004306220100034 18.850080472749958 73.068770752299997 Q21.400160945500055 74.133235284500017 24.000000000000021 74.104306220100000 Q27.075676320999968 74.070082394499991 29.373279519800029 73.424293593199991 Q29.296209137899972 69.607840576499996 29.219138756000028 65.791387559800000 z" />
<glyph unicode="g" horiz-adv-x="52.304872878180078" d="M37.812116076780079 28.441913406800001 Q37.803724915680057 32.429890198599992 31.941155794680078 35.466965405999986 Q29.649613086780057 36.744486465399973 25.101034458580109 36.848629380899979 Q21.962801087480109 36.920481447100030 19.768090155980083 35.969357750500023 Q16.862635332580119 34.764579943800015 14.735949083080079 32.606988582600025 Q12.507205027680079 30.392002636299992 11.373579915280068 27.574847509800009 Q10.165812348680056 24.672035054700018 10.192872878180090 21.639032393799994 Q10.185205228680054 18.496036112299976 11.373579915280068 15.703217277799979 Q12.570877985180068 12.796570060299985 14.735949083080079 10.671076204899975 Q16.953627300280125 8.443512485700012 19.768090155980083 7.308707037100021 Q22.669738321080111 6.099722250900015 25.703905271980041 6.127999999999986 Q28.882492237280083 6.041529308300028 31.639720387980113 7.308707037100021 Q34.756993571880123 8.949179234600024 36.671861460780072 11.474903956099979 Q37.170270350080052 12.132308918799993 37.641962972580025 12.796939044300018 C37.698680673980114 18.011930498466654 37.769577800730083 24.530669816175021 37.812116076780065 28.441913406799983 zM32.589604128680079 0.475123956000000 Q28.443619628280096 -1.194201492499985 23.846833501680074 -1.263921246899997 Q19.377855749280123 -1.305571107799949 15.104062874580116 0.475123956000004 Q10.958683898780073 2.146561416599980 7.692299822080094 5.427505697000015 Q4.503399960680105 8.558112847600000 2.739918081080083 12.839268749499979 Q0.989579315380076 16.952768579900010 1.000872878180082 21.582039376500006 Q0.961015841180092 26.049302264199980 2.739918081080083 30.324810003600021 Q4.409617042680060 34.474154383600023 7.692299822080094 37.736573056099985 Q10.823118121180080 40.918186927299985 15.104062874580116 42.688954797099996 Q19.221848390180078 44.402849155500007 23.846833501680074 44.427999999999997 Q28.344644973480065 44.452459269399867 32.589604128680101 42.688954797099996 Q36.237092971380100 41.117110067599981 37.724594827880090 39.163692401200024 Q37.724594827880090 40.667056887199976 37.768872878180112 42.896000000000015 Q42.364872878180115 42.896000000000015 46.960872878180119 42.896000000000015 C46.960872878180119 28.597333333333324 46.960872878180119 10.723999999999990 46.960872878180119 0.000000000000000 Q46.499975297580029 -20.526204838900014 22.205448282280038 -20.526204838900014 Q15.019321668480082 -20.526204838900014 5.596872878180085 -16.851999999999975 C6.537064679546751 -14.502068279633306 7.712304431255069 -11.564653629174984 8.417448282280084 -9.802204838900025 Q14.857038604480074 -12.866204838899989 23.818589814180093 -12.866204838899989 Q37.768872878180112 -12.866204838899989 37.768872878180112 0.000000000000000 C37.755263486280121 1.106403409966674 37.738251746405133 2.489407672424989 37.728044702480027 3.319210229900023 Q34.921213075680051 1.385368425399975 32.589604128680101 0.475123956000004 z" />
<glyph unicode="h" horiz-adv-x="46.919526627199993" d="M42.146551724100000 29.832388965100002 Q42.176177647900040 22.208747076800023 42.131959851149936 14.549641289900023 Q42.087742054399946 6.890535503000024 42.087742054399946 0.000000000000000 C39.114259295766665 0.000000000000000 35.397405847475007 0.000000000000000 33.167293778499989 0.000000000000000 C33.208362850924978 6.601872706974973 33.290500995774956 19.805618120924976 33.331570068199945 26.407490827900006 Q33.353668033300046 28.348663906299976 32.601383785600042 30.078385162900020 Q31.845804240200049 31.872046699699979 30.521989180299965 33.190419112100017 Q28.993323835599949 34.831412739600012 26.504782817299951 35.657744751899997 Q24.668426743399959 36.143778445599992 22.316647102999990 36.000000000000000 Q20.378309324499991 35.881497744099988 18.645752768100021 35.269813717399984 Q16.848279574100001 34.526307794700017 14.809580887899994 33.190419112100017 Q13.841028000800019 32.273623967999981 13.206898051300026 31.127162031299974 Q13.205616836300020 28.450262493100013 13.198808418150019 18.207754619599996 Q13.192000000000018 7.965246746099979 13.192000000000018 0.000000000000000 Q10.894000000000016 0.000000000000000 8.596000000000014 0.000000000000000 Q6.298000000000012 0.000000000000000 4.000000000000010 0.000000000000000 Q4.000000000000010 10.723999999999990 4.000000000000010 35.866103448300009 Q4.000000000000010 61.008206896599972 4.000000000000010 71.732206896600019 Q6.298000000000012 71.732206896600019 8.596000000000014 71.732206896600019 Q10.894000000000016 71.732206896600019 13.192000000000018 71.732206896600019 Q13.192000000000018 70.767548018100001 13.192000000000018 55.083247344100016 Q13.192000000000018 39.398946670100031 13.192000000000018 38.405676019900000 Q14.757300511499988 40.309244832899992 16.085926853099988 41.171486332500024 Q18.819790331700016 42.773955822700032 20.869507720999945 43.319518558500022 Q24.178847398600009 44.046060620999981 27.203078620100040 44.000000000000000 Q30.858534060200054 43.925739921900004 33.400650708399958 42.921554824800012 Q36.046044148099959 41.927155698399986 37.996954525200017 39.850402801100017 Q42.043618017200011 35.448734238599968 42.146551724100000 29.832388965099994 z" />
<glyph unicode="i" horiz-adv-x="20.581034482758632" d="M4.000000000000000 54.500000000000000 Q4.000000000000023 56.800000000000011 5.650000000000000 58.149999999999977 Q7.299999999999978 59.500000000000000 9.200000000000012 59.500000000000000 Q11.200000000000012 59.600000000000023 12.849999999999989 58.300000000000011 Q14.500000000000023 57.000000000000000 14.500000000000023 54.600000000000023 Q14.500000000000023 52.100000000000023 12.849999999999989 50.649999999999977 Q11.200000000000012 49.199999999999989 9.200000000000012 49.199999999999989 Q7.299999999999978 49.199999999999989 5.650000000000000 50.600000000000023 Q4.000000000000023 52.000000000000000 4.000000000000023 54.500000000000000 zM4.800000000000001 42.921999999999997 C7.099999999999989 42.922000000000025 11.700000000000012 42.922000000000025 14.000000000000023 42.922000000000025 C14.000000000000023 32.141500000000008 14.000000000000023 10.580499999999972 14.000000000000023 -0.199999999999989 C11.750000000000023 -0.199999999999989 7.250000000000023 -0.199999999999989 5.000000000000023 -0.199999999999989 C4.950000000000012 10.580499999999972 4.849999999999989 32.141500000000008 4.799999999999978 42.922000000000025 z" />
<glyph unicode="j" horiz-adv-x="20.699999999999999" d="M5.100000000000000 54.500000000000000 Q5.100000000000023 56.800000000000011 6.750000000000000 58.149999999999977 Q8.399999999999977 59.500000000000000 10.300000000000011 59.500000000000000 Q12.300000000000011 59.600000000000023 13.949999999999989 58.300000000000011 Q15.600000000000023 57.000000000000000 15.600000000000023 54.600000000000023 Q15.600000000000023 52.100000000000023 13.949999999999989 50.649999999999977 Q12.300000000000011 49.199999999999989 10.300000000000011 49.199999999999989 Q8.399999999999977 49.199999999999989 6.750000000000000 50.600000000000023 Q5.100000000000023 52.000000000000000 5.100000000000023 54.500000000000000 zM5.900000000000000 43.000000000000000 C8.199999999999989 43.000000000000000 12.800000000000011 43.000000000000000 15.100000000000023 43.000000000000000 C15.074999999999989 27.274499999999989 15.024999999999977 -4.176499999999976 15.000000000000000 -19.901999999999987 C12.725000000000023 -19.901999999999987 8.175000000000011 -19.901999999999987 5.899999999999977 -19.901999999999987 C5.899999999999977 -4.176499999999976 5.899999999999977 27.274499999999989 5.899999999999977 43.000000000000000 z" />
<glyph unicode="k" horiz-adv-x="46.960084608590137" d="M14.300000000000001 74.799999999999997 C14.274999999999977 62.050000000000011 14.225000000000023 36.550000000000011 14.199999999999989 23.800000000000011 C15.574999999999989 25.175000000000011 18.325000000000045 27.925000000000011 19.700000000000045 29.300000000000011 C23.000000000000000 32.600000000000023 29.600000000000023 39.199999999999989 32.899999999999977 42.500000000000000 C35.850000000000023 42.475000000000023 41.750000000000000 42.425000000000011 44.700000000000045 42.399999999999977 C39.799999999999955 37.475000000000023 30.000000000000000 27.625000000000000 25.100000000000023 22.699999999999989 C30.750000000000000 17.024999999999977 42.049999999999955 5.675000000000011 47.700000000000045 0.000000000000000 C44.750000000000000 -0.024999999999977 38.850000000000023 -0.074999999999989 35.899999999999977 -0.100000000000023 C31.850000000000023 3.949999999999989 23.750000000000000 12.050000000000011 19.700000000000045 16.100000000000023 C18.325000000000045 17.475000000000023 15.574999999999989 20.225000000000023 14.199999999999989 21.600000000000023 C14.199999999999989 16.199999999999989 14.199999999999989 5.399999999999977 14.199999999999989 0.000000000000000 C11.875000000000000 0.000000000000000 7.225000000000023 0.000000000000000 4.899999999999977 0.000000000000000 C4.925000000000011 18.699999999999989 4.974999999999966 56.100000000000023 5.000000000000000 74.800000000000011 C7.324999999999989 74.800000000000011 11.975000000000023 74.800000000000011 14.300000000000011 74.800000000000011 z" />
<glyph unicode="l" horiz-adv-x="18.777172413800002" d="M4.000000000000002 73.794620689699997 C3.999999999999971 55.345965517274976 4.000000000000028 18.448655172424992 4.000000000000028 0.000000000000000 C6.238275862075027 0.000000000000000 10.714827586225027 0.000000000000000 12.953103448300027 0.000000000000000 C12.953103448300027 18.448655172424992 12.953103448299970 55.345965517274976 12.953103448300027 73.794620689699968 C10.714827586225027 73.794620689699968 6.238275862075027 73.794620689699968 4.000000000000028 73.794620689699968 z" />
<glyph unicode="m" horiz-adv-x="73.065517241379297" d="M13.337990614179301 0.000000000000000 Q11.039990614179315 0.000000000000000 8.741990614179313 0.000000000000000 Q6.443990614179311 0.000000000000000 4.145990614179309 0.000000000000000 Q4.145990614179309 10.723999999999990 4.145990614179309 21.447999999999979 Q4.145990614179309 32.172000000000025 4.145990614179309 42.896000000000015 Q6.443990614179311 42.896000000000015 8.741990614179313 42.896000000000015 Q11.039990614179315 42.896000000000015 13.337990614179317 42.896000000000015 Q13.337990614179317 41.931341121499997 13.337990614179317 40.923764585449987 Q13.337990614179317 39.916188049399977 13.337990614179317 38.922917399200003 Q14.308463539479304 40.167003453599989 15.507779536279314 40.899934608400031 Q17.517505083779326 42.502404098599982 20.291360404179272 43.319518558500022 Q23.406734564579324 44.046060620999981 26.430965786079355 44.000000000000000 Q29.193569076579251 43.957924109000032 31.852675805379249 42.921554824800012 Q34.440597170279261 41.893509663500026 36.448979622179309 39.850402801100017 Q37.582475735779326 38.658491576299980 38.417880091579264 37.337991278099992 Q39.783008093979333 39.016336503700018 42.401951668479342 40.930882260799990 Q45.073713384479333 42.487011111500010 47.969755187979331 43.416793499700020 Q50.644974382079340 44.163326813200001 53.590447074079293 44.030947652400016 Q57.245151111679320 44.015317625699936 59.826812265779267 42.952502477200028 Q62.401784754779328 41.892440910300024 64.423116082579327 39.881350453499977 Q66.378318471579291 37.934186556800000 67.494268106279264 35.285046636700031 Q68.605350766479319 32.730343011000002 68.572713281479309 29.863336617500011 Q68.602339205279350 22.239694729199982 68.558121408529360 14.580588942299983 Q68.513903611779256 6.921483155399983 68.513903611779256 0.030947652400016 C65.540420853145974 0.030947652400016 61.823567404854316 0.030947652400016 59.593455335879298 0.030947652400016 C59.634524408304287 6.632820359374989 59.716662553154265 19.836565773324992 59.757731625579254 26.438438480300022 Q59.779829590679356 28.379611558699992 59.027545342979352 30.109332815299979 Q58.271965797579355 31.902994352099995 56.948150737679271 33.221366764499976 Q55.547736872679252 34.740902898800016 53.021461616079250 35.572313093899993 Q51.172204811879283 36.180913030300019 49.350567281079293 36.030947652400016 Q47.408633489379326 36.040396297100017 45.227086739279343 35.300761369800000 Q43.429613545279267 34.557255447099976 42.115052790079289 33.221366764499976 Q41.079375701279332 32.206945142400002 40.470278971279299 31.130256769600010 Q40.596709334379284 30.611307838299979 40.598576821079291 29.832388965099994 Q40.628202744879331 22.208747076800023 40.583984948129341 14.549641289900023 Q40.539767151379351 6.890535503000024 40.539767151379351 0.000000000000000 C37.566284392745956 0.000000000000000 33.849430944454298 0.000000000000000 31.619318875479280 0.000000000000000 C31.660387947904269 6.601872706974973 31.742526092754247 19.805618120924976 31.783595165179349 26.407490827900006 Q31.805693130279337 28.348663906299976 31.053408882579333 30.078385162900020 Q30.297829337179337 31.872046699699979 28.974014277279252 33.190419112100017 Q27.614192424279281 34.573751931499999 25.861980328079312 35.269813717399984 Q24.061755216879305 36.010984520499960 21.738499786179318 36.000000000000000 Q19.796565994479295 36.009448644700001 18.067605451279292 35.269813717399984 Q16.270132257279329 34.526307794700017 14.955571502079293 33.190419112100017 Q13.987018614979318 32.273623967999981 13.352888665479325 31.127162031299974 Q13.349164152679291 23.345371523399990 13.343577383429304 15.501350355499994 Q13.337990614179317 7.657329187599998 13.337990614179317 0.000000000000000 z" />
<glyph unicode="n" horiz-adv-x="46.919526627199993" d="M41.810344827599998 29.017733792700000 Q41.839970751400024 21.394091904400000 41.886270196000005 14.142313703699983 Q41.932569640599986 6.890535503000024 41.932569640599986 0.000000000000000 C38.959086881966705 0.000000000000000 35.242233433675047 0.000000000000000 33.012121364700029 0.000000000000000 Q33.053190437200051 6.601872706999984 33.007134460399989 11.893156559549993 Q32.961078483600041 17.184440412100003 32.904845930300048 24.325594276199979 Q32.739305621599961 26.931520079899997 31.993625164900049 29.897350680099976 Q31.455927856600010 32.035959941600026 30.276299525200056 33.733522560399990 Q28.932537224499992 35.231635823600016 26.168575920800048 35.812917165700014 Q24.292023993600036 36.138617159399985 22.316647102999990 36.000000000000000 Q20.379454012999997 35.864062293799975 18.645752768100021 35.269813717399984 Q16.848279574100001 34.526307794700017 14.809580887899994 33.190419112100017 Q13.841028000800019 32.273623967999981 13.206898051300026 31.127162031299974 Q13.203173538499993 23.345371523399990 13.197586769250005 15.501350355499994 Q13.192000000000018 7.657329187599998 13.192000000000018 0.000000000000000 Q10.894000000000016 0.000000000000000 8.596000000000014 0.000000000000000 Q6.298000000000012 0.000000000000000 4.000000000000010 0.000000000000000 Q4.000000000000010 10.723999999999990 4.000000000000010 21.447999999999979 Q4.000000000000010 32.172000000000025 4.000000000000010 42.896000000000015 Q6.298000000000012 42.896000000000015 8.596000000000014 42.896000000000015 Q10.894000000000016 42.896000000000015 13.192000000000018 42.896000000000015 Q13.192000000000018 41.931341121499997 13.192000000000018 40.923764585449987 Q13.192000000000018 39.916188049399977 13.192000000000018 38.922917399200003 Q14.886610856299978 40.438555177699982 16.085926853099988 41.171486332500024 Q18.819790331700016 42.773955822700032 20.869507720999945 43.319518558500022 Q23.532295674499959 44.046060620999981 26.556526895999991 44.000000000000000 Q30.030947853300017 43.925739921900004 32.611857605000019 42.921554824800012 Q35.227213168999988 41.812495876299977 37.208161421799964 39.850402801100017 Q41.863463832200019 35.329066437300014 41.810344827599984 29.017733792700028 z" />
<glyph unicode="o" horiz-adv-x="49.980538393547533" d="M45.907778768200004 12.896266162600000 Q44.064685965400038 8.665648192999981 40.960478353900051 5.492107852999993 Q37.690564852100017 2.248830192599996 33.556320044399975 0.544807438699991 Q29.273231318700034 -1.162780123199980 24.822519823199976 -1.192453439500014 Q20.217541795800010 -1.157272067799965 16.088719601999976 0.544807438699991 Q11.847608222900028 2.356592757899989 8.684561292500014 5.492107852999993 Q5.460196591999995 8.776184803499973 3.737260878200011 12.896266162600000 Q2.015833890100004 17.176427181999998 2.000000000000006 21.630066383700012 Q2.044286725599995 26.230710804400019 3.737260878200011 30.363866604900011 Q5.545348516099984 34.613347704299997 8.684561292500014 37.768024914500018 Q11.966141806300023 40.982177622899997 16.088719601999976 42.715325328699976 Q20.378716440700039 44.448799833000237 24.822519823199976 44.452586206899980 Q29.405503620800012 44.399787492100018 33.556320044399975 42.715325328699976 Q37.821936106900019 40.915787736200002 40.960478353900051 37.768024914500018 Q44.135526106599976 34.486826258099995 45.907778768200053 30.363866604900011 Q47.650857515300011 26.213435692400026 47.645039646399944 21.630066383700012 Q47.639221777499991 17.046697075099985 45.907778768200053 12.896266162600000 zM29.066420292500002 5.851643678700000 Q32.130790407400021 7.185947773299972 34.619903694900025 9.562362654299989 Q36.848472025100030 11.997424005699997 38.330622670500027 15.115846056800024 Q39.485199661800046 18.238027743700002 39.633653892900050 21.666626380600007 Q39.508507057300001 25.130686428800004 38.330622670500027 28.217406704300004 Q36.817695618500018 31.418229618499993 34.619903694900025 33.770890106799982 Q32.028694824399970 36.239473669199981 29.066420292499977 37.481609082399984 Q25.205925681400011 38.772719216099972 21.560616092599965 37.481609082399984 Q18.352991204100029 36.154808710400005 16.007132690099986 33.770890106799982 Q13.547485207899975 31.326426108000021 12.296413714499984 28.217406704300004 Q10.963518424399986 25.013855659900003 10.993382492200006 21.666626380600007 Q10.984920455100003 18.198007867999991 12.296413714499984 15.115846056800024 Q13.617754842100005 11.908062959000006 16.007132690099986 9.562362654299989 Q18.454567885699994 7.104017794100002 21.560616092599965 5.851643678699986 Q25.620992247100055 4.519256109100013 29.066420292499977 5.851643678699986 z" />
<glyph unicode="p" horiz-adv-x="53.304000000000009" d="M13.318909905600002 12.796939044300000 Q13.790602528100015 12.132308918799993 14.289011417399996 11.474903956099979 Q16.203879306300003 8.949179234600024 19.321152490200014 7.308707037100021 Q22.078380640900043 6.041529308300028 25.256967606199971 6.127999999999986 Q28.291134557100015 6.099722250900015 31.192782722200043 7.308707037100021 Q34.007245577900001 8.443512485700012 36.224923795100047 10.671076204899975 Q38.389994893000001 12.796570060299985 39.587292962899944 15.703217277799979 Q40.775667649499958 18.496036112299976 40.768000000000036 21.639032393799994 Q40.795060529500013 24.672035054700018 39.587292962899944 27.574847509800009 Q38.453667850499990 30.392002636299992 36.224923795100047 32.606988582600025 Q34.098237545600007 34.764579943800015 31.192782722200043 35.969357750500023 Q28.998071790700017 36.920481447099974 25.859838419600017 36.848629380899979 Q21.311259791399955 36.744486465399973 19.019717083500048 35.466965405999986 Q13.157147962500011 32.429890198599992 13.148756801400003 28.441913406799983 C13.205474502799978 23.226921952633347 13.276371629550004 16.708182634924981 13.318909905599986 12.796939044300018 zM13.232828175700002 3.319210229900000 C13.222621131774991 -2.394064253824979 13.202207043925005 -13.820613221274982 13.192000000000013 -19.533887704999984 C10.894000000000011 -19.533887704999984 6.298000000000007 -19.533887704999984 4.000000000000005 -19.533887704999984 C4.000000000000005 -3.926415778750027 4.000000000000005 27.288528073750001 4.000000000000005 42.896000000000015 Q8.596000000000009 42.896000000000015 13.192000000000013 42.896000000000015 Q13.236278050299978 40.667056887199976 13.236278050299978 39.163692401200024 Q14.723779906800024 41.117110067599981 18.371268749500025 42.688954797099996 Q22.616227904700061 44.452459269399867 27.114039376500052 44.427999999999997 Q31.739024488000048 44.402849155500007 35.856810003600010 42.688954797099996 Q40.137754757000046 40.918186927299985 43.268573056099974 37.736573056099985 Q46.551255835500008 34.474154383600023 48.220954797100042 30.324810003600021 Q49.999857036999977 26.049302264199980 49.960000000000043 21.582039376500006 Q49.971293562800049 16.952768579900010 48.220954797100042 12.839268749499979 Q46.457472917500020 8.558112847600000 43.268573056099974 5.427505697000015 Q40.002188979399996 2.146561416599980 35.856810003600010 0.475123956000004 Q31.583017128900003 -1.305571107799949 27.114039376500052 -1.263921246899997 Q22.517253249900030 -1.194201492499985 18.371268749500025 0.475123956000004 Q16.039659802500019 1.385368425399975 13.232828175699984 3.319210229900023 z" />
<glyph unicode="q" horiz-adv-x="53.900000000000006" d="M36.407243198600000 28.441913406800001 Q36.398852037499978 32.429890198599992 30.536282916499999 35.466965405999986 Q28.244740208599978 36.744486465399973 23.696161580400030 36.848629380899979 Q20.557928209300030 36.920481447100030 18.363217277800004 35.969357750500023 Q15.457762454400040 34.764579943800015 13.331076204900000 32.606988582600025 Q11.102332149500000 30.392002636299992 9.968707037099989 27.574847509800009 Q8.760939470499977 24.672035054700018 8.788000000000011 21.639032393799994 Q8.780332350499975 18.496036112299976 9.968707037099989 15.703217277799979 Q11.166005106999989 12.796570060299985 13.331076204900000 10.671076204899975 Q15.548754422100046 8.443512485700012 18.363217277800004 7.308707037100021 Q21.264865442900032 6.099722250900015 24.299032393799962 6.127999999999986 Q27.477619359100004 6.041529308300028 30.234847509800034 7.308707037100021 Q33.352120693700044 8.949179234600024 35.266988582599993 11.474903956099979 Q35.765397471899973 12.132308918799993 36.237090094399946 12.796939044300018 C36.293807795800035 18.011930498466654 36.364704922550004 24.530669816175021 36.407243198599986 28.441913406799983 zM31.184731250500000 0.475123956000000 Q27.038746750100017 -1.194201492499985 22.441960623499995 -1.263921246899997 Q17.972982871100044 -1.305571107799949 13.699189996400037 0.475123956000004 Q9.553811020599994 2.146561416599980 6.287426943900016 5.427505697000015 Q3.098527082500027 8.558112847600000 1.335045202900005 12.839268749499979 Q-0.415293562800002 16.952768579900010 -0.403999999999996 21.582039376500006 Q-0.443857036999987 26.049302264199980 1.335045202900005 30.324810003600021 Q3.004744164499982 34.474154383600023 6.287426943900016 37.736573056099985 Q9.418245243000001 40.918186927299985 13.699189996400037 42.688954797099996 Q17.816975511999999 44.402849155500007 22.441960623499995 44.427999999999997 Q26.939772095299986 44.452459269399867 31.184731250500022 42.688954797099996 Q34.832220093200021 41.117110067599981 36.319721949700011 39.163692401200024 Q36.319721949700011 40.667056887199976 36.364000000000033 42.896000000000015 Q40.960000000000036 42.896000000000015 45.556000000000040 42.896000000000015 C45.556000000000040 22.086037431666682 45.556000000000040 -3.926415778750027 45.556000000000040 -19.533887704999984 C43.258000000000038 -19.533887704999984 38.662000000000035 -19.533887704999984 36.364000000000033 -19.533887704999984 C36.353792956075040 -13.820613221274982 36.333378868225054 -2.394064253824979 36.323171824299948 3.319210229900023 Q33.516340197499972 1.385368425399975 31.184731250500022 0.475123956000004 z" />
<glyph unicode="r" horiz-adv-x="30.321158123628738" d="M27.015525383200000 34.835245689700002 Q27.042700174699984 34.969766347399968 24.594732279699951 35.394280172399988 Q19.891882707199965 35.539285767600006 16.189686310000024 32.094332632200008 Q14.749020785600020 30.753770251700018 13.870363195999982 28.298887155300008 Q13.258360651099974 26.015406422500007 13.198601733200018 23.193897504199981 C13.195906902599983 15.462598336133340 13.192538364350025 5.798474376050024 13.190517241400027 0.000000000000000 C10.917887931050029 0.000000000000000 6.372629310349974 0.000000000000000 4.099999999999976 0.000000000000000 C4.074999999999998 10.725000000000023 4.024999999999987 32.175000000000011 4.000000000000010 42.899999999999977 C6.234482758625016 42.899999999999977 10.703448275875029 42.899999999999977 12.937931034499979 42.899999999999977 C12.958189655199998 41.519396551724981 12.998706896599980 38.758189655174988 13.018965517300000 37.377586206899991 C12.998706896599980 36.474784482750010 12.958189655199998 34.669181034449991 12.937931034499979 33.766379310300010 Q14.627766352899993 40.996844598899997 19.861206896599992 42.918965517199979 Q23.133826051799996 43.878990851200001 27.025000000000045 43.262891449700021 C27.021841794400029 40.453676196366644 27.017894037400037 36.942157129699979 27.015525383199996 34.835245689700002 z" />
<glyph unicode="s" horiz-adv-x="34.790004020190501" d="M19.175714827538030 36.616379310399999 Q11.975065542038051 36.749443068400012 12.024852758538016 32.362068965599974 Q12.080713136138042 27.629783445800001 18.904163103338004 25.663793103399996 Q24.790532582938038 23.733537969599979 28.197325578338035 20.024413498599984 Q32.453514154438082 15.900198844300007 32.210197586137994 11.271551724099993 Q31.501973433038000 3.635149200499995 26.452125324737988 0.616973337300010 Q22.735194146638076 -1.566645782899968 17.093818275738084 -1.310344827599977 Q9.627970849938022 -0.971153844599996 3.425714827538042 2.581896551700027 C3.425714827538042 5.357758620666687 3.425714827538042 8.827586206875026 3.425714827538042 10.909482758600006 Q9.880720491938048 5.972530408699981 16.369680344737997 6.021551724099993 Q23.902922556138076 6.078462145900119 23.792094137838074 11.633620689700024 Q23.726485390338024 15.561341802100003 16.188645862038054 18.060344827599977 Q9.955599736738050 20.041884252399996 6.710337008938025 23.413444119100006 Q3.383437450238018 26.693505615599975 3.425714827538042 32.000000000000000 Q3.468795921538044 37.407373822799968 6.535193791338015 40.266061226399984 Q10.502634040538039 43.873263728300060 19.718818275738084 43.676724137999997 Q26.011673780038034 43.445763764200024 29.404163103338004 40.237068965599974 C29.343818275771394 37.612068965599974 29.268387241313047 34.330818965599974 29.223128620638061 32.362068965599974 Q24.789021174437988 36.511789611999973 19.175714827537984 36.616379310400021 z" />
<glyph unicode="t" horiz-adv-x="31.0433110048" d="M19.961569378000000 42.656816399400000 C21.895235439708618 42.656816399399986 25.762567563125831 42.656816399399986 27.696233624834495 42.656816399399986 C27.683233624834461 41.173218313275015 27.657233624834507 38.206022141025016 27.644233624834474 36.722424054899989 C27.644233624834474 36.722424054899989 27.644233624834474 36.722424054899989 27.644233624834474 36.722424054899989 C25.685567563125833 36.722424054899989 21.768235439708608 36.722424054899989 19.809569378000024 36.722424054899989 Q19.678406698600018 30.337022140999977 19.555409681599972 18.268720762050009 Q19.432412664599983 6.200419383099984 19.510698564600009 0.072095693800009 C16.513684210533345 0.055942583766694 12.767416267949987 0.035751196225021 10.519655502400017 0.023636363700007 C10.467133971300004 9.248333286499985 10.362090909099980 27.697727132099999 10.309569378000024 36.922424054899977 C8.732177033499998 36.922424054899977 5.577392344500002 36.922424054899977 3.999999999999976 36.922424054899977 C4.013000000000010 38.356022141024994 4.039000000000020 41.223218313274970 4.051999999999997 42.656816399399986 C5.687827751199994 42.648773337199998 8.959483253599988 42.632687212800022 10.595311004799985 42.624644150599977 C10.595311004799985 42.624644150599977 10.595311004799985 42.624644150599977 10.595311004799985 42.624644150599977 C10.611875598100003 45.799807439949973 10.645004784699982 52.150134018650022 10.661569377999999 55.325297308000017 C12.986569377999988 55.325297308000017 17.636569378000022 55.325297308000017 19.961569378000011 55.325297308000017 Q19.961569378000011 49.982113707499991 19.961569378000011 42.656816399399986 z" />
<glyph unicode="u" horiz-adv-x="51.302005110956529" d="M4.004759935656526 19.679500332700002 Q4.004759935656551 33.679500332700002 4.104759935656517 35.379500332699990 Q4.104759935656517 37.560534815499977 4.104759935656517 42.860534815499989 Q7.238093269056520 42.860534815499989 13.504759935656551 42.860534815499989 Q13.504759935656551 42.860534815499989 13.504759935656551 42.860534815499989 Q13.252940803856490 26.339201572700006 13.142690970156508 22.309672746499984 Q13.588881260856539 7.297121876999995 24.977883109456485 7.579267545499988 Q36.907552372956530 7.874807449199977 36.535252948156568 22.184746370399978 C36.465169670289839 29.089830913599997 36.377565572956570 37.721186592600020 36.325003114556495 42.899999999999977 C36.325003114556495 42.899999999999977 36.325003114556495 42.899999999999977 36.325003114556495 42.899999999999977 C38.517315739331508 42.899999999999977 42.901940988881535 42.899999999999977 45.094253613656548 42.899999999999977 C45.055235008581491 36.972952586199995 44.977197798431490 25.118857758600029 44.938179193356547 19.191810344799990 Q44.957415009956577 15.102237252199984 43.383946111456481 11.378152992299988 Q41.812371936156552 7.658553160899999 38.957864763356525 4.754054140700021 Q36.185202982756579 1.919507614999986 32.333765911756501 0.327972792600008 Q28.586675019856472 -1.243072292100010 23.914423693156579 -1.222519785700001 Q20.235129839056555 -1.206335144700006 16.706451206656510 0.327972792600008 Q13.001610682456516 1.821782954299977 10.082352355156530 4.754054140700021 Q7.232343826756534 7.551964851600019 5.656271007056517 11.378152992299988 Q3.910910071056520 15.507088444200008 4.004759935656551 19.679500332700002 z" />
<glyph unicode="v" horiz-adv-x="46.700000000000003" d="M44.433620689700000 42.899999999999999 C39.075215517274955 31.250000000000000 28.358405172425023 7.949999999999989 23.000000000000000 -3.699999999999989 C17.343750000000000 7.899999999999977 6.031250000000000 31.100000000000023 0.375000000000000 42.699999999999989 C2.774999999999977 42.724999999999966 7.574999999999989 42.774999999999977 9.975000000000023 42.800000000000011 C12.594620901649989 37.291999717349995 17.833862704949979 26.275999152050019 20.453483606600003 20.767998869400003 C21.092483394599981 18.879016393424990 22.370482970600051 15.101051441475022 23.009482758600029 13.212068965500009 C23.617549362675049 15.040111812900022 24.833682570824976 18.696197507699992 25.441749174899996 20.524240355100005 C27.914717053600043 26.143180266324975 32.860652811000023 37.381060088775030 35.333620689699956 43.000000000000000 C37.608620689700047 42.975000000000023 42.158620689700001 42.924999999999955 44.433620689699978 42.899999999999977 z" />
<glyph unicode="w" horiz-adv-x="72.700000000000003" d="M35.333620689699998 43.000000000000000 Q32.860652811000023 37.381060088799984 30.387684932299976 31.762120177550003 Q27.914717053600043 26.143180266300021 25.441749174899996 20.524240355100005 C24.630993702799969 18.086849891899988 23.617549362675049 15.040111812900022 23.009482758600029 13.212068965500009 C22.370482970600051 15.101051441475022 21.092483394599981 18.879016393424990 20.453483606600003 20.767998869400003 C17.833862704949979 26.275999152050019 12.594620901649989 37.291999717349995 9.975000000000023 42.800000000000011 C7.574999999999989 42.774999999999977 2.774999999999977 42.724999999999966 0.375000000000000 42.699999999999989 C6.031250000000000 31.100000000000023 17.343750000000000 7.899999999999977 23.000000000000000 -3.699999999999989 Q26.194360183200047 3.482840786599979 29.524496228449948 10.767513469800008 Q32.854632273699963 18.052186152999980 35.777440732799960 25.031363146600029 Q39.374894845600011 18.045398582000018 42.534802767650035 10.693552649549986 Q45.694710689700059 3.341706717100010 49.080911715299976 -3.602811629200005 Q54.439316887699988 8.047188370799972 59.797722060100000 19.697188370800006 Q65.156127232500012 31.347188370799984 70.514532404999954 42.997188370800018 Q68.239532404999977 43.022188370799995 65.964532405000000 43.047188370800029 Q63.689532405000023 43.072188370800006 61.414532405000045 43.097188370799984 Q58.941564526299999 37.478248459600024 56.468596647599952 31.859308548349986 Q53.995628768900019 26.240368637100005 51.522660890199973 20.621428725899989 C50.349836452566706 18.606452055799991 48.883805905525037 16.087731218175009 48.004187577299945 14.576498715599996 C47.319929168599970 16.555998432949991 45.951412351200020 20.514997867649981 45.267153942500045 22.494497584999976 Q42.783770629299966 27.620873188799976 40.231806795500006 32.753953052249983 Q37.679842961700047 37.887032915699990 35.333620689699956 43.000000000000000 z" />
<glyph unicode="x" horiz-adv-x="55.796000000000006" d="M6.128000000000000 0.000000000000000 C10.318370689650006 5.362000000000023 18.699112068949997 16.086000000000013 22.889482758600021 21.447999999999979 C18.812258620674978 26.810000000000002 10.657810344825005 37.533999999999992 6.580586206900019 42.896000000000015 C9.115905172425013 42.894629310350183 14.186543103475000 42.891887931049837 16.721862068999993 42.890517241400005 C19.555698275899996 39.182974137949998 25.223370689700001 31.767887931049984 28.057206896599947 28.060344827599977 C31.031905172450021 31.769258620699986 36.981301724149944 39.187086206900005 39.956000000000017 42.896000000000015 C42.741775862074974 42.896000000000015 48.313327586225000 42.896000000000015 51.099103448299957 42.896000000000015 C46.886103448299991 37.511370689649993 38.460103448300060 26.742112068950007 34.247103448299981 21.357482758599986 C38.595879310375039 16.018112068950018 47.293431034525042 5.339370689650025 51.642206896599987 0.000000000000000 C48.977206896600023 0.000000000000000 43.647206896599982 0.000000000000000 40.982206896600019 0.000000000000000 C37.839103448299966 3.804741379300026 31.552896551699970 11.414224137900021 28.409793103400030 15.218965517199990 C25.625094827550011 11.436853448250019 20.055698275849974 3.872629310350021 17.271000000000011 0.090517241399994 C14.485250000000004 0.067887931049995 8.913749999999990 0.022629310349998 6.127999999999982 0.000000000000000 z" />
<glyph unicode="y" horiz-adv-x="54.706425104300003" d="M20.725333720300000 0.395877961200000 C19.431800976749990 3.447014448150014 16.844735489649985 9.549287422049986 15.551202746100010 12.600423909000028 C11.913402059575013 20.087530048574990 4.637800686525019 35.061742327725028 1.000000000000021 42.548848467299990 C3.399999999999999 42.573848467299968 8.200000000000010 42.623848467300036 10.599999999999987 42.648848467300013 C13.549665984449994 36.769800979225010 19.448997953350009 25.011706003075005 22.398663937800016 19.132658515000003 C23.365890147674996 17.021802121000007 25.300342567425012 12.800089333000017 26.267568777299992 10.689232939000021 C30.163343443124994 18.766924704250016 37.954892774774997 34.922308234750005 41.850667440599999 43.000000000000000 C44.314606856524982 42.974999999999966 49.242485688374948 42.925000000000011 51.706425104300045 42.899999999999977 C43.812141270174969 27.129741379300015 28.023573601925044 -4.410775862100024 20.129289767800024 -20.181034482799987 C17.459830916974987 -20.185579131124939 12.120913215325025 -20.194668427775071 9.451454364499988 -20.199213076100023 C12.269924203450010 -15.050440316774996 17.906863881349999 -4.752894798124998 20.725333720300021 0.395877961199972 z" />
<glyph unicode="z" horiz-adv-x="42.070689655199999" d="M3.361206896600001 36.410344827599999 C3.338577586250007 38.043534482774987 3.293318965550010 41.309913793125020 3.270689655200012 42.943103448300008 C12.412500000025002 42.920474137949839 30.696120689675038 42.875215517250183 39.837931034500023 42.852586206900014 C38.668965517249966 40.963362068975016 36.331034482749963 37.184913793125020 35.162068965500019 35.295689655200022 C30.124784482775024 28.101293103474973 20.050215517325025 13.712500000024988 15.012931034600026 6.518103448299996 C20.916594827700035 6.518103448299996 32.723922413900048 6.518103448299996 38.627586206999943 6.518103448299996 C38.582327586299947 4.888577586224983 38.491810344899953 1.629525862075013 38.446551724199956 0.000000000000000 C29.334913793150033 0.000000000000000 11.111637931050009 0.000000000000000 2.000000000000024 0.000000000000000 Q11.612655583900018 14.516858544900003 16.242210797250006 20.883827290300019 Q20.871766010600052 27.250796035699977 27.343389163500003 36.666291266000030 C19.349328407866690 36.580975786533315 9.356752463325019 36.474331437200021 3.361206896600005 36.410344827599999 z" />
<glyph unicode="{" horiz-adv-x="27.576000000000001" d="M1.502731369200000 33.970134822299997 Q8.618194839599987 30.375161449299981 8.570401932899976 26.330834596200020 Q4.993317058400002 8.901340625200021 7.511002849400022 2.092175934699981 Q10.208276440299976 -5.444776166899999 19.771701317599984 -6.583209162300022 Q19.771701317599984 -5.255036748500004 19.771701317599984 -3.926864334699985 Q14.858724665499999 -3.671490808300007 12.936650712800024 2.325593930600007 Q11.042350720899996 8.399151195900004 15.980086359200008 26.267830214699984 Q16.021977179699995 31.309135665300005 9.227701317600001 34.780790837700010 C9.215800878399982 34.932527225199976 9.209850658800001 35.008395418900022 9.192000000000000 35.235999999999990 Q15.986275862099994 38.707655172399996 15.944385041600007 43.748960623000016 Q11.006649403299996 61.617639641799997 12.900949395200023 67.691196907099993 Q14.823023347899998 73.688281646000007 19.735999999999983 73.943655172399986 Q19.735999999999983 75.271827586200004 19.735999999999983 76.600000000000023 Q10.172575122699975 75.461567004599999 7.475301531800021 67.924614903000020 Q4.957615740800001 61.115450212499979 8.534700615299975 43.685956241499980 Q8.558597068700003 41.663792814899978 6.791679427750005 39.753967758399995 Q5.024761786800006 37.844142701900012 1.467030051600027 36.046656015400004 C1.475955380999999 35.527525717199978 1.484880710400027 35.008395418900022 1.502731369200028 33.970134822299997 z" />
<glyph unicode="|" horiz-adv-x="20.699999999999999" d="M15.100000000000000 23.800000000000001 C15.050000000000011 17.850000000000023 14.949999999999989 5.949999999999989 14.899999999999977 0.000000000000000 C12.574999999999989 0.000000000000000 7.925000000000011 0.000000000000000 5.600000000000023 0.000000000000000 C5.600000000000023 17.425000000000011 5.600000000000023 52.274999999999977 5.600000000000023 69.699999999999989 C7.949999999999989 69.699999999999989 12.649999999999977 69.699999999999989 15.000000000000000 69.699999999999989 C15.024999999999977 58.225000000000023 15.074999999999989 35.274999999999977 15.100000000000023 23.800000000000011 z" />
<glyph unicode="}" horiz-adv-x="26.004689655172413" d="M18.200390972772411 36.046656015400004 Q14.642659237572417 37.844142701900012 12.875741596622419 39.753967758399995 Q11.108823955672420 41.663792814899978 11.132720409072391 43.685956241499980 Q14.709805283572422 61.115450212499979 12.192119492572402 67.924614903000020 Q9.494845901672392 75.461567004599999 -0.068578975627561 76.600000000000023 Q-0.068578975627561 75.271827586200004 -0.068578975627561 73.943655172399986 Q4.844397676472425 73.688281646000007 6.766471629172400 67.691196907099993 Q8.660771621072428 61.617639641799997 3.723035982772415 43.748960623000016 Q3.681145162272428 38.707655172399996 10.475421024372423 35.235999999999990 C10.457570365572423 35.008395418900022 10.451620145972441 34.932527225199976 10.439719706772422 34.780790837700010 Q3.645443844672427 31.309135665300005 3.687334665172414 26.267830214699984 Q8.625070303472427 8.399151195900004 6.730770311572399 2.325593930600007 Q4.808696358872424 -3.671490808300007 -0.104280293227561 -3.926864334699985 Q-0.104280293227561 -5.255036748500004 -0.104280293227561 -6.583209162300022 Q9.459144584072391 -5.444776166899999 12.156418174972401 2.092175934699981 Q14.674103965972421 8.901340625200021 11.097019091472390 26.330834596200020 Q11.049226184772436 30.375161449299981 18.164689655172396 33.970134822299997 C18.182540313972396 35.008395418900022 18.191465643372425 35.527525717199978 18.200390972772396 36.046656015400004 z" />
<glyph unicode="~" horiz-adv-x="41.301424602318022" d="M11.401399682112530 23.344197395762709 Q11.007610475137490 23.219028010759018 10.665579040090570 22.990489912382714 Q10.323547605043650 22.761951814006466 10.033273942047806 22.430045002313022 Q9.470875540910477 21.786983353879407 9.119121548598123 21.061919262248296 Q8.790756768784156 20.272709981331616 8.798113916804603 19.448104917587614 Q6.068322676928125 19.461379717572186 3.338531437214562 19.474654517556871 Q3.321268786839375 21.950508898661155 4.091736688554426 23.605557958083523 Q4.814907094618497 25.402698118870887 6.236683769870189 26.815698120793684 Q7.595955772713245 28.185842213382386 9.446823932743264 28.960645202272360 Q11.235506078724605 29.712515845854455 13.233442436592675 29.713850453123428 Q15.177484979697290 29.727974247387124 17.020060940930883 28.960645202272360 Q18.343024690378805 28.409705359387544 21.125246040489294 26.576366358970120 Q23.907467390599670 24.743027358552752 27.015575098102779 24.756854236643790 Q27.822759636238182 24.760445116772871 28.629389442926374 25.077861868600280 Q29.408433706822514 25.459098606020348 29.997515182991044 25.992014262049963 Q30.631039232293809 26.565135125636630 30.911667576440784 27.360140002114633 Q31.075849966347853 27.754744642572973 31.156101874173949 28.158198228778929 Q34.235430551953876 28.126943859591051 36.727102400464908 28.126943859591051 Q36.709520338199589 26.821958899096387 35.939052436484538 24.816501306279406 Q35.215882030420410 23.019361145492098 33.794105355168774 21.606361143569302 Q32.381797352791871 20.426907390762040 30.583965192295757 19.461414062090626 Q28.919505531999455 18.778232832246374 26.959083857936214 18.696856699992850 Q25.325135048956447 18.669965070173191 23.049578696416923 19.169230770765694 Q20.774022343877512 19.668496471358253 18.575476155692861 21.099460440009466 Q17.028265984512480 22.106490457749430 15.241383564349128 23.047478947721970 Q13.454501144185834 23.988467437694510 11.401399682112533 23.344197395762706 z" />
<glyph unicode="" horiz-adv-x="23.800000000000001" d="M7.400000000000000 0.100000000000000 C7.250000000000000 11.125000000000000 6.949999999999989 33.175000000000011 6.800000000000011 44.199999999999989 C9.074999999999989 44.199999999999989 13.625000000000000 44.199999999999989 15.899999999999977 44.199999999999989 C16.024999999999977 33.175000000000011 16.274999999999977 11.125000000000000 16.399999999999977 0.100000000000023 C14.149999999999977 0.100000000000023 9.649999999999977 0.100000000000023 7.399999999999977 0.100000000000023 zM5.400000000000000 63.399999999999999 Q5.399999999999977 66.199999999999989 7.199999999999989 67.800000000000011 Q9.000000000000000 69.399999999999977 11.199999999999989 69.399999999999977 Q13.399999999999977 69.399999999999977 15.199999999999989 67.750000000000000 Q17.000000000000000 66.100000000000023 17.000000000000000 63.199999999999989 Q17.000000000000000 60.500000000000000 15.199999999999989 59.000000000000000 Q13.399999999999977 57.500000000000000 11.199999999999989 57.500000000000000 Q9.000000000000000 57.600000000000023 7.199999999999989 59.149999999999977 Q5.399999999999977 60.699999999999989 5.399999999999977 63.399999999999977 z" />
<glyph unicode="" horiz-adv-x="60.399999999999999" d="M4.800000000000000 20.000000000000000 C17.324999999999989 20.000000000000000 42.375000000000000 20.000000000000000 54.899999999999977 20.000000000000000 C54.850000000000023 17.800000000000011 54.750000000000000 13.399999999999977 54.700000000000045 11.199999999999989 C42.174999999999955 11.199999999999989 17.125000000000000 11.199999999999989 4.600000000000023 11.199999999999989 C4.649999999999977 13.399999999999977 4.750000000000000 17.800000000000011 4.800000000000011 20.000000000000000 zM4.500000000000000 38.000000000000000 C17.024999999999977 38.000000000000000 42.075000000000045 38.000000000000000 54.600000000000023 38.000000000000000 C54.649999999999977 35.800000000000011 54.750000000000000 31.399999999999977 54.799999999999955 29.199999999999989 C42.274999999999977 29.199999999999989 17.225000000000023 29.199999999999989 4.699999999999989 29.199999999999989 C4.649999999999977 31.399999999999977 4.550000000000011 35.800000000000011 4.500000000000000 38.000000000000000 zM1.600000000000000 69.200000000000003 C4.250000000000000 69.199999999999989 9.550000000000011 69.199999999999989 12.199999999999989 69.199999999999989 C16.750000000000000 62.350000000000023 25.850000000000023 48.649999999999977 30.399999999999977 41.800000000000011 C34.850000000000023 48.649999999999977 43.750000000000000 62.350000000000023 48.200000000000045 69.199999999999989 C50.850000000000023 69.199999999999989 56.149999999999977 69.199999999999989 58.799999999999955 69.199999999999989 C52.950000000000045 60.250000000000000 41.250000000000000 42.350000000000023 35.399999999999977 33.399999999999977 C35.399999999999977 25.125000000000000 35.399999999999977 8.574999999999989 35.399999999999977 0.300000000000011 C32.750000000000000 0.224999999999966 27.450000000000045 0.074999999999989 24.799999999999955 0.000000000000000 C24.975000000000023 8.250000000000000 25.325000000000045 24.750000000000000 25.500000000000000 33.000000000000000 C25.524999999999977 33.000000000000000 25.575000000000045 33.000000000000000 25.600000000000023 33.000000000000000 C19.600000000000023 42.050000000000011 7.600000000000023 60.149999999999977 1.600000000000023 69.199999999999989 z" />
<glyph unicode="" horiz-adv-x="20.699999999999999" d="M6.300000000000000 31.500000000000000 C7.995000000000005 31.500000000000000 11.384999999999991 31.500000000000000 13.079999999999984 31.500000000000000 C13.155000000000030 23.625000000000000 13.305000000000007 7.875000000000000 13.379999999999995 0.000000000000000 C11.610000000000014 0.000000000000000 8.069999999999993 0.000000000000000 6.300000000000011 0.000000000000000 C6.300000000000011 7.875000000000000 6.300000000000011 23.625000000000000 6.300000000000011 31.500000000000000 zM6.400000000000000 69.599999999999994 C8.095000000000027 69.600000000000023 11.485000000000014 69.600000000000023 13.180000000000007 69.600000000000023 C13.154999999999973 61.875000000000000 13.105000000000018 46.425000000000011 13.079999999999984 38.699999999999989 C11.384999999999991 38.699999999999989 7.995000000000005 38.699999999999989 6.300000000000011 38.699999999999989 C6.324999999999989 46.425000000000011 6.375000000000000 61.875000000000000 6.399999999999977 69.600000000000023 z" />
<glyph unicode="" horiz-adv-x="69.5" d="M50.569327149599999 79.704507656499999 Q50.200071319199992 78.830553409999993 49.529378562399984 78.148114608000014 Q48.877916134400039 77.482111789100031 47.972985513899971 77.108166020900001 Q47.102371948800055 76.757625062499983 46.137094737100028 76.742984640200007 Q45.198655952999957 76.734238603199969 44.301203960299972 77.108166020900001 Q43.430717548999951 77.459150479799973 42.744810911900004 78.148114608000014 Q42.075175153000032 78.805509504800000 41.704862324700002 79.704507656500027 Q41.337309413400021 80.568299779299991 41.339680943999952 81.540398433299970 Q41.331311381299997 82.478477113700023 41.704862324700002 83.376289210100026 Q42.055481716899976 84.247608314999979 42.744810911900004 84.932682258599982 Q43.402250147599943 85.600788035400001 44.301203960299972 85.972630845699996 Q45.165893168200000 86.342537690600011 46.137094737100028 86.337812226399990 Q47.072655410099969 86.343305814100006 47.972985513899971 85.972630845699996 Q48.849303308199978 85.624515837199965 49.529378562399984 84.932682258599982 Q50.191446068800019 84.273336733599990 50.569327149599985 83.376289210100026 Q50.945560183199973 82.511219553599972 50.934508530199992 81.540398433299970 Q50.939028162499994 80.579515560800019 50.569327149599985 79.704507656500027 zM23.446568528899999 79.575197311699995 Q23.077312698500009 78.701243065200003 22.406619941700001 78.018804263199968 Q21.755157513699942 77.352801444299985 20.850226893199988 76.978855676100011 Q19.979613328099958 76.628314717699993 19.014336116400045 76.613674295400017 Q18.075897332299974 76.604928258399980 17.178445339599989 76.978855676100011 Q16.307958928300025 77.329840134999984 15.622052291200021 78.018804263199968 Q14.952416532299992 78.676199160000010 14.582103704000019 79.575197311699981 Q14.214550792800026 80.438989434500002 14.216922323300025 81.411088088499980 Q14.208552760700002 82.349166768899977 14.582103704000019 83.246978865299980 Q14.932723096199993 84.118297970199990 15.622052291200021 84.803371913799992 Q16.279491526900017 85.471477690600011 17.178445339599989 85.843320500900006 Q18.043134547500017 86.213227345799964 19.014336116400045 86.208501881600000 Q19.949896789399986 86.213995469300016 20.850226893199988 85.843320500900006 Q21.726544687499995 85.495205492400032 22.406619941700001 84.803371913799992 Q23.068687448100036 84.144026388800000 23.446568528900002 83.246978865299980 Q23.822801562499990 82.381909208799982 23.811749909500008 81.411088088499980 Q23.816269541800011 80.450205215999972 23.446568528900002 79.575197311699981 z" />
<glyph unicode="" horiz-adv-x="22" d="M18.863595315799998 67.749023109000007 Q18.186450476499999 66.146357533400021 16.956527746000006 64.894894794200013 Q15.761869774700017 63.673572516200011 14.102399431100025 62.987827224300020 Q12.505860028500024 62.345001894400013 10.735725534399990 62.318154149299971 Q9.014807602800033 62.302115583800003 7.369051637799998 62.987827224300020 Q5.772745411200049 63.631465849700021 4.514923322900017 64.894894794200013 Q3.286938925200047 66.100431782800001 2.607855752999967 67.749023109000007 Q1.933833742799948 69.333053285900007 1.938182677999976 71.115697005699985 Q1.922834494700055 72.835954575599999 2.607855752999967 74.482370902400021 Q3.250824915599992 76.080204130299990 4.514923322900017 77.336499217200014 Q5.720541620900008 78.561677919299996 7.369051637799998 79.243566787100008 Q8.954726897800015 79.921905463000030 10.735725534399990 79.913239862099999 Q12.451365558500015 79.923314055199967 14.102399431100025 79.243566787100008 Q15.709399302900010 78.605190186900018 16.956527746000006 77.336499217200014 Q18.170633410500045 76.127385148000030 18.863595315800012 74.482370902400021 Q19.553535016799970 72.895997972100020 19.533268390800004 71.115697005699985 Q19.541556535399991 69.353620892200013 18.863595315800012 67.749023109000007 zM16.182583713200003 71.175733483200005 Q16.194843943599949 72.252720844900011 15.777467133599998 73.212392063099969 Q15.358262050600047 74.207538156900000 14.623792721400036 74.938987836500019 Q13.869346368200013 75.706478371099990 12.897196947900056 76.092662248699980 Q11.898409300099956 76.503873179200014 10.860538367999993 76.497778828399987 Q9.783128952900029 76.503021055899978 8.823879788100044 76.092662248699980 Q7.826618938699994 75.680155764300025 7.097284014699994 74.938987836500019 Q6.332571735999977 74.178996151499973 5.943609602500032 73.212392063099969 Q5.529208188600023 72.216397784799994 5.538493022800026 71.175733483200020 Q5.535862148400042 70.097328880199996 5.943609602500032 69.139074903300013 Q6.354418790299974 68.141764866000017 7.097284014699994 67.412479129799976 Q7.858199454300006 66.648171840500027 8.823879788100044 66.258804717600015 Q9.819474582800012 65.843985659200030 10.860538367999993 65.853688137999995 Q11.931375555000045 65.869929595299993 12.897196947900056 66.258804717600015 Q13.901088211900060 66.673644133399989 14.623792721400036 67.412479129799976 Q15.367830533999950 68.169547501599993 15.777467133599998 69.139074903300013 Q16.187597599699984 70.109771187700005 16.182583713199961 71.175733483200020 z" />
<glyph unicode="" horiz-adv-x="49.5" d="M19.154290743299999 35.664121882099998 C19.154290743299953 35.664121882100005 19.154290743299953 35.664121882100005 19.154290743299953 35.664121882100005 C19.154290743299953 35.664121882100005 19.154290743299953 35.664121882100005 19.154290743299953 35.664121882100005 C19.154290743299953 35.664121882100005 19.154290743299953 35.664121882100005 19.154290743299953 35.664121882100005 C19.155925095475027 38.835446436700011 19.159193799824948 45.178095545900021 19.160828152000022 48.349420100499970 Q16.118232578499999 48.373530627499974 13.081809711199980 48.409625832448398 Q10.045386843900019 48.445721037396822 6.990445857999987 48.445862208400001 Q6.990445857999987 50.048965656699977 6.990445857999987 51.652069105000010 Q6.990445857999987 53.255172553299985 6.990445857999987 54.858276001500030 Q6.990445857999987 54.858276001500030 6.990445857999987 54.858276001500030 Q6.990445857999987 54.858276001500030 6.990445857999987 54.858276001500030 Q6.990445857999987 54.858276001500030 6.990445857999987 54.858276001500030 Q6.990445857999987 54.858276001500030 6.990445857999987 54.858276001500030 Q6.990445857999987 54.858276001500030 6.990445857999987 54.858276001500030 Q6.990445857999987 54.858276001500030 6.990445857999987 54.858276001500030 Q9.987527494599988 54.880761795799970 12.953436556200018 54.869518898649972 Q15.919345617799991 54.858276001500030 18.978772404400047 54.948219178700015 Q18.950208131799968 58.127174833699996 18.921643859200003 61.424548276999985 Q18.893079586600038 64.721921720299974 18.864515313999959 67.664041798400035 Q20.467888024999979 67.679608523799970 22.394218340700036 67.695175249149997 Q24.320548656399978 67.710741974499967 26.139226437200023 67.726308699800029 C26.190752020466675 63.431266884799982 26.255158999549963 58.062464616050022 26.293803186999980 54.841183254800001 C29.145337890074984 54.845456441474937 34.848407296224991 54.854002814825037 37.699941999299995 54.858276001500030 C37.699941999299995 53.254827725649989 37.699941999299995 50.047931173950019 37.699941999299995 48.444482898099977 C34.845379925875022 48.444614809471204 29.136255779024964 48.444878632228779 26.281693705599992 48.445010543600006 C26.325545891425008 45.256384662599999 26.413250263075042 38.879132900599984 26.457102448899946 35.690507019599977 C24.631399522500033 35.683910735225027 20.979993669699979 35.670718166475012 19.154290743299953 35.664121882100005 zM7.602793559500000 25.893581550899999 C7.602793559500014 25.893581550900024 7.602793559500014 25.893581550900024 7.602793559500014 25.893581550900024 C7.602793559500014 25.893581550900024 7.602793559500014 25.893581550900024 7.602793559500014 25.893581550900024 C7.602793559500014 25.893581550900024 7.602793559500014 25.893581550900024 7.602793559500014 25.893581550900024 C7.602793559500014 24.290478102625002 7.602793559500014 21.084271206075016 7.602793559500014 19.481167757799994 C15.280167594825002 19.480822930219631 30.634915665474978 19.480133275061405 38.312289700799965 19.479788447500027 C38.312289700799965 21.083236723350012 38.312289700799965 24.290133275049982 38.312289700799965 25.893581550900024 C30.634915665474978 25.893581550900024 15.280167594825002 25.893581550900024 7.602793559500014 25.893581550900024 z" />
<glyph unicode="" horiz-adv-x="21.077586206896555" d="M2.567528735558611 77.165678879300003 C5.370285560283612 80.971241918100020 10.975799209733630 88.582367995699997 13.778556034458582 92.387931034500014 C15.161503232733601 92.387931034500014 17.927397629283639 92.387931034500014 19.310344827558659 92.387931034500014 C19.310344827558659 91.542250359200011 19.310344827558659 89.850889008600006 19.310344827558659 89.005208333300004 C16.235991379283639 86.045325969799990 10.087284482733601 80.125561242800018 7.012931034458582 77.165678879300003 C5.901580459733630 77.165678879300003 3.678879310283612 77.165678879300003 2.567528735558660 77.165678879300003 z" />
<glyph unicode="" horiz-adv-x="40.514308390067349" d="M21.390698478067343 33.117022871700001 Q19.484532143367296 31.178475572299988 14.564874192067302 26.362569360099997 Q12.960799545967300 24.730402069700006 12.077662059767315 22.640193350000004 Q11.193459844267361 20.547464630299999 11.204269305867294 18.249351466099995 Q11.177837417067346 15.927469309199978 12.077662059767315 13.858509582299973 Q12.981428284667297 11.713069402700000 14.564874192067302 10.136133572199981 Q16.191388660167327 8.481497091599977 18.287250202167293 7.648921439899993 Q20.440541225367333 6.762389846199994 22.678092086067359 6.775528685999973 Q25.000884149867325 6.764226942899995 27.068933969867381 7.648921439899993 Q29.218933361067293 8.538246124400018 30.791309979967373 10.136133572199981 Q32.439956805367338 11.774603247400023 33.278522112267360 13.858509582299973 C34.357117538200733 12.775447264899981 35.705361820617391 11.421619368150004 36.514308390067363 10.609322630099996 Q35.203210209567324 7.351131787099973 32.625548296567281 4.789381864500001 Q30.167134971867377 2.291082318699978 26.805607531167375 0.900621771200008 Q23.572208374367342 -0.482599471000071 19.940519317467370 -0.464929177600027 Q16.442105016067394 -0.485471774400025 13.075431103567391 0.900621771200008 Q9.798548275567393 2.202355116399985 7.255490338167371 4.789381864500001 Q4.779770163467342 7.254923523999992 3.366730244767334 10.609322630099996 Q1.959852996067363 13.844144427599986 2.001179295867368 17.474410843800001 Q1.984278685567356 21.067514402299992 3.366730244767334 24.339499057699982 Q4.747517097967327 27.607543688900023 7.255490338167371 30.159439823100001 Q10.698875345167332 33.594119048300001 12.816810413967298 35.341303364800012 Q18.173883243967289 39.760604867100028 18.734126568767302 43.788144569599979 C18.777230017067332 46.676075604066682 18.831109327442341 50.285989397149990 18.863436913667393 52.451937672999975 C20.835419672267285 52.451937672999975 24.779385189467298 52.451937673100019 26.751367948067305 52.451937673100019 Q26.866423471067328 47.927572946099986 26.880678292967282 43.400213535100022 Q26.895410373567366 38.587636117600027 21.390698478067357 33.117022871699987 zM18.705589683167339 68.088553790600002 Q19.049637378367329 68.902845453800012 19.674543685167301 69.538695933800000 Q20.281532467667326 70.159232472499980 21.124685828367383 70.507649935800032 Q21.935864869867324 70.834260374600035 22.835245116967322 70.847901333399989 Q23.709619126167304 70.856050301200014 24.545804405567374 70.507649935800032 Q25.356864973667321 70.180626272899985 25.995946548767343 69.538695933800000 Q26.619868016067308 68.926179676700031 26.964900550767375 68.088553790600031 Q27.307361580667312 67.283730509299971 27.305151948367389 66.377994501999979 Q27.312950142767313 65.503956013199968 26.964900550767375 64.667435213399983 Q26.638217032467374 63.855598797500022 25.995946548767343 63.217293070200014 Q25.383388979667366 62.594797137099988 24.545804405567374 62.248339068199982 Q23.740145280867360 61.903684801599979 22.835245116967322 61.908087670600025 Q21.963552737767323 61.902969115899964 21.124685828367383 62.248339068199982 Q20.308191970667345 62.572689170600029 19.674543685167301 63.217293070200014 Q19.057673805467353 63.831626791199994 18.705589683167382 64.667435213399983 Q18.355041100167291 65.473448814499989 18.365338285567368 66.377994501999979 Q18.361127196767320 67.273280400100020 18.705589683167382 68.088553790600031 z" />
<glyph unicode="" horiz-adv-x="69.5" d="M32.899999999999999 73.099999999999994 C33.924999999999955 70.800000000000011 35.975000000000023 66.199999999999989 37.000000000000000 63.899999999999977 C44.075000000000045 47.949999999999989 58.225000000000023 16.050000000000011 65.299999999999955 0.100000000000023 C62.924999999999955 0.100000000000023 58.174999999999955 0.100000000000023 55.799999999999955 0.100000000000023 C53.649999999999977 4.649999999999977 49.350000000000023 13.750000000000000 47.200000000000045 18.300000000000011 C40.325000000000045 18.300000000000011 26.575000000000045 18.300000000000011 19.700000000000045 18.300000000000011 C17.674999999999955 13.750000000000000 13.625000000000000 4.649999999999977 11.600000000000023 0.100000000000023 C9.225000000000023 0.100000000000023 4.475000000000023 0.100000000000023 2.100000000000023 0.100000000000023 C9.050000000000011 16.475000000000023 22.950000000000045 49.225000000000023 29.899999999999977 65.600000000000023 C30.649999999999977 67.475000000000023 32.149999999999977 71.225000000000023 32.899999999999977 73.100000000000023 zM43.399999999999999 26.600000000000001 C40.799999999999955 32.800000000000011 35.600000000000023 45.199999999999989 33.000000000000000 51.399999999999977 C30.575000000000045 45.199999999999989 25.725000000000023 32.800000000000011 23.299999999999955 26.600000000000023 C28.325000000000045 26.600000000000023 38.375000000000000 26.600000000000023 43.399999999999977 26.600000000000023 zM31.960372091699998 78.073276651300006 C28.886018643425018 81.033159014799992 22.737311746874980 86.952923741800021 19.662958298599960 89.912806105299978 C19.662958298599960 90.758486780600037 19.662958298599960 92.449848131199985 19.662958298599960 93.295528806499988 C21.045905496874980 93.295528806499988 23.811799893425018 93.295528806499988 25.194747091700037 93.295528806499988 C27.997503916424989 89.489965767700028 33.603017565875007 81.878839690099994 36.405774390599959 78.073276651300034 C35.294423815875007 78.073276651300034 33.071722666424989 78.073276651300034 31.960372091700037 78.073276651300034 z" />
<glyph unicode="" horiz-adv-x="69.5" d="M32.899999999999999 73.099999999999994 C33.924999999999955 70.800000000000011 35.975000000000023 66.199999999999989 37.000000000000000 63.899999999999977 C44.075000000000045 47.949999999999989 58.225000000000023 16.050000000000011 65.299999999999955 0.100000000000023 C62.924999999999955 0.100000000000023 58.174999999999955 0.100000000000023 55.799999999999955 0.100000000000023 C53.649999999999977 4.649999999999977 49.350000000000023 13.750000000000000 47.200000000000045 18.300000000000011 C40.325000000000045 18.300000000000011 26.575000000000045 18.300000000000011 19.700000000000045 18.300000000000011 C17.674999999999955 13.750000000000000 13.625000000000000 4.649999999999977 11.600000000000023 0.100000000000023 C9.225000000000023 0.100000000000023 4.475000000000023 0.100000000000023 2.100000000000023 0.100000000000023 C9.050000000000011 16.475000000000023 22.950000000000045 49.225000000000023 29.899999999999977 65.600000000000023 C30.649999999999977 67.475000000000023 32.149999999999977 71.225000000000023 32.899999999999977 73.100000000000023 zM43.399999999999999 26.600000000000001 C40.799999999999955 32.800000000000011 35.600000000000023 45.199999999999989 33.000000000000000 51.399999999999977 C30.575000000000045 45.199999999999989 25.725000000000023 32.800000000000011 23.299999999999955 26.600000000000023 C28.325000000000045 26.600000000000023 38.375000000000000 26.600000000000023 43.399999999999977 26.600000000000023 zM28.386494252799999 77.165678879300003 C31.189251077525000 80.971241918100020 36.794764726975018 88.582367995699997 39.597521551699970 92.387931034500014 C40.980468749974989 92.387931034500014 43.746363146525027 92.387931034500014 45.129310344800047 92.387931034500014 C45.129310344800047 91.542250359200011 45.129310344800047 89.850889008600006 45.129310344800047 89.005208333300004 C42.054956896525027 86.045325969799990 35.906249999974989 80.125561242800018 32.831896551699970 77.165678879300003 C31.720545976975018 77.165678879300003 29.497844827525000 77.165678879300003 28.386494252800048 77.165678879300003 z" />
<glyph unicode="" horiz-adv-x="71.300000000000011" d="M21.034482758599999 78.000000000000000 C23.534482758600028 80.500000000000000 28.534482758600028 85.500000000000000 31.034482758600028 88.000000000000000 C31.534482758600028 88.000000000000000 32.534482758600028 88.000000000000000 33.034482758600028 88.000000000000000 Q37.034482758600028 84.000000000000000 43.034482758600028 78.000000000000000 C41.034482758600028 78.000000000000000 38.534482758600028 78.000000000000000 37.034482758600028 78.000000000000000 C35.784482758600028 79.250000000000000 33.284482758600028 81.750000000000000 32.034482758600028 83.000000000000000 Q30.034482758600028 81.000000000000000 27.034482758600028 78.000000000000000 C25.034482758600028 78.000000000000000 22.534482758600028 78.000000000000000 21.034482758600028 78.000000000000000 zM31.799999999999997 73.099999999999994 C39.899999999999999 54.850000000000023 56.100000000000044 18.350000000000023 64.199999999999960 0.100000000000023 C61.824999999999953 0.100000000000023 57.074999999999953 0.100000000000023 54.699999999999953 0.100000000000023 C52.549999999999976 4.649999999999977 48.250000000000021 13.750000000000000 46.100000000000044 18.300000000000011 C39.225000000000044 18.300000000000011 25.475000000000044 18.300000000000011 18.600000000000044 18.300000000000011 C16.574999999999953 13.750000000000000 12.525000000000000 4.649999999999977 10.500000000000023 0.100000000000023 C8.125000000000023 0.100000000000023 3.375000000000023 0.100000000000023 1.000000000000023 0.100000000000023 C8.700000000000012 18.350000000000023 24.100000000000044 54.850000000000023 31.799999999999976 73.100000000000023 zM42.299999999999997 26.600000000000001 C39.699999999999953 32.800000000000011 34.500000000000021 45.199999999999989 31.899999999999999 51.399999999999977 C29.475000000000044 45.199999999999989 24.625000000000021 32.800000000000011 22.199999999999953 26.600000000000023 C27.225000000000044 26.600000000000023 37.274999999999999 26.600000000000023 42.299999999999976 26.600000000000023 z" />
<glyph unicode="" horiz-adv-x="67.400000000000006" d="M32.899999999999999 73.099999999999994 C33.924999999999955 70.800000000000011 35.975000000000023 66.199999999999989 37.000000000000000 63.899999999999977 C44.075000000000045 47.949999999999989 58.225000000000023 16.050000000000011 65.299999999999955 0.100000000000023 C62.924999999999955 0.100000000000023 58.174999999999955 0.100000000000023 55.799999999999955 0.100000000000023 C53.649999999999977 4.649999999999977 49.350000000000023 13.750000000000000 47.200000000000045 18.300000000000011 C40.325000000000045 18.300000000000011 26.575000000000045 18.300000000000011 19.700000000000045 18.300000000000011 C17.674999999999955 13.750000000000000 13.625000000000000 4.649999999999977 11.600000000000023 0.100000000000023 C9.225000000000023 0.100000000000023 4.475000000000023 0.100000000000023 2.100000000000023 0.100000000000023 C9.050000000000011 16.475000000000023 22.950000000000045 49.225000000000023 29.899999999999977 65.600000000000023 C30.649999999999977 67.475000000000023 32.149999999999977 71.225000000000023 32.899999999999977 73.100000000000023 zM43.399999999999999 26.600000000000001 C40.799999999999955 32.800000000000011 35.600000000000023 45.199999999999989 33.000000000000000 51.399999999999977 C30.575000000000045 45.199999999999989 25.725000000000023 32.800000000000011 23.299999999999955 26.600000000000023 C28.325000000000045 26.600000000000023 38.375000000000000 26.600000000000023 43.399999999999977 26.600000000000023 zM27.251035004529271 82.181785563782654 Q27.009335964929278 82.104959384682672 26.799404692310418 81.964687792899156 Q26.589473419691558 81.824416201115639 26.411309914129220 81.620699196682665 Q26.066122308629247 81.226002287582673 25.850223547029259 80.780974106282656 Q25.648680562829213 80.296575037282651 25.653196216329320 79.790450825582639 Q23.977711187029286 79.798598601982633 22.302226157829296 79.806746378382627 Q22.291630727729284 81.326370622782633 22.764526755829252 82.342202852482671 Q23.208392635129258 83.445247433682653 24.081047473929289 84.312515345982661 Q24.915338337729281 85.153479256182663 26.051359967529265 85.629036064182628 Q27.149213207729304 86.090517509682854 28.375502019929286 86.091336661882679 Q29.568712009657816 86.100005532051171 30.699644072629326 85.629036064182628 Q31.511649739629320 85.290881466382643 33.219315202179359 84.165618844113339 Q34.926980664729399 83.040356221844036 36.834667911029328 83.048842851482675 Q37.330099792329293 83.051046853682692 37.825191191829276 83.245870182282658 Q38.303351199910708 83.479864795803167 38.664916282229228 83.806956549382676 Q39.053759225529234 84.158725363382644 39.226002649329303 84.646681639782628 Q39.326774141429269 84.888881174282687 39.376030974029277 85.136511994482646 Q41.266054293229217 85.117328759182669 42.795386946629264 85.117328759182669 Q42.784595468629277 84.316358072182652 42.311699440529310 83.085452893582669 Q41.867833561229304 81.982408312382631 40.995178722429273 81.115140400082623 Q40.128335544029255 80.391217970882622 39.024866228829296 79.798619681882656 Q38.003257982029254 79.379298267782644 36.799994846729305 79.329351411282687 Q35.797113480529333 79.312845928182639 34.400427702395973 79.619284089008318 Q33.003741924262613 79.925722249833939 31.654323268829216 80.804016044582681 Q30.704680145529323 81.422108627682633 29.607931536929300 81.999666392782615 Q28.511182928329276 82.577224157882654 27.251035004529285 82.181785563782682 z" />
</font>
</defs>
</svg>
